<?xml version="1.0" encoding="UTF-8" standalone="no"?>
<!DOCTYPE svg PUBLIC "-//W3C//DTD SVG 1.1//EN"
 "http://www.w3.org/Graphics/SVG/1.1/DTD/svg11.dtd">
<!-- Generated by graphviz version 2.38.0 (20140413.2041)
 -->
<!-- Title: onReloadCurrentCustomShaderButtonClicked Pages: 1 -->
<svg width="344pt" height="39pt"
 viewBox="0.00 0.00 344.00 39.00" xmlns="http://www.w3.org/2000/svg" xmlns:xlink="http://www.w3.org/1999/xlink">
<g id="graph0" class="graph" transform="scale(1 1) rotate(0) translate(4 35)">
<title>onReloadCurrentCustomShaderButtonClicked</title>
<!-- Node1 -->
<g id="node1" class="node"><title>Node1</title>
<g id="a_node1"><a xlink:title="Function to reload the current custom shader.">
<polygon fill="#bfbfbf" stroke="black" points="0,-0.5 0,-30.5 153,-30.5 153,-0.5 0,-0.5"/>
<text text-anchor="start" x="8" y="-18.5" font-family="Helvetica,sans-Serif" font-size="10.00">onReloadCurrentCustomShader</text>
<text text-anchor="middle" x="76.5" y="-7.5" font-family="Helvetica,sans-Serif" font-size="10.00">ButtonClicked</text>
</a>
</g>
</g>
<!-- Node2 -->
<g id="node2" class="node"><title>Node2</title>
<g id="a_node2"><a xlink:href="class_slicer_p_r_i_s_m_1_1_p_r_i_s_m_1_1_p_r_i_s_m_widget.html#a1ba3668a0c21b14d86ad81f50450d03b" target="_top" xlink:title="Function to get a selected shader file path.">
<polygon fill="none" stroke="black" points="189,-6 189,-25 239,-25 239,-6 189,-6"/>
<text text-anchor="middle" x="214" y="-13" font-family="Helvetica,sans-Serif" font-size="10.00">getPath</text>
</a>
</g>
</g>
<!-- Node1&#45;&gt;Node2 -->
<g id="edge1" class="edge"><title>Node1&#45;&gt;Node2</title>
<path fill="none" stroke="midnightblue" d="M153.173,-15.5C162.092,-15.5 170.825,-15.5 178.743,-15.5"/>
<polygon fill="midnightblue" stroke="midnightblue" points="178.975,-19.0001 188.975,-15.5 178.975,-12.0001 178.975,-19.0001"/>
</g>
<!-- Node3 -->
<g id="node3" class="node"><title>Node3</title>
<g id="a_node3"><a xlink:href="class_slicer_p_r_i_s_m_1_1_p_r_i_s_m_1_1_p_r_i_s_m_widget.html#af7406c9a5d8910debb54a749fa9462e9" target="_top" xlink:title="Function to get the module&#39;s path.">
<polygon fill="none" stroke="black" points="275,-6 275,-25 336,-25 336,-6 275,-6"/>
<text text-anchor="middle" x="305.5" y="-13" font-family="Helvetica,sans-Serif" font-size="10.00">prismPath</text>
</a>
</g>
</g>
<!-- Node2&#45;&gt;Node3 -->
<g id="edge2" class="edge"><title>Node2&#45;&gt;Node3</title>
<path fill="none" stroke="midnightblue" d="M239.456,-15.5C247.257,-15.5 256.101,-15.5 264.699,-15.5"/>
<polygon fill="midnightblue" stroke="midnightblue" points="264.977,-19.0001 274.977,-15.5 264.977,-12.0001 264.977,-19.0001"/>
</g>
</g>
</svg>
