<?xml version="1.0" encoding="UTF-8" standalone="no"?>
<!DOCTYPE svg PUBLIC "-//W3C//DTD SVG 1.1//EN"
 "http://www.w3.org/Graphics/SVG/1.1/DTD/svg11.dtd">
<!-- Generated by graphviz version 2.38.0 (20140413.2041)
 -->
<!-- Title: OutlineShader Pages: 1 -->
<svg width="257pt" height="618pt"
 viewBox="0.00 0.00 256.58 618.00" xmlns="http://www.w3.org/2000/svg" xmlns:xlink="http://www.w3.org/1999/xlink">
<g id="graph0" class="graph" transform="scale(1 1) rotate(0) translate(4 614)">
<title>OutlineShader</title>
<!-- Node1 -->
<g id="node1" class="node"><title>Node1</title>
<g id="a_node1"><a xlink:title=" ">
<polygon fill="#bfbfbf" stroke="black" points="4.57832,-0.5 4.57832,-79.5 109.578,-79.5 109.578,-0.5 4.57832,-0.5"/>
<text text-anchor="middle" x="57.0783" y="-67.5" font-family="Helvetica,sans-Serif" font-size="10.00">OutlineShader</text>
<polyline fill="none" stroke="black" points="4.57832,-60.5 109.578,-60.5 "/>
<text text-anchor="middle" x="57.0783" y="-48.5" font-family="Helvetica,sans-Serif" font-size="10.00"> </text>
<polyline fill="none" stroke="black" points="4.57832,-41.5 109.578,-41.5 "/>
<text text-anchor="start" x="12.5783" y="-29.5" font-family="Helvetica,sans-Serif" font-size="10.00">+ __init__()</text>
<text text-anchor="start" x="12.5783" y="-18.5" font-family="Helvetica,sans-Serif" font-size="10.00">+ GetDisplayName()</text>
<text text-anchor="start" x="12.5783" y="-7.5" font-family="Helvetica,sans-Serif" font-size="10.00">+ setupShader()</text>
</a>
</g>
</g>
<!-- Node2 -->
<g id="node2" class="node"><title>Node2</title>
<g id="a_node2"><a xlink:href="class_slicer_p_r_i_s_m_1_1_resources_1_1_custom_shader_1_1_custom_shader.html" target="_top" xlink:title=" ">
<polygon fill="none" stroke="black" points="103.578,-117.5 103.578,-438.5 248.578,-438.5 248.578,-117.5 103.578,-117.5"/>
<text text-anchor="middle" x="176.078" y="-426.5" font-family="Helvetica,sans-Serif" font-size="10.00">CustomShader</text>
<polyline fill="none" stroke="black" points="103.578,-419.5 248.578,-419.5 "/>
<text text-anchor="start" x="111.578" y="-407.5" font-family="Helvetica,sans-Serif" font-size="10.00">+ shaderPropertyNode</text>
<text text-anchor="start" x="111.578" y="-396.5" font-family="Helvetica,sans-Serif" font-size="10.00">+ shaderProperty</text>
<text text-anchor="start" x="111.578" y="-385.5" font-family="Helvetica,sans-Serif" font-size="10.00">+ shaderUniforms</text>
<text text-anchor="start" x="111.578" y="-374.5" font-family="Helvetica,sans-Serif" font-size="10.00">+ paramfValues</text>
<text text-anchor="start" x="111.578" y="-363.5" font-family="Helvetica,sans-Serif" font-size="10.00">+ paramiValues</text>
<text text-anchor="start" x="111.578" y="-352.5" font-family="Helvetica,sans-Serif" font-size="10.00">+ param4fValues</text>
<text text-anchor="start" x="111.578" y="-341.5" font-family="Helvetica,sans-Serif" font-size="10.00">+ parambValues</text>
<text text-anchor="start" x="111.578" y="-330.5" font-family="Helvetica,sans-Serif" font-size="10.00">+ paramrValues</text>
<text text-anchor="start" x="111.578" y="-319.5" font-family="Helvetica,sans-Serif" font-size="10.00">+ paramtfValues</text>
<text text-anchor="start" x="111.578" y="-308.5" font-family="Helvetica,sans-Serif" font-size="10.00">+ paramvValues</text>
<text text-anchor="start" x="111.578" y="-297.5" font-family="Helvetica,sans-Serif" font-size="10.00">+ allClasses</text>
<polyline fill="none" stroke="black" points="103.578,-290.5 248.578,-290.5 "/>
<text text-anchor="start" x="111.578" y="-278.5" font-family="Helvetica,sans-Serif" font-size="10.00">+ __init__()</text>
<text text-anchor="start" x="111.578" y="-267.5" font-family="Helvetica,sans-Serif" font-size="10.00">+ InstanciateCustomShader()</text>
<text text-anchor="start" x="111.578" y="-256.5" font-family="Helvetica,sans-Serif" font-size="10.00">+ GetAllShaderClassNames()</text>
<text text-anchor="start" x="111.578" y="-245.5" font-family="Helvetica,sans-Serif" font-size="10.00">+ GetDisplayName()</text>
<text text-anchor="start" x="111.578" y="-234.5" font-family="Helvetica,sans-Serif" font-size="10.00">+ GetClassName()</text>
<text text-anchor="start" x="111.578" y="-223.5" font-family="Helvetica,sans-Serif" font-size="10.00">+ GetClass()</text>
<text text-anchor="start" x="111.578" y="-212.5" font-family="Helvetica,sans-Serif" font-size="10.00">+ hasShaderParameter()</text>
<text text-anchor="start" x="111.578" y="-201.5" font-family="Helvetica,sans-Serif" font-size="10.00">+ getParameterNames()</text>
<text text-anchor="start" x="111.578" y="-190.5" font-family="Helvetica,sans-Serif" font-size="10.00">+ getShaderPropertyNode()</text>
<text text-anchor="start" x="111.578" y="-179.5" font-family="Helvetica,sans-Serif" font-size="10.00">+ setupShader()</text>
<text text-anchor="start" x="111.578" y="-168.5" font-family="Helvetica,sans-Serif" font-size="10.00">+ setPathEnds()</text>
<text text-anchor="start" x="111.578" y="-157.5" font-family="Helvetica,sans-Serif" font-size="10.00">+ setAllUniforms()</text>
<text text-anchor="start" x="111.578" y="-146.5" font-family="Helvetica,sans-Serif" font-size="10.00">+ setShaderParameter()</text>
<text text-anchor="start" x="111.578" y="-135.5" font-family="Helvetica,sans-Serif" font-size="10.00">+ getShaderParameter()</text>
<text text-anchor="start" x="111.578" y="-124.5" font-family="Helvetica,sans-Serif" font-size="10.00">+ clear()</text>
</a>
</g>
</g>
<!-- Node2&#45;&gt;Node1 -->
<g id="edge1" class="edge"><title>Node2&#45;&gt;Node1</title>
<path fill="none" stroke="midnightblue" d="M98.8419,-123.825C90.6707,-107.62 82.9907,-92.3893 76.4999,-79.5168"/>
<polygon fill="none" stroke="midnightblue" points="95.8,-125.566 103.428,-132.92 102.05,-122.415 95.8,-125.566"/>
</g>
<!-- Node3 -->
<g id="node3" class="node"><title>Node3</title>
<g id="a_node3"><a xlink:title=" ">
<polygon fill="none" stroke="#bfbfbf" points="29.5783,-552.5 29.5783,-609.5 88.5783,-609.5 88.5783,-552.5 29.5783,-552.5"/>
<text text-anchor="middle" x="59.0783" y="-597.5" font-family="Helvetica,sans-Serif" font-size="10.00">dictionary</text>
<polyline fill="none" stroke="#bfbfbf" points="29.5783,-590.5 88.5783,-590.5 "/>
<text text-anchor="middle" x="59.0783" y="-578.5" font-family="Helvetica,sans-Serif" font-size="10.00"> </text>
<polyline fill="none" stroke="#bfbfbf" points="29.5783,-571.5 88.5783,-571.5 "/>
<text text-anchor="middle" x="59.0783" y="-559.5" font-family="Helvetica,sans-Serif" font-size="10.00"> </text>
</a>
</g>
</g>
<!-- Node3&#45;&gt;Node1 -->
<g id="edge3" class="edge"><title>Node3&#45;&gt;Node1</title>
<path fill="none" stroke="#404040" d="M49.0446,-552.375C39.4125,-524.279 25.5447,-479.268 20.0783,-439 0.827646,-297.19 -12.0645,-256.455 20.0783,-117 22.118,-108.151 25.3336,-99.1388 29.0374,-90.5599"/>
<polygon fill="none" stroke="#404040" points="29.0802,-90.4675 27.9764,-83.3414 34.1299,-79.5817 35.2337,-86.7078 29.0802,-90.4675"/>
<text text-anchor="middle" x="57.5783" y="-275.5" font-family="Helvetica,sans-Serif" font-size="10.00"> +shaderfParams</text>
</g>
<!-- Node3&#45;&gt;Node2 -->
<g id="edge2" class="edge"><title>Node3&#45;&gt;Node2</title>
<path fill="none" stroke="#404040" d="M69.7715,-552.49C79.285,-528.015 94.0649,-489.992 109.61,-450"/>
<polygon fill="none" stroke="#404040" points="109.663,-449.863 108.109,-442.821 114.011,-438.678 115.565,-445.72 109.663,-449.863"/>
<text text-anchor="middle" x="142.078" y="-526" font-family="Helvetica,sans-Serif" font-size="10.00"> +shaderbParams</text>
<text text-anchor="middle" x="142.078" y="-515" font-family="Helvetica,sans-Serif" font-size="10.00">+shadervParams</text>
<text text-anchor="middle" x="142.078" y="-504" font-family="Helvetica,sans-Serif" font-size="10.00">+shaderfParams</text>
<text text-anchor="middle" x="142.078" y="-493" font-family="Helvetica,sans-Serif" font-size="10.00">+shadertfParams</text>
<text text-anchor="middle" x="142.078" y="-482" font-family="Helvetica,sans-Serif" font-size="10.00">+shaderiParams</text>
<text text-anchor="middle" x="142.078" y="-471" font-family="Helvetica,sans-Serif" font-size="10.00">+shader4fParams</text>
<text text-anchor="middle" x="142.078" y="-460" font-family="Helvetica,sans-Serif" font-size="10.00">+shaderrParams</text>
</g>
</g>
</svg>
