<?xml version="1.0" encoding="UTF-8" standalone="no"?>
<!DOCTYPE svg PUBLIC "-//W3C//DTD SVG 1.1//EN"
 "http://www.w3.org/Graphics/SVG/1.1/DTD/svg11.dtd">
<!-- Generated by graphviz version 2.38.0 (20140413.2041)
 -->
<!-- Title: onAddPointsComboChanged Pages: 1 -->
<svg width="466pt" height="104pt"
 viewBox="0.00 0.00 466.00 104.00" xmlns="http://www.w3.org/2000/svg" xmlns:xlink="http://www.w3.org/1999/xlink">
<g id="graph0" class="graph" transform="scale(1 1) rotate(0) translate(4 100)">
<title>onAddPointsComboChanged</title>
<!-- Node1 -->
<g id="node1" class="node"><title>Node1</title>
<g id="a_node1"><a xlink:title="Function to hide/show the points related widgets.">
<polygon fill="#bfbfbf" stroke="black" points="0,-38.5 0,-57.5 141,-57.5 141,-38.5 0,-38.5"/>
<text text-anchor="middle" x="70.5" y="-45.5" font-family="Helvetica,sans-Serif" font-size="10.00">onAddPointsComboChanged</text>
</a>
</g>
</g>
<!-- Node2 -->
<g id="node2" class="node"><title>Node2</title>
<g id="a_node2"><a xlink:href="class_slicer_p_r_i_s_m_1_1_p_r_i_s_m_1_1_p_r_i_s_m_widget.html#a645a019fd9d617af14565ec9d4333dbd" target="_top" xlink:title="Sets the current parameter type according to the combobox input.">
<polygon fill="none" stroke="black" points="177,-38.5 177,-57.5 342,-57.5 342,-38.5 177,-38.5"/>
<text text-anchor="middle" x="259.5" y="-45.5" font-family="Helvetica,sans-Serif" font-size="10.00">onAddParamComboIndexChanged</text>
</a>
</g>
</g>
<!-- Node1&#45;&gt;Node2 -->
<g id="edge1" class="edge"><title>Node1&#45;&gt;Node2</title>
<path fill="none" stroke="midnightblue" d="M141.132,-48C149.491,-48 158.123,-48 166.735,-48"/>
<polygon fill="midnightblue" stroke="midnightblue" points="166.819,-51.5001 176.819,-48 166.819,-44.5001 166.819,-51.5001"/>
</g>
<!-- Node3 -->
<g id="node3" class="node"><title>Node3</title>
<g id="a_node3"><a xlink:href="class_slicer_p_r_i_s_m_1_1_p_r_i_s_m_1_1_p_r_i_s_m_widget.html#adfb7a3a22452b635bb615e4750c2bf29" target="_top" xlink:title="Function to get the class name of a widget.">
<polygon fill="none" stroke="black" points="378,-76.5 378,-95.5 458,-95.5 458,-76.5 378,-76.5"/>
<text text-anchor="middle" x="418" y="-83.5" font-family="Helvetica,sans-Serif" font-size="10.00">getClassName</text>
</a>
</g>
</g>
<!-- Node2&#45;&gt;Node3 -->
<g id="edge2" class="edge"><title>Node2&#45;&gt;Node3</title>
<path fill="none" stroke="midnightblue" d="M299.992,-57.589C320.643,-62.6035 346.114,-68.7881 368.012,-74.1053"/>
<polygon fill="midnightblue" stroke="midnightblue" points="367.249,-77.5215 377.792,-76.4799 368.901,-70.7191 367.249,-77.5215"/>
</g>
<!-- Node4 -->
<g id="node4" class="node"><title>Node4</title>
<g id="a_node4"><a xlink:href="class_slicer_p_r_i_s_m_1_1_p_r_i_s_m_1_1_p_r_i_s_m_widget.html#a09c30f6796c372b242ca908731f4aa1c" target="_top" xlink:title="Function to clear the widgets of a specific layout.">
<polygon fill="none" stroke="black" points="386,-38.5 386,-57.5 450,-57.5 450,-38.5 386,-38.5"/>
<text text-anchor="middle" x="418" y="-45.5" font-family="Helvetica,sans-Serif" font-size="10.00">hideLayout</text>
</a>
</g>
</g>
<!-- Node2&#45;&gt;Node4 -->
<g id="edge3" class="edge"><title>Node2&#45;&gt;Node4</title>
<path fill="none" stroke="midnightblue" d="M342.417,-48C353.943,-48 365.364,-48 375.674,-48"/>
<polygon fill="midnightblue" stroke="midnightblue" points="375.975,-51.5001 385.975,-48 375.975,-44.5001 375.975,-51.5001"/>
</g>
<!-- Node5 -->
<g id="node5" class="node"><title>Node5</title>
<g id="a_node5"><a xlink:href="class_slicer_p_r_i_s_m_1_1_p_r_i_s_m_1_1_p_r_i_s_m_widget.html#a7ee7b1fc1343a8a2914eb4e0d72668f5" target="_top" xlink:title="Function to show specific widgets of a layout.">
<polygon fill="none" stroke="black" points="384,-0.5 384,-19.5 452,-19.5 452,-0.5 384,-0.5"/>
<text text-anchor="middle" x="418" y="-7.5" font-family="Helvetica,sans-Serif" font-size="10.00">showLayout</text>
</a>
</g>
</g>
<!-- Node2&#45;&gt;Node5 -->
<g id="edge4" class="edge"><title>Node2&#45;&gt;Node5</title>
<path fill="none" stroke="midnightblue" d="M299.992,-38.411C322.551,-32.9334 350.86,-26.0597 373.981,-20.4454"/>
<polygon fill="midnightblue" stroke="midnightblue" points="374.978,-23.8051 383.87,-18.0443 373.327,-17.0028 374.978,-23.8051"/>
</g>
</g>
</svg>
