<?xml version="1.0" encoding="UTF-8" standalone="no"?>
<!DOCTYPE svg PUBLIC "-//W3C//DTD SVG 1.1//EN"
 "http://www.w3.org/Graphics/SVG/1.1/DTD/svg11.dtd">
<!-- Generated by graphviz version 2.38.0 (20140413.2041)
 -->
<!-- Title: CustomShader Pages: 1 -->
<svg width="761pt" height="589pt"
 viewBox="0.00 0.00 760.50 589.00" xmlns="http://www.w3.org/2000/svg" xmlns:xlink="http://www.w3.org/1999/xlink">
<g id="graph0" class="graph" transform="scale(1 1) rotate(0) translate(4 585)">
<title>CustomShader</title>
<!-- Node1 -->
<g id="node1" class="node"><title>Node1</title>
<g id="a_node1"><a xlink:title=" ">
<polygon fill="#bfbfbf" stroke="black" points="295,-182.5 295,-580.5 440,-580.5 440,-182.5 295,-182.5"/>
<text text-anchor="middle" x="367.5" y="-568.5" font-family="Helvetica,sans-Serif" font-size="10.00">CustomShader</text>
<polyline fill="none" stroke="black" points="295,-561.5 440,-561.5 "/>
<text text-anchor="start" x="303" y="-549.5" font-family="Helvetica,sans-Serif" font-size="10.00">+ shaderPropertyNode</text>
<text text-anchor="start" x="303" y="-538.5" font-family="Helvetica,sans-Serif" font-size="10.00">+ shaderProperty</text>
<text text-anchor="start" x="303" y="-527.5" font-family="Helvetica,sans-Serif" font-size="10.00">+ shaderUniforms</text>
<text text-anchor="start" x="303" y="-516.5" font-family="Helvetica,sans-Serif" font-size="10.00">+ paramfValues</text>
<text text-anchor="start" x="303" y="-505.5" font-family="Helvetica,sans-Serif" font-size="10.00">+ paramiValues</text>
<text text-anchor="start" x="303" y="-494.5" font-family="Helvetica,sans-Serif" font-size="10.00">+ param4fValues</text>
<text text-anchor="start" x="303" y="-483.5" font-family="Helvetica,sans-Serif" font-size="10.00">+ parambValues</text>
<text text-anchor="start" x="303" y="-472.5" font-family="Helvetica,sans-Serif" font-size="10.00">+ paramrValues</text>
<text text-anchor="start" x="303" y="-461.5" font-family="Helvetica,sans-Serif" font-size="10.00">+ paramtfValues</text>
<text text-anchor="start" x="303" y="-450.5" font-family="Helvetica,sans-Serif" font-size="10.00">+ paramvValues</text>
<text text-anchor="start" x="303" y="-439.5" font-family="Helvetica,sans-Serif" font-size="10.00">+ allClasses</text>
<text text-anchor="start" x="303" y="-428.5" font-family="Helvetica,sans-Serif" font-size="10.00">+ shaderfParams</text>
<text text-anchor="start" x="303" y="-417.5" font-family="Helvetica,sans-Serif" font-size="10.00">+ shaderiParams</text>
<text text-anchor="start" x="303" y="-406.5" font-family="Helvetica,sans-Serif" font-size="10.00">+ shader4fParams</text>
<text text-anchor="start" x="303" y="-395.5" font-family="Helvetica,sans-Serif" font-size="10.00">+ shaderbParams</text>
<text text-anchor="start" x="303" y="-384.5" font-family="Helvetica,sans-Serif" font-size="10.00">+ shaderrParams</text>
<text text-anchor="start" x="303" y="-373.5" font-family="Helvetica,sans-Serif" font-size="10.00">+ shadertfParams</text>
<text text-anchor="start" x="303" y="-362.5" font-family="Helvetica,sans-Serif" font-size="10.00">+ shadervParams</text>
<polyline fill="none" stroke="black" points="295,-355.5 440,-355.5 "/>
<text text-anchor="start" x="303" y="-343.5" font-family="Helvetica,sans-Serif" font-size="10.00">+ __init__()</text>
<text text-anchor="start" x="303" y="-332.5" font-family="Helvetica,sans-Serif" font-size="10.00">+ InstanciateCustomShader()</text>
<text text-anchor="start" x="303" y="-321.5" font-family="Helvetica,sans-Serif" font-size="10.00">+ GetAllShaderClassNames()</text>
<text text-anchor="start" x="303" y="-310.5" font-family="Helvetica,sans-Serif" font-size="10.00">+ GetDisplayName()</text>
<text text-anchor="start" x="303" y="-299.5" font-family="Helvetica,sans-Serif" font-size="10.00">+ GetClassName()</text>
<text text-anchor="start" x="303" y="-288.5" font-family="Helvetica,sans-Serif" font-size="10.00">+ GetClass()</text>
<text text-anchor="start" x="303" y="-277.5" font-family="Helvetica,sans-Serif" font-size="10.00">+ hasShaderParameter()</text>
<text text-anchor="start" x="303" y="-266.5" font-family="Helvetica,sans-Serif" font-size="10.00">+ getParameterNames()</text>
<text text-anchor="start" x="303" y="-255.5" font-family="Helvetica,sans-Serif" font-size="10.00">+ getShaderPropertyNode()</text>
<text text-anchor="start" x="303" y="-244.5" font-family="Helvetica,sans-Serif" font-size="10.00">+ setupShader()</text>
<text text-anchor="start" x="303" y="-233.5" font-family="Helvetica,sans-Serif" font-size="10.00">+ setPathEnds()</text>
<text text-anchor="start" x="303" y="-222.5" font-family="Helvetica,sans-Serif" font-size="10.00">+ setAllUniforms()</text>
<text text-anchor="start" x="303" y="-211.5" font-family="Helvetica,sans-Serif" font-size="10.00">+ setShaderParameter()</text>
<text text-anchor="start" x="303" y="-200.5" font-family="Helvetica,sans-Serif" font-size="10.00">+ getShaderParameter()</text>
<text text-anchor="start" x="303" y="-189.5" font-family="Helvetica,sans-Serif" font-size="10.00">+ clear()</text>
</a>
</g>
</g>
<!-- Node2 -->
<g id="node2" class="node"><title>Node2</title>
<g id="a_node2"><a xlink:href="class_slicer_p_r_i_s_m_1_1_resources_1_1_shaders_1_1_chroma_depth_shader_1_1_chroma_depth_shader.html" target="_top" xlink:title=" ">
<polygon fill="none" stroke="black" points="0,-22.5 0,-123.5 107,-123.5 107,-22.5 0,-22.5"/>
<text text-anchor="middle" x="53.5" y="-111.5" font-family="Helvetica,sans-Serif" font-size="10.00">ChromaDepthShader</text>
<polyline fill="none" stroke="black" points="0,-104.5 107,-104.5 "/>
<text text-anchor="start" x="8" y="-92.5" font-family="Helvetica,sans-Serif" font-size="10.00">+ shaderrParams</text>
<text text-anchor="start" x="8" y="-81.5" font-family="Helvetica,sans-Serif" font-size="10.00">+ shadertfParams</text>
<polyline fill="none" stroke="black" points="0,-74.5 107,-74.5 "/>
<text text-anchor="start" x="8" y="-62.5" font-family="Helvetica,sans-Serif" font-size="10.00">+ __init__()</text>
<text text-anchor="start" x="8" y="-51.5" font-family="Helvetica,sans-Serif" font-size="10.00">+ GetDisplayName()</text>
<text text-anchor="start" x="8" y="-40.5" font-family="Helvetica,sans-Serif" font-size="10.00">+ getVolumeRange()</text>
<text text-anchor="start" x="8" y="-29.5" font-family="Helvetica,sans-Serif" font-size="10.00">+ setupShader()</text>
</a>
</g>
</g>
<!-- Node1&#45;&gt;Node2 -->
<g id="edge1" class="edge"><title>Node1&#45;&gt;Node2</title>
<path fill="none" stroke="midnightblue" d="M287.233,-309.951C236.638,-264.484 170.678,-203.346 115.5,-146 108.752,-138.987 101.821,-131.382 95.1502,-123.83"/>
<polygon fill="none" stroke="midnightblue" points="285.118,-312.756 294.9,-316.827 289.792,-307.545 285.118,-312.756"/>
</g>
<!-- Node3 -->
<g id="node3" class="node"><title>Node3</title>
<g id="a_node3"><a xlink:href="class_slicer_p_r_i_s_m_1_1_resources_1_1_shaders_1_1_decluttering_1_1_decluttering.html" target="_top" xlink:title=" ">
<polygon fill="none" stroke="black" points="125,-0.5 125,-145.5 230,-145.5 230,-0.5 125,-0.5"/>
<text text-anchor="middle" x="177.5" y="-133.5" font-family="Helvetica,sans-Serif" font-size="10.00">Decluttering</text>
<polyline fill="none" stroke="black" points="125,-126.5 230,-126.5 "/>
<text text-anchor="start" x="133" y="-114.5" font-family="Helvetica,sans-Serif" font-size="10.00">+ shaderfParams</text>
<text text-anchor="start" x="133" y="-103.5" font-family="Helvetica,sans-Serif" font-size="10.00">+ shaderiParams</text>
<text text-anchor="start" x="133" y="-92.5" font-family="Helvetica,sans-Serif" font-size="10.00">+ shader4fParams</text>
<text text-anchor="start" x="133" y="-81.5" font-family="Helvetica,sans-Serif" font-size="10.00">+ shaderbParams</text>
<text text-anchor="start" x="133" y="-70.5" font-family="Helvetica,sans-Serif" font-size="10.00">+ shaderrParams</text>
<text text-anchor="start" x="133" y="-59.5" font-family="Helvetica,sans-Serif" font-size="10.00">+ shadertfParams</text>
<text text-anchor="start" x="133" y="-48.5" font-family="Helvetica,sans-Serif" font-size="10.00">+ shadervParams</text>
<polyline fill="none" stroke="black" points="125,-41.5 230,-41.5 "/>
<text text-anchor="start" x="133" y="-29.5" font-family="Helvetica,sans-Serif" font-size="10.00">+ __init__()</text>
<text text-anchor="start" x="133" y="-18.5" font-family="Helvetica,sans-Serif" font-size="10.00">+ GetDisplayName()</text>
<text text-anchor="start" x="133" y="-7.5" font-family="Helvetica,sans-Serif" font-size="10.00">+ setupShader()</text>
</a>
</g>
</g>
<!-- Node1&#45;&gt;Node3 -->
<g id="edge2" class="edge"><title>Node1&#45;&gt;Node3</title>
<path fill="none" stroke="midnightblue" d="M289.366,-254.457C266.418,-217.438 242.113,-178.231 222.042,-145.853"/>
<polygon fill="none" stroke="midnightblue" points="286.612,-256.658 294.856,-263.314 292.562,-252.97 286.612,-256.658"/>
</g>
<!-- Node4 -->
<g id="node4" class="node"><title>Node4</title>
<g id="a_node4"><a xlink:href="class_slicer_p_r_i_s_m_1_1_resources_1_1_shaders_1_1_opacity_peeling_shader_1_1_opacity_peeling_shader.html" target="_top" xlink:title=" ">
<polygon fill="none" stroke="black" points="248,-17 248,-129 361,-129 361,-17 248,-17"/>
<text text-anchor="middle" x="304.5" y="-117" font-family="Helvetica,sans-Serif" font-size="10.00">OpacityPeelingShader</text>
<polyline fill="none" stroke="black" points="248,-110 361,-110 "/>
<text text-anchor="start" x="256" y="-98" font-family="Helvetica,sans-Serif" font-size="10.00">+ shaderfParams</text>
<text text-anchor="start" x="256" y="-87" font-family="Helvetica,sans-Serif" font-size="10.00">+ shaderiParams</text>
<text text-anchor="start" x="256" y="-76" font-family="Helvetica,sans-Serif" font-size="10.00">+ shaderbParams</text>
<text text-anchor="start" x="256" y="-65" font-family="Helvetica,sans-Serif" font-size="10.00">+ shader4fParams</text>
<polyline fill="none" stroke="black" points="248,-58 361,-58 "/>
<text text-anchor="start" x="256" y="-46" font-family="Helvetica,sans-Serif" font-size="10.00">+ __init__()</text>
<text text-anchor="start" x="256" y="-35" font-family="Helvetica,sans-Serif" font-size="10.00">+ GetDisplayName()</text>
<text text-anchor="start" x="256" y="-24" font-family="Helvetica,sans-Serif" font-size="10.00">+ setupShader()</text>
</a>
</g>
</g>
<!-- Node1&#45;&gt;Node4 -->
<g id="edge3" class="edge"><title>Node1&#45;&gt;Node4</title>
<path fill="none" stroke="midnightblue" d="M324.777,-172.648C321.562,-157.009 318.527,-142.243 315.832,-129.13"/>
<polygon fill="none" stroke="midnightblue" points="321.358,-173.401 326.8,-182.492 328.215,-171.992 321.358,-173.401"/>
</g>
<!-- Node5 -->
<g id="node5" class="node"><title>Node5</title>
<g id="a_node5"><a xlink:href="class_slicer_p_r_i_s_m_1_1_resources_1_1_shaders_1_1_outline_shader_1_1_outline_shader.html" target="_top" xlink:title=" ">
<polygon fill="none" stroke="black" points="379,-33.5 379,-112.5 484,-112.5 484,-33.5 379,-33.5"/>
<text text-anchor="middle" x="431.5" y="-100.5" font-family="Helvetica,sans-Serif" font-size="10.00">OutlineShader</text>
<polyline fill="none" stroke="black" points="379,-93.5 484,-93.5 "/>
<text text-anchor="start" x="387" y="-81.5" font-family="Helvetica,sans-Serif" font-size="10.00">+ shaderfParams</text>
<polyline fill="none" stroke="black" points="379,-74.5 484,-74.5 "/>
<text text-anchor="start" x="387" y="-62.5" font-family="Helvetica,sans-Serif" font-size="10.00">+ __init__()</text>
<text text-anchor="start" x="387" y="-51.5" font-family="Helvetica,sans-Serif" font-size="10.00">+ GetDisplayName()</text>
<text text-anchor="start" x="387" y="-40.5" font-family="Helvetica,sans-Serif" font-size="10.00">+ setupShader()</text>
</a>
</g>
</g>
<!-- Node1&#45;&gt;Node5 -->
<g id="edge4" class="edge"><title>Node1&#45;&gt;Node5</title>
<path fill="none" stroke="midnightblue" d="M410.95,-172.415C415.637,-149.968 419.947,-129.329 423.396,-112.811"/>
<polygon fill="none" stroke="midnightblue" points="407.464,-171.987 408.846,-182.492 414.316,-173.418 407.464,-171.987"/>
</g>
<!-- Node6 -->
<g id="node6" class="node"><title>Node6</title>
<g id="a_node6"><a xlink:href="class_slicer_p_r_i_s_m_1_1_resources_1_1_shaders_1_1_plane_intersecting_shader_1_1_plane_intersecting_shader.html" target="_top" xlink:title=" ">
<polygon fill="none" stroke="black" points="502.5,-22.5 502.5,-123.5 624.5,-123.5 624.5,-22.5 502.5,-22.5"/>
<text text-anchor="middle" x="563.5" y="-111.5" font-family="Helvetica,sans-Serif" font-size="10.00">PlaneIntersectingShader</text>
<polyline fill="none" stroke="black" points="502.5,-104.5 624.5,-104.5 "/>
<text text-anchor="start" x="510.5" y="-92.5" font-family="Helvetica,sans-Serif" font-size="10.00">+ shaderfParams</text>
<text text-anchor="start" x="510.5" y="-81.5" font-family="Helvetica,sans-Serif" font-size="10.00">+ shader4fParams</text>
<text text-anchor="start" x="510.5" y="-70.5" font-family="Helvetica,sans-Serif" font-size="10.00">+ shaderbParams</text>
<polyline fill="none" stroke="black" points="502.5,-63.5 624.5,-63.5 "/>
<text text-anchor="start" x="510.5" y="-51.5" font-family="Helvetica,sans-Serif" font-size="10.00">+ __init__()</text>
<text text-anchor="start" x="510.5" y="-40.5" font-family="Helvetica,sans-Serif" font-size="10.00">+ GetDisplayName()</text>
<text text-anchor="start" x="510.5" y="-29.5" font-family="Helvetica,sans-Serif" font-size="10.00">+ setupShader()</text>
</a>
</g>
</g>
<!-- Node1&#45;&gt;Node6 -->
<g id="edge5" class="edge"><title>Node1&#45;&gt;Node6</title>
<path fill="none" stroke="midnightblue" d="M445.775,-258.096C475.781,-211.172 508.362,-160.224 531.625,-123.846"/>
<polygon fill="none" stroke="midnightblue" points="442.643,-256.496 440.205,-266.806 448.541,-260.267 442.643,-256.496"/>
</g>
<!-- Node7 -->
<g id="node7" class="node"><title>Node7</title>
<g id="a_node7"><a xlink:href="class_slicer_p_r_i_s_m_1_1_resources_1_1_shaders_1_1_sphere_carving_shader_1_1_sphere_carving_shader.html" target="_top" xlink:title=" ">
<polygon fill="none" stroke="black" points="642.5,-28 642.5,-118 752.5,-118 752.5,-28 642.5,-28"/>
<text text-anchor="middle" x="697.5" y="-106" font-family="Helvetica,sans-Serif" font-size="10.00">SphereCarvingShader</text>
<polyline fill="none" stroke="black" points="642.5,-99 752.5,-99 "/>
<text text-anchor="start" x="650.5" y="-87" font-family="Helvetica,sans-Serif" font-size="10.00">+ shaderfParams</text>
<text text-anchor="start" x="650.5" y="-76" font-family="Helvetica,sans-Serif" font-size="10.00">+ shader4fParams</text>
<polyline fill="none" stroke="black" points="642.5,-69 752.5,-69 "/>
<text text-anchor="start" x="650.5" y="-57" font-family="Helvetica,sans-Serif" font-size="10.00">+ __init__()</text>
<text text-anchor="start" x="650.5" y="-46" font-family="Helvetica,sans-Serif" font-size="10.00">+ GetDisplayName()</text>
<text text-anchor="start" x="650.5" y="-35" font-family="Helvetica,sans-Serif" font-size="10.00">+ setupShader()</text>
</a>
</g>
</g>
<!-- Node1&#45;&gt;Node7 -->
<g id="edge6" class="edge"><title>Node1&#45;&gt;Node7</title>
<path fill="none" stroke="midnightblue" d="M448.024,-313.95C501.999,-268.283 573.838,-205.418 633.5,-146 642.269,-137.267 651.316,-127.566 659.748,-118.188"/>
<polygon fill="none" stroke="midnightblue" points="445.577,-311.435 440.194,-320.561 450.093,-316.784 445.577,-311.435"/>
</g>
</g>
</svg>
