<?xml version="1.0" encoding="UTF-8" standalone="no"?>
<!DOCTYPE svg PUBLIC "-//W3C//DTD SVG 1.1//EN"
 "http://www.w3.org/Graphics/SVG/1.1/DTD/svg11.dtd">
<!-- Generated by graphviz version 2.38.0 (20140413.2041)
 -->
<!-- Title: onReload Pages: 1 -->
<svg width="248pt" height="47pt"
 viewBox="0.00 0.00 248.00 47.00" xmlns="http://www.w3.org/2000/svg" xmlns:xlink="http://www.w3.org/1999/xlink">
<g id="graph0" class="graph" transform="scale(1 1) rotate(0) translate(4 43)">
<title>onReload</title>
<!-- Node1 -->
<g id="node1" class="node"><title>Node1</title>
<g id="a_node1"><a xlink:title="Reload the modules.">
<polygon fill="#bfbfbf" stroke="black" points="0,-0.5 0,-19.5 57,-19.5 57,-0.5 0,-0.5"/>
<text text-anchor="middle" x="28.5" y="-7.5" font-family="Helvetica,sans-Serif" font-size="10.00">onReload</text>
</a>
</g>
</g>
<!-- Node2 -->
<g id="node2" class="node"><title>Node2</title>
<g id="a_node2"><a xlink:href="class_slicer_p_r_i_s_m_1_1_p_r_i_s_m_1_1_p_r_i_s_m_widget.html#a1ba3668a0c21b14d86ad81f50450d03b" target="_top" xlink:title="Function to get a selected shader file path.">
<polygon fill="none" stroke="black" points="93,-19.5 93,-38.5 143,-38.5 143,-19.5 93,-19.5"/>
<text text-anchor="middle" x="118" y="-26.5" font-family="Helvetica,sans-Serif" font-size="10.00">getPath</text>
</a>
</g>
</g>
<!-- Node1&#45;&gt;Node2 -->
<g id="edge1" class="edge"><title>Node1&#45;&gt;Node2</title>
<path fill="none" stroke="midnightblue" d="M57.1855,-16.0117C65.3012,-17.774 74.2734,-19.7222 82.7463,-21.562"/>
<polygon fill="midnightblue" stroke="midnightblue" points="82.2276,-25.0309 92.7426,-23.7327 83.713,-18.1903 82.2276,-25.0309"/>
</g>
<!-- Node3 -->
<g id="node3" class="node"><title>Node3</title>
<g id="a_node3"><a xlink:href="class_slicer_p_r_i_s_m_1_1_p_r_i_s_m_1_1_p_r_i_s_m_widget.html#af7406c9a5d8910debb54a749fa9462e9" target="_top" xlink:title="Function to get the module&#39;s path.">
<polygon fill="none" stroke="black" points="179,-0.5 179,-19.5 240,-19.5 240,-0.5 179,-0.5"/>
<text text-anchor="middle" x="209.5" y="-7.5" font-family="Helvetica,sans-Serif" font-size="10.00">prismPath</text>
</a>
</g>
</g>
<!-- Node1&#45;&gt;Node3 -->
<g id="edge3" class="edge"><title>Node1&#45;&gt;Node3</title>
<path fill="none" stroke="midnightblue" d="M57.0765,-10C86.9382,-10 134.839,-10 168.761,-10"/>
<polygon fill="midnightblue" stroke="midnightblue" points="168.804,-13.5001 178.804,-10 168.804,-6.5001 168.804,-13.5001"/>
</g>
<!-- Node2&#45;&gt;Node3 -->
<g id="edge2" class="edge"><title>Node2&#45;&gt;Node3</title>
<path fill="none" stroke="midnightblue" d="M143.456,-23.8082C151.343,-22.134 160.296,-20.2333 168.982,-18.3892"/>
<polygon fill="midnightblue" stroke="midnightblue" points="169.922,-21.7678 178.977,-16.2674 168.468,-14.9204 169.922,-21.7678"/>
</g>
</g>
</svg>
