<?xml version="1.0" encoding="UTF-8" standalone="no"?>
<!DOCTYPE svg PUBLIC "-//W3C//DTD SVG 1.1//EN"
 "http://www.w3.org/Graphics/SVG/1.1/DTD/svg11.dtd">
<!-- Generated by graphviz version 2.38.0 (20140413.2041)
 -->
<!-- Title: addTransferFunctions Pages: 1 -->
<svg width="604pt" height="66pt"
 viewBox="0.00 0.00 604.00 66.00" xmlns="http://www.w3.org/2000/svg" xmlns:xlink="http://www.w3.org/1999/xlink">
<g id="graph0" class="graph" transform="scale(1 1) rotate(0) translate(4 62)">
<title>addTransferFunctions</title>
<!-- Node1 -->
<g id="node1" class="node"><title>Node1</title>
<g id="a_node1"><a xlink:title="Function to add transfer function widgets to the ui.">
<polygon fill="#bfbfbf" stroke="black" points="0,-19.5 0,-38.5 110,-38.5 110,-19.5 0,-19.5"/>
<text text-anchor="middle" x="55" y="-26.5" font-family="Helvetica,sans-Serif" font-size="10.00">addTransferFunctions</text>
</a>
</g>
</g>
<!-- Node2 -->
<g id="node2" class="node"><title>Node2</title>
<g id="a_node2"><a xlink:href="class_slicer_p_r_i_s_m_1_1_p_r_i_s_m_1_1_p_r_i_s_m_widget.html#adc9c6622ed17fd138cccbdc9c82c1498" target="_top" xlink:title="Function to create a transfert fuction widget.">
<polygon fill="none" stroke="black" points="146,-19.5 146,-38.5 292,-38.5 292,-19.5 146,-19.5"/>
<text text-anchor="middle" x="219" y="-26.5" font-family="Helvetica,sans-Serif" font-size="10.00">createTransferFunctionWidget</text>
</a>
</g>
</g>
<!-- Node1&#45;&gt;Node2 -->
<g id="edge1" class="edge"><title>Node1&#45;&gt;Node2</title>
<path fill="none" stroke="midnightblue" d="M110.394,-29C118.587,-29 127.187,-29 135.806,-29"/>
<polygon fill="midnightblue" stroke="midnightblue" points="135.909,-32.5001 145.909,-29 135.909,-25.5001 135.909,-32.5001"/>
</g>
<!-- Node3 -->
<g id="node3" class="node"><title>Node3</title>
<g id="a_node3"><a xlink:href="class_slicer_p_r_i_s_m_1_1_p_r_i_s_m_1_1_p_r_i_s_m_widget.html#a050018ff82526951ddafef689bb131cf" target="_top" xlink:title="Function to add a widget to self.widgets without duplicate.">
<polygon fill="none" stroke="black" points="372,-38.5 372,-57.5 436,-57.5 436,-38.5 372,-38.5"/>
<text text-anchor="middle" x="404" y="-45.5" font-family="Helvetica,sans-Serif" font-size="10.00">appendList</text>
</a>
</g>
</g>
<!-- Node2&#45;&gt;Node3 -->
<g id="edge2" class="edge"><title>Node2&#45;&gt;Node3</title>
<path fill="none" stroke="midnightblue" d="M292.064,-36.482C315.679,-38.9339 341.106,-41.5739 361.651,-43.707"/>
<polygon fill="midnightblue" stroke="midnightblue" points="361.306,-47.1899 371.614,-44.7414 362.029,-40.2273 361.306,-47.1899"/>
</g>
<!-- Node4 -->
<g id="node4" class="node"><title>Node4</title>
<g id="a_node4"><a xlink:href="class_slicer_p_r_i_s_m_1_1_p_r_i_s_m_1_1_p_r_i_s_m_widget.html#a9c2580701ccfac91074c348bf51d8353" target="_top" xlink:title="Function to update the parameter node from gui values.">
<polygon fill="none" stroke="black" points="328,-0.5 328,-19.5 480,-19.5 480,-0.5 328,-0.5"/>
<text text-anchor="middle" x="404" y="-7.5" font-family="Helvetica,sans-Serif" font-size="10.00">updateParameterNodeFromGUI</text>
</a>
</g>
</g>
<!-- Node2&#45;&gt;Node4 -->
<g id="edge3" class="edge"><title>Node2&#45;&gt;Node4</title>
<path fill="none" stroke="midnightblue" d="M292.064,-21.518C300.547,-20.6372 309.263,-19.7322 317.903,-18.8352"/>
<polygon fill="midnightblue" stroke="midnightblue" points="318.407,-22.3017 327.992,-17.7877 317.684,-15.3392 318.407,-22.3017"/>
</g>
<!-- Node5 -->
<g id="node5" class="node"><title>Node5</title>
<g id="a_node5"><a xlink:href="class_slicer_p_r_i_s_m_1_1_p_r_i_s_m_1_1_p_r_i_s_m_widget.html#adfb7a3a22452b635bb615e4750c2bf29" target="_top" xlink:title="Function to get the class name of a widget.">
<polygon fill="none" stroke="black" points="516,-0.5 516,-19.5 596,-19.5 596,-0.5 516,-0.5"/>
<text text-anchor="middle" x="556" y="-7.5" font-family="Helvetica,sans-Serif" font-size="10.00">getClassName</text>
</a>
</g>
</g>
<!-- Node4&#45;&gt;Node5 -->
<g id="edge4" class="edge"><title>Node4&#45;&gt;Node5</title>
<path fill="none" stroke="midnightblue" d="M480.439,-10C489.057,-10 497.667,-10 505.815,-10"/>
<polygon fill="midnightblue" stroke="midnightblue" points="505.853,-13.5001 515.852,-10 505.852,-6.5001 505.853,-13.5001"/>
</g>
</g>
</svg>
