<?xml version="1.0" encoding="UTF-8" standalone="no"?>
<!DOCTYPE svg PUBLIC "-//W3C//DTD SVG 1.1//EN"
 "http://www.w3.org/Graphics/SVG/1.1/DTD/svg11.dtd">
<!-- Generated by graphviz version 2.38.0 (20140413.2041)
 -->
<!-- Title: setVRActive Pages: 1 -->
<svg width="415pt" height="214pt"
 viewBox="0.00 0.00 415.00 214.00" xmlns="http://www.w3.org/2000/svg" xmlns:xlink="http://www.w3.org/1999/xlink">
<g id="graph0" class="graph" transform="scale(1 1) rotate(0) translate(4 210)">
<title>setVRActive</title>
<!-- Node1 -->
<g id="node1" class="node"><title>Node1</title>
<g id="a_node1"><a xlink:title=" ">
<polygon fill="#bfbfbf" stroke="black" points="0,-93.5 0,-112.5 70,-112.5 70,-93.5 0,-93.5"/>
<text text-anchor="middle" x="35" y="-100.5" font-family="Helvetica,sans-Serif" font-size="10.00">setVRActive</text>
</a>
</g>
</g>
<!-- Node2 -->
<g id="node2" class="node"><title>Node2</title>
<g id="a_node2"><a xlink:href="class_slicer_p_r_i_s_m_1_1_resources_1_1_virtual_reality_helper_1_1_virtual_reality_helper.html#a064c2b5b13886bf746ece6a475332c01" target="_top" xlink:title=" ">
<polygon fill="none" stroke="black" points="107.5,-186.5 107.5,-205.5 235.5,-205.5 235.5,-186.5 107.5,-186.5"/>
<text text-anchor="middle" x="171.5" y="-193.5" font-family="Helvetica,sans-Serif" font-size="10.00">initDelayedVRParameters</text>
</a>
</g>
</g>
<!-- Node1&#45;&gt;Node2 -->
<g id="edge1" class="edge"><title>Node1&#45;&gt;Node2</title>
<path fill="none" stroke="midnightblue" d="M42.5484,-112.717C53.7102,-128.536 77.9547,-159.812 106,-177 109.429,-179.102 113.104,-180.982 116.895,-182.662"/>
<polygon fill="midnightblue" stroke="midnightblue" points="115.901,-186.032 126.488,-186.438 118.465,-179.518 115.901,-186.032"/>
</g>
<!-- Node3 -->
<g id="node3" class="node"><title>Node3</title>
<g id="a_node3"><a xlink:href="class_slicer_p_r_i_s_m_1_1_resources_1_1_virtual_reality_helper_1_1_virtual_reality_helper.html#a0060df9f780f7d1aaff8467f262abf2f" target="_top" xlink:title=" ">
<polygon fill="none" stroke="black" points="109.5,-137 109.5,-167 233.5,-167 233.5,-137 109.5,-137"/>
<text text-anchor="start" x="117.5" y="-155" font-family="Helvetica,sans-Serif" font-size="10.00">onLeftControllerTrackpad</text>
<text text-anchor="middle" x="171.5" y="-144" font-family="Helvetica,sans-Serif" font-size="10.00">Pressed</text>
</a>
</g>
</g>
<!-- Node1&#45;&gt;Node3 -->
<g id="edge2" class="edge"><title>Node1&#45;&gt;Node3</title>
<path fill="none" stroke="midnightblue" d="M62.2522,-112.564C78.6112,-118.524 100.204,-126.39 119.798,-133.529"/>
<polygon fill="midnightblue" stroke="midnightblue" points="118.631,-136.828 129.225,-136.963 121.027,-130.251 118.631,-136.828"/>
</g>
<!-- Node4 -->
<g id="node4" class="node"><title>Node4</title>
<g id="a_node4"><a xlink:href="class_slicer_p_r_i_s_m_1_1_resources_1_1_virtual_reality_helper_1_1_virtual_reality_helper.html#a0bd1b38023504d8476e81ddd0783fa4e" target="_top" xlink:title=" ">
<polygon fill="none" stroke="black" points="109.5,-88 109.5,-118 233.5,-118 233.5,-88 109.5,-88"/>
<text text-anchor="start" x="117.5" y="-106" font-family="Helvetica,sans-Serif" font-size="10.00">onLeftControllerTrackpad</text>
<text text-anchor="middle" x="171.5" y="-95" font-family="Helvetica,sans-Serif" font-size="10.00">Released</text>
</a>
</g>
</g>
<!-- Node1&#45;&gt;Node4 -->
<g id="edge3" class="edge"><title>Node1&#45;&gt;Node4</title>
<path fill="none" stroke="midnightblue" d="M70.288,-103C79.219,-103 89.1805,-103 99.2618,-103"/>
<polygon fill="midnightblue" stroke="midnightblue" points="99.3495,-106.5 109.349,-103 99.3494,-99.5001 99.3495,-106.5"/>
</g>
<!-- Node5 -->
<g id="node5" class="node"><title>Node5</title>
<g id="a_node5"><a xlink:href="class_slicer_p_r_i_s_m_1_1_resources_1_1_virtual_reality_helper_1_1_virtual_reality_helper.html#a779a7dfa32c0029594ed9a85e752d112" target="_top" xlink:title=" ">
<polygon fill="none" stroke="black" points="106,-39 106,-69 237,-69 237,-39 106,-39"/>
<text text-anchor="start" x="114" y="-57" font-family="Helvetica,sans-Serif" font-size="10.00">onRightControllerTrackpad</text>
<text text-anchor="middle" x="171.5" y="-46" font-family="Helvetica,sans-Serif" font-size="10.00">Pressed</text>
</a>
</g>
</g>
<!-- Node1&#45;&gt;Node5 -->
<g id="edge4" class="edge"><title>Node1&#45;&gt;Node5</title>
<path fill="none" stroke="midnightblue" d="M62.2522,-93.436C78.6112,-87.4762 100.204,-79.6097 119.798,-72.4713"/>
<polygon fill="midnightblue" stroke="midnightblue" points="121.027,-75.7486 129.225,-69.037 118.631,-69.1715 121.027,-75.7486"/>
</g>
<!-- Node7 -->
<g id="node7" class="node"><title>Node7</title>
<g id="a_node7"><a xlink:href="class_slicer_p_r_i_s_m_1_1_resources_1_1_virtual_reality_helper_1_1_virtual_reality_helper.html#a6ca5aa021e4adce518853f54aa38518a" target="_top" xlink:title=" ">
<polygon fill="none" stroke="black" points="110,-0.5 110,-19.5 233,-19.5 233,-0.5 110,-0.5"/>
<text text-anchor="middle" x="171.5" y="-7.5" font-family="Helvetica,sans-Serif" font-size="10.00">setVRBackgroundColors</text>
</a>
</g>
</g>
<!-- Node1&#45;&gt;Node7 -->
<g id="edge6" class="edge"><title>Node1&#45;&gt;Node7</title>
<path fill="none" stroke="midnightblue" d="M42.6073,-93.4617C53.8539,-77.9253 78.2175,-47.1687 106,-30 110.086,-27.475 114.516,-25.246 119.075,-23.2829"/>
<polygon fill="midnightblue" stroke="midnightblue" points="120.484,-26.4906 128.547,-19.6171 117.958,-19.9625 120.484,-26.4906"/>
</g>
<!-- Node6 -->
<g id="node6" class="node"><title>Node6</title>
<g id="a_node6"><a xlink:href="class_slicer_p_r_i_s_m_1_1_resources_1_1_virtual_reality_helper_1_1_virtual_reality_helper.html#a59c43d0b9bd4a0712e89fa2ed3c8848b" target="_top" xlink:title=" ">
<polygon fill="none" stroke="black" points="273,-44.5 273,-63.5 407,-63.5 407,-44.5 273,-44.5"/>
<text text-anchor="middle" x="340" y="-51.5" font-family="Helvetica,sans-Serif" font-size="10.00">bringWorldToVRControllers</text>
</a>
</g>
</g>
<!-- Node5&#45;&gt;Node6 -->
<g id="edge5" class="edge"><title>Node5&#45;&gt;Node6</title>
<path fill="none" stroke="midnightblue" d="M237.35,-54C245.659,-54 254.226,-54 262.696,-54"/>
<polygon fill="midnightblue" stroke="midnightblue" points="262.956,-57.5001 272.956,-54 262.956,-50.5001 262.956,-57.5001"/>
</g>
</g>
</svg>
