<?xml version="1.0" encoding="UTF-8" standalone="no"?>
<!DOCTYPE svg PUBLIC "-//W3C//DTD SVG 1.1//EN"
 "http://www.w3.org/Graphics/SVG/1.1/DTD/svg11.dtd">
<!-- Generated by graphviz version 2.38.0 (20140413.2041)
 -->
<!-- Title: SphereCarvingShader Pages: 1 -->
<svg width="259pt" height="618pt"
 viewBox="0.00 0.00 259.05 618.00" xmlns="http://www.w3.org/2000/svg" xmlns:xlink="http://www.w3.org/1999/xlink">
<g id="graph0" class="graph" transform="scale(1 1) rotate(0) translate(4 614)">
<title>SphereCarvingShader</title>
<!-- Node1 -->
<g id="node1" class="node"><title>Node1</title>
<g id="a_node1"><a xlink:title=" ">
<polygon fill="#bfbfbf" stroke="black" points="3.5466,-0.5 3.5466,-79.5 113.547,-79.5 113.547,-0.5 3.5466,-0.5"/>
<text text-anchor="middle" x="58.5466" y="-67.5" font-family="Helvetica,sans-Serif" font-size="10.00">SphereCarvingShader</text>
<polyline fill="none" stroke="black" points="3.5466,-60.5 113.547,-60.5 "/>
<text text-anchor="middle" x="58.5466" y="-48.5" font-family="Helvetica,sans-Serif" font-size="10.00"> </text>
<polyline fill="none" stroke="black" points="3.5466,-41.5 113.547,-41.5 "/>
<text text-anchor="start" x="11.5466" y="-29.5" font-family="Helvetica,sans-Serif" font-size="10.00">+ __init__()</text>
<text text-anchor="start" x="11.5466" y="-18.5" font-family="Helvetica,sans-Serif" font-size="10.00">+ GetDisplayName()</text>
<text text-anchor="start" x="11.5466" y="-7.5" font-family="Helvetica,sans-Serif" font-size="10.00">+ setupShader()</text>
</a>
</g>
</g>
<!-- Node2 -->
<g id="node2" class="node"><title>Node2</title>
<g id="a_node2"><a xlink:href="class_slicer_p_r_i_s_m_1_1_resources_1_1_custom_shader_1_1_custom_shader.html" target="_top" xlink:title=" ">
<polygon fill="none" stroke="black" points="106.047,-117.5 106.047,-438.5 251.047,-438.5 251.047,-117.5 106.047,-117.5"/>
<text text-anchor="middle" x="178.547" y="-426.5" font-family="Helvetica,sans-Serif" font-size="10.00">CustomShader</text>
<polyline fill="none" stroke="black" points="106.047,-419.5 251.047,-419.5 "/>
<text text-anchor="start" x="114.047" y="-407.5" font-family="Helvetica,sans-Serif" font-size="10.00">+ shaderPropertyNode</text>
<text text-anchor="start" x="114.047" y="-396.5" font-family="Helvetica,sans-Serif" font-size="10.00">+ shaderProperty</text>
<text text-anchor="start" x="114.047" y="-385.5" font-family="Helvetica,sans-Serif" font-size="10.00">+ shaderUniforms</text>
<text text-anchor="start" x="114.047" y="-374.5" font-family="Helvetica,sans-Serif" font-size="10.00">+ paramfValues</text>
<text text-anchor="start" x="114.047" y="-363.5" font-family="Helvetica,sans-Serif" font-size="10.00">+ paramiValues</text>
<text text-anchor="start" x="114.047" y="-352.5" font-family="Helvetica,sans-Serif" font-size="10.00">+ param4fValues</text>
<text text-anchor="start" x="114.047" y="-341.5" font-family="Helvetica,sans-Serif" font-size="10.00">+ parambValues</text>
<text text-anchor="start" x="114.047" y="-330.5" font-family="Helvetica,sans-Serif" font-size="10.00">+ paramrValues</text>
<text text-anchor="start" x="114.047" y="-319.5" font-family="Helvetica,sans-Serif" font-size="10.00">+ paramtfValues</text>
<text text-anchor="start" x="114.047" y="-308.5" font-family="Helvetica,sans-Serif" font-size="10.00">+ paramvValues</text>
<text text-anchor="start" x="114.047" y="-297.5" font-family="Helvetica,sans-Serif" font-size="10.00">+ allClasses</text>
<polyline fill="none" stroke="black" points="106.047,-290.5 251.047,-290.5 "/>
<text text-anchor="start" x="114.047" y="-278.5" font-family="Helvetica,sans-Serif" font-size="10.00">+ __init__()</text>
<text text-anchor="start" x="114.047" y="-267.5" font-family="Helvetica,sans-Serif" font-size="10.00">+ InstanciateCustomShader()</text>
<text text-anchor="start" x="114.047" y="-256.5" font-family="Helvetica,sans-Serif" font-size="10.00">+ GetAllShaderClassNames()</text>
<text text-anchor="start" x="114.047" y="-245.5" font-family="Helvetica,sans-Serif" font-size="10.00">+ GetDisplayName()</text>
<text text-anchor="start" x="114.047" y="-234.5" font-family="Helvetica,sans-Serif" font-size="10.00">+ GetClassName()</text>
<text text-anchor="start" x="114.047" y="-223.5" font-family="Helvetica,sans-Serif" font-size="10.00">+ GetClass()</text>
<text text-anchor="start" x="114.047" y="-212.5" font-family="Helvetica,sans-Serif" font-size="10.00">+ hasShaderParameter()</text>
<text text-anchor="start" x="114.047" y="-201.5" font-family="Helvetica,sans-Serif" font-size="10.00">+ getParameterNames()</text>
<text text-anchor="start" x="114.047" y="-190.5" font-family="Helvetica,sans-Serif" font-size="10.00">+ getShaderPropertyNode()</text>
<text text-anchor="start" x="114.047" y="-179.5" font-family="Helvetica,sans-Serif" font-size="10.00">+ setupShader()</text>
<text text-anchor="start" x="114.047" y="-168.5" font-family="Helvetica,sans-Serif" font-size="10.00">+ setPathEnds()</text>
<text text-anchor="start" x="114.047" y="-157.5" font-family="Helvetica,sans-Serif" font-size="10.00">+ setAllUniforms()</text>
<text text-anchor="start" x="114.047" y="-146.5" font-family="Helvetica,sans-Serif" font-size="10.00">+ setShaderParameter()</text>
<text text-anchor="start" x="114.047" y="-135.5" font-family="Helvetica,sans-Serif" font-size="10.00">+ getShaderParameter()</text>
<text text-anchor="start" x="114.047" y="-124.5" font-family="Helvetica,sans-Serif" font-size="10.00">+ clear()</text>
</a>
</g>
</g>
<!-- Node2&#45;&gt;Node1 -->
<g id="edge1" class="edge"><title>Node2&#45;&gt;Node1</title>
<path fill="none" stroke="midnightblue" d="M101.249,-124.982C92.8287,-108.422 84.9052,-92.8386 78.2236,-79.6981"/>
<polygon fill="none" stroke="midnightblue" points="98.3214,-126.946 105.974,-134.273 104.561,-123.773 98.3214,-126.946"/>
</g>
<!-- Node3 -->
<g id="node3" class="node"><title>Node3</title>
<g id="a_node3"><a xlink:title=" ">
<polygon fill="none" stroke="#bfbfbf" points="31.0466,-552.5 31.0466,-609.5 90.0466,-609.5 90.0466,-552.5 31.0466,-552.5"/>
<text text-anchor="middle" x="60.5466" y="-597.5" font-family="Helvetica,sans-Serif" font-size="10.00">dictionary</text>
<polyline fill="none" stroke="#bfbfbf" points="31.0466,-590.5 90.0466,-590.5 "/>
<text text-anchor="middle" x="60.5466" y="-578.5" font-family="Helvetica,sans-Serif" font-size="10.00"> </text>
<polyline fill="none" stroke="#bfbfbf" points="31.0466,-571.5 90.0466,-571.5 "/>
<text text-anchor="middle" x="60.5466" y="-559.5" font-family="Helvetica,sans-Serif" font-size="10.00"> </text>
</a>
</g>
</g>
<!-- Node3&#45;&gt;Node1 -->
<g id="edge3" class="edge"><title>Node3&#45;&gt;Node1</title>
<path fill="none" stroke="#404040" d="M50.2567,-552.398C40.3784,-524.321 26.1556,-479.324 20.5466,-439 0.829753,-297.254 -12.3336,-256.283 20.5466,-117 22.644,-108.115 25.9478,-99.0851 29.7523,-90.4989"/>
<polygon fill="none" stroke="#404040" points="29.8228,-90.3508 28.7914,-83.2138 34.9827,-79.5167 36.0141,-86.6537 29.8228,-90.3508"/>
<text text-anchor="middle" x="59.0466" y="-281" font-family="Helvetica,sans-Serif" font-size="10.00"> +shaderfParams</text>
<text text-anchor="middle" x="59.0466" y="-270" font-family="Helvetica,sans-Serif" font-size="10.00">+shader4fParams</text>
</g>
<!-- Node3&#45;&gt;Node2 -->
<g id="edge2" class="edge"><title>Node3&#45;&gt;Node2</title>
<path fill="none" stroke="#404040" d="M71.3311,-552.49C80.926,-528.015 95.8322,-489.992 111.51,-450"/>
<polygon fill="none" stroke="#404040" points="111.569,-449.85 110.035,-442.804 115.949,-438.678 117.483,-445.724 111.569,-449.85"/>
<text text-anchor="middle" x="143.547" y="-526" font-family="Helvetica,sans-Serif" font-size="10.00"> +shaderbParams</text>
<text text-anchor="middle" x="143.547" y="-515" font-family="Helvetica,sans-Serif" font-size="10.00">+shadervParams</text>
<text text-anchor="middle" x="143.547" y="-504" font-family="Helvetica,sans-Serif" font-size="10.00">+shaderfParams</text>
<text text-anchor="middle" x="143.547" y="-493" font-family="Helvetica,sans-Serif" font-size="10.00">+shadertfParams</text>
<text text-anchor="middle" x="143.547" y="-482" font-family="Helvetica,sans-Serif" font-size="10.00">+shaderiParams</text>
<text text-anchor="middle" x="143.547" y="-471" font-family="Helvetica,sans-Serif" font-size="10.00">+shader4fParams</text>
<text text-anchor="middle" x="143.547" y="-460" font-family="Helvetica,sans-Serif" font-size="10.00">+shaderrParams</text>
</g>
</g>
</svg>
