<?xml version="1.0" encoding="UTF-8" standalone="no"?>
<!DOCTYPE svg PUBLIC "-//W3C//DTD SVG 1.1//EN"
 "http://www.w3.org/Graphics/SVG/1.1/DTD/svg11.dtd">
<!-- Generated by graphviz version 2.38.0 (20140413.2041)
 -->
<!-- Title: updateLaserPosition Pages: 1 -->
<svg width="418pt" height="47pt"
 viewBox="0.00 0.00 418.00 47.00" xmlns="http://www.w3.org/2000/svg" xmlns:xlink="http://www.w3.org/1999/xlink">
<g id="graph0" class="graph" transform="scale(1 1) rotate(0) translate(4 43)">
<title>updateLaserPosition</title>
<!-- Node1 -->
<g id="node1" class="node"><title>Node1</title>
<g id="a_node1"><a xlink:title=" ">
<polygon fill="#bfbfbf" stroke="black" points="0,-0.5 0,-19.5 105,-19.5 105,-0.5 0,-0.5"/>
<text text-anchor="middle" x="52.5" y="-7.5" font-family="Helvetica,sans-Serif" font-size="10.00">updateLaserPosition</text>
</a>
</g>
</g>
<!-- Node2 -->
<g id="node2" class="node"><title>Node2</title>
<g id="a_node2"><a xlink:href="class_slicer_p_r_i_s_m_1_1_resources_1_1_virtual_reality_helper_1_1_virtual_reality_helper.html#a0540f1d575f42e8fa3d6013367056cad" target="_top" xlink:title=" ">
<polygon fill="none" stroke="black" points="141,-19.5 141,-38.5 263,-38.5 263,-19.5 141,-19.5"/>
<text text-anchor="middle" x="202" y="-26.5" font-family="Helvetica,sans-Serif" font-size="10.00">getLeftControllerPosition</text>
</a>
</g>
</g>
<!-- Node1&#45;&gt;Node2 -->
<g id="edge1" class="edge"><title>Node1&#45;&gt;Node2</title>
<path fill="none" stroke="midnightblue" d="M105.088,-16.6453C113.388,-17.7144 122.101,-18.8367 130.749,-19.9507"/>
<polygon fill="midnightblue" stroke="midnightblue" points="130.478,-23.4446 140.843,-21.251 131.372,-16.502 130.478,-23.4446"/>
</g>
<!-- Node3 -->
<g id="node3" class="node"><title>Node3</title>
<g id="a_node3"><a xlink:href="class_slicer_p_r_i_s_m_1_1_resources_1_1_virtual_reality_helper_1_1_virtual_reality_helper.html#ae13eb7a77da60691d9642cfcb81630fe" target="_top" xlink:title=" ">
<polygon fill="none" stroke="black" points="299,-0.5 299,-19.5 410,-19.5 410,-0.5 299,-0.5"/>
<text text-anchor="middle" x="354.5" y="-7.5" font-family="Helvetica,sans-Serif" font-size="10.00">getLeftTransformNode</text>
</a>
</g>
</g>
<!-- Node1&#45;&gt;Node3 -->
<g id="edge3" class="edge"><title>Node1&#45;&gt;Node3</title>
<path fill="none" stroke="midnightblue" d="M105.072,-10C155.828,-10 233.505,-10 288.47,-10"/>
<polygon fill="midnightblue" stroke="midnightblue" points="288.8,-13.5001 298.8,-10 288.8,-6.5001 288.8,-13.5001"/>
</g>
<!-- Node2&#45;&gt;Node3 -->
<g id="edge2" class="edge"><title>Node2&#45;&gt;Node3</title>
<path fill="none" stroke="midnightblue" d="M263.347,-21.3815C271.719,-20.3245 280.347,-19.2352 288.795,-18.1688"/>
<polygon fill="midnightblue" stroke="midnightblue" points="289.497,-21.608 298.98,-16.8829 288.62,-14.6631 289.497,-21.608"/>
</g>
</g>
</svg>
