<?xml version="1.0" encoding="UTF-8" standalone="no"?>
<!DOCTYPE svg PUBLIC "-//W3C//DTD SVG 1.1//EN"
 "http://www.w3.org/Graphics/SVG/1.1/DTD/svg11.dtd">
<!-- Generated by graphviz version 2.38.0 (20140413.2041)
 -->
<!-- Title: setupShader Pages: 1 -->
<svg width="195pt" height="66pt"
 viewBox="0.00 0.00 195.00 66.00" xmlns="http://www.w3.org/2000/svg" xmlns:xlink="http://www.w3.org/1999/xlink">
<g id="graph0" class="graph" transform="scale(1 1) rotate(0) translate(4 62)">
<title>setupShader</title>
<!-- Node1 -->
<g id="node1" class="node"><title>Node1</title>
<g id="a_node1"><a xlink:title="Function to setup the shader.">
<polygon fill="#bfbfbf" stroke="black" points="0,-19.5 0,-38.5 71,-38.5 71,-19.5 0,-19.5"/>
<text text-anchor="middle" x="35.5" y="-26.5" font-family="Helvetica,sans-Serif" font-size="10.00">setupShader</text>
</a>
</g>
</g>
<!-- Node2 -->
<g id="node2" class="node"><title>Node2</title>
<g id="a_node2"><a xlink:href="class_slicer_p_r_i_s_m_1_1_resources_1_1_custom_shader_1_1_custom_shader.html#ad149341d7d849ff957baee565b19c123" target="_top" xlink:title="Function to clear the shader.">
<polygon fill="none" stroke="black" points="128,-38.5 128,-57.5 166,-57.5 166,-38.5 128,-38.5"/>
<text text-anchor="middle" x="147" y="-45.5" font-family="Helvetica,sans-Serif" font-size="10.00">clear</text>
</a>
</g>
</g>
<!-- Node1&#45;&gt;Node2 -->
<g id="edge1" class="edge"><title>Node1&#45;&gt;Node2</title>
<path fill="none" stroke="midnightblue" d="M71.1465,-35.0117C86.1253,-37.6108 103.435,-40.6144 117.634,-43.0781"/>
<polygon fill="midnightblue" stroke="midnightblue" points="117.344,-46.58 127.795,-44.8412 118.541,-39.683 117.344,-46.58"/>
</g>
<!-- Node3 -->
<g id="node3" class="node"><title>Node3</title>
<g id="a_node3"><a xlink:href="class_slicer_p_r_i_s_m_1_1_resources_1_1_custom_shader_1_1_custom_shader.html#afa709225c85d81a8ca96f674e865ffa2" target="_top" xlink:title="Function to set the uniforms of the shader.">
<polygon fill="none" stroke="black" points="107,-0.5 107,-19.5 187,-19.5 187,-0.5 107,-0.5"/>
<text text-anchor="middle" x="147" y="-7.5" font-family="Helvetica,sans-Serif" font-size="10.00">setAllUniforms</text>
</a>
</g>
</g>
<!-- Node1&#45;&gt;Node3 -->
<g id="edge2" class="edge"><title>Node1&#45;&gt;Node3</title>
<path fill="none" stroke="midnightblue" d="M71.1465,-22.9883C79.2527,-21.5817 88.0416,-20.0567 96.6507,-18.5629"/>
<polygon fill="midnightblue" stroke="midnightblue" points="97.3683,-21.9908 106.623,-16.8326 96.1715,-15.0938 97.3683,-21.9908"/>
</g>
</g>
</svg>
