<?xml version="1.0" encoding="UTF-8" standalone="no"?>
<!DOCTYPE svg PUBLIC "-//W3C//DTD SVG 1.1//EN"
 "http://www.w3.org/Graphics/SVG/1.1/DTD/svg11.dtd">
<!-- Generated by graphviz version 2.38.0 (20140413.2041)
 -->
<!-- Title: showLayout Pages: 1 -->
<svg width="613pt" height="79pt"
 viewBox="0.00 0.00 613.00 79.30" xmlns="http://www.w3.org/2000/svg" xmlns:xlink="http://www.w3.org/1999/xlink">
<g id="graph0" class="graph" transform="scale(1 1) rotate(0) translate(4 75.2953)">
<title>showLayout</title>
<!-- Node1 -->
<g id="node1" class="node"><title>Node1</title>
<g id="a_node1"><a xlink:title="Function to show specific widgets of a layout.">
<polygon fill="#bfbfbf" stroke="black" points="537,-38.5 537,-57.5 605,-57.5 605,-38.5 537,-38.5"/>
<text text-anchor="middle" x="571" y="-45.5" font-family="Helvetica,sans-Serif" font-size="10.00">showLayout</text>
</a>
</g>
</g>
<!-- Node2 -->
<g id="node2" class="node"><title>Node2</title>
<g id="a_node2"><a xlink:href="class_slicer_p_r_i_s_m_1_1_p_r_i_s_m_1_1_p_r_i_s_m_widget.html#a645a019fd9d617af14565ec9d4333dbd" target="_top" xlink:title="Sets the current parameter type according to the combobox input.">
<polygon fill="none" stroke="black" points="336,-38.5 336,-57.5 501,-57.5 501,-38.5 336,-38.5"/>
<text text-anchor="middle" x="418.5" y="-45.5" font-family="Helvetica,sans-Serif" font-size="10.00">onAddParamComboIndexChanged</text>
</a>
</g>
</g>
<!-- Node1&#45;&gt;Node2 -->
<g id="edge1" class="edge"><title>Node1&#45;&gt;Node2</title>
<path fill="none" stroke="midnightblue" d="M526.734,-48C518.65,-48 509.961,-48 501.154,-48"/>
<polygon fill="midnightblue" stroke="midnightblue" points="526.972,-51.5001 536.972,-48 526.972,-44.5001 526.972,-51.5001"/>
</g>
<!-- Node3 -->
<g id="node3" class="node"><title>Node3</title>
<g id="a_node3"><a xlink:href="class_slicer_p_r_i_s_m_1_1_p_r_i_s_m_1_1_p_r_i_s_m_widget.html#ac406a5ff5a88ee3578f24b16f74171ab" target="_top" xlink:title="Function to create the parameters layout to enable adding new parameters to a file.">
<polygon fill="none" stroke="black" points="0,-38.5 0,-57.5 123,-57.5 123,-38.5 0,-38.5"/>
<text text-anchor="middle" x="61.5" y="-45.5" font-family="Helvetica,sans-Serif" font-size="10.00">createParametersLayout</text>
</a>
</g>
</g>
<!-- Node2&#45;&gt;Node3 -->
<g id="edge2" class="edge"><title>Node2&#45;&gt;Node3</title>
<path fill="none" stroke="midnightblue" d="M359.715,-59.2336C340.766,-62.4103 319.555,-65.4291 300,-67 237.535,-72.0178 221.371,-73.0818 159,-67 139.966,-65.144 119.116,-61.2753 101.682,-57.5102"/>
<polygon fill="midnightblue" stroke="midnightblue" points="360.43,-62.6619 369.69,-57.5129 359.24,-55.7638 360.43,-62.6619"/>
</g>
<!-- Node4 -->
<g id="node4" class="node"><title>Node4</title>
<g id="a_node4"><a xlink:href="class_slicer_p_r_i_s_m_1_1_p_r_i_s_m_1_1_p_r_i_s_m_widget.html#ab7c52ead53f10907b9369a7011ed227f" target="_top" xlink:title="Function to hide/show the points related widgets.">
<polygon fill="none" stroke="black" points="159,-38.5 159,-57.5 300,-57.5 300,-38.5 159,-38.5"/>
<text text-anchor="middle" x="229.5" y="-45.5" font-family="Helvetica,sans-Serif" font-size="10.00">onAddPointsComboChanged</text>
</a>
</g>
</g>
<!-- Node2&#45;&gt;Node4 -->
<g id="edge3" class="edge"><title>Node2&#45;&gt;Node4</title>
<path fill="none" stroke="midnightblue" d="M325.674,-48C317.067,-48 308.441,-48 300.089,-48"/>
<polygon fill="midnightblue" stroke="midnightblue" points="325.751,-51.5001 335.751,-48 325.751,-44.5001 325.751,-51.5001"/>
</g>
<!-- Node5 -->
<g id="node5" class="node"><title>Node5</title>
<g id="a_node5"><a xlink:href="class_slicer_p_r_i_s_m_1_1_p_r_i_s_m_1_1_p_r_i_s_m_widget.html#aacc3a0a2f4821602d9869f8d12aa2e6a" target="_top" xlink:title="Function to hide/show the transfer functions related widgets.">
<polygon fill="none" stroke="black" points="167,-0.5 167,-19.5 292,-19.5 292,-0.5 167,-0.5"/>
<text text-anchor="middle" x="229.5" y="-7.5" font-family="Helvetica,sans-Serif" font-size="10.00">onAddTFComboChanged</text>
</a>
</g>
</g>
<!-- Node2&#45;&gt;Node5 -->
<g id="edge5" class="edge"><title>Node2&#45;&gt;Node5</title>
<path fill="none" stroke="midnightblue" d="M360.369,-36.3905C333.773,-30.986 302.527,-24.6365 277.349,-19.5201"/>
<polygon fill="midnightblue" stroke="midnightblue" points="359.815,-39.8494 370.312,-38.411 361.209,-32.9896 359.815,-39.8494"/>
</g>
<!-- Node4&#45;&gt;Node3 -->
<g id="edge4" class="edge"><title>Node4&#45;&gt;Node3</title>
<path fill="none" stroke="midnightblue" d="M148.575,-48C140.015,-48 131.411,-48 123.128,-48"/>
<polygon fill="midnightblue" stroke="midnightblue" points="148.582,-51.5001 158.582,-48 148.582,-44.5001 148.582,-51.5001"/>
</g>
<!-- Node5&#45;&gt;Node3 -->
<g id="edge6" class="edge"><title>Node5&#45;&gt;Node3</title>
<path fill="none" stroke="midnightblue" d="M176.847,-21.8243C153.444,-27.1816 126.143,-33.4311 104.088,-38.4799"/>
<polygon fill="midnightblue" stroke="midnightblue" points="177.644,-25.2323 186.611,-19.589 176.082,-18.4088 177.644,-25.2323"/>
</g>
</g>
</svg>
