<?xml version="1.0" encoding="UTF-8" standalone="no"?>
<!DOCTYPE svg PUBLIC "-//W3C//DTD SVG 1.1//EN"
 "http://www.w3.org/Graphics/SVG/1.1/DTD/svg11.dtd">
<!-- Generated by graphviz version 2.38.0 (20140413.2041)
 -->
<!-- Title: onAddTFComboChanged Pages: 1 -->
<svg width="450pt" height="104pt"
 viewBox="0.00 0.00 450.00 104.00" xmlns="http://www.w3.org/2000/svg" xmlns:xlink="http://www.w3.org/1999/xlink">
<g id="graph0" class="graph" transform="scale(1 1) rotate(0) translate(4 100)">
<title>onAddTFComboChanged</title>
<!-- Node1 -->
<g id="node1" class="node"><title>Node1</title>
<g id="a_node1"><a xlink:title="Function to hide/show the transfer functions related widgets.">
<polygon fill="#bfbfbf" stroke="black" points="0,-38.5 0,-57.5 125,-57.5 125,-38.5 0,-38.5"/>
<text text-anchor="middle" x="62.5" y="-45.5" font-family="Helvetica,sans-Serif" font-size="10.00">onAddTFComboChanged</text>
</a>
</g>
</g>
<!-- Node2 -->
<g id="node2" class="node"><title>Node2</title>
<g id="a_node2"><a xlink:href="class_slicer_p_r_i_s_m_1_1_p_r_i_s_m_1_1_p_r_i_s_m_widget.html#a645a019fd9d617af14565ec9d4333dbd" target="_top" xlink:title="Sets the current parameter type according to the combobox input.">
<polygon fill="none" stroke="black" points="161,-38.5 161,-57.5 326,-57.5 326,-38.5 161,-38.5"/>
<text text-anchor="middle" x="243.5" y="-45.5" font-family="Helvetica,sans-Serif" font-size="10.00">onAddParamComboIndexChanged</text>
</a>
</g>
</g>
<!-- Node1&#45;&gt;Node2 -->
<g id="edge1" class="edge"><title>Node1&#45;&gt;Node2</title>
<path fill="none" stroke="midnightblue" d="M125.102,-48C133.388,-48 142.029,-48 150.698,-48"/>
<polygon fill="midnightblue" stroke="midnightblue" points="150.869,-51.5001 160.869,-48 150.869,-44.5001 150.869,-51.5001"/>
</g>
<!-- Node3 -->
<g id="node3" class="node"><title>Node3</title>
<g id="a_node3"><a xlink:href="class_slicer_p_r_i_s_m_1_1_p_r_i_s_m_1_1_p_r_i_s_m_widget.html#adfb7a3a22452b635bb615e4750c2bf29" target="_top" xlink:title="Function to get the class name of a widget.">
<polygon fill="none" stroke="black" points="362,-76.5 362,-95.5 442,-95.5 442,-76.5 362,-76.5"/>
<text text-anchor="middle" x="402" y="-83.5" font-family="Helvetica,sans-Serif" font-size="10.00">getClassName</text>
</a>
</g>
</g>
<!-- Node2&#45;&gt;Node3 -->
<g id="edge2" class="edge"><title>Node2&#45;&gt;Node3</title>
<path fill="none" stroke="midnightblue" d="M283.992,-57.589C304.643,-62.6035 330.114,-68.7881 352.012,-74.1053"/>
<polygon fill="midnightblue" stroke="midnightblue" points="351.249,-77.5215 361.792,-76.4799 352.901,-70.7191 351.249,-77.5215"/>
</g>
<!-- Node4 -->
<g id="node4" class="node"><title>Node4</title>
<g id="a_node4"><a xlink:href="class_slicer_p_r_i_s_m_1_1_p_r_i_s_m_1_1_p_r_i_s_m_widget.html#a09c30f6796c372b242ca908731f4aa1c" target="_top" xlink:title="Function to clear the widgets of a specific layout.">
<polygon fill="none" stroke="black" points="370,-38.5 370,-57.5 434,-57.5 434,-38.5 370,-38.5"/>
<text text-anchor="middle" x="402" y="-45.5" font-family="Helvetica,sans-Serif" font-size="10.00">hideLayout</text>
</a>
</g>
</g>
<!-- Node2&#45;&gt;Node4 -->
<g id="edge3" class="edge"><title>Node2&#45;&gt;Node4</title>
<path fill="none" stroke="midnightblue" d="M326.417,-48C337.943,-48 349.364,-48 359.674,-48"/>
<polygon fill="midnightblue" stroke="midnightblue" points="359.975,-51.5001 369.975,-48 359.975,-44.5001 359.975,-51.5001"/>
</g>
<!-- Node5 -->
<g id="node5" class="node"><title>Node5</title>
<g id="a_node5"><a xlink:href="class_slicer_p_r_i_s_m_1_1_p_r_i_s_m_1_1_p_r_i_s_m_widget.html#a7ee7b1fc1343a8a2914eb4e0d72668f5" target="_top" xlink:title="Function to show specific widgets of a layout.">
<polygon fill="none" stroke="black" points="368,-0.5 368,-19.5 436,-19.5 436,-0.5 368,-0.5"/>
<text text-anchor="middle" x="402" y="-7.5" font-family="Helvetica,sans-Serif" font-size="10.00">showLayout</text>
</a>
</g>
</g>
<!-- Node2&#45;&gt;Node5 -->
<g id="edge4" class="edge"><title>Node2&#45;&gt;Node5</title>
<path fill="none" stroke="midnightblue" d="M283.992,-38.411C306.551,-32.9334 334.86,-26.0597 357.981,-20.4454"/>
<polygon fill="midnightblue" stroke="midnightblue" points="358.978,-23.8051 367.87,-18.0443 357.327,-17.0028 358.978,-23.8051"/>
</g>
</g>
</svg>
