<?xml version="1.0" encoding="UTF-8" standalone="no"?>
<!DOCTYPE svg PUBLIC "-//W3C//DTD SVG 1.1//EN"
 "http://www.w3.org/Graphics/SVG/1.1/DTD/svg11.dtd">
<!-- Generated by graphviz version 2.38.0 (20140413.2041)
 -->
<!-- Title: inheritance370d004439 Pages: 1 -->
<svg width="728pt" height="82pt"
 viewBox="0.00 0.00 727.50 82.00" xmlns="http://www.w3.org/2000/svg" xmlns:xlink="http://www.w3.org/1999/xlink">
<g id="graph0" class="graph" transform="scale(1 1) rotate(0) translate(4 78)">
<title>inheritance370d004439</title>
<!-- ChromaDepthShader -->
<g id="node1" class="node"><title>ChromaDepthShader</title>
<polygon fill="white" stroke="black" stroke-width="0.5" points="107,-19 0,-19 0,-0 107,-0 107,-19"/>
<text text-anchor="middle" x="53.5" y="-7" font-family="Vera Sans, DejaVu Sans, Liberation Sans, Arial, Helvetica, sans" font-size="10.00">ChromaDepthShader</text>
</g>
<!-- CustomShader -->
<g id="node2" class="node"><title>CustomShader</title>
<g id="a_node2"><a xlink:href="../PRISMRenderingShaders.html#CustomShader.CustomShader" xlink:title="CustomShader" target="_top">
<polygon fill="white" stroke="black" stroke-width="0.5" points="396,-74 315,-74 315,-55 396,-55 396,-74"/>
<text text-anchor="middle" x="355.5" y="-62" font-family="Vera Sans, DejaVu Sans, Liberation Sans, Arial, Helvetica, sans" font-size="10.00">CustomShader</text>
</a>
</g>
</g>
<!-- CustomShader&#45;&gt;ChromaDepthShader -->
<g id="edge1" class="edge"><title>CustomShader&#45;&gt;ChromaDepthShader</title>
<path fill="none" stroke="black" stroke-width="0.5" d="M314.771,-56.3522C261.057,-46.9256 166.411,-30.3156 106.982,-19.886"/>
<polygon fill="black" stroke="black" stroke-width="0.5" points="107.283,-18.162 102.056,-19.0213 106.678,-21.6094 107.283,-18.162"/>
</g>
<!-- DeclutteringShader -->
<g id="node3" class="node"><title>DeclutteringShader</title>
<polygon fill="white" stroke="black" stroke-width="0.5" points="224,-19 125,-19 125,-0 224,-0 224,-19"/>
<text text-anchor="middle" x="174.5" y="-7" font-family="Vera Sans, DejaVu Sans, Liberation Sans, Arial, Helvetica, sans" font-size="10.00">DeclutteringShader</text>
</g>
<!-- CustomShader&#45;&gt;DeclutteringShader -->
<g id="edge2" class="edge"><title>CustomShader&#45;&gt;DeclutteringShader</title>
<path fill="none" stroke="black" stroke-width="0.5" d="M326.419,-54.9846C294.321,-45.5858 242.706,-30.4719 208.695,-20.5128"/>
<polygon fill="black" stroke="black" stroke-width="0.5" points="209.099,-18.8078 203.809,-19.0821 208.115,-22.1667 209.099,-18.8078"/>
</g>
<!-- OpacityPeelingShader -->
<g id="node4" class="node"><title>OpacityPeelingShader</title>
<polygon fill="white" stroke="black" stroke-width="0.5" points="355,-19 242,-19 242,-0 355,-0 355,-19"/>
<text text-anchor="middle" x="298.5" y="-7" font-family="Vera Sans, DejaVu Sans, Liberation Sans, Arial, Helvetica, sans" font-size="10.00">OpacityPeelingShader</text>
</g>
<!-- CustomShader&#45;&gt;OpacityPeelingShader -->
<g id="edge3" class="edge"><title>CustomShader&#45;&gt;OpacityPeelingShader</title>
<path fill="none" stroke="black" stroke-width="0.5" d="M346.342,-54.9846C336.925,-46.2281 322.172,-32.5112 311.539,-22.6236"/>
<polygon fill="black" stroke="black" stroke-width="0.5" points="312.678,-21.2935 307.825,-19.1703 310.295,-23.8567 312.678,-21.2935"/>
</g>
<!-- OutlineShader -->
<g id="node5" class="node"><title>OutlineShader</title>
<polygon fill="white" stroke="black" stroke-width="0.5" points="451.5,-19 373.5,-19 373.5,-0 451.5,-0 451.5,-19"/>
<text text-anchor="middle" x="412.5" y="-7" font-family="Vera Sans, DejaVu Sans, Liberation Sans, Arial, Helvetica, sans" font-size="10.00">OutlineShader</text>
</g>
<!-- CustomShader&#45;&gt;OutlineShader -->
<g id="edge4" class="edge"><title>CustomShader&#45;&gt;OutlineShader</title>
<path fill="none" stroke="black" stroke-width="0.5" d="M364.658,-54.9846C374.075,-46.2281 388.828,-32.5112 399.461,-22.6236"/>
<polygon fill="black" stroke="black" stroke-width="0.5" points="400.705,-23.8567 403.175,-19.1703 398.322,-21.2935 400.705,-23.8567"/>
</g>
<!-- PlaneIntersectingShader -->
<g id="node6" class="node"><title>PlaneIntersectingShader</title>
<polygon fill="white" stroke="black" stroke-width="0.5" points="591.5,-19 469.5,-19 469.5,-0 591.5,-0 591.5,-19"/>
<text text-anchor="middle" x="530.5" y="-7" font-family="Vera Sans, DejaVu Sans, Liberation Sans, Arial, Helvetica, sans" font-size="10.00">PlaneIntersectingShader</text>
</g>
<!-- CustomShader&#45;&gt;PlaneIntersectingShader -->
<g id="edge5" class="edge"><title>CustomShader&#45;&gt;PlaneIntersectingShader</title>
<path fill="none" stroke="black" stroke-width="0.5" d="M383.617,-54.9846C414.524,-45.6243 464.146,-30.5957 497.034,-20.6355"/>
<polygon fill="black" stroke="black" stroke-width="0.5" points="497.885,-22.2063 502.163,-19.0821 496.87,-18.8566 497.885,-22.2063"/>
</g>
<!-- SphereCarvingShader -->
<g id="node7" class="node"><title>SphereCarvingShader</title>
<polygon fill="white" stroke="black" stroke-width="0.5" points="719.5,-19 609.5,-19 609.5,-0 719.5,-0 719.5,-19"/>
<text text-anchor="middle" x="664.5" y="-7" font-family="Vera Sans, DejaVu Sans, Liberation Sans, Arial, Helvetica, sans" font-size="10.00">SphereCarvingShader</text>
</g>
<!-- CustomShader&#45;&gt;SphereCarvingShader -->
<g id="edge6" class="edge"><title>CustomShader&#45;&gt;SphereCarvingShader</title>
<path fill="none" stroke="black" stroke-width="0.5" d="M396.214,-56.5167C450.968,-47.1253 548.505,-30.3955 609.673,-19.9039"/>
<polygon fill="black" stroke="black" stroke-width="0.5" points="610.112,-21.6043 614.744,-19.0342 609.52,-18.1547 610.112,-21.6043"/>
</g>
</g>
</svg>
