<?xml version="1.0" encoding="UTF-8" standalone="no"?>
<!DOCTYPE svg PUBLIC "-//W3C//DTD SVG 1.1//EN"
 "http://www.w3.org/Graphics/SVG/1.1/DTD/svg11.dtd">
<!-- Generated by graphviz version 2.38.0 (20140413.2041)
 -->
<!-- Title: drawLine Pages: 1 -->
<svg width="311pt" height="47pt"
 viewBox="0.00 0.00 311.00 47.00" xmlns="http://www.w3.org/2000/svg" xmlns:xlink="http://www.w3.org/1999/xlink">
<g id="graph0" class="graph" transform="scale(1 1) rotate(0) translate(4 43)">
<title>drawLine</title>
<!-- Node1 -->
<g id="node1" class="node"><title>Node1</title>
<g id="a_node1"><a xlink:title=" ">
<polygon fill="#bfbfbf" stroke="black" points="248,-0.5 248,-19.5 303,-19.5 303,-0.5 248,-0.5"/>
<text text-anchor="middle" x="275.5" y="-7.5" font-family="Helvetica,sans-Serif" font-size="10.00">drawLine</text>
</a>
</g>
</g>
<!-- Node2 -->
<g id="node2" class="node"><title>Node2</title>
<g id="a_node2"><a xlink:href="$_moi_2tp2_23_dmain_8c.html#af426a9d81b3750098001d9c27e8a55fd" xlink:title=" ">
<polygon fill="none" stroke="black" points="157,-19.5 157,-38.5 212,-38.5 212,-19.5 157,-19.5"/>
<text text-anchor="middle" x="184.5" y="-26.5" font-family="Helvetica,sans-Serif" font-size="10.00">bezier3D</text>
</a>
</g>
</g>
<!-- Node1&#45;&gt;Node2 -->
<g id="edge1" class="edge"><title>Node1&#45;&gt;Node2</title>
<path fill="none" stroke="midnightblue" d="M237.941,-17.8046C229.316,-19.646 220.279,-21.5753 212.184,-23.3034"/>
<polygon fill="midnightblue" stroke="midnightblue" points="238.748,-21.2114 247.797,-15.7006 237.287,-14.3656 238.748,-21.2114"/>
</g>
<!-- Node3 -->
<g id="node3" class="node"><title>Node3</title>
<g id="a_node3"><a xlink:href="$_moi_2tp2_23_dmain_8c.html#a1e5b20fed15743656bb6d2e6a6ea6269" xlink:title=" ">
<polygon fill="none" stroke="black" points="74,-0.5 74,-19.5 121,-19.5 121,-0.5 74,-0.5"/>
<text text-anchor="middle" x="97.5" y="-7.5" font-family="Helvetica,sans-Serif" font-size="10.00">display</text>
</a>
</g>
</g>
<!-- Node1&#45;&gt;Node3 -->
<g id="edge4" class="edge"><title>Node1&#45;&gt;Node3</title>
<path fill="none" stroke="midnightblue" d="M237.414,-10C202.191,-10 150.379,-10 121.003,-10"/>
<polygon fill="midnightblue" stroke="midnightblue" points="237.769,-13.5001 247.769,-10 237.769,-6.5001 237.769,-13.5001"/>
</g>
<!-- Node2&#45;&gt;Node3 -->
<g id="edge2" class="edge"><title>Node2&#45;&gt;Node3</title>
<path fill="none" stroke="midnightblue" d="M146.679,-20.7695C138.023,-18.8346 129.047,-16.8282 121.223,-15.0792"/>
<polygon fill="midnightblue" stroke="midnightblue" points="146.083,-24.2225 156.605,-22.9883 147.61,-17.391 146.083,-24.2225"/>
</g>
<!-- Node4 -->
<g id="node4" class="node"><title>Node4</title>
<g id="a_node4"><a xlink:href="$_moi_2tp2_23_dmain_8c.html#a0ddf1224851353fc92bfbff6f499fa97" xlink:title=" ">
<polygon fill="none" stroke="black" points="0,-0.5 0,-19.5 38,-19.5 38,-0.5 0,-0.5"/>
<text text-anchor="middle" x="19" y="-7.5" font-family="Helvetica,sans-Serif" font-size="10.00">main</text>
</a>
</g>
</g>
<!-- Node3&#45;&gt;Node4 -->
<g id="edge3" class="edge"><title>Node3&#45;&gt;Node4</title>
<path fill="none" stroke="midnightblue" d="M63.8695,-10C55.0121,-10 45.7438,-10 38.0205,-10"/>
<polygon fill="midnightblue" stroke="midnightblue" points="63.9613,-13.5001 73.9612,-10 63.9612,-6.5001 63.9613,-13.5001"/>
</g>
</g>
</svg>
