<?xml version="1.0" encoding="UTF-8" standalone="no"?>
<!DOCTYPE svg PUBLIC "-//W3C//DTD SVG 1.1//EN"
 "http://www.w3.org/Graphics/SVG/1.1/DTD/svg11.dtd">
<!-- Generated by graphviz version 2.38.0 (20140413.2041)
 -->
<!-- Title: drawQuad Pages: 1 -->
<svg width="304pt" height="47pt"
 viewBox="0.00 0.00 304.00 47.00" xmlns="http://www.w3.org/2000/svg" xmlns:xlink="http://www.w3.org/1999/xlink">
<g id="graph0" class="graph" transform="scale(1 1) rotate(0) translate(4 43)">
<title>drawQuad</title>
<!-- Node1 -->
<g id="node1" class="node"><title>Node1</title>
<g id="a_node1"><a xlink:title=" ">
<polygon fill="#bfbfbf" stroke="black" points="236,-0.5 236,-19.5 296,-19.5 296,-0.5 236,-0.5"/>
<text text-anchor="middle" x="266" y="-7.5" font-family="Helvetica,sans-Serif" font-size="10.00">drawQuad</text>
</a>
</g>
</g>
<!-- Node2 -->
<g id="node2" class="node"><title>Node2</title>
<g id="a_node2"><a xlink:href="$_moi_2tp3_23_dmain_8c.html#a9fddccb53c1c2472ac9fb878f76201df" xlink:title=" ">
<polygon fill="none" stroke="black" points="157,-19.5 157,-38.5 200,-38.5 200,-19.5 157,-19.5"/>
<text text-anchor="middle" x="178.5" y="-26.5" font-family="Helvetica,sans-Serif" font-size="10.00">bezier</text>
</a>
</g>
</g>
<!-- Node1&#45;&gt;Node2 -->
<g id="edge1" class="edge"><title>Node1&#45;&gt;Node2</title>
<path fill="none" stroke="midnightblue" d="M225.737,-18.7251C216.875,-20.6945 207.811,-22.7087 200.083,-24.426"/>
<polygon fill="midnightblue" stroke="midnightblue" points="226.573,-22.1248 235.576,-16.5387 225.055,-15.2914 226.573,-22.1248"/>
</g>
<!-- Node3 -->
<g id="node3" class="node"><title>Node3</title>
<g id="a_node3"><a xlink:href="$_moi_2tp2_23_dmain_8c.html#a1e5b20fed15743656bb6d2e6a6ea6269" xlink:title=" ">
<polygon fill="none" stroke="black" points="74,-0.5 74,-19.5 121,-19.5 121,-0.5 74,-0.5"/>
<text text-anchor="middle" x="97.5" y="-7.5" font-family="Helvetica,sans-Serif" font-size="10.00">display</text>
</a>
</g>
</g>
<!-- Node1&#45;&gt;Node3 -->
<g id="edge4" class="edge"><title>Node1&#45;&gt;Node3</title>
<path fill="none" stroke="midnightblue" d="M225.891,-10C193.261,-10 147.903,-10 121.036,-10"/>
<polygon fill="midnightblue" stroke="midnightblue" points="225.998,-13.5001 235.998,-10 225.998,-6.5001 225.998,-13.5001"/>
</g>
<!-- Node2&#45;&gt;Node3 -->
<g id="edge2" class="edge"><title>Node2&#45;&gt;Node3</title>
<path fill="none" stroke="midnightblue" d="M146.996,-21.6637C138.366,-19.588 129.13,-17.3668 121.059,-15.4256"/>
<polygon fill="midnightblue" stroke="midnightblue" points="146.202,-25.0725 156.744,-24.008 147.839,-18.2665 146.202,-25.0725"/>
</g>
<!-- Node4 -->
<g id="node4" class="node"><title>Node4</title>
<g id="a_node4"><a xlink:href="$_moi_2tp2_23_dmain_8c.html#a0ddf1224851353fc92bfbff6f499fa97" xlink:title=" ">
<polygon fill="none" stroke="black" points="0,-0.5 0,-19.5 38,-19.5 38,-0.5 0,-0.5"/>
<text text-anchor="middle" x="19" y="-7.5" font-family="Helvetica,sans-Serif" font-size="10.00">main</text>
</a>
</g>
</g>
<!-- Node3&#45;&gt;Node4 -->
<g id="edge3" class="edge"><title>Node3&#45;&gt;Node4</title>
<path fill="none" stroke="midnightblue" d="M63.8695,-10C55.0121,-10 45.7438,-10 38.0205,-10"/>
<polygon fill="midnightblue" stroke="midnightblue" points="63.9613,-13.5001 73.9612,-10 63.9612,-6.5001 63.9613,-13.5001"/>
</g>
</g>
</svg>
