<?xml version="1.0" encoding="UTF-8" standalone="no"?>
<!DOCTYPE svg PUBLIC "-//W3C//DTD SVG 1.1//EN"
 "http://www.w3.org/Graphics/SVG/1.1/DTD/svg11.dtd">
<!-- Generated by graphviz version 2.38.0 (20140413.2041)
 -->
<!-- Title: main Pages: 1 -->
<svg width="413pt" height="313pt"
 viewBox="0.00 0.00 413.00 313.00" xmlns="http://www.w3.org/2000/svg" xmlns:xlink="http://www.w3.org/1999/xlink">
<g id="graph0" class="graph" transform="scale(1 1) rotate(0) translate(4 309)">
<title>main</title>
<!-- Node1 -->
<g id="node1" class="node"><title>Node1</title>
<g id="a_node1"><a xlink:title=" ">
<polygon fill="#bfbfbf" stroke="black" points="0,-95.5 0,-114.5 38,-114.5 38,-95.5 0,-95.5"/>
<text text-anchor="middle" x="19" y="-102.5" font-family="Helvetica,sans-Serif" font-size="10.00">main</text>
</a>
</g>
</g>
<!-- Node2 -->
<g id="node2" class="node"><title>Node2</title>
<g id="a_node2"><a xlink:href="$_moi_2tp2_23_dmain_8c.html#aca0c4a94494a7e2dc5846b0244ab4371" xlink:title=" ">
<polygon fill="none" stroke="black" points="87.5,-190.5 87.5,-209.5 116.5,-209.5 116.5,-190.5 87.5,-190.5"/>
<text text-anchor="middle" x="102" y="-197.5" font-family="Helvetica,sans-Serif" font-size="10.00">cr</text>
</a>
</g>
</g>
<!-- Node1&#45;&gt;Node2 -->
<g id="edge1" class="edge"><title>Node1&#45;&gt;Node2</title>
<path fill="none" stroke="midnightblue" d="M25.403,-114.668C34.2309,-129.919 52.893,-159.989 74,-181 75.6173,-182.61 77.3845,-184.179 79.216,-185.68"/>
<polygon fill="midnightblue" stroke="midnightblue" points="77.2749,-188.598 87.3901,-191.75 81.4482,-182.978 77.2749,-188.598"/>
</g>
<!-- Node3 -->
<g id="node3" class="node"><title>Node3</title>
<g id="a_node3"><a xlink:href="$_moi_2tp2_23_dmain_8c.html#a1e5b20fed15743656bb6d2e6a6ea6269" xlink:title=" ">
<polygon fill="none" stroke="black" points="78.5,-152.5 78.5,-171.5 125.5,-171.5 125.5,-152.5 78.5,-152.5"/>
<text text-anchor="middle" x="102" y="-159.5" font-family="Helvetica,sans-Serif" font-size="10.00">display</text>
</a>
</g>
</g>
<!-- Node1&#45;&gt;Node3 -->
<g id="edge2" class="edge"><title>Node1&#45;&gt;Node3</title>
<path fill="none" stroke="midnightblue" d="M33.7405,-114.669C46.1501,-123.402 64.6268,-136.404 79.0762,-146.572"/>
<polygon fill="midnightblue" stroke="midnightblue" points="77.2701,-149.581 87.4624,-152.474 81.2985,-143.856 77.2701,-149.581"/>
</g>
<!-- Node12 -->
<g id="node12" class="node"><title>Node12</title>
<g id="a_node12"><a xlink:href="$_moi_2tp2_23_dmain_8c.html#a68ff78bdc2fcc8807375df87a7defa7d" xlink:title=" ">
<polygon fill="none" stroke="black" points="179,-57.5 179,-76.5 208,-76.5 208,-57.5 179,-57.5"/>
<text text-anchor="middle" x="193.5" y="-64.5" font-family="Helvetica,sans-Serif" font-size="10.00">pt</text>
</a>
</g>
</g>
<!-- Node1&#45;&gt;Node12 -->
<g id="edge20" class="edge"><title>Node1&#45;&gt;Node12</title>
<path fill="none" stroke="midnightblue" d="M38.3172,-107.965C60.4883,-110.884 98.7383,-113.758 130,-105 145.591,-100.632 161.155,-91.1894 172.852,-82.81"/>
<polygon fill="midnightblue" stroke="midnightblue" points="175.081,-85.5128 180.979,-76.7112 170.879,-79.914 175.081,-85.5128"/>
</g>
<!-- Node13 -->
<g id="node13" class="node"><title>Node13</title>
<g id="a_node13"><a xlink:href="$_moi_2tp2_23_dmain_8c.html#a54002f21e2f76025605f01bc45982541" xlink:title=" ">
<polygon fill="none" stroke="black" points="74,-76.5 74,-95.5 130,-95.5 130,-76.5 74,-76.5"/>
<text text-anchor="middle" x="102" y="-83.5" font-family="Helvetica,sans-Serif" font-size="10.00">keyboard</text>
</a>
</g>
</g>
<!-- Node1&#45;&gt;Node13 -->
<g id="edge18" class="edge"><title>Node1&#45;&gt;Node13</title>
<path fill="none" stroke="midnightblue" d="M38.3802,-100.689C45.9768,-98.9067 55.0711,-96.7734 63.9435,-94.6923"/>
<polygon fill="midnightblue" stroke="midnightblue" points="64.8382,-98.0775 73.7746,-92.3862 63.2396,-91.2625 64.8382,-98.0775"/>
</g>
<!-- Node14 -->
<g id="node14" class="node"><title>Node14</title>
<g id="a_node14"><a xlink:href="$_moi_2tp2_23_dmain_8c.html#ac76a5d78172a826cd6ee9512b89a86c0" xlink:title=" ">
<polygon fill="none" stroke="black" points="79,-38.5 79,-57.5 125,-57.5 125,-38.5 79,-38.5"/>
<text text-anchor="middle" x="102" y="-45.5" font-family="Helvetica,sans-Serif" font-size="10.00">mouse</text>
</a>
</g>
</g>
<!-- Node1&#45;&gt;Node14 -->
<g id="edge19" class="edge"><title>Node1&#45;&gt;Node14</title>
<path fill="none" stroke="midnightblue" d="M33.7405,-95.3307C46.1501,-86.5981 64.6268,-73.596 79.0762,-63.4278"/>
<polygon fill="midnightblue" stroke="midnightblue" points="81.2985,-66.1438 87.4624,-57.5265 77.2701,-60.4191 81.2985,-66.1438"/>
</g>
<!-- Node15 -->
<g id="node15" class="node"><title>Node15</title>
<g id="a_node15"><a xlink:href="$_moi_2tp2_23_dmain_8c.html#acc1ffe65e6869931318610cae7210078" xlink:title=" ">
<polygon fill="none" stroke="black" points="76.5,-0.5 76.5,-19.5 127.5,-19.5 127.5,-0.5 76.5,-0.5"/>
<text text-anchor="middle" x="102" y="-7.5" font-family="Helvetica,sans-Serif" font-size="10.00">reshape</text>
</a>
</g>
</g>
<!-- Node1&#45;&gt;Node15 -->
<g id="edge21" class="edge"><title>Node1&#45;&gt;Node15</title>
<path fill="none" stroke="midnightblue" d="M25.403,-95.3325C34.2309,-80.0805 52.893,-50.0112 74,-29 75.0663,-27.9385 76.1979,-26.8949 77.37,-25.8768"/>
<polygon fill="midnightblue" stroke="midnightblue" points="79.6889,-28.5072 85.4343,-19.6054 75.3917,-22.9815 79.6889,-28.5072"/>
</g>
<!-- Node4 -->
<g id="node4" class="node"><title>Node4</title>
<g id="a_node4"><a xlink:href="$_moi_2tp3_23_dmain_8c.html#a9fddccb53c1c2472ac9fb878f76201df" xlink:title=" ">
<polygon fill="none" stroke="black" points="172,-247.5 172,-266.5 215,-266.5 215,-247.5 172,-247.5"/>
<text text-anchor="middle" x="193.5" y="-254.5" font-family="Helvetica,sans-Serif" font-size="10.00">bezier</text>
</a>
</g>
</g>
<!-- Node3&#45;&gt;Node4 -->
<g id="edge3" class="edge"><title>Node3&#45;&gt;Node4</title>
<path fill="none" stroke="midnightblue" d="M118.594,-171.577C122.536,-174.362 126.609,-177.582 130,-181 149.8,-200.952 147.461,-211.871 166,-233 168.252,-235.566 170.759,-238.137 173.308,-240.593"/>
<polygon fill="midnightblue" stroke="midnightblue" points="171.122,-243.337 180.868,-247.493 175.841,-238.167 171.122,-243.337"/>
</g>
<!-- Node5 -->
<g id="node5" class="node"><title>Node5</title>
<g id="a_node5"><a xlink:href="$_moi_2tp2_23_dmain_8c.html#a587fb578fe3fba3da1fa670b7d9f923b" xlink:title=" ">
<polygon fill="none" stroke="black" points="257,-171.5 257,-190.5 328,-190.5 328,-171.5 257,-171.5"/>
<text text-anchor="middle" x="292.5" y="-178.5" font-family="Helvetica,sans-Serif" font-size="10.00">chooseColor</text>
</a>
</g>
</g>
<!-- Node3&#45;&gt;Node5 -->
<g id="edge13" class="edge"><title>Node3&#45;&gt;Node5</title>
<path fill="none" stroke="midnightblue" d="M125.738,-164.292C155.543,-167.296 208.495,-172.633 246.538,-176.468"/>
<polygon fill="midnightblue" stroke="midnightblue" points="246.541,-179.986 256.841,-177.507 247.243,-173.021 246.541,-179.986"/>
</g>
<!-- Node6 -->
<g id="node6" class="node"><title>Node6</title>
<g id="a_node6"><a xlink:href="$_moi_2tp2_23_dmain_8c.html#a5b6c8f7241dffa4b63cdb31482ca3987" xlink:title=" ">
<polygon fill="none" stroke="black" points="263,-209.5 263,-228.5 322,-228.5 322,-209.5 263,-209.5"/>
<text text-anchor="middle" x="292.5" y="-216.5" font-family="Helvetica,sans-Serif" font-size="10.00">drawPoint</text>
</a>
</g>
</g>
<!-- Node3&#45;&gt;Node6 -->
<g id="edge15" class="edge"><title>Node3&#45;&gt;Node6</title>
<path fill="none" stroke="midnightblue" d="M125.538,-171.256C137.458,-175.981 152.404,-181.636 166,-186 194.846,-195.258 228.016,-203.895 253.007,-210.009"/>
<polygon fill="midnightblue" stroke="midnightblue" points="252.296,-213.438 262.839,-212.388 253.942,-206.634 252.296,-213.438"/>
</g>
<!-- Node7 -->
<g id="node7" class="node"><title>Node7</title>
<g id="a_node7"><a xlink:href="$_moi_2tp2_23_dmain_8c.html#a71628a55b7ad470e01d9f475396c4dc6" xlink:title=" ">
<polygon fill="none" stroke="black" points="262.5,-285.5 262.5,-304.5 322.5,-304.5 322.5,-285.5 262.5,-285.5"/>
<text text-anchor="middle" x="292.5" y="-292.5" font-family="Helvetica,sans-Serif" font-size="10.00">drawQuad</text>
</a>
</g>
</g>
<!-- Node3&#45;&gt;Node7 -->
<g id="edge16" class="edge"><title>Node3&#45;&gt;Node7</title>
<path fill="none" stroke="midnightblue" d="M120.033,-171.66C123.682,-174.324 127.259,-177.468 130,-181 157.68,-216.672 130.874,-247.629 166,-276 189.912,-295.313 225.024,-299.221 252.033,-298.778"/>
<polygon fill="midnightblue" stroke="midnightblue" points="252.451,-302.265 262.315,-298.397 252.192,-295.269 252.451,-302.265"/>
</g>
<!-- Node10 -->
<g id="node10" class="node"><title>Node10</title>
<g id="a_node10"><a xlink:href="$_moi_2tp2_23_dmain_8c.html#af426a9d81b3750098001d9c27e8a55fd" xlink:title=" ">
<polygon fill="none" stroke="black" points="166,-133.5 166,-152.5 221,-152.5 221,-133.5 166,-133.5"/>
<text text-anchor="middle" x="193.5" y="-140.5" font-family="Helvetica,sans-Serif" font-size="10.00">bezier3D</text>
</a>
</g>
</g>
<!-- Node3&#45;&gt;Node10 -->
<g id="edge9" class="edge"><title>Node3&#45;&gt;Node10</title>
<path fill="none" stroke="midnightblue" d="M125.585,-157.205C134.75,-155.26 145.576,-152.961 155.819,-150.787"/>
<polygon fill="midnightblue" stroke="midnightblue" points="156.728,-154.172 165.783,-148.672 155.275,-147.325 156.728,-154.172"/>
</g>
<!-- Node11 -->
<g id="node11" class="node"><title>Node11</title>
<g id="a_node11"><a xlink:href="$_moi_2tp2_23_dmain_8c.html#a0c16fe8c7d6a4759b082dbd4f7cd2bb0" xlink:title=" ">
<polygon fill="none" stroke="black" points="265,-114.5 265,-133.5 320,-133.5 320,-114.5 265,-114.5"/>
<text text-anchor="middle" x="292.5" y="-121.5" font-family="Helvetica,sans-Serif" font-size="10.00">drawLine</text>
</a>
</g>
</g>
<!-- Node3&#45;&gt;Node11 -->
<g id="edge14" class="edge"><title>Node3&#45;&gt;Node11</title>
<path fill="none" stroke="midnightblue" d="M114.627,-152.288C126.624,-142.952 146.311,-129.478 166,-124 195.149,-115.89 229.603,-116.578 255.029,-118.906"/>
<polygon fill="midnightblue" stroke="midnightblue" points="254.679,-122.388 264.987,-119.943 255.404,-115.426 254.679,-122.388"/>
</g>
<!-- Node3&#45;&gt;Node12 -->
<g id="edge17" class="edge"><title>Node3&#45;&gt;Node12</title>
<path fill="none" stroke="midnightblue" d="M114.746,-152.416C119.658,-148.195 125.303,-143.053 130,-138 147.914,-118.728 148.175,-110.355 166,-91 168.313,-88.4888 170.855,-85.9488 173.421,-83.5083"/>
<polygon fill="midnightblue" stroke="midnightblue" points="175.953,-85.9364 180.987,-76.6138 171.238,-80.7625 175.953,-85.9364"/>
</g>
<!-- Node4&#45;&gt;Node5 -->
<g id="edge4" class="edge"><title>Node4&#45;&gt;Node5</title>
<path fill="none" stroke="midnightblue" d="M203.638,-247.366C215.309,-235.381 236.463,-214.705 257,-200 258.897,-198.642 260.902,-197.308 262.951,-196.016"/>
<polygon fill="midnightblue" stroke="midnightblue" points="265.184,-198.763 272.03,-190.677 261.636,-192.729 265.184,-198.763"/>
</g>
<!-- Node4&#45;&gt;Node6 -->
<g id="edge5" class="edge"><title>Node4&#45;&gt;Node6</title>
<path fill="none" stroke="midnightblue" d="M215.071,-248.941C227.452,-244.091 243.516,-237.798 257.719,-232.234"/>
<polygon fill="midnightblue" stroke="midnightblue" points="259.153,-235.431 267.187,-228.525 256.599,-228.913 259.153,-235.431"/>
</g>
<!-- Node4&#45;&gt;Node7 -->
<g id="edge6" class="edge"><title>Node4&#45;&gt;Node7</title>
<path fill="none" stroke="midnightblue" d="M215.071,-265.059C227.452,-269.909 243.516,-276.202 257.719,-281.766"/>
<polygon fill="midnightblue" stroke="midnightblue" points="256.599,-285.087 267.187,-285.475 259.153,-278.569 256.599,-285.087"/>
</g>
<!-- Node8 -->
<g id="node8" class="node"><title>Node8</title>
<g id="a_node8"><a xlink:href="$_moi_2tp3_23_dmain_8c.html#afc335792d57c9404482ac57e304c19f5" xlink:title=" ">
<polygon fill="none" stroke="black" points="258.5,-247.5 258.5,-266.5 326.5,-266.5 326.5,-247.5 258.5,-247.5"/>
<text text-anchor="middle" x="292.5" y="-254.5" font-family="Helvetica,sans-Serif" font-size="10.00">pointBinterp</text>
</a>
</g>
</g>
<!-- Node4&#45;&gt;Node8 -->
<g id="edge7" class="edge"><title>Node4&#45;&gt;Node8</title>
<path fill="none" stroke="midnightblue" d="M215.071,-257C224.792,-257 236.784,-257 248.362,-257"/>
<polygon fill="midnightblue" stroke="midnightblue" points="248.364,-260.5 258.364,-257 248.364,-253.5 248.364,-260.5"/>
</g>
<!-- Node9 -->
<g id="node9" class="node"><title>Node9</title>
<g id="a_node9"><a xlink:href="$_moi_2tp3_23_dmain_8c.html#a23f0e89ac18ea3648eafe78ea4766e27" xlink:title=" ">
<polygon fill="none" stroke="black" points="364,-247.5 364,-266.5 405,-266.5 405,-247.5 364,-247.5"/>
<text text-anchor="middle" x="384.5" y="-254.5" font-family="Helvetica,sans-Serif" font-size="10.00">binter</text>
</a>
</g>
</g>
<!-- Node8&#45;&gt;Node9 -->
<g id="edge8" class="edge"><title>Node8&#45;&gt;Node9</title>
<path fill="none" stroke="midnightblue" d="M326.502,-257C335.418,-257 345.013,-257 353.74,-257"/>
<polygon fill="midnightblue" stroke="midnightblue" points="353.852,-260.5 363.852,-257 353.852,-253.5 353.852,-260.5"/>
</g>
<!-- Node10&#45;&gt;Node5 -->
<g id="edge10" class="edge"><title>Node10&#45;&gt;Node5</title>
<path fill="none" stroke="midnightblue" d="M218.977,-152.589C230.695,-157.179 244.915,-162.75 257.649,-167.739"/>
<polygon fill="midnightblue" stroke="midnightblue" points="256.443,-171.025 267.031,-171.414 258.996,-164.508 256.443,-171.025"/>
</g>
<!-- Node10&#45;&gt;Node6 -->
<g id="edge12" class="edge"><title>Node10&#45;&gt;Node6</title>
<path fill="none" stroke="midnightblue" d="M203.638,-152.634C215.309,-164.619 236.463,-185.295 257,-200 258.897,-201.358 260.902,-202.692 262.951,-203.984"/>
<polygon fill="midnightblue" stroke="midnightblue" points="261.636,-207.271 272.03,-209.323 265.184,-201.237 261.636,-207.271"/>
</g>
<!-- Node10&#45;&gt;Node11 -->
<g id="edge11" class="edge"><title>Node10&#45;&gt;Node11</title>
<path fill="none" stroke="midnightblue" d="M221.006,-137.808C231.399,-135.772 243.501,-133.402 254.715,-131.205"/>
<polygon fill="midnightblue" stroke="midnightblue" points="255.549,-134.609 264.689,-129.252 254.203,-127.739 255.549,-134.609"/>
</g>
</g>
</svg>
