<?xml version="1.0" encoding="UTF-8" standalone="no"?>
<!DOCTYPE svg PUBLIC "-//W3C//DTD SVG 1.1//EN"
 "http://www.w3.org/Graphics/SVG/1.1/DTD/svg11.dtd">
<!-- Generated by graphviz version 2.38.0 (20140413.2041)
 -->
<!-- Title: main Pages: 1 -->
<svg width="352pt" height="237pt"
 viewBox="0.00 0.00 352.00 237.00" xmlns="http://www.w3.org/2000/svg" xmlns:xlink="http://www.w3.org/1999/xlink">
<g id="graph0" class="graph" transform="scale(1 1) rotate(0) translate(4 233)">
<title>main</title>
<!-- Node1 -->
<g id="node1" class="node"><title>Node1</title>
<g id="a_node1"><a xlink:title=" ">
<polygon fill="#bfbfbf" stroke="black" points="0,-76.5 0,-95.5 38,-95.5 38,-76.5 0,-76.5"/>
<text text-anchor="middle" x="19" y="-83.5" font-family="Helvetica,sans-Serif" font-size="10.00">main</text>
</a>
</g>
</g>
<!-- Node2 -->
<g id="node2" class="node"><title>Node2</title>
<g id="a_node2"><a xlink:href="$_moi_2tp1_2main_8c.html#a1e5b20fed15743656bb6d2e6a6ea6269" xlink:title=" ">
<polygon fill="none" stroke="black" points="84.5,-152.5 84.5,-171.5 131.5,-171.5 131.5,-152.5 84.5,-152.5"/>
<text text-anchor="middle" x="108" y="-159.5" font-family="Helvetica,sans-Serif" font-size="10.00">display</text>
</a>
</g>
</g>
<!-- Node1&#45;&gt;Node2 -->
<g id="edge1" class="edge"><title>Node1&#45;&gt;Node2</title>
<path fill="none" stroke="midnightblue" d="M27.6784,-95.6961C37.5385,-107.746 55.5847,-128.488 74,-143 75.7719,-144.396 77.6578,-145.758 79.5958,-147.069"/>
<polygon fill="midnightblue" stroke="midnightblue" points="77.8953,-150.134 88.234,-152.449 81.5959,-144.192 77.8953,-150.134"/>
</g>
<!-- Node9 -->
<g id="node9" class="node"><title>Node9</title>
<g id="a_node9"><a xlink:href="$_moi_2tp1_2main_8c.html#a54002f21e2f76025605f01bc45982541" xlink:title=" ">
<polygon fill="none" stroke="black" points="80,-114.5 80,-133.5 136,-133.5 136,-114.5 80,-114.5"/>
<text text-anchor="middle" x="108" y="-121.5" font-family="Helvetica,sans-Serif" font-size="10.00">keyboard</text>
</a>
</g>
</g>
<!-- Node1&#45;&gt;Node9 -->
<g id="edge11" class="edge"><title>Node1&#45;&gt;Node9</title>
<path fill="none" stroke="midnightblue" d="M38.0265,-93.8736C48.8937,-98.6202 63.0358,-104.797 75.6834,-110.321"/>
<polygon fill="midnightblue" stroke="midnightblue" points="74.4198,-113.589 84.9847,-114.384 77.2217,-107.174 74.4198,-113.589"/>
</g>
<!-- Node10 -->
<g id="node10" class="node"><title>Node10</title>
<g id="a_node10"><a xlink:href="$_moi_2tp1_2main_8c.html#ac76a5d78172a826cd6ee9512b89a86c0" xlink:title=" ">
<polygon fill="none" stroke="black" points="85,-76.5 85,-95.5 131,-95.5 131,-76.5 85,-76.5"/>
<text text-anchor="middle" x="108" y="-83.5" font-family="Helvetica,sans-Serif" font-size="10.00">mouse</text>
</a>
</g>
</g>
<!-- Node1&#45;&gt;Node10 -->
<g id="edge12" class="edge"><title>Node1&#45;&gt;Node10</title>
<path fill="none" stroke="midnightblue" d="M38.0265,-86C48.6806,-86 62.4825,-86 74.9377,-86"/>
<polygon fill="midnightblue" stroke="midnightblue" points="74.9848,-89.5001 84.9847,-86 74.9847,-82.5001 74.9848,-89.5001"/>
</g>
<!-- Node11 -->
<g id="node11" class="node"><title>Node11</title>
<g id="a_node11"><a xlink:href="$_moi_2tp1_2main_8c.html#a512f752d27cc4d8f83084c63330c2ec3" xlink:title=" ">
<polygon fill="none" stroke="black" points="74,-38.5 74,-57.5 142,-57.5 142,-38.5 74,-38.5"/>
<text text-anchor="middle" x="108" y="-45.5" font-family="Helvetica,sans-Serif" font-size="10.00">mousemove</text>
</a>
</g>
</g>
<!-- Node1&#45;&gt;Node11 -->
<g id="edge13" class="edge"><title>Node1&#45;&gt;Node11</title>
<path fill="none" stroke="midnightblue" d="M38.0265,-78.1264C48.8937,-73.3798 63.0358,-67.2027 75.6834,-61.6785"/>
<polygon fill="midnightblue" stroke="midnightblue" points="77.2217,-64.826 84.9847,-57.6159 74.4198,-58.4112 77.2217,-64.826"/>
</g>
<!-- Node12 -->
<g id="node12" class="node"><title>Node12</title>
<g id="a_node12"><a xlink:href="$_moi_2tp1_2main_8c.html#acc1ffe65e6869931318610cae7210078" xlink:title=" ">
<polygon fill="none" stroke="black" points="82.5,-0.5 82.5,-19.5 133.5,-19.5 133.5,-0.5 82.5,-0.5"/>
<text text-anchor="middle" x="108" y="-7.5" font-family="Helvetica,sans-Serif" font-size="10.00">reshape</text>
</a>
</g>
</g>
<!-- Node1&#45;&gt;Node12 -->
<g id="edge14" class="edge"><title>Node1&#45;&gt;Node12</title>
<path fill="none" stroke="midnightblue" d="M27.6784,-76.3039C37.5385,-64.2543 55.5847,-43.5121 74,-29 75.7719,-27.6037 77.6578,-26.242 79.5958,-24.9305"/>
<polygon fill="midnightblue" stroke="midnightblue" points="81.5959,-27.8082 88.234,-19.5507 77.8953,-21.8663 81.5959,-27.8082"/>
</g>
<!-- Node3 -->
<g id="node3" class="node"><title>Node3</title>
<g id="a_node3"><a xlink:href="$_moi_2tp1_2main_8c.html#af0c409e4093427c05ad67f3b0bdece21" xlink:title=" ">
<polygon fill="none" stroke="black" points="185.5,-190.5 185.5,-209.5 229.5,-209.5 229.5,-190.5 185.5,-190.5"/>
<text text-anchor="middle" x="207.5" y="-197.5" font-family="Helvetica,sans-Serif" font-size="10.00">Bezier</text>
</a>
</g>
</g>
<!-- Node2&#45;&gt;Node3 -->
<g id="edge2" class="edge"><title>Node2&#45;&gt;Node3</title>
<path fill="none" stroke="midnightblue" d="M131.614,-170.813C144.777,-175.944 161.551,-182.481 175.884,-188.068"/>
<polygon fill="midnightblue" stroke="midnightblue" points="174.756,-191.384 185.344,-191.755 177.298,-184.862 174.756,-191.384"/>
</g>
<!-- Node4 -->
<g id="node4" class="node"><title>Node4</title>
<g id="a_node4"><a xlink:href="$_moi_2tp1_2main_8c.html#a587fb578fe3fba3da1fa670b7d9f923b" xlink:title=" ">
<polygon fill="none" stroke="black" points="273,-209.5 273,-228.5 344,-228.5 344,-209.5 273,-209.5"/>
<text text-anchor="middle" x="308.5" y="-216.5" font-family="Helvetica,sans-Serif" font-size="10.00">chooseColor</text>
</a>
</g>
</g>
<!-- Node2&#45;&gt;Node4 -->
<g id="edge8" class="edge"><title>Node2&#45;&gt;Node4</title>
<path fill="none" stroke="midnightblue" d="M116.674,-171.586C128.261,-185.2 151.682,-209.535 178,-219 204.962,-228.696 237.172,-228.738 262.724,-226.336"/>
<polygon fill="midnightblue" stroke="midnightblue" points="263.317,-229.792 272.875,-225.222 262.553,-222.834 263.317,-229.792"/>
</g>
<!-- Node5 -->
<g id="node5" class="node"><title>Node5</title>
<g id="a_node5"><a xlink:href="$_moi_2tp1_2main_8c.html#a9d949080c2f3761116b7e477dfdb2952" xlink:title=" ">
<polygon fill="none" stroke="black" points="281,-152.5 281,-171.5 336,-171.5 336,-152.5 281,-152.5"/>
<text text-anchor="middle" x="308.5" y="-159.5" font-family="Helvetica,sans-Serif" font-size="10.00">drawLine</text>
</a>
</g>
</g>
<!-- Node2&#45;&gt;Node5 -->
<g id="edge9" class="edge"><title>Node2&#45;&gt;Node5</title>
<path fill="none" stroke="midnightblue" d="M131.77,-162C165.776,-162 230.176,-162 270.857,-162"/>
<polygon fill="midnightblue" stroke="midnightblue" points="270.906,-165.5 280.906,-162 270.906,-158.5 270.906,-165.5"/>
</g>
<!-- Node6 -->
<g id="node6" class="node"><title>Node6</title>
<g id="a_node6"><a xlink:href="$_paul_2tp1_2main_8c.html#a9d420893f4d75d158b5f9d62f5f145ab" xlink:title=" ">
<polygon fill="none" stroke="black" points="186,-114.5 186,-133.5 229,-133.5 229,-114.5 186,-114.5"/>
<text text-anchor="middle" x="207.5" y="-121.5" font-family="Helvetica,sans-Serif" font-size="10.00">bezier</text>
</a>
</g>
</g>
<!-- Node2&#45;&gt;Node6 -->
<g id="edge5" class="edge"><title>Node2&#45;&gt;Node6</title>
<path fill="none" stroke="midnightblue" d="M131.614,-153.187C144.869,-148.02 161.784,-141.428 176.183,-135.816"/>
<polygon fill="midnightblue" stroke="midnightblue" points="177.627,-139.01 185.674,-132.117 175.085,-132.487 177.627,-139.01"/>
</g>
<!-- Node8 -->
<g id="node8" class="node"><title>Node8</title>
<g id="a_node8"><a xlink:href="$_moi_2tp1_2main_8c.html#a85ac77722dae61e1b6b054b506bd1e45" xlink:title=" ">
<polygon fill="none" stroke="black" points="178,-76.5 178,-95.5 237,-95.5 237,-76.5 178,-76.5"/>
<text text-anchor="middle" x="207.5" y="-83.5" font-family="Helvetica,sans-Serif" font-size="10.00">drawPoint</text>
</a>
</g>
</g>
<!-- Node2&#45;&gt;Node8 -->
<g id="edge10" class="edge"><title>Node2&#45;&gt;Node8</title>
<path fill="none" stroke="midnightblue" d="M127.766,-152.449C132.586,-149.664 137.638,-146.437 142,-143 160.273,-128.6 160.21,-119.991 178,-105 179.344,-103.867 180.758,-102.743 182.208,-101.64"/>
<polygon fill="midnightblue" stroke="midnightblue" points="184.527,-104.286 190.662,-95.6483 180.479,-98.5748 184.527,-104.286"/>
</g>
<!-- Node3&#45;&gt;Node4 -->
<g id="edge3" class="edge"><title>Node3&#45;&gt;Node4</title>
<path fill="none" stroke="midnightblue" d="M229.982,-204.123C239.658,-205.98 251.465,-208.246 262.917,-210.444"/>
<polygon fill="midnightblue" stroke="midnightblue" points="262.346,-213.898 272.827,-212.346 263.666,-207.023 262.346,-213.898"/>
</g>
<!-- Node3&#45;&gt;Node5 -->
<g id="edge4" class="edge"><title>Node3&#45;&gt;Node5</title>
<path fill="none" stroke="midnightblue" d="M229.982,-191.755C242.549,-186.931 258.71,-180.727 273.021,-175.234"/>
<polygon fill="midnightblue" stroke="midnightblue" points="274.484,-178.422 282.566,-171.571 271.976,-171.887 274.484,-178.422"/>
</g>
<!-- Node6&#45;&gt;Node5 -->
<g id="edge6" class="edge"><title>Node6&#45;&gt;Node5</title>
<path fill="none" stroke="midnightblue" d="M229.013,-131.874C241.621,-136.713 258.104,-143.04 272.708,-148.646"/>
<polygon fill="midnightblue" stroke="midnightblue" points="271.858,-152.068 282.448,-152.384 274.367,-145.533 271.858,-152.068"/>
</g>
<!-- Node7 -->
<g id="node7" class="node"><title>Node7</title>
<g id="a_node7"><a xlink:href="$_paul_2tp1_2main_8c.html#aa04d41e9bd9991e3af1418648e1bd387" xlink:title=" ">
<polygon fill="none" stroke="black" points="292.5,-114.5 292.5,-133.5 324.5,-133.5 324.5,-114.5 292.5,-114.5"/>
<text text-anchor="middle" x="308.5" y="-121.5" font-family="Helvetica,sans-Serif" font-size="10.00">lerp</text>
</a>
</g>
</g>
<!-- Node6&#45;&gt;Node7 -->
<g id="edge7" class="edge"><title>Node6&#45;&gt;Node7</title>
<path fill="none" stroke="midnightblue" d="M229.013,-124C244.53,-124 265.916,-124 282.445,-124"/>
<polygon fill="midnightblue" stroke="midnightblue" points="282.496,-127.5 292.496,-124 282.496,-120.5 282.496,-127.5"/>
</g>
</g>
</svg>
