<?xml version="1.0" encoding="UTF-8" standalone="no"?>
<!DOCTYPE svg PUBLIC "-//W3C//DTD SVG 1.1//EN"
 "http://www.w3.org/Graphics/SVG/1.1/DTD/svg11.dtd">
<!-- Generated by graphviz version 2.38.0 (20140413.2041)
 -->
<!-- Title: display Pages: 1 -->
<svg width="330pt" height="218pt"
 viewBox="0.00 0.00 330.00 218.16" xmlns="http://www.w3.org/2000/svg" xmlns:xlink="http://www.w3.org/1999/xlink">
<g id="graph0" class="graph" transform="scale(1 1) rotate(0) translate(4 214.159)">
<title>display</title>
<!-- Node1 -->
<g id="node1" class="node"><title>Node1</title>
<g id="a_node1"><a xlink:title=" ">
<polygon fill="#bfbfbf" stroke="black" points="0,-114.5 0,-133.5 47,-133.5 47,-114.5 0,-114.5"/>
<text text-anchor="middle" x="23.5" y="-121.5" font-family="Helvetica,sans-Serif" font-size="10.00">display</text>
</a>
</g>
</g>
<!-- Node2 -->
<g id="node2" class="node"><title>Node2</title>
<g id="a_node2"><a xlink:href="$_moi_2tp3_23_dmain_8c.html#a9fddccb53c1c2472ac9fb878f76201df" xlink:title=" ">
<polygon fill="none" stroke="black" points="89,-114.5 89,-133.5 132,-133.5 132,-114.5 89,-114.5"/>
<text text-anchor="middle" x="110.5" y="-121.5" font-family="Helvetica,sans-Serif" font-size="10.00">bezier</text>
</a>
</g>
</g>
<!-- Node1&#45;&gt;Node2 -->
<g id="edge1" class="edge"><title>Node1&#45;&gt;Node2</title>
<path fill="none" stroke="midnightblue" d="M47.2784,-124C57.0153,-124 68.5266,-124 78.9838,-124"/>
<polygon fill="midnightblue" stroke="midnightblue" points="78.9849,-127.5 88.9848,-124 78.9848,-120.5 78.9849,-127.5"/>
</g>
<!-- Node3 -->
<g id="node3" class="node"><title>Node3</title>
<g id="a_node3"><a xlink:href="$_moi_2tp2_23_dmain_8c.html#a587fb578fe3fba3da1fa670b7d9f923b" xlink:title=" ">
<polygon fill="none" stroke="black" points="174,-152.5 174,-171.5 245,-171.5 245,-152.5 174,-152.5"/>
<text text-anchor="middle" x="209.5" y="-159.5" font-family="Helvetica,sans-Serif" font-size="10.00">chooseColor</text>
</a>
</g>
</g>
<!-- Node1&#45;&gt;Node3 -->
<g id="edge11" class="edge"><title>Node1&#45;&gt;Node3</title>
<path fill="none" stroke="midnightblue" d="M30.6547,-133.546C40.0397,-147.112 59.3557,-171.386 83,-181 113.953,-193.586 152.267,-184.597 178.363,-175.175"/>
<polygon fill="midnightblue" stroke="midnightblue" points="179.64,-178.434 187.726,-171.587 177.135,-171.898 179.64,-178.434"/>
</g>
<!-- Node4 -->
<g id="node4" class="node"><title>Node4</title>
<g id="a_node4"><a xlink:href="$_moi_2tp2_23_dmain_8c.html#a5b6c8f7241dffa4b63cdb31482ca3987" xlink:title=" ">
<polygon fill="none" stroke="black" points="180,-190.5 180,-209.5 239,-209.5 239,-190.5 180,-190.5"/>
<text text-anchor="middle" x="209.5" y="-197.5" font-family="Helvetica,sans-Serif" font-size="10.00">drawPoint</text>
</a>
</g>
</g>
<!-- Node1&#45;&gt;Node4 -->
<g id="edge13" class="edge"><title>Node1&#45;&gt;Node4</title>
<path fill="none" stroke="midnightblue" d="M28.7214,-133.736C36.5886,-150.489 55.25,-184.29 83,-198 109.786,-211.234 143.88,-210.866 169.769,-207.67"/>
<polygon fill="midnightblue" stroke="midnightblue" points="170.557,-211.093 179.963,-206.216 169.569,-204.163 170.557,-211.093"/>
</g>
<!-- Node5 -->
<g id="node5" class="node"><title>Node5</title>
<g id="a_node5"><a xlink:href="$_moi_2tp2_23_dmain_8c.html#a71628a55b7ad470e01d9f475396c4dc6" xlink:title=" ">
<polygon fill="none" stroke="black" points="179.5,-38.5 179.5,-57.5 239.5,-57.5 239.5,-38.5 179.5,-38.5"/>
<text text-anchor="middle" x="209.5" y="-45.5" font-family="Helvetica,sans-Serif" font-size="10.00">drawQuad</text>
</a>
</g>
</g>
<!-- Node1&#45;&gt;Node5 -->
<g id="edge14" class="edge"><title>Node1&#45;&gt;Node5</title>
<path fill="none" stroke="midnightblue" d="M45.534,-114.413C56.6323,-109.415 70.5041,-103.264 83,-98 113.53,-85.1395 148.577,-71.249 173.861,-61.3802"/>
<polygon fill="midnightblue" stroke="midnightblue" points="175.331,-64.5638 183.381,-57.6746 172.792,-58.0406 175.331,-64.5638"/>
</g>
<!-- Node8 -->
<g id="node8" class="node"><title>Node8</title>
<g id="a_node8"><a xlink:href="$_moi_2tp2_23_dmain_8c.html#af426a9d81b3750098001d9c27e8a55fd" xlink:title=" ">
<polygon fill="none" stroke="black" points="83,-152.5 83,-171.5 138,-171.5 138,-152.5 83,-152.5"/>
<text text-anchor="middle" x="110.5" y="-159.5" font-family="Helvetica,sans-Serif" font-size="10.00">bezier3D</text>
</a>
</g>
</g>
<!-- Node1&#45;&gt;Node8 -->
<g id="edge7" class="edge"><title>Node1&#45;&gt;Node8</title>
<path fill="none" stroke="midnightblue" d="M45.9491,-133.589C55.9151,-138.044 67.9472,-143.423 78.8489,-148.297"/>
<polygon fill="midnightblue" stroke="midnightblue" points="77.5001,-151.528 88.0578,-152.414 80.357,-145.137 77.5001,-151.528"/>
</g>
<!-- Node9 -->
<g id="node9" class="node"><title>Node9</title>
<g id="a_node9"><a xlink:href="$_moi_2tp2_23_dmain_8c.html#a0c16fe8c7d6a4759b082dbd4f7cd2bb0" xlink:title=" ">
<polygon fill="none" stroke="black" points="182,-114.5 182,-133.5 237,-133.5 237,-114.5 182,-114.5"/>
<text text-anchor="middle" x="209.5" y="-121.5" font-family="Helvetica,sans-Serif" font-size="10.00">drawLine</text>
</a>
</g>
</g>
<!-- Node1&#45;&gt;Node9 -->
<g id="edge12" class="edge"><title>Node1&#45;&gt;Node9</title>
<path fill="none" stroke="midnightblue" d="M47.1522,-114.805C57.8338,-110.95 70.8708,-106.92 83,-105 107.144,-101.178 113.767,-101.792 138,-105 149.142,-106.475 161.023,-109.208 171.794,-112.149"/>
<polygon fill="midnightblue" stroke="midnightblue" points="171.144,-115.604 181.721,-115 173.076,-108.876 171.144,-115.604"/>
</g>
<!-- Node10 -->
<g id="node10" class="node"><title>Node10</title>
<g id="a_node10"><a xlink:href="$_moi_2tp2_23_dmain_8c.html#a68ff78bdc2fcc8807375df87a7defa7d" xlink:title=" ">
<polygon fill="none" stroke="black" points="96,-0.5 96,-19.5 125,-19.5 125,-0.5 96,-0.5"/>
<text text-anchor="middle" x="110.5" y="-7.5" font-family="Helvetica,sans-Serif" font-size="10.00">pt</text>
</a>
</g>
</g>
<!-- Node1&#45;&gt;Node10 -->
<g id="edge15" class="edge"><title>Node1&#45;&gt;Node10</title>
<path fill="none" stroke="midnightblue" d="M29.7301,-114.242C39.158,-97.0892 60.1587,-60.811 83,-34 85.1737,-31.4486 87.6094,-28.9057 90.1,-26.4812"/>
<polygon fill="midnightblue" stroke="midnightblue" points="92.5212,-29.0098 97.5288,-19.673 87.7917,-23.8491 92.5212,-29.0098"/>
</g>
<!-- Node2&#45;&gt;Node3 -->
<g id="edge2" class="edge"><title>Node2&#45;&gt;Node3</title>
<path fill="none" stroke="midnightblue" d="M132.071,-132.059C144.452,-136.909 160.516,-143.202 174.719,-148.766"/>
<polygon fill="midnightblue" stroke="midnightblue" points="173.599,-152.087 184.187,-152.475 176.153,-145.569 173.599,-152.087"/>
</g>
<!-- Node2&#45;&gt;Node4 -->
<g id="edge3" class="edge"><title>Node2&#45;&gt;Node4</title>
<path fill="none" stroke="midnightblue" d="M125.908,-133.578C129.941,-136.457 134.246,-139.726 138,-143 155.533,-158.292 155.591,-166.775 174,-181 175.802,-182.393 177.72,-183.745 179.692,-185.043"/>
<polygon fill="midnightblue" stroke="midnightblue" points="178.129,-188.188 188.5,-190.351 181.742,-182.192 178.129,-188.188"/>
</g>
<!-- Node2&#45;&gt;Node5 -->
<g id="edge4" class="edge"><title>Node2&#45;&gt;Node5</title>
<path fill="none" stroke="midnightblue" d="M120.638,-114.366C132.309,-102.381 153.463,-81.7053 174,-67 175.897,-65.6415 177.902,-64.3076 179.951,-63.0159"/>
<polygon fill="midnightblue" stroke="midnightblue" points="182.184,-65.763 189.03,-57.677 178.636,-59.7289 182.184,-65.763"/>
</g>
<!-- Node6 -->
<g id="node6" class="node"><title>Node6</title>
<g id="a_node6"><a xlink:href="$_moi_2tp3_23_dmain_8c.html#afc335792d57c9404482ac57e304c19f5" xlink:title=" ">
<polygon fill="none" stroke="black" points="175.5,-76.5 175.5,-95.5 243.5,-95.5 243.5,-76.5 175.5,-76.5"/>
<text text-anchor="middle" x="209.5" y="-83.5" font-family="Helvetica,sans-Serif" font-size="10.00">pointBinterp</text>
</a>
</g>
</g>
<!-- Node2&#45;&gt;Node6 -->
<g id="edge5" class="edge"><title>Node2&#45;&gt;Node6</title>
<path fill="none" stroke="midnightblue" d="M132.071,-115.941C144.452,-111.091 160.516,-104.798 174.719,-99.2337"/>
<polygon fill="midnightblue" stroke="midnightblue" points="176.153,-102.431 184.187,-95.5246 173.599,-95.9135 176.153,-102.431"/>
</g>
<!-- Node7 -->
<g id="node7" class="node"><title>Node7</title>
<g id="a_node7"><a xlink:href="$_moi_2tp3_23_dmain_8c.html#a23f0e89ac18ea3648eafe78ea4766e27" xlink:title=" ">
<polygon fill="none" stroke="black" points="281,-76.5 281,-95.5 322,-95.5 322,-76.5 281,-76.5"/>
<text text-anchor="middle" x="301.5" y="-83.5" font-family="Helvetica,sans-Serif" font-size="10.00">binter</text>
</a>
</g>
</g>
<!-- Node6&#45;&gt;Node7 -->
<g id="edge6" class="edge"><title>Node6&#45;&gt;Node7</title>
<path fill="none" stroke="midnightblue" d="M243.502,-86C252.418,-86 262.013,-86 270.74,-86"/>
<polygon fill="midnightblue" stroke="midnightblue" points="270.852,-89.5001 280.852,-86 270.852,-82.5001 270.852,-89.5001"/>
</g>
<!-- Node8&#45;&gt;Node3 -->
<g id="edge8" class="edge"><title>Node8&#45;&gt;Node3</title>
<path fill="none" stroke="midnightblue" d="M138.006,-162C145.908,-162 154.798,-162 163.535,-162"/>
<polygon fill="midnightblue" stroke="midnightblue" points="163.652,-165.5 173.652,-162 163.652,-158.5 163.652,-165.5"/>
</g>
<!-- Node8&#45;&gt;Node4 -->
<g id="edge10" class="edge"><title>Node8&#45;&gt;Node4</title>
<path fill="none" stroke="midnightblue" d="M135.977,-171.589C147.695,-176.179 161.915,-181.75 174.649,-186.739"/>
<polygon fill="midnightblue" stroke="midnightblue" points="173.443,-190.025 184.031,-190.414 175.996,-183.508 173.443,-190.025"/>
</g>
<!-- Node8&#45;&gt;Node9 -->
<g id="edge9" class="edge"><title>Node8&#45;&gt;Node9</title>
<path fill="none" stroke="midnightblue" d="M135.977,-152.411C147.695,-147.821 161.915,-142.25 174.649,-137.261"/>
<polygon fill="midnightblue" stroke="midnightblue" points="175.996,-140.492 184.031,-133.586 173.443,-133.975 175.996,-140.492"/>
</g>
</g>
</svg>
