<?xml version="1.0" encoding="UTF-8" standalone="no"?>
<!DOCTYPE svg PUBLIC "-//W3C//DTD SVG 1.1//EN"
 "http://www.w3.org/Graphics/SVG/1.1/DTD/svg11.dtd">
<!-- Generated by graphviz version 2.38.0 (20140413.2041)
 -->
<!-- Title: drawLine Pages: 1 -->
<svg width="300pt" height="104pt"
 viewBox="0.00 0.00 300.00 104.00" xmlns="http://www.w3.org/2000/svg" xmlns:xlink="http://www.w3.org/1999/xlink">
<g id="graph0" class="graph" transform="scale(1 1) rotate(0) translate(4 100)">
<title>drawLine</title>
<!-- Node1 -->
<g id="node1" class="node"><title>Node1</title>
<g id="a_node1"><a xlink:title=" ">
<polygon fill="#bfbfbf" stroke="black" points="237,-38.5 237,-57.5 292,-57.5 292,-38.5 237,-38.5"/>
<text text-anchor="middle" x="264.5" y="-45.5" font-family="Helvetica,sans-Serif" font-size="10.00">drawLine</text>
</a>
</g>
</g>
<!-- Node2 -->
<g id="node2" class="node"><title>Node2</title>
<g id="a_node2"><a xlink:href="$_moi_2tp1_2main_8c.html#af0c409e4093427c05ad67f3b0bdece21" xlink:title=" ">
<polygon fill="none" stroke="black" points="157,-76.5 157,-95.5 201,-95.5 201,-76.5 157,-76.5"/>
<text text-anchor="middle" x="179" y="-83.5" font-family="Helvetica,sans-Serif" font-size="10.00">Bezier</text>
</a>
</g>
</g>
<!-- Node1&#45;&gt;Node2 -->
<g id="edge1" class="edge"><title>Node1&#45;&gt;Node2</title>
<path fill="none" stroke="midnightblue" d="M233.058,-61.8541C222.434,-66.6887 210.754,-72.0041 201.064,-76.4141"/>
<polygon fill="midnightblue" stroke="midnightblue" points="234.777,-64.9168 242.429,-57.589 231.878,-58.5456 234.777,-64.9168"/>
</g>
<!-- Node3 -->
<g id="node3" class="node"><title>Node3</title>
<g id="a_node3"><a xlink:href="$_moi_2tp1_2main_8c.html#a1e5b20fed15743656bb6d2e6a6ea6269" xlink:title=" ">
<polygon fill="none" stroke="black" points="74,-38.5 74,-57.5 121,-57.5 121,-38.5 74,-38.5"/>
<text text-anchor="middle" x="97.5" y="-45.5" font-family="Helvetica,sans-Serif" font-size="10.00">display</text>
</a>
</g>
</g>
<!-- Node1&#45;&gt;Node3 -->
<g id="edge6" class="edge"><title>Node1&#45;&gt;Node3</title>
<path fill="none" stroke="midnightblue" d="M226.605,-48C194.309,-48 148.417,-48 121.226,-48"/>
<polygon fill="midnightblue" stroke="midnightblue" points="226.99,-51.5001 236.99,-48 226.99,-44.5001 226.99,-51.5001"/>
</g>
<!-- Node5 -->
<g id="node5" class="node"><title>Node5</title>
<g id="a_node5"><a xlink:href="$_paul_2tp1_2main_8c.html#a9d420893f4d75d158b5f9d62f5f145ab" xlink:title=" ">
<polygon fill="none" stroke="black" points="157.5,-0.5 157.5,-19.5 200.5,-19.5 200.5,-0.5 157.5,-0.5"/>
<text text-anchor="middle" x="179" y="-7.5" font-family="Helvetica,sans-Serif" font-size="10.00">bezier</text>
</a>
</g>
</g>
<!-- Node1&#45;&gt;Node5 -->
<g id="edge4" class="edge"><title>Node1&#45;&gt;Node5</title>
<path fill="none" stroke="midnightblue" d="M233.311,-34.2611C222.514,-29.3477 210.598,-23.9248 200.775,-19.4543"/>
<polygon fill="midnightblue" stroke="midnightblue" points="231.878,-37.4544 242.429,-38.411 234.777,-31.0832 231.878,-37.4544"/>
</g>
<!-- Node2&#45;&gt;Node3 -->
<g id="edge2" class="edge"><title>Node2&#45;&gt;Node3</title>
<path fill="none" stroke="midnightblue" d="M148.706,-71.9978C138.675,-67.2029 127.687,-61.9509 118.555,-57.5859"/>
<polygon fill="midnightblue" stroke="midnightblue" points="147.407,-75.2562 157.939,-76.411 150.426,-68.9406 147.407,-75.2562"/>
</g>
<!-- Node4 -->
<g id="node4" class="node"><title>Node4</title>
<g id="a_node4"><a xlink:href="$_moi_2tp1_2main_8c.html#a0ddf1224851353fc92bfbff6f499fa97" xlink:title=" ">
<polygon fill="none" stroke="black" points="0,-38.5 0,-57.5 38,-57.5 38,-38.5 0,-38.5"/>
<text text-anchor="middle" x="19" y="-45.5" font-family="Helvetica,sans-Serif" font-size="10.00">main</text>
</a>
</g>
</g>
<!-- Node3&#45;&gt;Node4 -->
<g id="edge3" class="edge"><title>Node3&#45;&gt;Node4</title>
<path fill="none" stroke="midnightblue" d="M63.8695,-48C55.0121,-48 45.7438,-48 38.0205,-48"/>
<polygon fill="midnightblue" stroke="midnightblue" points="63.9613,-51.5001 73.9612,-48 63.9612,-44.5001 63.9613,-51.5001"/>
</g>
<!-- Node5&#45;&gt;Node3 -->
<g id="edge5" class="edge"><title>Node5&#45;&gt;Node3</title>
<path fill="none" stroke="midnightblue" d="M148.706,-24.0022C138.675,-28.7971 127.687,-34.0491 118.555,-38.4141"/>
<polygon fill="midnightblue" stroke="midnightblue" points="150.426,-27.0594 157.939,-19.589 147.407,-20.7438 150.426,-27.0594"/>
</g>
</g>
</svg>
