<?xml version="1.0" encoding="UTF-8" standalone="no"?>
<!DOCTYPE svg PUBLIC "-//W3C//DTD SVG 1.1//EN"
 "http://www.w3.org/Graphics/SVG/1.1/DTD/svg11.dtd">
<!-- Generated by graphviz version 2.38.0 (20140413.2041)
 -->
<!-- Title: C:/Users/Tiphaine/Dropbox/Fac/Master/M1/S8/CAO/TPs/Moi/tp1/main.c Pages: 1 -->
<svg width="260pt" height="106pt"
 viewBox="0.00 0.00 259.50 106.00" xmlns="http://www.w3.org/2000/svg" xmlns:xlink="http://www.w3.org/1999/xlink">
<g id="graph0" class="graph" transform="scale(1 1) rotate(0) translate(4 102)">
<title>C:/Users/Tiphaine/Dropbox/Fac/Master/M1/S8/CAO/TPs/Moi/tp1/main.c</title>
<!-- Node1 -->
<g id="node1" class="node"><title>Node1</title>
<g id="a_node1"><a xlink:title=" ">
<polygon fill="#bfbfbf" stroke="black" points="50.5,-56.5 50.5,-97.5 195.5,-97.5 195.5,-56.5 50.5,-56.5"/>
<text text-anchor="start" x="58.5" y="-85.5" font-family="Helvetica,sans-Serif" font-size="10.00">C:/Users/Tiphaine/Dropbox</text>
<text text-anchor="start" x="58.5" y="-74.5" font-family="Helvetica,sans-Serif" font-size="10.00">/Fac/Master/M1/S8/CAO/TPs</text>
<text text-anchor="middle" x="123" y="-63.5" font-family="Helvetica,sans-Serif" font-size="10.00">/Moi/tp1/main.c</text>
</a>
</g>
</g>
<!-- Node2 -->
<g id="node2" class="node"><title>Node2</title>
<g id="a_node2"><a xlink:title=" ">
<polygon fill="none" stroke="#bfbfbf" points="0,-0.5 0,-19.5 48,-19.5 48,-0.5 0,-0.5"/>
<text text-anchor="middle" x="24" y="-7.5" font-family="Helvetica,sans-Serif" font-size="10.00">stdlib.h</text>
</a>
</g>
</g>
<!-- Node1&#45;&gt;Node2 -->
<g id="edge1" class="edge"><title>Node1&#45;&gt;Node2</title>
<path fill="none" stroke="midnightblue" d="M93.2967,-56.4979C77.9722,-46.4363 59.6169,-34.3849 45.6484,-25.2136"/>
<polygon fill="midnightblue" stroke="midnightblue" points="47.4587,-22.2152 37.1784,-19.6525 43.6167,-28.0667 47.4587,-22.2152"/>
</g>
<!-- Node3 -->
<g id="node3" class="node"><title>Node3</title>
<g id="a_node3"><a xlink:title=" ">
<polygon fill="none" stroke="#bfbfbf" points="66,-0.5 66,-19.5 112,-19.5 112,-0.5 66,-0.5"/>
<text text-anchor="middle" x="89" y="-7.5" font-family="Helvetica,sans-Serif" font-size="10.00">stdio.h</text>
</a>
</g>
</g>
<!-- Node1&#45;&gt;Node3 -->
<g id="edge2" class="edge"><title>Node1&#45;&gt;Node3</title>
<path fill="none" stroke="midnightblue" d="M112.799,-56.4979C108.188,-47.682 102.777,-37.3385 98.2811,-28.7432"/>
<polygon fill="midnightblue" stroke="midnightblue" points="101.262,-26.8912 93.5259,-19.6525 95.0596,-30.1357 101.262,-26.8912"/>
</g>
<!-- Node4 -->
<g id="node4" class="node"><title>Node4</title>
<g id="a_node4"><a xlink:title=" ">
<polygon fill="none" stroke="#bfbfbf" points="130,-0.5 130,-19.5 186,-19.5 186,-0.5 130,-0.5"/>
<text text-anchor="middle" x="158" y="-7.5" font-family="Helvetica,sans-Serif" font-size="10.00">GL/glut.h</text>
</a>
</g>
</g>
<!-- Node1&#45;&gt;Node4 -->
<g id="edge3" class="edge"><title>Node1&#45;&gt;Node4</title>
<path fill="none" stroke="midnightblue" d="M133.501,-56.4979C138.3,-47.5862 143.939,-37.1135 148.597,-28.4636"/>
<polygon fill="midnightblue" stroke="midnightblue" points="151.682,-30.1166 153.341,-19.6525 145.518,-26.7978 151.682,-30.1166"/>
</g>
<!-- Node5 -->
<g id="node5" class="node"><title>Node5</title>
<g id="a_node5"><a xlink:title=" ">
<polygon fill="none" stroke="#bfbfbf" points="204.5,-0.5 204.5,-19.5 251.5,-19.5 251.5,-0.5 204.5,-0.5"/>
<text text-anchor="middle" x="228" y="-7.5" font-family="Helvetica,sans-Serif" font-size="10.00">math.h</text>
</a>
</g>
</g>
<!-- Node1&#45;&gt;Node5 -->
<g id="edge4" class="edge"><title>Node1&#45;&gt;Node5</title>
<path fill="none" stroke="midnightblue" d="M154.503,-56.4979C170.912,-46.3405 190.596,-34.1551 205.462,-24.9523"/>
<polygon fill="midnightblue" stroke="midnightblue" points="207.362,-27.892 214.023,-19.6525 203.678,-21.9402 207.362,-27.892"/>
</g>
</g>
</svg>
