<?xml version="1.0" encoding="UTF-8" standalone="no"?>
<!DOCTYPE svg PUBLIC "-//W3C//DTD SVG 1.1//EN"
 "http://www.w3.org/Graphics/SVG/1.1/DTD/svg11.dtd">
<!-- Generated by graphviz version 2.38.0 (20140413.2041)
 -->
<!-- Title: chooseColor Pages: 1 -->
<svg width="327pt" height="104pt"
 viewBox="0.00 0.00 327.00 104.00" xmlns="http://www.w3.org/2000/svg" xmlns:xlink="http://www.w3.org/1999/xlink">
<g id="graph0" class="graph" transform="scale(1 1) rotate(0) translate(4 100)">
<title>chooseColor</title>
<!-- Node1 -->
<g id="node1" class="node"><title>Node1</title>
<g id="a_node1"><a xlink:title=" ">
<polygon fill="#bfbfbf" stroke="black" points="248,-38.5 248,-57.5 319,-57.5 319,-38.5 248,-38.5"/>
<text text-anchor="middle" x="283.5" y="-45.5" font-family="Helvetica,sans-Serif" font-size="10.00">chooseColor</text>
</a>
</g>
</g>
<!-- Node2 -->
<g id="node2" class="node"><title>Node2</title>
<g id="a_node2"><a xlink:href="$_moi_2tp3_23_dmain_8c.html#a9fddccb53c1c2472ac9fb878f76201df" xlink:title=" ">
<polygon fill="none" stroke="black" points="163,-76.5 163,-95.5 206,-95.5 206,-76.5 163,-76.5"/>
<text text-anchor="middle" x="184.5" y="-83.5" font-family="Helvetica,sans-Serif" font-size="10.00">bezier</text>
</a>
</g>
</g>
<!-- Node1&#45;&gt;Node2 -->
<g id="edge1" class="edge"><title>Node1&#45;&gt;Node2</title>
<path fill="none" stroke="midnightblue" d="M248.566,-61.2937C234.386,-66.8487 218.375,-73.121 206.034,-77.9557"/>
<polygon fill="midnightblue" stroke="midnightblue" points="249.988,-64.4955 258.023,-57.589 247.435,-57.9778 249.988,-64.4955"/>
</g>
<!-- Node3 -->
<g id="node3" class="node"><title>Node3</title>
<g id="a_node3"><a xlink:href="$_moi_2tp2_23_dmain_8c.html#a1e5b20fed15743656bb6d2e6a6ea6269" xlink:title=" ">
<polygon fill="none" stroke="black" points="74,-38.5 74,-57.5 121,-57.5 121,-38.5 74,-38.5"/>
<text text-anchor="middle" x="97.5" y="-45.5" font-family="Helvetica,sans-Serif" font-size="10.00">display</text>
</a>
</g>
</g>
<!-- Node1&#45;&gt;Node3 -->
<g id="edge6" class="edge"><title>Node1&#45;&gt;Node3</title>
<path fill="none" stroke="midnightblue" d="M237.878,-48C200.957,-48 150.035,-48 121.066,-48"/>
<polygon fill="midnightblue" stroke="midnightblue" points="237.891,-51.5001 247.891,-48 237.891,-44.5001 237.891,-51.5001"/>
</g>
<!-- Node5 -->
<g id="node5" class="node"><title>Node5</title>
<g id="a_node5"><a xlink:href="$_moi_2tp2_23_dmain_8c.html#af426a9d81b3750098001d9c27e8a55fd" xlink:title=" ">
<polygon fill="none" stroke="black" points="157,-0.5 157,-19.5 212,-19.5 212,-0.5 157,-0.5"/>
<text text-anchor="middle" x="184.5" y="-7.5" font-family="Helvetica,sans-Serif" font-size="10.00">bezier3D</text>
</a>
</g>
</g>
<!-- Node1&#45;&gt;Node5 -->
<g id="edge4" class="edge"><title>Node1&#45;&gt;Node5</title>
<path fill="none" stroke="midnightblue" d="M248.64,-34.7354C235.906,-29.7467 221.686,-24.1759 209.969,-19.5859"/>
<polygon fill="midnightblue" stroke="midnightblue" points="247.435,-38.0222 258.023,-38.411 249.988,-31.5045 247.435,-38.0222"/>
</g>
<!-- Node2&#45;&gt;Node3 -->
<g id="edge2" class="edge"><title>Node2&#45;&gt;Node3</title>
<path fill="none" stroke="midnightblue" d="M153.541,-72.6067C142.395,-67.6238 129.985,-62.0757 119.774,-57.5109"/>
<polygon fill="midnightblue" stroke="midnightblue" points="152.366,-75.9151 162.924,-76.8013 155.223,-69.5247 152.366,-75.9151"/>
</g>
<!-- Node4 -->
<g id="node4" class="node"><title>Node4</title>
<g id="a_node4"><a xlink:href="$_moi_2tp2_23_dmain_8c.html#a0ddf1224851353fc92bfbff6f499fa97" xlink:title=" ">
<polygon fill="none" stroke="black" points="0,-38.5 0,-57.5 38,-57.5 38,-38.5 0,-38.5"/>
<text text-anchor="middle" x="19" y="-45.5" font-family="Helvetica,sans-Serif" font-size="10.00">main</text>
</a>
</g>
</g>
<!-- Node3&#45;&gt;Node4 -->
<g id="edge3" class="edge"><title>Node3&#45;&gt;Node4</title>
<path fill="none" stroke="midnightblue" d="M63.8695,-48C55.0121,-48 45.7438,-48 38.0205,-48"/>
<polygon fill="midnightblue" stroke="midnightblue" points="63.9613,-51.5001 73.9612,-48 63.9612,-44.5001 63.9613,-51.5001"/>
</g>
<!-- Node5&#45;&gt;Node3 -->
<g id="edge5" class="edge"><title>Node5&#45;&gt;Node3</title>
<path fill="none" stroke="midnightblue" d="M152.841,-23.7062C141.939,-28.5801 129.907,-33.9591 119.942,-38.4141"/>
<polygon fill="midnightblue" stroke="midnightblue" points="154.35,-26.8656 162.051,-19.589 151.493,-20.4751 154.35,-26.8656"/>
</g>
</g>
</svg>
