<?xml version="1.0" encoding="UTF-8" standalone="no"?>
<!DOCTYPE svg PUBLIC "-//W3C//DTD SVG 1.1//EN"
 "http://www.w3.org/Graphics/SVG/1.1/DTD/svg11.dtd">
<!-- Generated by graphviz version 2.38.0 (20140413.2041)
 -->
<!-- Title: display Pages: 1 -->
<svg width="257pt" height="161pt"
 viewBox="0.00 0.00 257.00 161.16" xmlns="http://www.w3.org/2000/svg" xmlns:xlink="http://www.w3.org/1999/xlink">
<g id="graph0" class="graph" transform="scale(1 1) rotate(0) translate(4 157.162)">
<title>display</title>
<!-- Node1 -->
<g id="node1" class="node"><title>Node1</title>
<g id="a_node1"><a xlink:title=" ">
<polygon fill="#bfbfbf" stroke="black" points="0,-76.5 0,-95.5 47,-95.5 47,-76.5 0,-76.5"/>
<text text-anchor="middle" x="23.5" y="-83.5" font-family="Helvetica,sans-Serif" font-size="10.00">display</text>
</a>
</g>
</g>
<!-- Node2 -->
<g id="node2" class="node"><title>Node2</title>
<g id="a_node2"><a xlink:href="$_moi_2tp1_2main_8c.html#af0c409e4093427c05ad67f3b0bdece21" xlink:title=" ">
<polygon fill="none" stroke="black" points="90.5,-114.5 90.5,-133.5 134.5,-133.5 134.5,-114.5 90.5,-114.5"/>
<text text-anchor="middle" x="112.5" y="-121.5" font-family="Helvetica,sans-Serif" font-size="10.00">Bezier</text>
</a>
</g>
</g>
<!-- Node1&#45;&gt;Node2 -->
<g id="edge1" class="edge"><title>Node1&#45;&gt;Node2</title>
<path fill="none" stroke="midnightblue" d="M46.4538,-95.589C56.9933,-100.192 69.7904,-105.782 81.2362,-110.781"/>
<polygon fill="midnightblue" stroke="midnightblue" points="79.8886,-114.012 90.4536,-114.807 82.6906,-107.597 79.8886,-114.012"/>
</g>
<!-- Node3 -->
<g id="node3" class="node"><title>Node3</title>
<g id="a_node3"><a xlink:href="$_moi_2tp1_2main_8c.html#a587fb578fe3fba3da1fa670b7d9f923b" xlink:title=" ">
<polygon fill="none" stroke="black" points="178,-133.5 178,-152.5 249,-152.5 249,-133.5 178,-133.5"/>
<text text-anchor="middle" x="213.5" y="-140.5" font-family="Helvetica,sans-Serif" font-size="10.00">chooseColor</text>
</a>
</g>
</g>
<!-- Node1&#45;&gt;Node3 -->
<g id="edge7" class="edge"><title>Node1&#45;&gt;Node3</title>
<path fill="none" stroke="midnightblue" d="M30.6547,-95.5461C40.0397,-109.112 59.3557,-133.386 83,-143 109.633,-153.83 141.973,-153.84 167.672,-151.137"/>
<polygon fill="midnightblue" stroke="midnightblue" points="168.383,-154.577 177.884,-149.887 167.532,-147.629 168.383,-154.577"/>
</g>
<!-- Node4 -->
<g id="node4" class="node"><title>Node4</title>
<g id="a_node4"><a xlink:href="$_moi_2tp1_2main_8c.html#a9d949080c2f3761116b7e477dfdb2952" xlink:title=" ">
<polygon fill="none" stroke="black" points="186,-76.5 186,-95.5 241,-95.5 241,-76.5 186,-76.5"/>
<text text-anchor="middle" x="213.5" y="-83.5" font-family="Helvetica,sans-Serif" font-size="10.00">drawLine</text>
</a>
</g>
</g>
<!-- Node1&#45;&gt;Node4 -->
<g id="edge8" class="edge"><title>Node1&#45;&gt;Node4</title>
<path fill="none" stroke="midnightblue" d="M47.1772,-86C79.0459,-86 137.447,-86 175.615,-86"/>
<polygon fill="midnightblue" stroke="midnightblue" points="175.805,-89.5001 185.805,-86 175.805,-82.5001 175.805,-89.5001"/>
</g>
<!-- Node5 -->
<g id="node5" class="node"><title>Node5</title>
<g id="a_node5"><a xlink:href="$_paul_2tp1_2main_8c.html#a9d420893f4d75d158b5f9d62f5f145ab" xlink:title=" ">
<polygon fill="none" stroke="black" points="91,-38.5 91,-57.5 134,-57.5 134,-38.5 91,-38.5"/>
<text text-anchor="middle" x="112.5" y="-45.5" font-family="Helvetica,sans-Serif" font-size="10.00">bezier</text>
</a>
</g>
</g>
<!-- Node1&#45;&gt;Node5 -->
<g id="edge4" class="edge"><title>Node1&#45;&gt;Node5</title>
<path fill="none" stroke="midnightblue" d="M46.4538,-76.411C57.0719,-71.7732 69.9815,-66.1345 81.4922,-61.1068"/>
<polygon fill="midnightblue" stroke="midnightblue" points="82.9881,-64.2728 90.7512,-57.0627 80.1862,-57.858 82.9881,-64.2728"/>
</g>
<!-- Node7 -->
<g id="node7" class="node"><title>Node7</title>
<g id="a_node7"><a xlink:href="$_moi_2tp1_2main_8c.html#a85ac77722dae61e1b6b054b506bd1e45" xlink:title=" ">
<polygon fill="none" stroke="black" points="83,-0.5 83,-19.5 142,-19.5 142,-0.5 83,-0.5"/>
<text text-anchor="middle" x="112.5" y="-7.5" font-family="Helvetica,sans-Serif" font-size="10.00">drawPoint</text>
</a>
</g>
</g>
<!-- Node1&#45;&gt;Node7 -->
<g id="edge9" class="edge"><title>Node1&#45;&gt;Node7</title>
<path fill="none" stroke="midnightblue" d="M33.5251,-76.1571C44.611,-64.3226 64.2588,-44.1617 83,-29 84.5257,-27.7657 86.1315,-26.534 87.7717,-25.3246"/>
<polygon fill="midnightblue" stroke="midnightblue" points="89.8436,-28.1467 96.0441,-19.5558 85.8395,-22.405 89.8436,-28.1467"/>
</g>
<!-- Node2&#45;&gt;Node3 -->
<g id="edge2" class="edge"><title>Node2&#45;&gt;Node3</title>
<path fill="none" stroke="midnightblue" d="M134.982,-128.123C144.658,-129.98 156.465,-132.246 167.917,-134.444"/>
<polygon fill="midnightblue" stroke="midnightblue" points="167.346,-137.898 177.827,-136.346 168.666,-131.023 167.346,-137.898"/>
</g>
<!-- Node2&#45;&gt;Node4 -->
<g id="edge3" class="edge"><title>Node2&#45;&gt;Node4</title>
<path fill="none" stroke="midnightblue" d="M134.982,-115.755C147.549,-110.931 163.71,-104.727 178.021,-99.2343"/>
<polygon fill="midnightblue" stroke="midnightblue" points="179.484,-102.422 187.566,-95.5706 176.976,-95.8866 179.484,-102.422"/>
</g>
<!-- Node5&#45;&gt;Node4 -->
<g id="edge5" class="edge"><title>Node5&#45;&gt;Node4</title>
<path fill="none" stroke="midnightblue" d="M134.013,-55.8736C146.621,-60.7133 163.104,-67.0401 177.708,-72.6457"/>
<polygon fill="midnightblue" stroke="midnightblue" points="176.858,-76.0682 187.448,-76.3841 179.367,-69.533 176.858,-76.0682"/>
</g>
<!-- Node6 -->
<g id="node6" class="node"><title>Node6</title>
<g id="a_node6"><a xlink:href="$_paul_2tp1_2main_8c.html#aa04d41e9bd9991e3af1418648e1bd387" xlink:title=" ">
<polygon fill="none" stroke="black" points="197.5,-38.5 197.5,-57.5 229.5,-57.5 229.5,-38.5 197.5,-38.5"/>
<text text-anchor="middle" x="213.5" y="-45.5" font-family="Helvetica,sans-Serif" font-size="10.00">lerp</text>
</a>
</g>
</g>
<!-- Node5&#45;&gt;Node6 -->
<g id="edge6" class="edge"><title>Node5&#45;&gt;Node6</title>
<path fill="none" stroke="midnightblue" d="M134.013,-48C149.53,-48 170.916,-48 187.445,-48"/>
<polygon fill="midnightblue" stroke="midnightblue" points="187.496,-51.5001 197.496,-48 187.496,-44.5001 187.496,-51.5001"/>
</g>
</g>
</svg>
