<?xml version="1.0" encoding="UTF-8" standalone="no"?>
<!DOCTYPE svg PUBLIC "-//W3C//DTD SVG 1.1//EN"
 "http://www.w3.org/Graphics/SVG/1.1/DTD/svg11.dtd">
<!-- Generated by graphviz version 2.38.0 (20140413.2041)
 -->
<!-- Title: display Pages: 1 -->
<svg width="330pt" height="218pt"
 viewBox="0.00 0.00 330.00 218.00" xmlns="http://www.w3.org/2000/svg" xmlns:xlink="http://www.w3.org/1999/xlink">
<g id="graph0" class="graph" transform="scale(1 1) rotate(0) translate(4 214)">
<title>display</title>
<!-- Node1 -->
<g id="node1" class="node"><title>Node1</title>
<g id="a_node1"><a xlink:title=" ">
<polygon fill="#bfbfbf" stroke="black" points="0,-95.5 0,-114.5 47,-114.5 47,-95.5 0,-95.5"/>
<text text-anchor="middle" x="23.5" y="-102.5" font-family="Helvetica,sans-Serif" font-size="10.00">display</text>
</a>
</g>
</g>
<!-- Node2 -->
<g id="node2" class="node"><title>Node2</title>
<g id="a_node2"><a xlink:href="$_moi_2tp3_23_dmain_8c.html#a9fddccb53c1c2472ac9fb878f76201df" xlink:title=" ">
<polygon fill="none" stroke="black" points="89,-114.5 89,-133.5 132,-133.5 132,-114.5 89,-114.5"/>
<text text-anchor="middle" x="110.5" y="-121.5" font-family="Helvetica,sans-Serif" font-size="10.00">bezier</text>
</a>
</g>
</g>
<!-- Node1&#45;&gt;Node2 -->
<g id="edge1" class="edge"><title>Node1&#45;&gt;Node2</title>
<path fill="none" stroke="midnightblue" d="M47.2784,-110.092C57.0153,-112.268 68.5266,-114.841 78.9838,-117.179"/>
<polygon fill="midnightblue" stroke="midnightblue" points="78.4621,-120.648 88.9848,-119.414 79.9892,-113.817 78.4621,-120.648"/>
</g>
<!-- Node3 -->
<g id="node3" class="node"><title>Node3</title>
<g id="a_node3"><a xlink:href="$_moi_2tp2_23_dmain_8c.html#a587fb578fe3fba3da1fa670b7d9f923b" xlink:title=" ">
<polygon fill="none" stroke="black" points="174,-190.5 174,-209.5 245,-209.5 245,-190.5 174,-190.5"/>
<text text-anchor="middle" x="209.5" y="-197.5" font-family="Helvetica,sans-Serif" font-size="10.00">chooseColor</text>
</a>
</g>
</g>
<!-- Node1&#45;&gt;Node3 -->
<g id="edge7" class="edge"><title>Node1&#45;&gt;Node3</title>
<path fill="none" stroke="midnightblue" d="M31.72,-114.699C41.807,-127.58 61.3319,-150.19 83,-163 107.834,-177.681 138.915,-186.902 163.933,-192.467"/>
<polygon fill="midnightblue" stroke="midnightblue" points="163.39,-195.929 173.896,-194.564 164.832,-189.079 163.39,-195.929"/>
</g>
<!-- Node4 -->
<g id="node4" class="node"><title>Node4</title>
<g id="a_node4"><a xlink:href="$_moi_2tp2_23_dmain_8c.html#a5b6c8f7241dffa4b63cdb31482ca3987" xlink:title=" ">
<polygon fill="none" stroke="black" points="180,-152.5 180,-171.5 239,-171.5 239,-152.5 180,-152.5"/>
<text text-anchor="middle" x="209.5" y="-159.5" font-family="Helvetica,sans-Serif" font-size="10.00">drawPoint</text>
</a>
</g>
</g>
<!-- Node1&#45;&gt;Node4 -->
<g id="edge9" class="edge"><title>Node1&#45;&gt;Node4</title>
<path fill="none" stroke="midnightblue" d="M36.221,-114.793C47.4793,-123.646 65.3393,-136.289 83,-143 110.972,-153.63 144.58,-158.329 169.975,-160.398"/>
<polygon fill="midnightblue" stroke="midnightblue" points="169.743,-163.89 179.967,-161.112 170.242,-156.908 169.743,-163.89"/>
</g>
<!-- Node5 -->
<g id="node5" class="node"><title>Node5</title>
<g id="a_node5"><a xlink:href="$_moi_2tp2_23_dmain_8c.html#a71628a55b7ad470e01d9f475396c4dc6" xlink:title=" ">
<polygon fill="none" stroke="black" points="179.5,-76.5 179.5,-95.5 239.5,-95.5 239.5,-76.5 179.5,-76.5"/>
<text text-anchor="middle" x="209.5" y="-83.5" font-family="Helvetica,sans-Serif" font-size="10.00">drawQuad</text>
</a>
</g>
</g>
<!-- Node1&#45;&gt;Node5 -->
<g id="edge10" class="edge"><title>Node1&#45;&gt;Node5</title>
<path fill="none" stroke="midnightblue" d="M47.062,-102.67C77.4997,-99.5272 132.181,-93.8808 169.387,-90.0389"/>
<polygon fill="midnightblue" stroke="midnightblue" points="169.795,-93.5154 179.383,-89.0067 169.076,-86.5524 169.795,-93.5154"/>
</g>
<!-- Node8 -->
<g id="node8" class="node"><title>Node8</title>
<g id="a_node8"><a xlink:href="$_moi_2tp2_23_dmain_8c.html#a0c16fe8c7d6a4759b082dbd4f7cd2bb0" xlink:title=" ">
<polygon fill="none" stroke="black" points="83,-38.5 83,-57.5 138,-57.5 138,-38.5 83,-38.5"/>
<text text-anchor="middle" x="110.5" y="-45.5" font-family="Helvetica,sans-Serif" font-size="10.00">drawLine</text>
</a>
</g>
</g>
<!-- Node1&#45;&gt;Node8 -->
<g id="edge8" class="edge"><title>Node1&#45;&gt;Node8</title>
<path fill="none" stroke="midnightblue" d="M38.9191,-95.3307C52.0644,-86.5157 71.697,-73.3503 86.9216,-63.1408"/>
<polygon fill="midnightblue" stroke="midnightblue" points="88.9377,-66.003 95.2939,-57.5265 85.039,-60.1891 88.9377,-66.003"/>
</g>
<!-- Node9 -->
<g id="node9" class="node"><title>Node9</title>
<g id="a_node9"><a xlink:href="$_moi_2tp2_23_dmain_8c.html#a68ff78bdc2fcc8807375df87a7defa7d" xlink:title=" ">
<polygon fill="none" stroke="black" points="96,-0.5 96,-19.5 125,-19.5 125,-0.5 96,-0.5"/>
<text text-anchor="middle" x="110.5" y="-7.5" font-family="Helvetica,sans-Serif" font-size="10.00">pt</text>
</a>
</g>
</g>
<!-- Node1&#45;&gt;Node9 -->
<g id="edge11" class="edge"><title>Node1&#45;&gt;Node9</title>
<path fill="none" stroke="midnightblue" d="M30.5519,-95.3993C40.3877,-80.2388 60.9713,-50.2925 83,-29 84.4653,-27.5836 86.0426,-26.1899 87.6713,-24.8404"/>
<polygon fill="midnightblue" stroke="midnightblue" points="90.1038,-27.3888 95.9639,-18.5621 85.8785,-21.8078 90.1038,-27.3888"/>
</g>
<!-- Node2&#45;&gt;Node3 -->
<g id="edge2" class="edge"><title>Node2&#45;&gt;Node3</title>
<path fill="none" stroke="midnightblue" d="M120.638,-133.634C132.309,-145.619 153.463,-166.295 174,-181 175.897,-182.358 177.902,-183.692 179.951,-184.984"/>
<polygon fill="midnightblue" stroke="midnightblue" points="178.636,-188.271 189.03,-190.323 182.184,-182.237 178.636,-188.271"/>
</g>
<!-- Node2&#45;&gt;Node4 -->
<g id="edge3" class="edge"><title>Node2&#45;&gt;Node4</title>
<path fill="none" stroke="midnightblue" d="M132.071,-132.059C144.452,-136.909 160.516,-143.202 174.719,-148.766"/>
<polygon fill="midnightblue" stroke="midnightblue" points="173.599,-152.087 184.187,-152.475 176.153,-145.569 173.599,-152.087"/>
</g>
<!-- Node2&#45;&gt;Node5 -->
<g id="edge4" class="edge"><title>Node2&#45;&gt;Node5</title>
<path fill="none" stroke="midnightblue" d="M132.071,-115.941C144.452,-111.091 160.516,-104.798 174.719,-99.2337"/>
<polygon fill="midnightblue" stroke="midnightblue" points="176.153,-102.431 184.187,-95.5246 173.599,-95.9135 176.153,-102.431"/>
</g>
<!-- Node6 -->
<g id="node6" class="node"><title>Node6</title>
<g id="a_node6"><a xlink:href="$_moi_2tp3_23_dmain_8c.html#afc335792d57c9404482ac57e304c19f5" xlink:title=" ">
<polygon fill="none" stroke="black" points="175.5,-114.5 175.5,-133.5 243.5,-133.5 243.5,-114.5 175.5,-114.5"/>
<text text-anchor="middle" x="209.5" y="-121.5" font-family="Helvetica,sans-Serif" font-size="10.00">pointBinterp</text>
</a>
</g>
</g>
<!-- Node2&#45;&gt;Node6 -->
<g id="edge5" class="edge"><title>Node2&#45;&gt;Node6</title>
<path fill="none" stroke="midnightblue" d="M132.071,-124C141.792,-124 153.784,-124 165.362,-124"/>
<polygon fill="midnightblue" stroke="midnightblue" points="165.364,-127.5 175.364,-124 165.364,-120.5 165.364,-127.5"/>
</g>
<!-- Node7 -->
<g id="node7" class="node"><title>Node7</title>
<g id="a_node7"><a xlink:href="$_moi_2tp3_23_dmain_8c.html#a23f0e89ac18ea3648eafe78ea4766e27" xlink:title=" ">
<polygon fill="none" stroke="black" points="281,-114.5 281,-133.5 322,-133.5 322,-114.5 281,-114.5"/>
<text text-anchor="middle" x="301.5" y="-121.5" font-family="Helvetica,sans-Serif" font-size="10.00">binter</text>
</a>
</g>
</g>
<!-- Node6&#45;&gt;Node7 -->
<g id="edge6" class="edge"><title>Node6&#45;&gt;Node7</title>
<path fill="none" stroke="midnightblue" d="M243.502,-124C252.418,-124 262.013,-124 270.74,-124"/>
<polygon fill="midnightblue" stroke="midnightblue" points="270.852,-127.5 280.852,-124 270.852,-120.5 270.852,-127.5"/>
</g>
</g>
</svg>
