<?xml version="1.0" encoding="UTF-8" standalone="no"?>
<!DOCTYPE svg PUBLIC "-//W3C//DTD SVG 1.1//EN"
 "http://www.w3.org/Graphics/SVG/1.1/DTD/svg11.dtd">
<!-- Generated by graphviz version 2.38.0 (20140413.2041)
 -->
<!-- Title: main Pages: 1 -->
<svg width="413pt" height="256pt"
 viewBox="0.00 0.00 413.00 256.00" xmlns="http://www.w3.org/2000/svg" xmlns:xlink="http://www.w3.org/1999/xlink">
<g id="graph0" class="graph" transform="scale(1 1) rotate(0) translate(4 252)">
<title>main</title>
<!-- Node1 -->
<g id="node1" class="node"><title>Node1</title>
<g id="a_node1"><a xlink:title=" ">
<polygon fill="#bfbfbf" stroke="black" points="0,-76.5 0,-95.5 38,-95.5 38,-76.5 0,-76.5"/>
<text text-anchor="middle" x="19" y="-83.5" font-family="Helvetica,sans-Serif" font-size="10.00">main</text>
</a>
</g>
</g>
<!-- Node2 -->
<g id="node2" class="node"><title>Node2</title>
<g id="a_node2"><a xlink:href="$_moi_2tp2_23_dmain_8c.html#a1e5b20fed15743656bb6d2e6a6ea6269" xlink:title=" ">
<polygon fill="none" stroke="black" points="78.5,-152.5 78.5,-171.5 125.5,-171.5 125.5,-152.5 78.5,-152.5"/>
<text text-anchor="middle" x="102" y="-159.5" font-family="Helvetica,sans-Serif" font-size="10.00">display</text>
</a>
</g>
</g>
<!-- Node1&#45;&gt;Node2 -->
<g id="edge1" class="edge"><title>Node1&#45;&gt;Node2</title>
<path fill="none" stroke="midnightblue" d="M28.2524,-95.8453C38.4082,-107.682 56.4686,-127.845 74,-143 75.3117,-144.134 76.6904,-145.265 78.102,-146.378"/>
<polygon fill="midnightblue" stroke="midnightblue" points="76.1882,-149.316 86.308,-152.454 80.3534,-143.69 76.1882,-149.316"/>
</g>
<!-- Node12 -->
<g id="node12" class="node"><title>Node12</title>
<g id="a_node12"><a xlink:href="$_moi_2tp2_23_dmain_8c.html#a54002f21e2f76025605f01bc45982541" xlink:title=" ">
<polygon fill="none" stroke="black" points="74,-114.5 74,-133.5 130,-133.5 130,-114.5 74,-114.5"/>
<text text-anchor="middle" x="102" y="-121.5" font-family="Helvetica,sans-Serif" font-size="10.00">keyboard</text>
</a>
</g>
</g>
<!-- Node1&#45;&gt;Node12 -->
<g id="edge17" class="edge"><title>Node1&#45;&gt;Node12</title>
<path fill="none" stroke="midnightblue" d="M38.3802,-94.6228C48.1275,-99.1956 60.3408,-104.925 71.3869,-110.107"/>
<polygon fill="midnightblue" stroke="midnightblue" points="70.1626,-113.399 80.7024,-114.478 73.1357,-107.062 70.1626,-113.399"/>
</g>
<!-- Node13 -->
<g id="node13" class="node"><title>Node13</title>
<g id="a_node13"><a xlink:href="$_moi_2tp2_23_dmain_8c.html#ac76a5d78172a826cd6ee9512b89a86c0" xlink:title=" ">
<polygon fill="none" stroke="black" points="79,-76.5 79,-95.5 125,-95.5 125,-76.5 79,-76.5"/>
<text text-anchor="middle" x="102" y="-83.5" font-family="Helvetica,sans-Serif" font-size="10.00">mouse</text>
</a>
</g>
</g>
<!-- Node1&#45;&gt;Node13 -->
<g id="edge18" class="edge"><title>Node1&#45;&gt;Node13</title>
<path fill="none" stroke="midnightblue" d="M38.3802,-86C47.4121,-86 58.5612,-86 68.9371,-86"/>
<polygon fill="midnightblue" stroke="midnightblue" points="68.9484,-89.5001 78.9483,-86 68.9483,-82.5001 68.9484,-89.5001"/>
</g>
<!-- Node14 -->
<g id="node14" class="node"><title>Node14</title>
<g id="a_node14"><a xlink:href="$_moi_2tp2_23_dmain_8c.html#acc1ffe65e6869931318610cae7210078" xlink:title=" ">
<polygon fill="none" stroke="black" points="76.5,-38.5 76.5,-57.5 127.5,-57.5 127.5,-38.5 76.5,-38.5"/>
<text text-anchor="middle" x="102" y="-45.5" font-family="Helvetica,sans-Serif" font-size="10.00">reshape</text>
</a>
</g>
</g>
<!-- Node1&#45;&gt;Node14 -->
<g id="edge19" class="edge"><title>Node1&#45;&gt;Node14</title>
<path fill="none" stroke="midnightblue" d="M38.3802,-77.3772C48.1275,-72.8044 60.3408,-67.0747 71.3869,-61.8925"/>
<polygon fill="midnightblue" stroke="midnightblue" points="73.1357,-64.9382 80.7024,-57.5223 70.1626,-58.601 73.1357,-64.9382"/>
</g>
<!-- Node15 -->
<g id="node15" class="node"><title>Node15</title>
<g id="a_node15"><a xlink:href="$_paul_2tp2_23_dmain_8c.html#a3e2e1f47209b4da17629c6d85d02034c" xlink:title=" ">
<polygon fill="none" stroke="black" points="78.5,-0.5 78.5,-19.5 125.5,-19.5 125.5,-0.5 78.5,-0.5"/>
<text text-anchor="middle" x="102" y="-7.5" font-family="Helvetica,sans-Serif" font-size="10.00">special</text>
</a>
</g>
</g>
<!-- Node1&#45;&gt;Node15 -->
<g id="edge20" class="edge"><title>Node1&#45;&gt;Node15</title>
<path fill="none" stroke="midnightblue" d="M28.2524,-76.1547C38.4082,-64.3179 56.4686,-44.1547 74,-29 75.3117,-27.8661 76.6904,-26.7349 78.102,-25.6216"/>
<polygon fill="midnightblue" stroke="midnightblue" points="80.3534,-28.3096 86.308,-19.5464 76.1882,-22.6836 80.3534,-28.3096"/>
</g>
<!-- Node3 -->
<g id="node3" class="node"><title>Node3</title>
<g id="a_node3"><a xlink:href="$_moi_2tp3_23_dmain_8c.html#a9fddccb53c1c2472ac9fb878f76201df" xlink:title=" ">
<polygon fill="none" stroke="black" points="172,-152.5 172,-171.5 215,-171.5 215,-152.5 172,-152.5"/>
<text text-anchor="middle" x="193.5" y="-159.5" font-family="Helvetica,sans-Serif" font-size="10.00">bezier</text>
</a>
</g>
</g>
<!-- Node2&#45;&gt;Node3 -->
<g id="edge2" class="edge"><title>Node2&#45;&gt;Node3</title>
<path fill="none" stroke="midnightblue" d="M125.585,-162C136.448,-162 149.643,-162 161.435,-162"/>
<polygon fill="midnightblue" stroke="midnightblue" points="161.763,-165.5 171.763,-162 161.763,-158.5 161.763,-165.5"/>
</g>
<!-- Node4 -->
<g id="node4" class="node"><title>Node4</title>
<g id="a_node4"><a xlink:href="$_moi_2tp2_23_dmain_8c.html#a587fb578fe3fba3da1fa670b7d9f923b" xlink:title=" ">
<polygon fill="none" stroke="black" points="257,-190.5 257,-209.5 328,-209.5 328,-190.5 257,-190.5"/>
<text text-anchor="middle" x="292.5" y="-197.5" font-family="Helvetica,sans-Serif" font-size="10.00">chooseColor</text>
</a>
</g>
</g>
<!-- Node2&#45;&gt;Node4 -->
<g id="edge12" class="edge"><title>Node2&#45;&gt;Node4</title>
<path fill="none" stroke="midnightblue" d="M109.81,-171.565C120.144,-185.153 141.225,-209.456 166,-219 196.861,-230.889 234.67,-222.308 260.674,-213.172"/>
<polygon fill="midnightblue" stroke="midnightblue" points="262.22,-216.331 270.362,-209.551 259.769,-209.774 262.22,-216.331"/>
</g>
<!-- Node5 -->
<g id="node5" class="node"><title>Node5</title>
<g id="a_node5"><a xlink:href="$_moi_2tp2_23_dmain_8c.html#a5b6c8f7241dffa4b63cdb31482ca3987" xlink:title=" ">
<polygon fill="none" stroke="black" points="263,-228.5 263,-247.5 322,-247.5 322,-228.5 263,-228.5"/>
<text text-anchor="middle" x="292.5" y="-235.5" font-family="Helvetica,sans-Serif" font-size="10.00">drawPoint</text>
</a>
</g>
</g>
<!-- Node2&#45;&gt;Node5 -->
<g id="edge14" class="edge"><title>Node2&#45;&gt;Node5</title>
<path fill="none" stroke="midnightblue" d="M107.808,-171.606C116.687,-188.136 137.392,-221.485 166,-235 192.932,-247.724 226.877,-247.717 252.671,-244.946"/>
<polygon fill="midnightblue" stroke="midnightblue" points="253.343,-248.389 262.829,-243.669 252.47,-241.444 253.343,-248.389"/>
</g>
<!-- Node6 -->
<g id="node6" class="node"><title>Node6</title>
<g id="a_node6"><a xlink:href="$_moi_2tp2_23_dmain_8c.html#a71628a55b7ad470e01d9f475396c4dc6" xlink:title=" ">
<polygon fill="none" stroke="black" points="262.5,-76.5 262.5,-95.5 322.5,-95.5 322.5,-76.5 262.5,-76.5"/>
<text text-anchor="middle" x="292.5" y="-83.5" font-family="Helvetica,sans-Serif" font-size="10.00">drawQuad</text>
</a>
</g>
</g>
<!-- Node2&#45;&gt;Node6 -->
<g id="edge15" class="edge"><title>Node2&#45;&gt;Node6</title>
<path fill="none" stroke="midnightblue" d="M125.718,-152.546C137.688,-147.584 152.623,-141.425 166,-136 196.892,-123.472 232.167,-109.443 257.435,-99.4408"/>
<polygon fill="midnightblue" stroke="midnightblue" points="258.924,-102.616 266.935,-95.6836 256.349,-96.1067 258.924,-102.616"/>
</g>
<!-- Node9 -->
<g id="node9" class="node"><title>Node9</title>
<g id="a_node9"><a xlink:href="$_moi_2tp2_23_dmain_8c.html#af426a9d81b3750098001d9c27e8a55fd" xlink:title=" ">
<polygon fill="none" stroke="black" points="166,-190.5 166,-209.5 221,-209.5 221,-190.5 166,-190.5"/>
<text text-anchor="middle" x="193.5" y="-197.5" font-family="Helvetica,sans-Serif" font-size="10.00">bezier3D</text>
</a>
</g>
</g>
<!-- Node2&#45;&gt;Node9 -->
<g id="edge8" class="edge"><title>Node2&#45;&gt;Node9</title>
<path fill="none" stroke="midnightblue" d="M125.585,-171.589C136.184,-176.089 149.004,-181.532 160.574,-186.445"/>
<polygon fill="midnightblue" stroke="midnightblue" points="159.35,-189.728 169.923,-190.414 162.086,-183.284 159.35,-189.728"/>
</g>
<!-- Node10 -->
<g id="node10" class="node"><title>Node10</title>
<g id="a_node10"><a xlink:href="$_moi_2tp2_23_dmain_8c.html#a0c16fe8c7d6a4759b082dbd4f7cd2bb0" xlink:title=" ">
<polygon fill="none" stroke="black" points="265,-152.5 265,-171.5 320,-171.5 320,-152.5 265,-152.5"/>
<text text-anchor="middle" x="292.5" y="-159.5" font-family="Helvetica,sans-Serif" font-size="10.00">drawLine</text>
</a>
</g>
</g>
<!-- Node2&#45;&gt;Node10 -->
<g id="edge13" class="edge"><title>Node2&#45;&gt;Node10</title>
<path fill="none" stroke="midnightblue" d="M125.673,-153.404C137.503,-149.372 152.325,-145.017 166,-143 190.183,-139.433 196.767,-139.792 221,-143 232.142,-144.475 244.023,-147.208 254.794,-150.149"/>
<polygon fill="midnightblue" stroke="midnightblue" points="254.144,-153.604 264.721,-153 256.076,-146.876 254.144,-153.604"/>
</g>
<!-- Node11 -->
<g id="node11" class="node"><title>Node11</title>
<g id="a_node11"><a xlink:href="$_moi_2tp2_23_dmain_8c.html#a68ff78bdc2fcc8807375df87a7defa7d" xlink:title=" ">
<polygon fill="none" stroke="black" points="179,-38.5 179,-57.5 208,-57.5 208,-38.5 179,-38.5"/>
<text text-anchor="middle" x="193.5" y="-45.5" font-family="Helvetica,sans-Serif" font-size="10.00">pt</text>
</a>
</g>
</g>
<!-- Node2&#45;&gt;Node11 -->
<g id="edge16" class="edge"><title>Node2&#45;&gt;Node11</title>
<path fill="none" stroke="midnightblue" d="M119.483,-152.323C123.237,-149.623 126.999,-146.467 130,-143 153.154,-116.248 144.53,-100.121 166,-72 167.872,-69.5486 170.015,-67.1447 172.254,-64.8622"/>
<polygon fill="midnightblue" stroke="midnightblue" points="175.041,-67.0501 179.98,-57.677 170.274,-61.9243 175.041,-67.0501"/>
</g>
<!-- Node3&#45;&gt;Node4 -->
<g id="edge3" class="edge"><title>Node3&#45;&gt;Node4</title>
<path fill="none" stroke="midnightblue" d="M215.071,-170.059C227.452,-174.909 243.516,-181.202 257.719,-186.766"/>
<polygon fill="midnightblue" stroke="midnightblue" points="256.599,-190.087 267.187,-190.475 259.153,-183.569 256.599,-190.087"/>
</g>
<!-- Node3&#45;&gt;Node5 -->
<g id="edge4" class="edge"><title>Node3&#45;&gt;Node5</title>
<path fill="none" stroke="midnightblue" d="M208.908,-171.578C212.941,-174.457 217.246,-177.726 221,-181 238.533,-196.292 238.591,-204.775 257,-219 258.802,-220.393 260.72,-221.745 262.692,-223.043"/>
<polygon fill="midnightblue" stroke="midnightblue" points="261.129,-226.188 271.5,-228.351 264.742,-220.192 261.129,-226.188"/>
</g>
<!-- Node3&#45;&gt;Node6 -->
<g id="edge5" class="edge"><title>Node3&#45;&gt;Node6</title>
<path fill="none" stroke="midnightblue" d="M203.638,-152.366C215.309,-140.381 236.463,-119.705 257,-105 258.897,-103.642 260.902,-102.308 262.951,-101.016"/>
<polygon fill="midnightblue" stroke="midnightblue" points="265.184,-103.763 272.03,-95.677 261.636,-97.7289 265.184,-103.763"/>
</g>
<!-- Node7 -->
<g id="node7" class="node"><title>Node7</title>
<g id="a_node7"><a xlink:href="$_moi_2tp3_23_dmain_8c.html#afc335792d57c9404482ac57e304c19f5" xlink:title=" ">
<polygon fill="none" stroke="black" points="258.5,-114.5 258.5,-133.5 326.5,-133.5 326.5,-114.5 258.5,-114.5"/>
<text text-anchor="middle" x="292.5" y="-121.5" font-family="Helvetica,sans-Serif" font-size="10.00">pointBinterp</text>
</a>
</g>
</g>
<!-- Node3&#45;&gt;Node7 -->
<g id="edge6" class="edge"><title>Node3&#45;&gt;Node7</title>
<path fill="none" stroke="midnightblue" d="M215.071,-153.941C227.452,-149.091 243.516,-142.798 257.719,-137.234"/>
<polygon fill="midnightblue" stroke="midnightblue" points="259.153,-140.431 267.187,-133.525 256.599,-133.913 259.153,-140.431"/>
</g>
<!-- Node8 -->
<g id="node8" class="node"><title>Node8</title>
<g id="a_node8"><a xlink:href="$_moi_2tp3_23_dmain_8c.html#a23f0e89ac18ea3648eafe78ea4766e27" xlink:title=" ">
<polygon fill="none" stroke="black" points="364,-114.5 364,-133.5 405,-133.5 405,-114.5 364,-114.5"/>
<text text-anchor="middle" x="384.5" y="-121.5" font-family="Helvetica,sans-Serif" font-size="10.00">binter</text>
</a>
</g>
</g>
<!-- Node7&#45;&gt;Node8 -->
<g id="edge7" class="edge"><title>Node7&#45;&gt;Node8</title>
<path fill="none" stroke="midnightblue" d="M326.502,-124C335.418,-124 345.013,-124 353.74,-124"/>
<polygon fill="midnightblue" stroke="midnightblue" points="353.852,-127.5 363.852,-124 353.852,-120.5 353.852,-127.5"/>
</g>
<!-- Node9&#45;&gt;Node4 -->
<g id="edge9" class="edge"><title>Node9&#45;&gt;Node4</title>
<path fill="none" stroke="midnightblue" d="M221.006,-200C228.908,-200 237.798,-200 246.535,-200"/>
<polygon fill="midnightblue" stroke="midnightblue" points="246.652,-203.5 256.652,-200 246.652,-196.5 246.652,-203.5"/>
</g>
<!-- Node9&#45;&gt;Node5 -->
<g id="edge11" class="edge"><title>Node9&#45;&gt;Node5</title>
<path fill="none" stroke="midnightblue" d="M218.977,-209.589C230.695,-214.179 244.915,-219.75 257.649,-224.739"/>
<polygon fill="midnightblue" stroke="midnightblue" points="256.443,-228.025 267.031,-228.414 258.996,-221.508 256.443,-228.025"/>
</g>
<!-- Node9&#45;&gt;Node10 -->
<g id="edge10" class="edge"><title>Node9&#45;&gt;Node10</title>
<path fill="none" stroke="midnightblue" d="M218.977,-190.411C230.695,-185.821 244.915,-180.25 257.649,-175.261"/>
<polygon fill="midnightblue" stroke="midnightblue" points="258.996,-178.492 267.031,-171.586 256.443,-171.975 258.996,-178.492"/>
</g>
</g>
</svg>
