<?xml version="1.0" encoding="UTF-8" standalone="no"?>
<!DOCTYPE svg PUBLIC "-//W3C//DTD SVG 1.1//EN"
 "http://www.w3.org/Graphics/SVG/1.1/DTD/svg11.dtd">
<!-- Generated by graphviz version 2.38.0 (20140413.2041)
 -->
<!-- Title: display Pages: 1 -->
<svg width="274pt" height="180pt"
 viewBox="0.00 0.00 274.00 180.00" xmlns="http://www.w3.org/2000/svg" xmlns:xlink="http://www.w3.org/1999/xlink">
<g id="graph0" class="graph" transform="scale(1 1) rotate(0) translate(4 176)">
<title>display</title>
<!-- Node1 -->
<g id="node1" class="node"><title>Node1</title>
<g id="a_node1"><a xlink:title=" ">
<polygon fill="#bfbfbf" stroke="black" points="0,-76.5 0,-95.5 47,-95.5 47,-76.5 0,-76.5"/>
<text text-anchor="middle" x="23.5" y="-83.5" font-family="Helvetica,sans-Serif" font-size="10.00">display</text>
</a>
</g>
</g>
<!-- Node2 -->
<g id="node2" class="node"><title>Node2</title>
<g id="a_node2"><a xlink:href="$_paul_2tp1_2main_8c.html#a9d420893f4d75d158b5f9d62f5f145ab" xlink:title=" ">
<polygon fill="none" stroke="black" points="107.5,-114.5 107.5,-133.5 150.5,-133.5 150.5,-114.5 107.5,-114.5"/>
<text text-anchor="middle" x="129" y="-121.5" font-family="Helvetica,sans-Serif" font-size="10.00">bezier</text>
</a>
</g>
</g>
<!-- Node1&#45;&gt;Node2 -->
<g id="edge1" class="edge"><title>Node1&#45;&gt;Node2</title>
<path fill="none" stroke="midnightblue" d="M47.2135,-94.3393C62.0955,-99.8032 81.7143,-107.006 97.8916,-112.946"/>
<polygon fill="midnightblue" stroke="midnightblue" points="96.8528,-116.293 107.446,-116.454 99.2654,-109.722 96.8528,-116.293"/>
</g>
<!-- Node3 -->
<g id="node3" class="node"><title>Node3</title>
<g id="a_node3"><a xlink:href="$_moi_2tp1_2main_8c.html#a9d949080c2f3761116b7e477dfdb2952" xlink:title=" ">
<polygon fill="none" stroke="black" points="211,-152.5 211,-171.5 266,-171.5 266,-152.5 211,-152.5"/>
<text text-anchor="middle" x="238.5" y="-159.5" font-family="Helvetica,sans-Serif" font-size="10.00">drawLine</text>
</a>
</g>
</g>
<!-- Node1&#45;&gt;Node3 -->
<g id="edge5" class="edge"><title>Node1&#45;&gt;Node3</title>
<path fill="none" stroke="midnightblue" d="M31.1453,-95.6091C40.8504,-108.789 60.2435,-132.081 83,-143 120.214,-160.857 168.018,-164.169 200.529,-163.936"/>
<polygon fill="midnightblue" stroke="midnightblue" points="200.999,-167.428 210.93,-163.737 200.865,-160.429 200.999,-167.428"/>
</g>
<!-- Node5 -->
<g id="node5" class="node"><title>Node5</title>
<g id="a_node5"><a xlink:href="$_moi_2tp1_2main_8c.html#a587fb578fe3fba3da1fa670b7d9f923b" xlink:title=" ">
<polygon fill="none" stroke="black" points="93.5,-76.5 93.5,-95.5 164.5,-95.5 164.5,-76.5 93.5,-76.5"/>
<text text-anchor="middle" x="129" y="-83.5" font-family="Helvetica,sans-Serif" font-size="10.00">chooseColor</text>
</a>
</g>
</g>
<!-- Node1&#45;&gt;Node5 -->
<g id="edge4" class="edge"><title>Node1&#45;&gt;Node5</title>
<path fill="none" stroke="midnightblue" d="M47.2135,-86C57.72,-86 70.5874,-86 82.9379,-86"/>
<polygon fill="midnightblue" stroke="midnightblue" points="83.1276,-89.5001 93.1276,-86 83.1275,-82.5001 83.1276,-89.5001"/>
</g>
<!-- Node6 -->
<g id="node6" class="node"><title>Node6</title>
<g id="a_node6"><a xlink:href="$_moi_2tp1_2main_8c.html#a85ac77722dae61e1b6b054b506bd1e45" xlink:title=" ">
<polygon fill="none" stroke="black" points="99.5,-38.5 99.5,-57.5 158.5,-57.5 158.5,-38.5 99.5,-38.5"/>
<text text-anchor="middle" x="129" y="-45.5" font-family="Helvetica,sans-Serif" font-size="10.00">drawPoint</text>
</a>
</g>
</g>
<!-- Node1&#45;&gt;Node6 -->
<g id="edge6" class="edge"><title>Node1&#45;&gt;Node6</title>
<path fill="none" stroke="midnightblue" d="M47.2135,-77.6607C60.4907,-72.786 77.5382,-66.527 92.5484,-61.0161"/>
<polygon fill="midnightblue" stroke="midnightblue" points="93.8769,-64.2568 102.058,-57.5246 91.4643,-57.6857 93.8769,-64.2568"/>
</g>
<!-- Node7 -->
<g id="node7" class="node"><title>Node7</title>
<g id="a_node7"><a xlink:href="$_paul_2tp1_2main_8c.html#a610bb9c2961500c808a00b5c79f349d8" xlink:title=" ">
<polygon fill="none" stroke="black" points="83,-0.5 83,-19.5 175,-19.5 175,-0.5 83,-0.5"/>
<text text-anchor="middle" x="129" y="-7.5" font-family="Helvetica,sans-Serif" font-size="10.00">perimeterPolygon</text>
</a>
</g>
</g>
<!-- Node1&#45;&gt;Node7 -->
<g id="edge7" class="edge"><title>Node1&#45;&gt;Node7</title>
<path fill="none" stroke="midnightblue" d="M32.3336,-76.4017C42.8048,-64.0736 62.4426,-42.6445 83,-29 85.601,-27.2736 88.3845,-25.6509 91.2442,-24.1376"/>
<polygon fill="midnightblue" stroke="midnightblue" points="93.0115,-27.1716 100.508,-19.6844 89.9786,-20.8627 93.0115,-27.1716"/>
</g>
<!-- Node2&#45;&gt;Node3 -->
<g id="edge2" class="edge"><title>Node2&#45;&gt;Node3</title>
<path fill="none" stroke="midnightblue" d="M150.727,-131.327C165.008,-136.375 184.366,-143.218 201.175,-149.16"/>
<polygon fill="midnightblue" stroke="midnightblue" points="200.125,-152.501 210.72,-152.533 202.458,-145.901 200.125,-152.501"/>
</g>
<!-- Node4 -->
<g id="node4" class="node"><title>Node4</title>
<g id="a_node4"><a xlink:href="$_paul_2tp1_2main_8c.html#aa04d41e9bd9991e3af1418648e1bd387" xlink:title=" ">
<polygon fill="none" stroke="black" points="222.5,-114.5 222.5,-133.5 254.5,-133.5 254.5,-114.5 222.5,-114.5"/>
<text text-anchor="middle" x="238.5" y="-121.5" font-family="Helvetica,sans-Serif" font-size="10.00">lerp</text>
</a>
</g>
</g>
<!-- Node2&#45;&gt;Node4 -->
<g id="edge3" class="edge"><title>Node2&#45;&gt;Node4</title>
<path fill="none" stroke="midnightblue" d="M150.727,-124C168.272,-124 193.481,-124 212.211,-124"/>
<polygon fill="midnightblue" stroke="midnightblue" points="212.383,-127.5 222.383,-124 212.383,-120.5 212.383,-127.5"/>
</g>
</g>
</svg>
