<?xml version="1.0" encoding="UTF-8" standalone="no"?>
<!DOCTYPE svg PUBLIC "-//W3C//DTD SVG 1.1//EN"
 "http://www.w3.org/Graphics/SVG/1.1/DTD/svg11.dtd">
<!-- Generated by graphviz version 2.38.0 (20140413.2041)
 -->
<!-- Title: main Pages: 1 -->
<svg width="352pt" height="275pt"
 viewBox="0.00 0.00 352.00 275.00" xmlns="http://www.w3.org/2000/svg" xmlns:xlink="http://www.w3.org/1999/xlink">
<g id="graph0" class="graph" transform="scale(1 1) rotate(0) translate(4 271)">
<title>main</title>
<!-- Node1 -->
<g id="node1" class="node"><title>Node1</title>
<g id="a_node1"><a xlink:title=" ">
<polygon fill="#bfbfbf" stroke="black" points="0,-95.5 0,-114.5 38,-114.5 38,-95.5 0,-95.5"/>
<text text-anchor="middle" x="19" y="-102.5" font-family="Helvetica,sans-Serif" font-size="10.00">main</text>
</a>
</g>
</g>
<!-- Node2 -->
<g id="node2" class="node"><title>Node2</title>
<g id="a_node2"><a xlink:href="$_moi_2tp1_2main_8c.html#a1e5b20fed15743656bb6d2e6a6ea6269" xlink:title=" ">
<polygon fill="none" stroke="black" points="84.5,-190.5 84.5,-209.5 131.5,-209.5 131.5,-190.5 84.5,-190.5"/>
<text text-anchor="middle" x="108" y="-197.5" font-family="Helvetica,sans-Serif" font-size="10.00">display</text>
</a>
</g>
</g>
<!-- Node1&#45;&gt;Node2 -->
<g id="edge1" class="edge"><title>Node1&#45;&gt;Node2</title>
<path fill="none" stroke="midnightblue" d="M25.1818,-114.9C33.7067,-130.471 51.9612,-160.968 74,-181 75.4676,-182.334 77.0445,-183.616 78.6848,-184.841"/>
<polygon fill="midnightblue" stroke="midnightblue" points="76.9267,-187.873 87.2033,-190.451 80.7769,-182.027 76.9267,-187.873"/>
</g>
<!-- Node9 -->
<g id="node9" class="node"><title>Node9</title>
<g id="a_node9"><a xlink:href="$_moi_2tp1_2main_8c.html#a54002f21e2f76025605f01bc45982541" xlink:title=" ">
<polygon fill="none" stroke="black" points="80,-152.5 80,-171.5 136,-171.5 136,-152.5 80,-152.5"/>
<text text-anchor="middle" x="108" y="-159.5" font-family="Helvetica,sans-Serif" font-size="10.00">keyboard</text>
</a>
</g>
</g>
<!-- Node1&#45;&gt;Node9 -->
<g id="edge11" class="edge"><title>Node1&#45;&gt;Node9</title>
<path fill="none" stroke="midnightblue" d="M33.086,-114.711C43.8828,-122.601 59.6962,-133.876 74,-143 76.1946,-144.4 78.4948,-145.819 80.8161,-147.217"/>
<polygon fill="midnightblue" stroke="midnightblue" points="79.2999,-150.386 89.6957,-152.43 82.8438,-144.349 79.2999,-150.386"/>
</g>
<!-- Node10 -->
<g id="node10" class="node"><title>Node10</title>
<g id="a_node10"><a xlink:href="$_moi_2tp1_2main_8c.html#ac76a5d78172a826cd6ee9512b89a86c0" xlink:title=" ">
<polygon fill="none" stroke="black" points="85,-114.5 85,-133.5 131,-133.5 131,-114.5 85,-114.5"/>
<text text-anchor="middle" x="108" y="-121.5" font-family="Helvetica,sans-Serif" font-size="10.00">mouse</text>
</a>
</g>
</g>
<!-- Node1&#45;&gt;Node10 -->
<g id="edge12" class="edge"><title>Node1&#45;&gt;Node10</title>
<path fill="none" stroke="midnightblue" d="M38.0265,-108.937C48.6806,-111.264 62.4825,-114.278 74.9377,-116.998"/>
<polygon fill="midnightblue" stroke="midnightblue" points="74.4682,-120.478 84.9847,-119.192 75.9618,-113.639 74.4682,-120.478"/>
</g>
<!-- Node11 -->
<g id="node11" class="node"><title>Node11</title>
<g id="a_node11"><a xlink:href="$_moi_2tp1_2main_8c.html#a512f752d27cc4d8f83084c63330c2ec3" xlink:title=" ">
<polygon fill="none" stroke="black" points="74,-76.5 74,-95.5 142,-95.5 142,-76.5 74,-76.5"/>
<text text-anchor="middle" x="108" y="-83.5" font-family="Helvetica,sans-Serif" font-size="10.00">mousemove</text>
</a>
</g>
</g>
<!-- Node1&#45;&gt;Node11 -->
<g id="edge13" class="edge"><title>Node1&#45;&gt;Node11</title>
<path fill="none" stroke="midnightblue" d="M38.0265,-101.063C45.629,-99.4029 54.8344,-97.3925 64.0095,-95.3887"/>
<polygon fill="midnightblue" stroke="midnightblue" points="64.8534,-98.787 73.8764,-93.2339 63.3598,-91.9482 64.8534,-98.787"/>
</g>
<!-- Node12 -->
<g id="node12" class="node"><title>Node12</title>
<g id="a_node12"><a xlink:href="$_moi_2tp1_2main_8c.html#acc1ffe65e6869931318610cae7210078" xlink:title=" ">
<polygon fill="none" stroke="black" points="82.5,-38.5 82.5,-57.5 133.5,-57.5 133.5,-38.5 82.5,-38.5"/>
<text text-anchor="middle" x="108" y="-45.5" font-family="Helvetica,sans-Serif" font-size="10.00">reshape</text>
</a>
</g>
</g>
<!-- Node1&#45;&gt;Node12 -->
<g id="edge14" class="edge"><title>Node1&#45;&gt;Node12</title>
<path fill="none" stroke="midnightblue" d="M33.086,-95.2886C43.8828,-87.3991 59.6962,-76.1241 74,-67 76.1946,-65.6001 78.4948,-64.1814 80.8161,-62.7827"/>
<polygon fill="midnightblue" stroke="midnightblue" points="82.8438,-65.651 89.6957,-57.57 79.2999,-59.6143 82.8438,-65.651"/>
</g>
<!-- Node13 -->
<g id="node13" class="node"><title>Node13</title>
<g id="a_node13"><a xlink:href="$_paul_2tp1_2main_8c.html#a3e2e1f47209b4da17629c6d85d02034c" xlink:title=" ">
<polygon fill="none" stroke="black" points="84.5,-0.5 84.5,-19.5 131.5,-19.5 131.5,-0.5 84.5,-0.5"/>
<text text-anchor="middle" x="108" y="-7.5" font-family="Helvetica,sans-Serif" font-size="10.00">special</text>
</a>
</g>
</g>
<!-- Node1&#45;&gt;Node13 -->
<g id="edge15" class="edge"><title>Node1&#45;&gt;Node13</title>
<path fill="none" stroke="midnightblue" d="M25.1818,-95.1C33.7067,-79.5295 51.9612,-49.0316 74,-29 75.4676,-27.666 77.0445,-26.3838 78.6848,-25.1595"/>
<polygon fill="midnightblue" stroke="midnightblue" points="80.7769,-27.9726 87.2033,-19.5492 76.9267,-22.1265 80.7769,-27.9726"/>
</g>
<!-- Node3 -->
<g id="node3" class="node"><title>Node3</title>
<g id="a_node3"><a xlink:href="$_moi_2tp1_2main_8c.html#af0c409e4093427c05ad67f3b0bdece21" xlink:title=" ">
<polygon fill="none" stroke="black" points="185.5,-228.5 185.5,-247.5 229.5,-247.5 229.5,-228.5 185.5,-228.5"/>
<text text-anchor="middle" x="207.5" y="-235.5" font-family="Helvetica,sans-Serif" font-size="10.00">Bezier</text>
</a>
</g>
</g>
<!-- Node2&#45;&gt;Node3 -->
<g id="edge2" class="edge"><title>Node2&#45;&gt;Node3</title>
<path fill="none" stroke="midnightblue" d="M131.614,-208.813C144.777,-213.944 161.551,-220.481 175.884,-226.068"/>
<polygon fill="midnightblue" stroke="midnightblue" points="174.756,-229.384 185.344,-229.755 177.298,-222.862 174.756,-229.384"/>
</g>
<!-- Node4 -->
<g id="node4" class="node"><title>Node4</title>
<g id="a_node4"><a xlink:href="$_moi_2tp1_2main_8c.html#a587fb578fe3fba3da1fa670b7d9f923b" xlink:title=" ">
<polygon fill="none" stroke="black" points="273,-247.5 273,-266.5 344,-266.5 344,-247.5 273,-247.5"/>
<text text-anchor="middle" x="308.5" y="-254.5" font-family="Helvetica,sans-Serif" font-size="10.00">chooseColor</text>
</a>
</g>
</g>
<!-- Node2&#45;&gt;Node4 -->
<g id="edge8" class="edge"><title>Node2&#45;&gt;Node4</title>
<path fill="none" stroke="midnightblue" d="M116.674,-209.586C128.261,-223.2 151.682,-247.535 178,-257 204.962,-266.696 237.172,-266.738 262.724,-264.336"/>
<polygon fill="midnightblue" stroke="midnightblue" points="263.317,-267.792 272.875,-263.222 262.553,-260.834 263.317,-267.792"/>
</g>
<!-- Node5 -->
<g id="node5" class="node"><title>Node5</title>
<g id="a_node5"><a xlink:href="$_moi_2tp1_2main_8c.html#a9d949080c2f3761116b7e477dfdb2952" xlink:title=" ">
<polygon fill="none" stroke="black" points="281,-190.5 281,-209.5 336,-209.5 336,-190.5 281,-190.5"/>
<text text-anchor="middle" x="308.5" y="-197.5" font-family="Helvetica,sans-Serif" font-size="10.00">drawLine</text>
</a>
</g>
</g>
<!-- Node2&#45;&gt;Node5 -->
<g id="edge9" class="edge"><title>Node2&#45;&gt;Node5</title>
<path fill="none" stroke="midnightblue" d="M131.77,-200C165.776,-200 230.176,-200 270.857,-200"/>
<polygon fill="midnightblue" stroke="midnightblue" points="270.906,-203.5 280.906,-200 270.906,-196.5 270.906,-203.5"/>
</g>
<!-- Node6 -->
<g id="node6" class="node"><title>Node6</title>
<g id="a_node6"><a xlink:href="$_paul_2tp1_2main_8c.html#a9d420893f4d75d158b5f9d62f5f145ab" xlink:title=" ">
<polygon fill="none" stroke="black" points="186,-152.5 186,-171.5 229,-171.5 229,-152.5 186,-152.5"/>
<text text-anchor="middle" x="207.5" y="-159.5" font-family="Helvetica,sans-Serif" font-size="10.00">bezier</text>
</a>
</g>
</g>
<!-- Node2&#45;&gt;Node6 -->
<g id="edge5" class="edge"><title>Node2&#45;&gt;Node6</title>
<path fill="none" stroke="midnightblue" d="M131.614,-191.187C144.869,-186.02 161.784,-179.428 176.183,-173.816"/>
<polygon fill="midnightblue" stroke="midnightblue" points="177.627,-177.01 185.674,-170.117 175.085,-170.487 177.627,-177.01"/>
</g>
<!-- Node8 -->
<g id="node8" class="node"><title>Node8</title>
<g id="a_node8"><a xlink:href="$_moi_2tp1_2main_8c.html#a85ac77722dae61e1b6b054b506bd1e45" xlink:title=" ">
<polygon fill="none" stroke="black" points="178,-114.5 178,-133.5 237,-133.5 237,-114.5 178,-114.5"/>
<text text-anchor="middle" x="207.5" y="-121.5" font-family="Helvetica,sans-Serif" font-size="10.00">drawPoint</text>
</a>
</g>
</g>
<!-- Node2&#45;&gt;Node8 -->
<g id="edge10" class="edge"><title>Node2&#45;&gt;Node8</title>
<path fill="none" stroke="midnightblue" d="M127.766,-190.449C132.586,-187.664 137.638,-184.437 142,-181 160.273,-166.6 160.21,-157.991 178,-143 179.344,-141.867 180.758,-140.743 182.208,-139.64"/>
<polygon fill="midnightblue" stroke="midnightblue" points="184.527,-142.286 190.662,-133.648 180.479,-136.575 184.527,-142.286"/>
</g>
<!-- Node3&#45;&gt;Node4 -->
<g id="edge3" class="edge"><title>Node3&#45;&gt;Node4</title>
<path fill="none" stroke="midnightblue" d="M229.982,-242.123C239.658,-243.98 251.465,-246.246 262.917,-248.444"/>
<polygon fill="midnightblue" stroke="midnightblue" points="262.346,-251.898 272.827,-250.346 263.666,-245.023 262.346,-251.898"/>
</g>
<!-- Node3&#45;&gt;Node5 -->
<g id="edge4" class="edge"><title>Node3&#45;&gt;Node5</title>
<path fill="none" stroke="midnightblue" d="M229.982,-229.755C242.549,-224.931 258.71,-218.727 273.021,-213.234"/>
<polygon fill="midnightblue" stroke="midnightblue" points="274.484,-216.422 282.566,-209.571 271.976,-209.887 274.484,-216.422"/>
</g>
<!-- Node6&#45;&gt;Node5 -->
<g id="edge6" class="edge"><title>Node6&#45;&gt;Node5</title>
<path fill="none" stroke="midnightblue" d="M229.013,-169.874C241.621,-174.713 258.104,-181.04 272.708,-186.646"/>
<polygon fill="midnightblue" stroke="midnightblue" points="271.858,-190.068 282.448,-190.384 274.367,-183.533 271.858,-190.068"/>
</g>
<!-- Node7 -->
<g id="node7" class="node"><title>Node7</title>
<g id="a_node7"><a xlink:href="$_paul_2tp1_2main_8c.html#aa04d41e9bd9991e3af1418648e1bd387" xlink:title=" ">
<polygon fill="none" stroke="black" points="292.5,-152.5 292.5,-171.5 324.5,-171.5 324.5,-152.5 292.5,-152.5"/>
<text text-anchor="middle" x="308.5" y="-159.5" font-family="Helvetica,sans-Serif" font-size="10.00">lerp</text>
</a>
</g>
</g>
<!-- Node6&#45;&gt;Node7 -->
<g id="edge7" class="edge"><title>Node6&#45;&gt;Node7</title>
<path fill="none" stroke="midnightblue" d="M229.013,-162C244.53,-162 265.916,-162 282.445,-162"/>
<polygon fill="midnightblue" stroke="midnightblue" points="282.496,-165.5 292.496,-162 282.496,-158.5 282.496,-165.5"/>
</g>
</g>
</svg>
