<?xml version="1.0" encoding="UTF-8" standalone="no"?>
<!DOCTYPE svg PUBLIC "-//W3C//DTD SVG 1.1//EN"
 "http://www.w3.org/Graphics/SVG/1.1/DTD/svg11.dtd">
<!-- Generated by graphviz version 2.38.0 (20140413.2041)
 -->
<!-- Title: main Pages: 1 -->
<svg width="413pt" height="218pt"
 viewBox="0.00 0.00 413.00 218.00" xmlns="http://www.w3.org/2000/svg" xmlns:xlink="http://www.w3.org/1999/xlink">
<g id="graph0" class="graph" transform="scale(1 1) rotate(0) translate(4 214)">
<title>main</title>
<!-- Node1 -->
<g id="node1" class="node"><title>Node1</title>
<g id="a_node1"><a xlink:title=" ">
<polygon fill="#bfbfbf" stroke="black" points="0,-57.5 0,-76.5 38,-76.5 38,-57.5 0,-57.5"/>
<text text-anchor="middle" x="19" y="-64.5" font-family="Helvetica,sans-Serif" font-size="10.00">main</text>
</a>
</g>
</g>
<!-- Node2 -->
<g id="node2" class="node"><title>Node2</title>
<g id="a_node2"><a xlink:href="$_moi_2tp2_23_dmain_8c.html#a1e5b20fed15743656bb6d2e6a6ea6269" xlink:title=" ">
<polygon fill="none" stroke="black" points="78.5,-114.5 78.5,-133.5 125.5,-133.5 125.5,-114.5 78.5,-114.5"/>
<text text-anchor="middle" x="102" y="-121.5" font-family="Helvetica,sans-Serif" font-size="10.00">display</text>
</a>
</g>
</g>
<!-- Node1&#45;&gt;Node2 -->
<g id="edge1" class="edge"><title>Node1&#45;&gt;Node2</title>
<path fill="none" stroke="midnightblue" d="M33.7405,-76.6693C46.1501,-85.4019 64.6268,-98.404 79.0762,-108.572"/>
<polygon fill="midnightblue" stroke="midnightblue" points="77.2701,-111.581 87.4624,-114.474 81.2985,-105.856 77.2701,-111.581"/>
</g>
<!-- Node12 -->
<g id="node12" class="node"><title>Node12</title>
<g id="a_node12"><a xlink:href="$_moi_2tp2_23_dmain_8c.html#a54002f21e2f76025605f01bc45982541" xlink:title=" ">
<polygon fill="none" stroke="black" points="74,-76.5 74,-95.5 130,-95.5 130,-76.5 74,-76.5"/>
<text text-anchor="middle" x="102" y="-83.5" font-family="Helvetica,sans-Serif" font-size="10.00">keyboard</text>
</a>
</g>
</g>
<!-- Node1&#45;&gt;Node12 -->
<g id="edge17" class="edge"><title>Node1&#45;&gt;Node12</title>
<path fill="none" stroke="midnightblue" d="M38.3802,-71.3114C45.9768,-73.0933 55.0711,-75.2266 63.9435,-77.3077"/>
<polygon fill="midnightblue" stroke="midnightblue" points="63.2396,-80.7375 73.7746,-79.6138 64.8382,-73.9225 63.2396,-80.7375"/>
</g>
<!-- Node13 -->
<g id="node13" class="node"><title>Node13</title>
<g id="a_node13"><a xlink:href="$_moi_2tp2_23_dmain_8c.html#ac76a5d78172a826cd6ee9512b89a86c0" xlink:title=" ">
<polygon fill="none" stroke="black" points="79,-38.5 79,-57.5 125,-57.5 125,-38.5 79,-38.5"/>
<text text-anchor="middle" x="102" y="-45.5" font-family="Helvetica,sans-Serif" font-size="10.00">mouse</text>
</a>
</g>
</g>
<!-- Node1&#45;&gt;Node13 -->
<g id="edge18" class="edge"><title>Node1&#45;&gt;Node13</title>
<path fill="none" stroke="midnightblue" d="M38.3802,-62.6886C47.4121,-60.57 58.5612,-57.9548 68.9371,-55.5209"/>
<polygon fill="midnightblue" stroke="midnightblue" points="70.0119,-58.8639 78.9483,-53.1726 68.4133,-52.0489 70.0119,-58.8639"/>
</g>
<!-- Node14 -->
<g id="node14" class="node"><title>Node14</title>
<g id="a_node14"><a xlink:href="$_moi_2tp2_23_dmain_8c.html#acc1ffe65e6869931318610cae7210078" xlink:title=" ">
<polygon fill="none" stroke="black" points="76.5,-0.5 76.5,-19.5 127.5,-19.5 127.5,-0.5 76.5,-0.5"/>
<text text-anchor="middle" x="102" y="-7.5" font-family="Helvetica,sans-Serif" font-size="10.00">reshape</text>
</a>
</g>
</g>
<!-- Node1&#45;&gt;Node14 -->
<g id="edge19" class="edge"><title>Node1&#45;&gt;Node14</title>
<path fill="none" stroke="midnightblue" d="M33.7405,-57.3307C46.1501,-48.5981 64.6268,-35.596 79.0762,-25.4278"/>
<polygon fill="midnightblue" stroke="midnightblue" points="81.2985,-28.1438 87.4624,-19.5265 77.2701,-22.4191 81.2985,-28.1438"/>
</g>
<!-- Node3 -->
<g id="node3" class="node"><title>Node3</title>
<g id="a_node3"><a xlink:href="$_moi_2tp3_23_dmain_8c.html#a9fddccb53c1c2472ac9fb878f76201df" xlink:title=" ">
<polygon fill="none" stroke="black" points="172,-114.5 172,-133.5 215,-133.5 215,-114.5 172,-114.5"/>
<text text-anchor="middle" x="193.5" y="-121.5" font-family="Helvetica,sans-Serif" font-size="10.00">bezier</text>
</a>
</g>
</g>
<!-- Node2&#45;&gt;Node3 -->
<g id="edge2" class="edge"><title>Node2&#45;&gt;Node3</title>
<path fill="none" stroke="midnightblue" d="M125.585,-124C136.448,-124 149.643,-124 161.435,-124"/>
<polygon fill="midnightblue" stroke="midnightblue" points="161.763,-127.5 171.763,-124 161.763,-120.5 161.763,-127.5"/>
</g>
<!-- Node4 -->
<g id="node4" class="node"><title>Node4</title>
<g id="a_node4"><a xlink:href="$_moi_2tp2_23_dmain_8c.html#a587fb578fe3fba3da1fa670b7d9f923b" xlink:title=" ">
<polygon fill="none" stroke="black" points="257,-152.5 257,-171.5 328,-171.5 328,-152.5 257,-152.5"/>
<text text-anchor="middle" x="292.5" y="-159.5" font-family="Helvetica,sans-Serif" font-size="10.00">chooseColor</text>
</a>
</g>
</g>
<!-- Node2&#45;&gt;Node4 -->
<g id="edge12" class="edge"><title>Node2&#45;&gt;Node4</title>
<path fill="none" stroke="midnightblue" d="M109.81,-133.565C120.144,-147.153 141.225,-171.456 166,-181 196.861,-192.889 234.67,-184.308 260.674,-175.172"/>
<polygon fill="midnightblue" stroke="midnightblue" points="262.22,-178.331 270.362,-171.551 259.769,-171.774 262.22,-178.331"/>
</g>
<!-- Node5 -->
<g id="node5" class="node"><title>Node5</title>
<g id="a_node5"><a xlink:href="$_moi_2tp2_23_dmain_8c.html#a5b6c8f7241dffa4b63cdb31482ca3987" xlink:title=" ">
<polygon fill="none" stroke="black" points="263,-190.5 263,-209.5 322,-209.5 322,-190.5 263,-190.5"/>
<text text-anchor="middle" x="292.5" y="-197.5" font-family="Helvetica,sans-Serif" font-size="10.00">drawPoint</text>
</a>
</g>
</g>
<!-- Node2&#45;&gt;Node5 -->
<g id="edge14" class="edge"><title>Node2&#45;&gt;Node5</title>
<path fill="none" stroke="midnightblue" d="M107.808,-133.606C116.687,-150.136 137.392,-183.485 166,-197 192.932,-209.724 226.877,-209.717 252.671,-206.946"/>
<polygon fill="midnightblue" stroke="midnightblue" points="253.343,-210.389 262.829,-205.669 252.47,-203.444 253.343,-210.389"/>
</g>
<!-- Node6 -->
<g id="node6" class="node"><title>Node6</title>
<g id="a_node6"><a xlink:href="$_moi_2tp2_23_dmain_8c.html#a71628a55b7ad470e01d9f475396c4dc6" xlink:title=" ">
<polygon fill="none" stroke="black" points="262.5,-38.5 262.5,-57.5 322.5,-57.5 322.5,-38.5 262.5,-38.5"/>
<text text-anchor="middle" x="292.5" y="-45.5" font-family="Helvetica,sans-Serif" font-size="10.00">drawQuad</text>
</a>
</g>
</g>
<!-- Node2&#45;&gt;Node6 -->
<g id="edge15" class="edge"><title>Node2&#45;&gt;Node6</title>
<path fill="none" stroke="midnightblue" d="M125.718,-114.546C137.688,-109.584 152.623,-103.425 166,-98 196.892,-85.4723 232.167,-71.4428 257.435,-61.4408"/>
<polygon fill="midnightblue" stroke="midnightblue" points="258.924,-64.6161 266.935,-57.6836 256.349,-58.1067 258.924,-64.6161"/>
</g>
<!-- Node9 -->
<g id="node9" class="node"><title>Node9</title>
<g id="a_node9"><a xlink:href="$_moi_2tp2_23_dmain_8c.html#af426a9d81b3750098001d9c27e8a55fd" xlink:title=" ">
<polygon fill="none" stroke="black" points="166,-152.5 166,-171.5 221,-171.5 221,-152.5 166,-152.5"/>
<text text-anchor="middle" x="193.5" y="-159.5" font-family="Helvetica,sans-Serif" font-size="10.00">bezier3D</text>
</a>
</g>
</g>
<!-- Node2&#45;&gt;Node9 -->
<g id="edge8" class="edge"><title>Node2&#45;&gt;Node9</title>
<path fill="none" stroke="midnightblue" d="M125.585,-133.589C136.184,-138.089 149.004,-143.532 160.574,-148.445"/>
<polygon fill="midnightblue" stroke="midnightblue" points="159.35,-151.728 169.923,-152.414 162.086,-145.284 159.35,-151.728"/>
</g>
<!-- Node10 -->
<g id="node10" class="node"><title>Node10</title>
<g id="a_node10"><a xlink:href="$_moi_2tp2_23_dmain_8c.html#a0c16fe8c7d6a4759b082dbd4f7cd2bb0" xlink:title=" ">
<polygon fill="none" stroke="black" points="265,-114.5 265,-133.5 320,-133.5 320,-114.5 265,-114.5"/>
<text text-anchor="middle" x="292.5" y="-121.5" font-family="Helvetica,sans-Serif" font-size="10.00">drawLine</text>
</a>
</g>
</g>
<!-- Node2&#45;&gt;Node10 -->
<g id="edge13" class="edge"><title>Node2&#45;&gt;Node10</title>
<path fill="none" stroke="midnightblue" d="M125.673,-115.404C137.503,-111.372 152.325,-107.017 166,-105 190.183,-101.433 196.767,-101.792 221,-105 232.142,-106.475 244.023,-109.208 254.794,-112.149"/>
<polygon fill="midnightblue" stroke="midnightblue" points="254.144,-115.604 264.721,-115 256.076,-108.876 254.144,-115.604"/>
</g>
<!-- Node11 -->
<g id="node11" class="node"><title>Node11</title>
<g id="a_node11"><a xlink:href="$_moi_2tp2_23_dmain_8c.html#a68ff78bdc2fcc8807375df87a7defa7d" xlink:title=" ">
<polygon fill="none" stroke="black" points="179,-0.5 179,-19.5 208,-19.5 208,-0.5 179,-0.5"/>
<text text-anchor="middle" x="193.5" y="-7.5" font-family="Helvetica,sans-Serif" font-size="10.00">pt</text>
</a>
</g>
</g>
<!-- Node2&#45;&gt;Node11 -->
<g id="edge16" class="edge"><title>Node2&#45;&gt;Node11</title>
<path fill="none" stroke="midnightblue" d="M119.483,-114.323C123.237,-111.623 126.999,-108.467 130,-105 153.154,-78.2483 144.53,-62.1213 166,-34 167.872,-31.5486 170.015,-29.1447 172.254,-26.8622"/>
<polygon fill="midnightblue" stroke="midnightblue" points="175.041,-29.0501 179.98,-19.677 170.274,-23.9243 175.041,-29.0501"/>
</g>
<!-- Node3&#45;&gt;Node4 -->
<g id="edge3" class="edge"><title>Node3&#45;&gt;Node4</title>
<path fill="none" stroke="midnightblue" d="M215.071,-132.059C227.452,-136.909 243.516,-143.202 257.719,-148.766"/>
<polygon fill="midnightblue" stroke="midnightblue" points="256.599,-152.087 267.187,-152.475 259.153,-145.569 256.599,-152.087"/>
</g>
<!-- Node3&#45;&gt;Node5 -->
<g id="edge4" class="edge"><title>Node3&#45;&gt;Node5</title>
<path fill="none" stroke="midnightblue" d="M208.908,-133.578C212.941,-136.457 217.246,-139.726 221,-143 238.533,-158.292 238.591,-166.775 257,-181 258.802,-182.393 260.72,-183.745 262.692,-185.043"/>
<polygon fill="midnightblue" stroke="midnightblue" points="261.129,-188.188 271.5,-190.351 264.742,-182.192 261.129,-188.188"/>
</g>
<!-- Node3&#45;&gt;Node6 -->
<g id="edge5" class="edge"><title>Node3&#45;&gt;Node6</title>
<path fill="none" stroke="midnightblue" d="M203.638,-114.366C215.309,-102.381 236.463,-81.7053 257,-67 258.897,-65.6415 260.902,-64.3076 262.951,-63.0159"/>
<polygon fill="midnightblue" stroke="midnightblue" points="265.184,-65.763 272.03,-57.677 261.636,-59.7289 265.184,-65.763"/>
</g>
<!-- Node7 -->
<g id="node7" class="node"><title>Node7</title>
<g id="a_node7"><a xlink:href="$_moi_2tp3_23_dmain_8c.html#afc335792d57c9404482ac57e304c19f5" xlink:title=" ">
<polygon fill="none" stroke="black" points="258.5,-76.5 258.5,-95.5 326.5,-95.5 326.5,-76.5 258.5,-76.5"/>
<text text-anchor="middle" x="292.5" y="-83.5" font-family="Helvetica,sans-Serif" font-size="10.00">pointBinterp</text>
</a>
</g>
</g>
<!-- Node3&#45;&gt;Node7 -->
<g id="edge6" class="edge"><title>Node3&#45;&gt;Node7</title>
<path fill="none" stroke="midnightblue" d="M215.071,-115.941C227.452,-111.091 243.516,-104.798 257.719,-99.2337"/>
<polygon fill="midnightblue" stroke="midnightblue" points="259.153,-102.431 267.187,-95.5246 256.599,-95.9135 259.153,-102.431"/>
</g>
<!-- Node8 -->
<g id="node8" class="node"><title>Node8</title>
<g id="a_node8"><a xlink:href="$_moi_2tp3_23_dmain_8c.html#a23f0e89ac18ea3648eafe78ea4766e27" xlink:title=" ">
<polygon fill="none" stroke="black" points="364,-76.5 364,-95.5 405,-95.5 405,-76.5 364,-76.5"/>
<text text-anchor="middle" x="384.5" y="-83.5" font-family="Helvetica,sans-Serif" font-size="10.00">binter</text>
</a>
</g>
</g>
<!-- Node7&#45;&gt;Node8 -->
<g id="edge7" class="edge"><title>Node7&#45;&gt;Node8</title>
<path fill="none" stroke="midnightblue" d="M326.502,-86C335.418,-86 345.013,-86 353.74,-86"/>
<polygon fill="midnightblue" stroke="midnightblue" points="353.852,-89.5001 363.852,-86 353.852,-82.5001 353.852,-89.5001"/>
</g>
<!-- Node9&#45;&gt;Node4 -->
<g id="edge9" class="edge"><title>Node9&#45;&gt;Node4</title>
<path fill="none" stroke="midnightblue" d="M221.006,-162C228.908,-162 237.798,-162 246.535,-162"/>
<polygon fill="midnightblue" stroke="midnightblue" points="246.652,-165.5 256.652,-162 246.652,-158.5 246.652,-165.5"/>
</g>
<!-- Node9&#45;&gt;Node5 -->
<g id="edge11" class="edge"><title>Node9&#45;&gt;Node5</title>
<path fill="none" stroke="midnightblue" d="M218.977,-171.589C230.695,-176.179 244.915,-181.75 257.649,-186.739"/>
<polygon fill="midnightblue" stroke="midnightblue" points="256.443,-190.025 267.031,-190.414 258.996,-183.508 256.443,-190.025"/>
</g>
<!-- Node9&#45;&gt;Node10 -->
<g id="edge10" class="edge"><title>Node9&#45;&gt;Node10</title>
<path fill="none" stroke="midnightblue" d="M218.977,-152.411C230.695,-147.821 244.915,-142.25 257.649,-137.261"/>
<polygon fill="midnightblue" stroke="midnightblue" points="258.996,-140.492 267.031,-133.586 256.443,-133.975 258.996,-140.492"/>
</g>
</g>
</svg>
