<?xml version="1.0" encoding="UTF-8" standalone="no"?>
<!DOCTYPE svg PUBLIC "-//W3C//DTD SVG 1.1//EN"
 "http://www.w3.org/Graphics/SVG/1.1/DTD/svg11.dtd">
<!-- Generated by graphviz version 2.38.0 (20140413.2041)
 -->
<!-- Title: bezier Pages: 1 -->
<svg width="142pt" height="66pt"
 viewBox="0.00 0.00 142.00 66.00" xmlns="http://www.w3.org/2000/svg" xmlns:xlink="http://www.w3.org/1999/xlink">
<g id="graph0" class="graph" transform="scale(1 1) rotate(0) translate(4 62)">
<title>bezier</title>
<!-- Node1 -->
<g id="node1" class="node"><title>Node1</title>
<g id="a_node1"><a xlink:title=" ">
<polygon fill="#bfbfbf" stroke="black" points="0,-19.5 0,-38.5 43,-38.5 43,-19.5 0,-19.5"/>
<text text-anchor="middle" x="21.5" y="-26.5" font-family="Helvetica,sans-Serif" font-size="10.00">bezier</text>
</a>
</g>
</g>
<!-- Node2 -->
<g id="node2" class="node"><title>Node2</title>
<g id="a_node2"><a xlink:href="$_moi_2tp1_2main_8c.html#a9d949080c2f3761116b7e477dfdb2952" xlink:title=" ">
<polygon fill="none" stroke="black" points="79,-38.5 79,-57.5 134,-57.5 134,-38.5 79,-38.5"/>
<text text-anchor="middle" x="106.5" y="-45.5" font-family="Helvetica,sans-Serif" font-size="10.00">drawLine</text>
</a>
</g>
</g>
<!-- Node1&#45;&gt;Node2 -->
<g id="edge1" class="edge"><title>Node1&#45;&gt;Node2</title>
<path fill="none" stroke="midnightblue" d="M43.0169,-33.6966C50.8995,-35.5011 60.1527,-37.6193 69.0866,-39.6644"/>
<polygon fill="midnightblue" stroke="midnightblue" points="68.4187,-43.102 78.9476,-41.9217 69.9808,-36.2785 68.4187,-43.102"/>
</g>
<!-- Node3 -->
<g id="node3" class="node"><title>Node3</title>
<g id="a_node3"><a xlink:href="$_paul_2tp1_2main_8c.html#aa04d41e9bd9991e3af1418648e1bd387" xlink:title=" ">
<polygon fill="none" stroke="black" points="90.5,-0.5 90.5,-19.5 122.5,-19.5 122.5,-0.5 90.5,-0.5"/>
<text text-anchor="middle" x="106.5" y="-7.5" font-family="Helvetica,sans-Serif" font-size="10.00">lerp</text>
</a>
</g>
</g>
<!-- Node1&#45;&gt;Node3 -->
<g id="edge2" class="edge"><title>Node1&#45;&gt;Node3</title>
<path fill="none" stroke="midnightblue" d="M43.0169,-24.3034C54.3783,-21.7025 68.5872,-18.4499 80.5834,-15.7038"/>
<polygon fill="midnightblue" stroke="midnightblue" points="81.4619,-19.0933 90.4287,-13.4501 79.8998,-12.2698 81.4619,-19.0933"/>
</g>
</g>
</svg>
