<?xml version="1.0" encoding="UTF-8" standalone="no"?>
<!DOCTYPE svg PUBLIC "-//W3C//DTD SVG 1.1//EN"
 "http://www.w3.org/Graphics/SVG/1.1/DTD/svg11.dtd">
<!-- Generated by graphviz version 2.38.0 (20140413.2041)
 -->
<!-- Title: pointBilerp Pages: 1 -->
<svg width="260pt" height="28pt"
 viewBox="0.00 0.00 260.00 28.00" xmlns="http://www.w3.org/2000/svg" xmlns:xlink="http://www.w3.org/1999/xlink">
<g id="graph0" class="graph" transform="scale(1 1) rotate(0) translate(4 24)">
<title>pointBilerp</title>
<!-- Node1 -->
<g id="node1" class="node"><title>Node1</title>
<g id="a_node1"><a xlink:title=" ">
<polygon fill="#bfbfbf" stroke="black" points="190,-0.5 190,-19.5 252,-19.5 252,-0.5 190,-0.5"/>
<text text-anchor="middle" x="221" y="-7.5" font-family="Helvetica,sans-Serif" font-size="10.00">pointBilerp</text>
</a>
</g>
</g>
<!-- Node2 -->
<g id="node2" class="node"><title>Node2</title>
<g id="a_node2"><a xlink:href="$_paul_2tp2_23_dmain_8c.html#aad87af5198ca2ee9ab5d69b9237ece30" xlink:title=" ">
<polygon fill="none" stroke="black" points="83,-0.5 83,-19.5 154,-19.5 154,-0.5 83,-0.5"/>
<text text-anchor="middle" x="118.5" y="-7.5" font-family="Helvetica,sans-Serif" font-size="10.00">pointCarreau</text>
</a>
</g>
</g>
<!-- Node1&#45;&gt;Node2 -->
<g id="edge1" class="edge"><title>Node1&#45;&gt;Node2</title>
<path fill="none" stroke="midnightblue" d="M179.787,-10C171.323,-10 162.463,-10 154.221,-10"/>
<polygon fill="midnightblue" stroke="midnightblue" points="179.847,-13.5001 189.847,-10 179.847,-6.5001 179.847,-13.5001"/>
</g>
<!-- Node3 -->
<g id="node3" class="node"><title>Node3</title>
<g id="a_node3"><a xlink:href="$_paul_2tp2_23_dmain_8c.html#a1e5b20fed15743656bb6d2e6a6ea6269" xlink:title=" ">
<polygon fill="none" stroke="black" points="0,-0.5 0,-19.5 47,-19.5 47,-0.5 0,-0.5"/>
<text text-anchor="middle" x="23.5" y="-7.5" font-family="Helvetica,sans-Serif" font-size="10.00">display</text>
</a>
</g>
</g>
<!-- Node2&#45;&gt;Node3 -->
<g id="edge2" class="edge"><title>Node2&#45;&gt;Node3</title>
<path fill="none" stroke="midnightblue" d="M72.8604,-10C63.8967,-10 54.8407,-10 47.0275,-10"/>
<polygon fill="midnightblue" stroke="midnightblue" points="72.8703,-13.5001 82.8702,-10 72.8702,-6.5001 72.8703,-13.5001"/>
</g>
</g>
</svg>
