<?xml version="1.0" encoding="UTF-8" standalone="no"?>
<!DOCTYPE svg PUBLIC "-//W3C//DTD SVG 1.1//EN"
 "http://www.w3.org/Graphics/SVG/1.1/DTD/svg11.dtd">
<!-- Generated by graphviz version 2.38.0 (20140413.2041)
 -->
<!-- Title: display Pages: 1 -->
<svg width="336pt" height="256pt"
 viewBox="0.00 0.00 336.00 256.00" xmlns="http://www.w3.org/2000/svg" xmlns:xlink="http://www.w3.org/1999/xlink">
<g id="graph0" class="graph" transform="scale(1 1) rotate(0) translate(4 252)">
<title>display</title>
<!-- Node1 -->
<g id="node1" class="node"><title>Node1</title>
<g id="a_node1"><a xlink:title=" ">
<polygon fill="#bfbfbf" stroke="black" points="0,-114.5 0,-133.5 47,-133.5 47,-114.5 0,-114.5"/>
<text text-anchor="middle" x="23.5" y="-121.5" font-family="Helvetica,sans-Serif" font-size="10.00">display</text>
</a>
</g>
</g>
<!-- Node2 -->
<g id="node2" class="node"><title>Node2</title>
<g id="a_node2"><a xlink:href="$_moi_2tp2_23_dmain_8c.html#a587fb578fe3fba3da1fa670b7d9f923b" xlink:title=" ">
<polygon fill="none" stroke="black" points="83,-228.5 83,-247.5 154,-247.5 154,-228.5 83,-228.5"/>
<text text-anchor="middle" x="118.5" y="-235.5" font-family="Helvetica,sans-Serif" font-size="10.00">chooseColor</text>
</a>
</g>
</g>
<!-- Node1&#45;&gt;Node2 -->
<g id="edge1" class="edge"><title>Node1&#45;&gt;Node2</title>
<path fill="none" stroke="midnightblue" d="M28.4671,-133.744C36.4278,-152.314 55.9326,-193.216 83,-219 84.411,-220.344 85.9355,-221.624 87.5306,-222.839"/>
<polygon fill="midnightblue" stroke="midnightblue" points="85.62,-225.771 95.8973,-228.346 89.4686,-219.924 85.62,-225.771"/>
</g>
<!-- Node3 -->
<g id="node3" class="node"><title>Node3</title>
<g id="a_node3"><a xlink:href="$_moi_2tp2_23_dmain_8c.html#a0c16fe8c7d6a4759b082dbd4f7cd2bb0" xlink:title=" ">
<polygon fill="none" stroke="black" points="91,-190.5 91,-209.5 146,-209.5 146,-190.5 91,-190.5"/>
<text text-anchor="middle" x="118.5" y="-197.5" font-family="Helvetica,sans-Serif" font-size="10.00">drawLine</text>
</a>
</g>
</g>
<!-- Node1&#45;&gt;Node3 -->
<g id="edge2" class="edge"><title>Node1&#45;&gt;Node3</title>
<path fill="none" stroke="midnightblue" d="M32.9334,-133.692C43.7339,-145.738 63.4065,-166.475 83,-181 84.8745,-182.39 86.8623,-183.746 88.8999,-185.054"/>
<polygon fill="midnightblue" stroke="midnightblue" points="87.5685,-188.334 97.9546,-190.427 91.1405,-182.314 87.5685,-188.334"/>
</g>
<!-- Node4 -->
<g id="node4" class="node"><title>Node4</title>
<g id="a_node4"><a xlink:href="$_moi_2tp2_23_dmain_8c.html#a5b6c8f7241dffa4b63cdb31482ca3987" xlink:title=" ">
<polygon fill="none" stroke="black" points="89,-152.5 89,-171.5 148,-171.5 148,-152.5 89,-152.5"/>
<text text-anchor="middle" x="118.5" y="-159.5" font-family="Helvetica,sans-Serif" font-size="10.00">drawPoint</text>
</a>
</g>
</g>
<!-- Node1&#45;&gt;Node4 -->
<g id="edge3" class="edge"><title>Node1&#45;&gt;Node4</title>
<path fill="none" stroke="midnightblue" d="M47.0127,-133.199C58.2958,-137.809 72.1737,-143.48 84.6227,-148.566"/>
<polygon fill="midnightblue" stroke="midnightblue" points="83.6425,-151.947 94.2234,-152.489 86.2902,-145.467 83.6425,-151.947"/>
</g>
<!-- Node5 -->
<g id="node5" class="node"><title>Node5</title>
<g id="a_node5"><a xlink:href="$_moi_2tp2_23_dmain_8c.html#a71628a55b7ad470e01d9f475396c4dc6" xlink:title=" ">
<polygon fill="none" stroke="black" points="88.5,-114.5 88.5,-133.5 148.5,-133.5 148.5,-114.5 88.5,-114.5"/>
<text text-anchor="middle" x="118.5" y="-121.5" font-family="Helvetica,sans-Serif" font-size="10.00">drawQuad</text>
</a>
</g>
</g>
<!-- Node1&#45;&gt;Node5 -->
<g id="edge4" class="edge"><title>Node1&#45;&gt;Node5</title>
<path fill="none" stroke="midnightblue" d="M47.0127,-124C56.2858,-124 67.3115,-124 77.8563,-124"/>
<polygon fill="midnightblue" stroke="midnightblue" points="78.158,-127.5 88.158,-124 78.158,-120.5 78.158,-127.5"/>
</g>
<!-- Node6 -->
<g id="node6" class="node"><title>Node6</title>
<g id="a_node6"><a xlink:href="$_paul_2tp2_23_dmain_8c.html#aad87af5198ca2ee9ab5d69b9237ece30" xlink:title=" ">
<polygon fill="none" stroke="black" points="83,-76.5 83,-95.5 154,-95.5 154,-76.5 83,-76.5"/>
<text text-anchor="middle" x="118.5" y="-83.5" font-family="Helvetica,sans-Serif" font-size="10.00">pointCarreau</text>
</a>
</g>
</g>
<!-- Node1&#45;&gt;Node6 -->
<g id="edge5" class="edge"><title>Node1&#45;&gt;Node6</title>
<path fill="none" stroke="midnightblue" d="M47.0127,-114.801C58.2958,-110.191 72.1737,-104.52 84.6227,-99.4337"/>
<polygon fill="midnightblue" stroke="midnightblue" points="86.2902,-102.533 94.2234,-95.5109 83.6425,-96.0534 86.2902,-102.533"/>
</g>
<!-- Node9 -->
<g id="node9" class="node"><title>Node9</title>
<g id="a_node9"><a xlink:href="$_paul_2tp2_23_dmain_8c.html#ae5caba4c9d589b2b702f159c569afdcb" xlink:title=" ">
<polygon fill="none" stroke="black" points="90.5,-38.5 90.5,-57.5 146.5,-57.5 146.5,-38.5 90.5,-38.5"/>
<text text-anchor="middle" x="118.5" y="-45.5" font-family="Helvetica,sans-Serif" font-size="10.00">pointLerp</text>
</a>
</g>
</g>
<!-- Node1&#45;&gt;Node9 -->
<g id="edge8" class="edge"><title>Node1&#45;&gt;Node9</title>
<path fill="none" stroke="midnightblue" d="M32.9334,-114.308C43.7339,-102.262 63.4065,-81.5245 83,-67 84.8745,-65.6104 86.8623,-64.2537 88.8999,-62.9457"/>
<polygon fill="midnightblue" stroke="midnightblue" points="91.1405,-65.6861 97.9546,-57.5733 87.5685,-59.666 91.1405,-65.6861"/>
</g>
<!-- Node11 -->
<g id="node11" class="node"><title>Node11</title>
<g id="a_node11"><a xlink:href="$_moi_2tp2_23_dmain_8c.html#a68ff78bdc2fcc8807375df87a7defa7d" xlink:title=" ">
<polygon fill="none" stroke="black" points="104,-0.5 104,-19.5 133,-19.5 133,-0.5 104,-0.5"/>
<text text-anchor="middle" x="118.5" y="-7.5" font-family="Helvetica,sans-Serif" font-size="10.00">pt</text>
</a>
</g>
</g>
<!-- Node1&#45;&gt;Node11 -->
<g id="edge10" class="edge"><title>Node1&#45;&gt;Node11</title>
<path fill="none" stroke="midnightblue" d="M28.4671,-114.256C36.4278,-95.6863 55.9326,-54.7842 83,-29 86.4348,-25.7281 90.5416,-22.8342 94.7039,-20.3537"/>
<polygon fill="midnightblue" stroke="midnightblue" points="96.473,-23.3772 103.665,-15.5976 93.1913,-17.1941 96.473,-23.3772"/>
</g>
<!-- Node7 -->
<g id="node7" class="node"><title>Node7</title>
<g id="a_node7"><a xlink:href="$_paul_2tp2_23_dmain_8c.html#a46e1e0a8d6f8cada140ba7b68f40e2de" xlink:title=" ">
<polygon fill="none" stroke="black" points="190,-76.5 190,-95.5 252,-95.5 252,-76.5 190,-76.5"/>
<text text-anchor="middle" x="221" y="-83.5" font-family="Helvetica,sans-Serif" font-size="10.00">pointBilerp</text>
</a>
</g>
</g>
<!-- Node6&#45;&gt;Node7 -->
<g id="edge6" class="edge"><title>Node6&#45;&gt;Node7</title>
<path fill="none" stroke="midnightblue" d="M154.086,-86C162.321,-86 171.18,-86 179.647,-86"/>
<polygon fill="midnightblue" stroke="midnightblue" points="179.715,-89.5001 189.715,-86 179.715,-82.5001 179.715,-89.5001"/>
</g>
<!-- Node8 -->
<g id="node8" class="node"><title>Node8</title>
<g id="a_node8"><a xlink:href="$_paul_2tp2_23_dmain_8c.html#a819648eb66efeed756aba46396639bd0" xlink:title=" ">
<polygon fill="none" stroke="black" points="288,-76.5 288,-95.5 328,-95.5 328,-76.5 288,-76.5"/>
<text text-anchor="middle" x="308" y="-83.5" font-family="Helvetica,sans-Serif" font-size="10.00">bilerp</text>
</a>
</g>
</g>
<!-- Node7&#45;&gt;Node8 -->
<g id="edge7" class="edge"><title>Node7&#45;&gt;Node8</title>
<path fill="none" stroke="midnightblue" d="M252.207,-86C260.435,-86 269.336,-86 277.524,-86"/>
<polygon fill="midnightblue" stroke="midnightblue" points="277.759,-89.5001 287.759,-86 277.759,-82.5001 277.759,-89.5001"/>
</g>
<!-- Node10 -->
<g id="node10" class="node"><title>Node10</title>
<g id="a_node10"><a xlink:href="$_paul_2tp2_23_dmain_8c.html#aa04d41e9bd9991e3af1418648e1bd387" xlink:title=" ">
<polygon fill="none" stroke="black" points="205,-38.5 205,-57.5 237,-57.5 237,-38.5 205,-38.5"/>
<text text-anchor="middle" x="221" y="-45.5" font-family="Helvetica,sans-Serif" font-size="10.00">lerp</text>
</a>
</g>
</g>
<!-- Node9&#45;&gt;Node10 -->
<g id="edge9" class="edge"><title>Node9&#45;&gt;Node10</title>
<path fill="none" stroke="midnightblue" d="M146.697,-48C161.613,-48 179.989,-48 194.611,-48"/>
<polygon fill="midnightblue" stroke="midnightblue" points="194.941,-51.5001 204.941,-48 194.941,-44.5001 194.941,-51.5001"/>
</g>
</g>
</svg>
