<?xml version="1.0" encoding="UTF-8" standalone="no"?>
<!DOCTYPE svg PUBLIC "-//W3C//DTD SVG 1.1//EN"
 "http://www.w3.org/Graphics/SVG/1.1/DTD/svg11.dtd">
<!-- Generated by graphviz version 2.38.0 (20140413.2041)
 -->
<!-- Title: bezier Pages: 1 -->
<svg width="235pt" height="142pt"
 viewBox="0.00 0.00 235.00 142.00" xmlns="http://www.w3.org/2000/svg" xmlns:xlink="http://www.w3.org/1999/xlink">
<g id="graph0" class="graph" transform="scale(1 1) rotate(0) translate(4 138)">
<title>bezier</title>
<!-- Node1 -->
<g id="node1" class="node"><title>Node1</title>
<g id="a_node1"><a xlink:title=" ">
<polygon fill="#bfbfbf" stroke="black" points="0,-57.5 0,-76.5 43,-76.5 43,-57.5 0,-57.5"/>
<text text-anchor="middle" x="21.5" y="-64.5" font-family="Helvetica,sans-Serif" font-size="10.00">bezier</text>
</a>
</g>
</g>
<!-- Node2 -->
<g id="node2" class="node"><title>Node2</title>
<g id="a_node2"><a xlink:href="$_moi_2tp2_23_dmain_8c.html#a587fb578fe3fba3da1fa670b7d9f923b" xlink:title=" ">
<polygon fill="none" stroke="black" points="79,-114.5 79,-133.5 150,-133.5 150,-114.5 79,-114.5"/>
<text text-anchor="middle" x="114.5" y="-121.5" font-family="Helvetica,sans-Serif" font-size="10.00">chooseColor</text>
</a>
</g>
</g>
<!-- Node1&#45;&gt;Node2 -->
<g id="edge1" class="edge"><title>Node1&#45;&gt;Node2</title>
<path fill="none" stroke="midnightblue" d="M36.208,-76.7185C47.514,-84.6121 64.0641,-95.8892 79,-105 81.4627,-106.502 84.0506,-108.025 86.6557,-109.522"/>
<polygon fill="midnightblue" stroke="midnightblue" points="84.9869,-112.599 95.4212,-114.436 88.4104,-106.493 84.9869,-112.599"/>
</g>
<!-- Node3 -->
<g id="node3" class="node"><title>Node3</title>
<g id="a_node3"><a xlink:href="$_moi_2tp2_23_dmain_8c.html#a5b6c8f7241dffa4b63cdb31482ca3987" xlink:title=" ">
<polygon fill="none" stroke="black" points="85,-76.5 85,-95.5 144,-95.5 144,-76.5 85,-76.5"/>
<text text-anchor="middle" x="114.5" y="-83.5" font-family="Helvetica,sans-Serif" font-size="10.00">drawPoint</text>
</a>
</g>
</g>
<!-- Node1&#45;&gt;Node3 -->
<g id="edge2" class="edge"><title>Node1&#45;&gt;Node3</title>
<path fill="none" stroke="midnightblue" d="M43.1493,-71.3114C52.6244,-73.2897 64.1735,-75.7011 75.1527,-77.9934"/>
<polygon fill="midnightblue" stroke="midnightblue" points="74.4953,-81.4316 84.9996,-80.0494 75.926,-74.5793 74.4953,-81.4316"/>
</g>
<!-- Node4 -->
<g id="node4" class="node"><title>Node4</title>
<g id="a_node4"><a xlink:href="$_moi_2tp2_23_dmain_8c.html#a71628a55b7ad470e01d9f475396c4dc6" xlink:title=" ">
<polygon fill="none" stroke="black" points="84.5,-38.5 84.5,-57.5 144.5,-57.5 144.5,-38.5 84.5,-38.5"/>
<text text-anchor="middle" x="114.5" y="-45.5" font-family="Helvetica,sans-Serif" font-size="10.00">drawQuad</text>
</a>
</g>
</g>
<!-- Node1&#45;&gt;Node4 -->
<g id="edge3" class="edge"><title>Node1&#45;&gt;Node4</title>
<path fill="none" stroke="midnightblue" d="M43.1493,-62.6886C52.3688,-60.7637 63.5518,-58.4287 74.2628,-56.1924"/>
<polygon fill="midnightblue" stroke="midnightblue" points="75.2345,-59.5651 84.308,-54.095 73.8038,-52.7128 75.2345,-59.5651"/>
</g>
<!-- Node5 -->
<g id="node5" class="node"><title>Node5</title>
<g id="a_node5"><a xlink:href="$_moi_2tp3_23_dmain_8c.html#afc335792d57c9404482ac57e304c19f5" xlink:title=" ">
<polygon fill="none" stroke="black" points="80.5,-0.5 80.5,-19.5 148.5,-19.5 148.5,-0.5 80.5,-0.5"/>
<text text-anchor="middle" x="114.5" y="-7.5" font-family="Helvetica,sans-Serif" font-size="10.00">pointBinterp</text>
</a>
</g>
</g>
<!-- Node1&#45;&gt;Node5 -->
<g id="edge4" class="edge"><title>Node1&#45;&gt;Node5</title>
<path fill="none" stroke="midnightblue" d="M36.208,-57.2815C47.514,-49.3879 64.0641,-38.1108 79,-29 81.4627,-27.4978 84.0506,-25.9747 86.6557,-24.4784"/>
<polygon fill="midnightblue" stroke="midnightblue" points="88.4104,-27.5072 95.4212,-19.5637 84.9869,-21.4014 88.4104,-27.5072"/>
</g>
<!-- Node6 -->
<g id="node6" class="node"><title>Node6</title>
<g id="a_node6"><a xlink:href="$_moi_2tp3_23_dmain_8c.html#a23f0e89ac18ea3648eafe78ea4766e27" xlink:title=" ">
<polygon fill="none" stroke="black" points="186,-0.5 186,-19.5 227,-19.5 227,-0.5 186,-0.5"/>
<text text-anchor="middle" x="206.5" y="-7.5" font-family="Helvetica,sans-Serif" font-size="10.00">binter</text>
</a>
</g>
</g>
<!-- Node5&#45;&gt;Node6 -->
<g id="edge5" class="edge"><title>Node5&#45;&gt;Node6</title>
<path fill="none" stroke="midnightblue" d="M148.502,-10C157.418,-10 167.013,-10 175.74,-10"/>
<polygon fill="midnightblue" stroke="midnightblue" points="175.852,-13.5001 185.852,-10 175.852,-6.5001 175.852,-13.5001"/>
</g>
</g>
</svg>
