<?xml version="1.0" encoding="UTF-8" standalone="no"?>
<!DOCTYPE svg PUBLIC "-//W3C//DTD SVG 1.1//EN"
 "http://www.w3.org/Graphics/SVG/1.1/DTD/svg11.dtd">
<!-- Generated by graphviz version 2.38.0 (20140413.2041)
 -->
<!-- Title: pointCarreau Pages: 1 -->
<svg width="253pt" height="28pt"
 viewBox="0.00 0.00 253.00 28.00" xmlns="http://www.w3.org/2000/svg" xmlns:xlink="http://www.w3.org/1999/xlink">
<g id="graph0" class="graph" transform="scale(1 1) rotate(0) translate(4 24)">
<title>pointCarreau</title>
<!-- Node1 -->
<g id="node1" class="node"><title>Node1</title>
<g id="a_node1"><a xlink:title=" ">
<polygon fill="#bfbfbf" stroke="black" points="0,-0.5 0,-19.5 71,-19.5 71,-0.5 0,-0.5"/>
<text text-anchor="middle" x="35.5" y="-7.5" font-family="Helvetica,sans-Serif" font-size="10.00">pointCarreau</text>
</a>
</g>
</g>
<!-- Node2 -->
<g id="node2" class="node"><title>Node2</title>
<g id="a_node2"><a xlink:href="$_paul_2tp2_23_dmain_8c.html#a46e1e0a8d6f8cada140ba7b68f40e2de" xlink:title=" ">
<polygon fill="none" stroke="black" points="107,-0.5 107,-19.5 169,-19.5 169,-0.5 107,-0.5"/>
<text text-anchor="middle" x="138" y="-7.5" font-family="Helvetica,sans-Serif" font-size="10.00">pointBilerp</text>
</a>
</g>
</g>
<!-- Node1&#45;&gt;Node2 -->
<g id="edge1" class="edge"><title>Node1&#45;&gt;Node2</title>
<path fill="none" stroke="midnightblue" d="M71.0864,-10C79.3212,-10 88.1796,-10 96.6475,-10"/>
<polygon fill="midnightblue" stroke="midnightblue" points="96.7147,-13.5001 106.715,-10 96.7146,-6.5001 96.7147,-13.5001"/>
</g>
<!-- Node3 -->
<g id="node3" class="node"><title>Node3</title>
<g id="a_node3"><a xlink:href="$_paul_2tp2_23_dmain_8c.html#a819648eb66efeed756aba46396639bd0" xlink:title=" ">
<polygon fill="none" stroke="black" points="205,-0.5 205,-19.5 245,-19.5 245,-0.5 205,-0.5"/>
<text text-anchor="middle" x="225" y="-7.5" font-family="Helvetica,sans-Serif" font-size="10.00">bilerp</text>
</a>
</g>
</g>
<!-- Node2&#45;&gt;Node3 -->
<g id="edge2" class="edge"><title>Node2&#45;&gt;Node3</title>
<path fill="none" stroke="midnightblue" d="M169.207,-10C177.435,-10 186.336,-10 194.524,-10"/>
<polygon fill="midnightblue" stroke="midnightblue" points="194.759,-13.5001 204.759,-10 194.759,-6.5001 194.759,-13.5001"/>
</g>
</g>
</svg>
