<?xml version="1.0" encoding="UTF-8" standalone="no"?>
<!DOCTYPE svg PUBLIC "-//W3C//DTD SVG 1.1//EN"
 "http://www.w3.org/Graphics/SVG/1.1/DTD/svg11.dtd">
<!-- Generated by graphviz version 2.38.0 (20140413.2041)
 -->
<!-- Title: set Pages: 1 -->
<svg width="290pt" height="78pt"
 viewBox="0.00 0.00 290.00 77.50" xmlns="http://www.w3.org/2000/svg" xmlns:xlink="http://www.w3.org/1999/xlink">
<g id="graph0" class="graph" transform="scale(1 1) rotate(0) translate(4 73.5)">
<title>set</title>
<!-- Node1 -->
<g id="node1" class="node"><title>Node1</title>
<g id="a_node1"><a xlink:title=" ">
<polygon fill="#bfbfbf" stroke="black" points="252,-28 252,-47 282,-47 282,-28 252,-28"/>
<text text-anchor="middle" x="267" y="-35" font-family="Helvetica,sans-Serif" font-size="10.00">set</text>
</a>
</g>
</g>
<!-- Node2 -->
<g id="node2" class="node"><title>Node2</title>
<g id="a_node2"><a xlink:href="$namespacecheck__description__files.html#a8e372051fb660ebec3e95e01ee6c3b7c" xlink:title=" ">
<polygon fill="none" stroke="black" points="37,-50 37,-69 179,-69 179,-50 37,-50"/>
<text text-anchor="middle" x="108" y="-57" font-family="Helvetica,sans-Serif" font-size="10.00">check_description_files.main</text>
</a>
</g>
</g>
<!-- Node1&#45;&gt;Node2 -->
<g id="edge1" class="edge"><title>Node1&#45;&gt;Node2</title>
<path fill="none" stroke="midnightblue" d="M241.443,-40.9411C224.074,-43.375 199.881,-46.765 176.919,-49.9827"/>
<polygon fill="midnightblue" stroke="midnightblue" points="242.373,-44.3451 251.79,-39.4912 241.401,-37.4128 242.373,-44.3451"/>
</g>
<!-- Node3 -->
<g id="node3" class="node"><title>Node3</title>
<g id="a_node3"><a xlink:href="$class_slicer_p_r_i_s_m_1_1_p_r_i_s_m_logic_1_1_p_r_i_s_m_logic.html#a2035ec5a3e3b3e79fa6065f3775fb0c8" xlink:title="Use Slicer Volume Rendering module to initialize and setup rendering of the given volume node.">
<polygon fill="none" stroke="black" points="0,-0.5 0,-30.5 216,-30.5 216,-0.5 0,-0.5"/>
<text text-anchor="start" x="8" y="-18.5" font-family="Helvetica,sans-Serif" font-size="10.00">SlicerPRISM.PRISMLogic.PRISMLogic.render</text>
<text text-anchor="middle" x="108" y="-7.5" font-family="Helvetica,sans-Serif" font-size="10.00">Volume</text>
</a>
</g>
</g>
<!-- Node1&#45;&gt;Node3 -->
<g id="edge2" class="edge"><title>Node1&#45;&gt;Node3</title>
<path fill="none" stroke="midnightblue" d="M241.789,-34.1074C234.275,-33.0545 225.46,-31.8193 216.007,-30.4947"/>
<polygon fill="midnightblue" stroke="midnightblue" points="241.401,-37.5872 251.79,-35.5088 242.373,-30.6549 241.401,-37.5872"/>
</g>
</g>
</svg>
