<?xml version="1.0" encoding="UTF-8" standalone="no"?>
<!DOCTYPE svg PUBLIC "-//W3C//DTD SVG 1.1//EN"
 "http://www.w3.org/Graphics/SVG/1.1/DTD/svg11.dtd">
<!-- Generated by graphviz version 2.38.0 (20140413.2041)
 -->
<!-- Title: C:/Users/Tiphaine/Dropbox/Fac/Master/M1/S7/codes_td4/codes_td4/4_AST/ast.c Pages: 1 -->
<svg width="244pt" height="106pt"
 viewBox="0.00 0.00 244.00 106.00" xmlns="http://www.w3.org/2000/svg" xmlns:xlink="http://www.w3.org/1999/xlink">
<g id="graph0" class="graph" transform="scale(1 1) rotate(0) translate(4 102)">
<title>C:/Users/Tiphaine/Dropbox/Fac/Master/M1/S7/codes_td4/codes_td4/4_AST/ast.c</title>
<!-- Node1 -->
<g id="node1" class="node"><title>Node1</title>
<g id="a_node1"><a xlink:title=" ">
<polygon fill="#bfbfbf" stroke="black" points="51,-56.5 51,-97.5 191,-97.5 191,-56.5 51,-56.5"/>
<text text-anchor="start" x="59" y="-85.5" font-family="Helvetica,sans-Serif" font-size="10.00">C:/Users/Tiphaine/Dropbox</text>
<text text-anchor="start" x="59" y="-74.5" font-family="Helvetica,sans-Serif" font-size="10.00">/Fac/Master/M1/S7/codes</text>
<text text-anchor="middle" x="121" y="-63.5" font-family="Helvetica,sans-Serif" font-size="10.00">_td4/codes_td4/4_AST/ast.c</text>
</a>
</g>
</g>
<!-- Node2 -->
<g id="node2" class="node"><title>Node2</title>
<g id="a_node2"><a xlink:title=" ">
<polygon fill="none" stroke="#bfbfbf" points="0,-0.5 0,-19.5 46,-19.5 46,-0.5 0,-0.5"/>
<text text-anchor="middle" x="23" y="-7.5" font-family="Helvetica,sans-Serif" font-size="10.00">stdio.h</text>
</a>
</g>
</g>
<!-- Node1&#45;&gt;Node2 -->
<g id="edge1" class="edge"><title>Node1&#45;&gt;Node2</title>
<path fill="none" stroke="midnightblue" d="M91.5968,-56.4979C76.427,-46.4363 58.2572,-34.3849 44.4297,-25.2136"/>
<polygon fill="midnightblue" stroke="midnightblue" points="46.3135,-22.2631 36.0453,-19.6525 42.4443,-28.0967 46.3135,-22.2631"/>
</g>
<!-- Node3 -->
<g id="node3" class="node"><title>Node3</title>
<g id="a_node3"><a xlink:title=" ">
<polygon fill="none" stroke="#bfbfbf" points="64,-0.5 64,-19.5 112,-19.5 112,-0.5 64,-0.5"/>
<text text-anchor="middle" x="88" y="-7.5" font-family="Helvetica,sans-Serif" font-size="10.00">stdlib.h</text>
</a>
</g>
</g>
<!-- Node1&#45;&gt;Node3 -->
<g id="edge2" class="edge"><title>Node1&#45;&gt;Node3</title>
<path fill="none" stroke="midnightblue" d="M111.099,-56.4979C106.623,-47.682 101.372,-37.3385 97.0081,-28.7432"/>
<polygon fill="midnightblue" stroke="midnightblue" points="100.041,-26.9847 92.3928,-19.6525 93.7989,-30.1536 100.041,-26.9847"/>
</g>
<!-- Node4 -->
<g id="node4" class="node"><title>Node4</title>
<g id="a_node4"><a xlink:title=" ">
<polygon fill="none" stroke="#bfbfbf" points="130.5,-0.5 130.5,-19.5 179.5,-19.5 179.5,-0.5 130.5,-0.5"/>
<text text-anchor="middle" x="155" y="-7.5" font-family="Helvetica,sans-Serif" font-size="10.00">string.h</text>
</a>
</g>
</g>
<!-- Node1&#45;&gt;Node4 -->
<g id="edge3" class="edge"><title>Node1&#45;&gt;Node4</title>
<path fill="none" stroke="midnightblue" d="M131.201,-56.4979C135.812,-47.682 141.223,-37.3385 145.719,-28.7432"/>
<polygon fill="midnightblue" stroke="midnightblue" points="148.94,-30.1357 150.474,-19.6525 142.738,-26.8912 148.94,-30.1357"/>
</g>
<!-- Node5 -->
<g id="node5" class="node"><title>Node5</title>
<g id="a_node5"><a xlink:href="$ast_8h.html" xlink:title=" ">
<polygon fill="none" stroke="black" points="198,-0.5 198,-19.5 236,-19.5 236,-0.5 198,-0.5"/>
<text text-anchor="middle" x="217" y="-7.5" font-family="Helvetica,sans-Serif" font-size="10.00">ast.h</text>
</a>
</g>
</g>
<!-- Node1&#45;&gt;Node5 -->
<g id="edge4" class="edge"><title>Node1&#45;&gt;Node5</title>
<path fill="none" stroke="midnightblue" d="M149.803,-56.4979C164.522,-46.5321 182.124,-34.6142 195.62,-25.4764"/>
<polygon fill="midnightblue" stroke="midnightblue" points="197.903,-28.1573 204.221,-19.6525 193.978,-22.3609 197.903,-28.1573"/>
</g>
</g>
</svg>
