<?xml version="1.0" encoding="UTF-8" standalone="no"?>
<!DOCTYPE svg PUBLIC "-//W3C//DTD SVG 1.1//EN"
 "http://www.w3.org/Graphics/SVG/1.1/DTD/svg11.dtd">
<!-- Generated by graphviz version 2.38.0 (20140413.2041)
 -->
<!-- Title: onUpdateView Pages: 1 -->
<svg width="401pt" height="103pt"
 viewBox="0.00 0.00 401.00 103.00" xmlns="http://www.w3.org/2000/svg" xmlns:xlink="http://www.w3.org/1999/xlink">
<g id="graph0" class="graph" transform="scale(1 1) rotate(0) translate(4 99)">
<title>onUpdateView</title>
<!-- Node1 -->
<g id="node1" class="node"><title>Node1</title>
<g id="a_node1"><a xlink:title=" ">
<polygon fill="#bfbfbf" stroke="black" points="314,-0.5 314,-19.5 393,-19.5 393,-0.5 314,-0.5"/>
<text text-anchor="middle" x="353.5" y="-7.5" font-family="Helvetica,sans-Serif" font-size="10.00">onUpdateView</text>
</a>
</g>
</g>
<!-- Node1&#45;&gt;Node1 -->
<g id="edge1" class="edge"><title>Node1&#45;&gt;Node1</title>
<path fill="none" stroke="midnightblue" d="M372.758,-29.4C371.472,-34.3146 365.053,-38 353.5,-38 335.016,-38 329.672,-28.5653 337.471,-19.7571"/>
<polygon fill="midnightblue" stroke="midnightblue" points="376.024,-28.1283 369.529,-19.7571 369.386,-30.3509 376.024,-28.1283"/>
</g>
<!-- Node2 -->
<g id="node2" class="node"><title>Node2</title>
<g id="a_node2"><a xlink:href="$class_p_r_i_s_m_1_1_p_r_i_s_m_widget.html#a33e0a923839dfe51e13784b3a3807903" xlink:title=" ">
<polygon fill="none" stroke="black" points="219,-19.5 219,-38.5 278,-38.5 278,-19.5 219,-19.5"/>
<text text-anchor="middle" x="248.5" y="-26.5" font-family="Helvetica,sans-Serif" font-size="10.00">resetView</text>
</a>
</g>
</g>
<!-- Node1&#45;&gt;Node2 -->
<g id="edge2" class="edge"><title>Node1&#45;&gt;Node2</title>
<path fill="none" stroke="midnightblue" d="M303.952,-18.9555C295.087,-20.5907 286.106,-22.2474 278.063,-23.7311"/>
<polygon fill="midnightblue" stroke="midnightblue" points="304.654,-22.385 313.854,-17.129 303.385,-15.5012 304.654,-22.385"/>
</g>
<!-- Node5 -->
<g id="node5" class="node"><title>Node5</title>
<g id="a_node5"><a xlink:href="$class_p_r_i_s_m_1_1_p_r_i_s_m_widget.html#ade41f93307784822f8bc17e85964d427" xlink:title=" ">
<polygon fill="none" stroke="black" points="0,-0.5 0,-19.5 41,-19.5 41,-0.5 0,-0.5"/>
<text text-anchor="middle" x="20.5" y="-7.5" font-family="Helvetica,sans-Serif" font-size="10.00">setup</text>
</a>
</g>
</g>
<!-- Node1&#45;&gt;Node5 -->
<g id="edge8" class="edge"><title>Node1&#45;&gt;Node5</title>
<path fill="none" stroke="midnightblue" d="M303.867,-10C229.774,-10 91.8682,-10 41.0003,-10"/>
<polygon fill="midnightblue" stroke="midnightblue" points="303.882,-13.5001 313.882,-10 303.882,-6.5001 303.882,-13.5001"/>
</g>
<!-- Node2&#45;&gt;Node2 -->
<g id="edge7" class="edge"><title>Node2&#45;&gt;Node2</title>
<path fill="none" stroke="midnightblue" d="M267.758,-48.4C266.472,-53.3146 260.053,-57 248.5,-57 230.016,-57 224.672,-47.5653 232.471,-38.7571"/>
<polygon fill="midnightblue" stroke="midnightblue" points="271.024,-47.1283 264.529,-38.7571 264.386,-49.3509 271.024,-47.1283"/>
</g>
<!-- Node3 -->
<g id="node3" class="node"><title>Node3</title>
<g id="a_node3"><a xlink:href="$class_p_r_i_s_m_1_1_p_r_i_s_m_widget.html#a5354f5739815c9b04b2e8df68991a1b7" xlink:title=" ">
<polygon fill="none" stroke="black" points="103.5,-75.5 103.5,-94.5 156.5,-94.5 156.5,-75.5 103.5,-75.5"/>
<text text-anchor="middle" x="130" y="-82.5" font-family="Helvetica,sans-Serif" font-size="10.00">initState</text>
</a>
</g>
</g>
<!-- Node2&#45;&gt;Node3 -->
<g id="edge3" class="edge"><title>Node2&#45;&gt;Node3</title>
<path fill="none" stroke="midnightblue" d="M223.627,-43.9952C211.684,-51.1585 196.853,-59.5532 183,-66 174.634,-69.8931 165.231,-73.5383 156.743,-76.574"/>
<polygon fill="midnightblue" stroke="midnightblue" points="225.798,-46.7707 232.513,-38.5751 222.153,-40.7948 225.798,-46.7707"/>
</g>
<!-- Node4 -->
<g id="node4" class="node"><title>Node4</title>
<g id="a_node4"><a xlink:href="$class_p_r_i_s_m_1_1_p_r_i_s_m_widget.html#a37a34f2b7c31c349a832cfede9d6aaad" xlink:title=" ">
<polygon fill="none" stroke="black" points="77,-19.5 77,-38.5 183,-38.5 183,-19.5 77,-19.5"/>
<text text-anchor="middle" x="130" y="-26.5" font-family="Helvetica,sans-Serif" font-size="10.00">onClearPointsButton</text>
</a>
</g>
</g>
<!-- Node2&#45;&gt;Node4 -->
<g id="edge4" class="edge"><title>Node2&#45;&gt;Node4</title>
<path fill="none" stroke="midnightblue" d="M208.675,-29C200.468,-29 191.68,-29 183.074,-29"/>
<polygon fill="midnightblue" stroke="midnightblue" points="208.702,-32.5001 218.702,-29 208.702,-25.5001 208.702,-32.5001"/>
</g>
<!-- Node4&#45;&gt;Node4 -->
<g id="edge5" class="edge"><title>Node4&#45;&gt;Node4</title>
<path fill="none" stroke="midnightblue" d="M149.999,-48.4C148.663,-53.3146 141.997,-57 130,-57 110.805,-57 105.256,-47.5653 113.354,-38.7571"/>
<polygon fill="midnightblue" stroke="midnightblue" points="153.236,-47.0528 146.646,-38.7571 146.624,-49.3519 153.236,-47.0528"/>
</g>
<!-- Node4&#45;&gt;Node5 -->
<g id="edge6" class="edge"><title>Node4&#45;&gt;Node5</title>
<path fill="none" stroke="midnightblue" d="M66.7075,-17.9902C57.4598,-16.3557 48.5583,-14.7824 41.1361,-13.4706"/>
<polygon fill="midnightblue" stroke="midnightblue" points="66.3679,-21.4843 76.8245,-19.7783 67.5863,-14.5912 66.3679,-21.4843"/>
</g>
</g>
</svg>
