<?xml version="1.0" encoding="UTF-8" standalone="no"?>
<!DOCTYPE svg PUBLIC "-//W3C//DTD SVG 1.1//EN"
 "http://www.w3.org/Graphics/SVG/1.1/DTD/svg11.dtd">
<!-- Generated by graphviz version 2.38.0 (20140413.2041)
 -->
<!-- Title: resetLayout Pages: 1 -->
<svg width="393pt" height="28pt"
 viewBox="0.00 0.00 393.00 28.00" xmlns="http://www.w3.org/2000/svg" xmlns:xlink="http://www.w3.org/1999/xlink">
<g id="graph0" class="graph" transform="scale(1 1) rotate(0) translate(4 24)">
<title>resetLayout</title>
<!-- Node1 -->
<g id="node1" class="node"><title>Node1</title>
<g id="a_node1"><a xlink:title="Function to reset a specific layout.">
<polygon fill="#bfbfbf" stroke="black" points="317,-0.5 317,-19.5 385,-19.5 385,-0.5 317,-0.5"/>
<text text-anchor="middle" x="351" y="-7.5" font-family="Helvetica,sans-Serif" font-size="10.00">resetLayout</text>
</a>
</g>
</g>
<!-- Node2 -->
<g id="node2" class="node"><title>Node2</title>
<g id="a_node2"><a xlink:href="$class_slicer_p_r_i_s_m_1_1_p_r_i_s_m_1_1_p_r_i_s_m_widget.html#a1eb16a219f95634ee6a878b4926d5d2a" xlink:title="Function to get the current parameters and add them into a dictionnary.">
<polygon fill="none" stroke="black" points="159,-0.5 159,-19.5 281,-19.5 281,-0.5 159,-0.5"/>
<text text-anchor="middle" x="220" y="-7.5" font-family="Helvetica,sans-Serif" font-size="10.00">addParamButtonClicked</text>
</a>
</g>
</g>
<!-- Node1&#45;&gt;Node2 -->
<g id="edge1" class="edge"><title>Node1&#45;&gt;Node2</title>
<path fill="none" stroke="midnightblue" d="M306.703,-10C298.494,-10 289.769,-10 281.148,-10"/>
<polygon fill="midnightblue" stroke="midnightblue" points="306.779,-13.5001 316.779,-10 306.779,-6.5001 306.779,-13.5001"/>
</g>
<!-- Node3 -->
<g id="node3" class="node"><title>Node3</title>
<g id="a_node3"><a xlink:href="$class_slicer_p_r_i_s_m_1_1_p_r_i_s_m_1_1_p_r_i_s_m_widget.html#ac406a5ff5a88ee3578f24b16f74171ab" xlink:title="Function to create the parameters layout to enable adding new parameters to a file.">
<polygon fill="none" stroke="black" points="0,-0.5 0,-19.5 123,-19.5 123,-0.5 0,-0.5"/>
<text text-anchor="middle" x="61.5" y="-7.5" font-family="Helvetica,sans-Serif" font-size="10.00">createParametersLayout</text>
</a>
</g>
</g>
<!-- Node2&#45;&gt;Node3 -->
<g id="edge2" class="edge"><title>Node2&#45;&gt;Node3</title>
<path fill="none" stroke="midnightblue" d="M148.938,-10C140.343,-10 131.615,-10 123.175,-10"/>
<polygon fill="midnightblue" stroke="midnightblue" points="148.941,-13.5001 158.941,-10 148.941,-6.5001 148.941,-13.5001"/>
</g>
</g>
</svg>
