<?xml version="1.0" encoding="UTF-8" standalone="no"?>
<!DOCTYPE svg PUBLIC "-//W3C//DTD SVG 1.1//EN"
 "http://www.w3.org/Graphics/SVG/1.1/DTD/svg11.dtd">
<!-- Generated by graphviz version 2.38.0 (20140413.2041)
 -->
<!-- Title: setAndObserveParameterNode Pages: 1 -->
<svg width="960pt" height="97pt"
 viewBox="0.00 0.00 960.00 97.21" xmlns="http://www.w3.org/2000/svg" xmlns:xlink="http://www.w3.org/1999/xlink">
<g id="graph0" class="graph" transform="scale(1 1) rotate(0) translate(4 93.2057)">
<title>setAndObserveParameterNode</title>
<!-- Node1 -->
<g id="node1" class="node"><title>Node1</title>
<g id="a_node1"><a xlink:title="Function to set the parameter node.">
<polygon fill="#bfbfbf" stroke="black" points="0,-14.6002 0,-33.6002 150,-33.6002 150,-14.6002 0,-14.6002"/>
<text text-anchor="middle" x="75" y="-21.6002" font-family="Helvetica,sans-Serif" font-size="10.00">setAndObserveParameterNode</text>
</a>
</g>
</g>
<!-- Node2 -->
<g id="node2" class="node"><title>Node2</title>
<g id="a_node2"><a xlink:href="$class_slicer_p_r_i_s_m_1_1_p_r_i_s_m_1_1_p_r_i_s_m_widget.html#a325535c42ba7ec6ffe9b6484a0a71f85" xlink:title="Function to update the parameter node.">
<polygon fill="none" stroke="black" points="186,-14.6002 186,-33.6002 317,-33.6002 317,-14.6002 186,-14.6002"/>
<text text-anchor="middle" x="251.5" y="-21.6002" font-family="Helvetica,sans-Serif" font-size="10.00">onParameterNodeModified</text>
</a>
</g>
</g>
<!-- Node1&#45;&gt;Node2 -->
<g id="edge1" class="edge"><title>Node1&#45;&gt;Node2</title>
<path fill="none" stroke="midnightblue" d="M150.004,-24.1002C158.457,-24.1002 167.08,-24.1002 175.545,-24.1002"/>
<polygon fill="midnightblue" stroke="midnightblue" points="175.771,-27.6003 185.771,-24.1002 175.771,-20.6003 175.771,-27.6003"/>
</g>
<!-- Node3 -->
<g id="node3" class="node"><title>Node3</title>
<g id="a_node3"><a xlink:href="$class_slicer_p_r_i_s_m_1_1_p_r_i_s_m_1_1_p_r_i_s_m_widget.html#a4cb394295cd619d0c99b9c173ff5de4b" xlink:title="Function to update GUI from parameter node values.">
<polygon fill="none" stroke="black" points="353,-14.6002 353,-33.6002 505,-33.6002 505,-14.6002 353,-14.6002"/>
<text text-anchor="middle" x="429" y="-21.6002" font-family="Helvetica,sans-Serif" font-size="10.00">updateGUIFromParameterNode</text>
</a>
</g>
</g>
<!-- Node2&#45;&gt;Node3 -->
<g id="edge2" class="edge"><title>Node2&#45;&gt;Node3</title>
<path fill="none" stroke="midnightblue" d="M317.351,-24.1002C325.542,-24.1002 334.02,-24.1002 342.47,-24.1002"/>
<polygon fill="midnightblue" stroke="midnightblue" points="342.743,-27.6003 352.743,-24.1002 342.743,-20.6003 342.743,-27.6003"/>
</g>
<!-- Node4 -->
<g id="node4" class="node"><title>Node4</title>
<g id="a_node4"><a xlink:href="$class_slicer_p_r_i_s_m_1_1_p_r_i_s_m_1_1_p_r_i_s_m_widget.html#a69a2d837a10281b583a4e5f9044db193" xlink:title="Function to add observers to the GUI&#39;s widgets.">
<polygon fill="none" stroke="black" points="548.5,-52.6002 548.5,-71.6002 640.5,-71.6002 640.5,-52.6002 548.5,-52.6002"/>
<text text-anchor="middle" x="594.5" y="-59.6002" font-family="Helvetica,sans-Serif" font-size="10.00">addGUIObservers</text>
</a>
</g>
</g>
<!-- Node3&#45;&gt;Node4 -->
<g id="edge3" class="edge"><title>Node3&#45;&gt;Node4</title>
<path fill="none" stroke="midnightblue" d="M471.258,-33.6892C492.931,-38.7263 519.683,-44.944 542.63,-50.2773"/>
<polygon fill="midnightblue" stroke="midnightblue" points="542.006,-53.7254 552.539,-52.5802 543.591,-46.9071 542.006,-53.7254"/>
</g>
<!-- Node5 -->
<g id="node5" class="node"><title>Node5</title>
<g id="a_node5"><a xlink:href="$class_slicer_p_r_i_s_m_1_1_p_r_i_s_m_1_1_p_r_i_s_m_widget.html#adfb7a3a22452b635bb615e4750c2bf29" xlink:title="Function to get the class name of a widget.">
<polygon fill="none" stroke="black" points="872,-33.6002 872,-52.6002 952,-52.6002 952,-33.6002 872,-33.6002"/>
<text text-anchor="middle" x="912" y="-40.6002" font-family="Helvetica,sans-Serif" font-size="10.00">getClassName</text>
</a>
</g>
</g>
<!-- Node3&#45;&gt;Node5 -->
<g id="edge7" class="edge"><title>Node3&#45;&gt;Node5</title>
<path fill="none" stroke="midnightblue" d="M475.141,-14.588C495.208,-10.8225 519.181,-6.95409 541,-5.10021 671.94,6.02548 706.499,-2.76858 836,-25.1002 845.598,-26.7553 855.796,-28.9229 865.479,-31.1783"/>
<polygon fill="midnightblue" stroke="midnightblue" points="864.795,-34.6135 875.336,-33.5425 866.428,-27.8066 864.795,-34.6135"/>
</g>
<!-- Node7 -->
<g id="node7" class="node"><title>Node7</title>
<g id="a_node7"><a xlink:href="$class_slicer_p_r_i_s_m_1_1_p_r_i_s_m_1_1_p_r_i_s_m_widget.html#a16e1c85444e27fae67a4b0973d36fe67" xlink:title="Function to remove observers from the GUI&#39;s widgets.">
<polygon fill="none" stroke="black" points="541,-14.6002 541,-33.6002 648,-33.6002 648,-14.6002 541,-14.6002"/>
<text text-anchor="middle" x="594.5" y="-21.6002" font-family="Helvetica,sans-Serif" font-size="10.00">removeGUIObservers</text>
</a>
</g>
</g>
<!-- Node3&#45;&gt;Node7 -->
<g id="edge8" class="edge"><title>Node3&#45;&gt;Node7</title>
<path fill="none" stroke="midnightblue" d="M505.051,-24.1002C513.645,-24.1002 522.338,-24.1002 530.748,-24.1002"/>
<polygon fill="midnightblue" stroke="midnightblue" points="530.839,-27.6003 540.839,-24.1002 530.839,-20.6003 530.839,-27.6003"/>
</g>
<!-- Node4&#45;&gt;Node5 -->
<g id="edge4" class="edge"><title>Node4&#45;&gt;Node5</title>
<path fill="none" stroke="midnightblue" d="M630.678,-71.621C678.008,-82.9114 764.506,-98.1786 836,-81.1002 854.75,-76.6212 874.116,-66.6498 888.471,-58.0452"/>
<polygon fill="midnightblue" stroke="midnightblue" points="890.483,-60.9152 897.124,-52.6596 886.785,-54.9722 890.483,-60.9152"/>
</g>
<!-- Node6 -->
<g id="node6" class="node"><title>Node6</title>
<g id="a_node6"><a xlink:href="$class_slicer_p_r_i_s_m_1_1_p_r_i_s_m_1_1_p_r_i_s_m_widget.html#a9c2580701ccfac91074c348bf51d8353" xlink:title="Function to update the parameter node from gui values.">
<polygon fill="none" stroke="black" points="684,-52.6002 684,-71.6002 836,-71.6002 836,-52.6002 684,-52.6002"/>
<text text-anchor="middle" x="760" y="-59.6002" font-family="Helvetica,sans-Serif" font-size="10.00">updateParameterNodeFromGUI</text>
</a>
</g>
</g>
<!-- Node4&#45;&gt;Node6 -->
<g id="edge5" class="edge"><title>Node4&#45;&gt;Node6</title>
<path fill="none" stroke="midnightblue" d="M640.61,-62.1002C650.991,-62.1002 662.366,-62.1002 673.831,-62.1002"/>
<polygon fill="midnightblue" stroke="midnightblue" points="673.906,-65.6003 683.906,-62.1002 673.906,-58.6003 673.906,-65.6003"/>
</g>
<!-- Node6&#45;&gt;Node5 -->
<g id="edge6" class="edge"><title>Node6&#45;&gt;Node5</title>
<path fill="none" stroke="midnightblue" d="M836.439,-52.5446C845.057,-51.453 853.667,-50.3624 861.815,-49.3304"/>
<polygon fill="midnightblue" stroke="midnightblue" points="862.372,-52.7879 871.852,-48.0589 861.492,-45.8434 862.372,-52.7879"/>
</g>
<!-- Node7&#45;&gt;Node5 -->
<g id="edge9" class="edge"><title>Node7&#45;&gt;Node5</title>
<path fill="none" stroke="midnightblue" d="M648.308,-27.2804C707.882,-30.8681 804.001,-36.6565 861.974,-40.1478"/>
<polygon fill="midnightblue" stroke="midnightblue" points="861.795,-43.6432 871.987,-40.7508 862.216,-36.6559 861.795,-43.6432"/>
</g>
<!-- Node7&#45;&gt;Node6 -->
<g id="edge10" class="edge"><title>Node7&#45;&gt;Node6</title>
<path fill="none" stroke="midnightblue" d="M636.758,-33.6892C658.431,-38.7263 685.183,-44.944 708.13,-50.2773"/>
<polygon fill="midnightblue" stroke="midnightblue" points="707.506,-53.7254 718.039,-52.5802 709.091,-46.9071 707.506,-53.7254"/>
</g>
</g>
</svg>
