<?xml version="1.0" encoding="UTF-8" standalone="no"?>
<!DOCTYPE svg PUBLIC "-//W3C//DTD SVG 1.1//EN"
 "http://www.w3.org/Graphics/SVG/1.1/DTD/svg11.dtd">
<!-- Generated by graphviz version 2.38.0 (20140413.2041)
 -->
<!-- Title: setAllUniforms Pages: 1 -->
<svg width="306pt" height="88pt"
 viewBox="0.00 0.00 306.00 88.00" xmlns="http://www.w3.org/2000/svg" xmlns:xlink="http://www.w3.org/1999/xlink">
<g id="graph0" class="graph" transform="scale(1 1) rotate(0) translate(4 84)">
<title>setAllUniforms</title>
<!-- Node1 -->
<g id="node1" class="node"><title>Node1</title>
<g id="a_node1"><a xlink:title="Function to set the uniforms of the shader.">
<polygon fill="#bfbfbf" stroke="black" points="218,-24.5 218,-43.5 298,-43.5 298,-24.5 218,-24.5"/>
<text text-anchor="middle" x="258" y="-31.5" font-family="Helvetica,sans-Serif" font-size="10.00">setAllUniforms</text>
</a>
</g>
</g>
<!-- Node2 -->
<g id="node2" class="node"><title>Node2</title>
<g id="a_node2"><a xlink:href="$class_slicer_p_r_i_s_m_1_1_resources_1_1_shaders_1_1_opacity_peeling_shader_1_1_opacity_peeling_shader.html#a37f880c0658348e292fe8afa847c0163" xlink:title="Function to setup the shader.">
<polygon fill="none" stroke="black" points="0,-38.5 0,-79.5 182,-79.5 182,-38.5 0,-38.5"/>
<text text-anchor="start" x="8" y="-67.5" font-family="Helvetica,sans-Serif" font-size="10.00">SlicerPRISM.Resources.Shaders.</text>
<text text-anchor="start" x="8" y="-56.5" font-family="Helvetica,sans-Serif" font-size="10.00">OpacityPeelingShader.OpacityPeeling</text>
<text text-anchor="middle" x="91" y="-45.5" font-family="Helvetica,sans-Serif" font-size="10.00">Shader.setupShader</text>
</a>
</g>
</g>
<!-- Node1&#45;&gt;Node2 -->
<g id="edge1" class="edge"><title>Node1&#45;&gt;Node2</title>
<path fill="none" stroke="midnightblue" d="M207.881,-41.4423C199.728,-42.6775 191.053,-43.992 182.258,-45.3245"/>
<polygon fill="midnightblue" stroke="midnightblue" points="208.534,-44.8833 217.897,-39.9247 207.486,-37.9623 208.534,-44.8833"/>
</g>
<!-- Node3 -->
<g id="node3" class="node"><title>Node3</title>
<g id="a_node3"><a xlink:href="$class_slicer_p_r_i_s_m_1_1_resources_1_1_custom_shader_1_1_custom_shader.html#a37f880c0658348e292fe8afa847c0163" xlink:title="Function to setup the shader.">
<polygon fill="none" stroke="black" points="55.5,-0.5 55.5,-19.5 126.5,-19.5 126.5,-0.5 55.5,-0.5"/>
<text text-anchor="middle" x="91" y="-7.5" font-family="Helvetica,sans-Serif" font-size="10.00">setupShader</text>
</a>
</g>
</g>
<!-- Node1&#45;&gt;Node3 -->
<g id="edge2" class="edge"><title>Node1&#45;&gt;Node3</title>
<path fill="none" stroke="midnightblue" d="M207.802,-26.844C181.663,-23.0418 150.163,-18.46 126.619,-15.0355"/>
<polygon fill="midnightblue" stroke="midnightblue" points="207.498,-30.3364 217.897,-28.3123 208.505,-23.4093 207.498,-30.3364"/>
</g>
</g>
</svg>
