<?xml version="1.0" encoding="UTF-8" standalone="no"?>
<!DOCTYPE svg PUBLIC "-//W3C//DTD SVG 1.1//EN"
 "http://www.w3.org/Graphics/SVG/1.1/DTD/svg11.dtd">
<!-- Generated by graphviz version 2.38.0 (20140413.2041)
 -->
<!-- Title: createTransferFunctionWidget Pages: 1 -->
<svg width="407pt" height="66pt"
 viewBox="0.00 0.00 407.00 66.00" xmlns="http://www.w3.org/2000/svg" xmlns:xlink="http://www.w3.org/1999/xlink">
<g id="graph0" class="graph" transform="scale(1 1) rotate(0) translate(4 62)">
<title>createTransferFunctionWidget</title>
<!-- Node1 -->
<g id="node1" class="node"><title>Node1</title>
<g id="a_node1"><a xlink:title="Function to create a transfert fuction widget.">
<polygon fill="#bfbfbf" stroke="black" points="253,-19.5 253,-38.5 399,-38.5 399,-19.5 253,-19.5"/>
<text text-anchor="middle" x="326" y="-26.5" font-family="Helvetica,sans-Serif" font-size="10.00">createTransferFunctionWidget</text>
</a>
</g>
</g>
<!-- Node2 -->
<g id="node2" class="node"><title>Node2</title>
<g id="a_node2"><a xlink:href="$class_slicer_p_r_i_s_m_1_1_p_r_i_s_m_1_1_p_r_i_s_m_widget.html#ac59c625f0d809c1dd0ec96e9e8312dd8" xlink:title="Function to add transfer function widgets to the ui.">
<polygon fill="none" stroke="black" points="98,-38.5 98,-57.5 208,-57.5 208,-38.5 98,-38.5"/>
<text text-anchor="middle" x="153" y="-45.5" font-family="Helvetica,sans-Serif" font-size="10.00">addTransferFunctions</text>
</a>
</g>
</g>
<!-- Node1&#45;&gt;Node2 -->
<g id="edge1" class="edge"><title>Node1&#45;&gt;Node2</title>
<path fill="none" stroke="midnightblue" d="M243.031,-38.1077C231.142,-39.4287 219.161,-40.7599 208.011,-41.9988"/>
<polygon fill="midnightblue" stroke="midnightblue" points="243.424,-41.5856 252.976,-37.0026 242.651,-34.6285 243.424,-41.5856"/>
</g>
<!-- Node3 -->
<g id="node3" class="node"><title>Node3</title>
<g id="a_node3"><a xlink:href="$class_slicer_p_r_i_s_m_1_1_p_r_i_s_m_1_1_p_r_i_s_m_widget.html#a54a1afbbde03873c1a73c339eaf4ac63" xlink:title="Callback function when the volume node has been changed in the dedicated combobox.">
<polygon fill="none" stroke="black" points="89,-0.5 89,-19.5 217,-19.5 217,-0.5 89,-0.5"/>
<text text-anchor="middle" x="153" y="-7.5" font-family="Helvetica,sans-Serif" font-size="10.00">onImageSelectorChanged</text>
</a>
</g>
</g>
<!-- Node1&#45;&gt;Node3 -->
<g id="edge2" class="edge"><title>Node1&#45;&gt;Node3</title>
<path fill="none" stroke="midnightblue" d="M242.901,-19.8779C234.283,-18.9203 225.618,-17.9576 217.258,-17.0287"/>
<polygon fill="midnightblue" stroke="midnightblue" points="242.651,-23.3715 252.976,-20.9974 243.424,-16.4144 242.651,-23.3715"/>
</g>
<!-- Node4 -->
<g id="node4" class="node"><title>Node4</title>
<g id="a_node4"><a xlink:href="$class_slicer_p_r_i_s_m_1_1_p_r_i_s_m_1_1_p_r_i_s_m_widget.html#a5354f5739815c9b04b2e8df68991a1b7" xlink:title="Function to initialize the all user interface based on current scene.">
<polygon fill="none" stroke="black" points="0,-0.5 0,-19.5 53,-19.5 53,-0.5 0,-0.5"/>
<text text-anchor="middle" x="26.5" y="-7.5" font-family="Helvetica,sans-Serif" font-size="10.00">initState</text>
</a>
</g>
</g>
<!-- Node3&#45;&gt;Node4 -->
<g id="edge3" class="edge"><title>Node3&#45;&gt;Node4</title>
<path fill="none" stroke="midnightblue" d="M78.6549,-10C69.5218,-10 60.7179,-10 53.0643,-10"/>
<polygon fill="midnightblue" stroke="midnightblue" points="78.6558,-13.5001 88.6558,-10 78.6558,-6.5001 78.6558,-13.5001"/>
</g>
</g>
</svg>
