<?xml version="1.0" encoding="UTF-8" standalone="no"?>
<!DOCTYPE svg PUBLIC "-//W3C//DTD SVG 1.1//EN"
 "http://www.w3.org/Graphics/SVG/1.1/DTD/svg11.dtd">
<!-- Generated by graphviz version 2.38.0 (20140413.2041)
 -->
<!-- Title: removeLeftClickOnSlicerObserver Pages: 1 -->
<svg width="562pt" height="158pt"
 viewBox="0.00 0.00 562.00 158.00" xmlns="http://www.w3.org/2000/svg" xmlns:xlink="http://www.w3.org/1999/xlink">
<g id="graph0" class="graph" transform="scale(1 1) rotate(0) translate(4 154)">
<title>removeLeftClickOnSlicerObserver</title>
<!-- Node1 -->
<g id="node1" class="node"><title>Node1</title>
<g id="a_node1"><a xlink:title=" ">
<polygon fill="#bfbfbf" stroke="black" points="393,-56.5 393,-75.5 554,-75.5 554,-56.5 393,-56.5"/>
<text text-anchor="middle" x="473.5" y="-63.5" font-family="Helvetica,sans-Serif" font-size="10.00">removeLeftClickOnSlicerObserver</text>
</a>
</g>
</g>
<!-- Node1&#45;&gt;Node1 -->
<g id="edge12" class="edge"><title>Node1&#45;&gt;Node1</title>
<path fill="none" stroke="midnightblue" d="M506.483,-83.8913C506,-89.5406 495.006,-94 473.5,-94 442.219,-94 433.177,-84.5653 446.373,-75.7571"/>
<polygon fill="midnightblue" stroke="midnightblue" points="509.31,-81.8273 500.627,-75.7571 503.629,-85.9175 509.31,-81.8273"/>
</g>
<!-- Node2 -->
<g id="node2" class="node"><title>Node2</title>
<g id="a_node2"><a xlink:href="$class_p_r_i_s_m_1_1_p_r_i_s_m_widget.html#a629595610431be5633652f4880dc4776" xlink:title=" ">
<polygon fill="none" stroke="black" points="235,-112.5 235,-131.5 357,-131.5 357,-112.5 235,-112.5"/>
<text text-anchor="middle" x="296" y="-119.5" font-family="Helvetica,sans-Serif" font-size="10.00">observeLeftClickOnSlice</text>
</a>
</g>
</g>
<!-- Node1&#45;&gt;Node2 -->
<g id="edge1" class="edge"><title>Node1&#45;&gt;Node2</title>
<path fill="none" stroke="midnightblue" d="M432.816,-78.7487C410.538,-85.8967 382.227,-94.9649 357,-103 347.318,-106.084 336.752,-109.435 327.222,-112.451"/>
<polygon fill="midnightblue" stroke="midnightblue" points="434.143,-81.9988 442.595,-75.6102 432.004,-75.3336 434.143,-81.9988"/>
</g>
<!-- Node4 -->
<g id="node4" class="node"><title>Node4</title>
<g id="a_node4"><a xlink:href="$class_p_r_i_s_m_1_1_p_r_i_s_m_widget.html#a37a34f2b7c31c349a832cfede9d6aaad" xlink:title=" ">
<polygon fill="none" stroke="black" points="243,-56.5 243,-75.5 349,-75.5 349,-56.5 243,-56.5"/>
<text text-anchor="middle" x="296" y="-63.5" font-family="Helvetica,sans-Serif" font-size="10.00">onClearPointsButton</text>
</a>
</g>
</g>
<!-- Node1&#45;&gt;Node4 -->
<g id="edge4" class="edge"><title>Node1&#45;&gt;Node4</title>
<path fill="none" stroke="midnightblue" d="M382.828,-66C371.281,-66 359.779,-66 349.121,-66"/>
<polygon fill="midnightblue" stroke="midnightblue" points="382.966,-69.5001 392.966,-66 382.966,-62.5001 382.966,-69.5001"/>
</g>
<!-- Node6 -->
<g id="node6" class="node"><title>Node6</title>
<g id="a_node6"><a xlink:href="$class_p_r_i_s_m_1_1_p_r_i_s_m_widget.html#a132b0f123f6fdc57ed5a62c70b7326a7" xlink:title=" ">
<polygon fill="none" stroke="black" points="256,-0.5 256,-19.5 336,-19.5 336,-0.5 256,-0.5"/>
<text text-anchor="middle" x="296" y="-7.5" font-family="Helvetica,sans-Serif" font-size="10.00">onCloseScene</text>
</a>
</g>
</g>
<!-- Node1&#45;&gt;Node6 -->
<g id="edge7" class="edge"><title>Node1&#45;&gt;Node6</title>
<path fill="none" stroke="midnightblue" d="M432.773,-53.3235C400.588,-43.0536 355.947,-28.8093 326.776,-19.5011"/>
<polygon fill="midnightblue" stroke="midnightblue" points="431.74,-56.6677 442.33,-56.3733 433.868,-49.9989 431.74,-56.6677"/>
</g>
<!-- Node2&#45;&gt;Node2 -->
<g id="edge2" class="edge"><title>Node2&#45;&gt;Node2</title>
<path fill="none" stroke="midnightblue" d="M324.372,-140.654C323.186,-145.937 313.729,-150 296,-150 268.984,-150 261.175,-140.565 272.572,-131.757"/>
<polygon fill="midnightblue" stroke="midnightblue" points="327.345,-138.797 319.428,-131.757 321.226,-142.198 327.345,-138.797"/>
</g>
<!-- Node3 -->
<g id="node3" class="node"><title>Node3</title>
<g id="a_node3"><a xlink:href="$class_p_r_i_s_m_1_1_p_r_i_s_m_widget.html#a92a408ae5db8734e6bacb469864ee574" xlink:title=" ">
<polygon fill="none" stroke="black" points="89,-112.5 89,-131.5 199,-131.5 199,-112.5 89,-112.5"/>
<text text-anchor="middle" x="144" y="-119.5" font-family="Helvetica,sans-Serif" font-size="10.00">onEndPointsChanged</text>
</a>
</g>
</g>
<!-- Node2&#45;&gt;Node3 -->
<g id="edge3" class="edge"><title>Node2&#45;&gt;Node3</title>
<path fill="none" stroke="midnightblue" d="M224.578,-122C216.098,-122 207.54,-122 199.339,-122"/>
<polygon fill="midnightblue" stroke="midnightblue" points="224.854,-125.5 234.854,-122 224.854,-118.5 224.854,-125.5"/>
</g>
<!-- Node4&#45;&gt;Node4 -->
<g id="edge5" class="edge"><title>Node4&#45;&gt;Node4</title>
<path fill="none" stroke="midnightblue" d="M324.372,-84.6539C323.186,-89.9368 313.729,-94 296,-94 268.984,-94 261.175,-84.5653 272.572,-75.7571"/>
<polygon fill="midnightblue" stroke="midnightblue" points="327.345,-82.7974 319.428,-75.7571 321.226,-86.1981 327.345,-82.7974"/>
</g>
<!-- Node5 -->
<g id="node5" class="node"><title>Node5</title>
<g id="a_node5"><a xlink:href="$class_p_r_i_s_m_1_1_p_r_i_s_m_widget.html#ade41f93307784822f8bc17e85964d427" xlink:title=" ">
<polygon fill="none" stroke="black" points="123.5,-56.5 123.5,-75.5 164.5,-75.5 164.5,-56.5 123.5,-56.5"/>
<text text-anchor="middle" x="144" y="-63.5" font-family="Helvetica,sans-Serif" font-size="10.00">setup</text>
</a>
</g>
</g>
<!-- Node4&#45;&gt;Node5 -->
<g id="edge6" class="edge"><title>Node4&#45;&gt;Node5</title>
<path fill="none" stroke="midnightblue" d="M232.956,-66C208.424,-66 181.986,-66 164.571,-66"/>
<polygon fill="midnightblue" stroke="midnightblue" points="232.958,-69.5001 242.958,-66 232.958,-62.5001 232.958,-69.5001"/>
</g>
<!-- Node6&#45;&gt;Node6 -->
<g id="edge11" class="edge"><title>Node6&#45;&gt;Node6</title>
<path fill="none" stroke="midnightblue" d="M324.372,-28.6539C323.186,-33.9368 313.729,-38 296,-38 268.984,-38 261.175,-28.5653 272.572,-19.7571"/>
<polygon fill="midnightblue" stroke="midnightblue" points="327.345,-26.7974 319.428,-19.7571 321.226,-30.1981 327.345,-26.7974"/>
</g>
<!-- Node7 -->
<g id="node7" class="node"><title>Node7</title>
<g id="a_node7"><a xlink:href="$class_p_r_i_s_m_1_1_p_r_i_s_m_widget.html#a4122013a40eb6518717520443b9ab010" xlink:title=" ">
<polygon fill="none" stroke="black" points="106,-0.5 106,-19.5 182,-19.5 182,-0.5 106,-0.5"/>
<text text-anchor="middle" x="144" y="-7.5" font-family="Helvetica,sans-Serif" font-size="10.00">addObservers</text>
</a>
</g>
</g>
<!-- Node6&#45;&gt;Node7 -->
<g id="edge8" class="edge"><title>Node6&#45;&gt;Node7</title>
<path fill="none" stroke="midnightblue" d="M245.753,-10C224.996,-10 201.244,-10 182.016,-10"/>
<polygon fill="midnightblue" stroke="midnightblue" points="245.981,-13.5001 255.981,-10 245.981,-6.5001 245.981,-13.5001"/>
</g>
<!-- Node7&#45;&gt;Node7 -->
<g id="edge9" class="edge"><title>Node7&#45;&gt;Node7</title>
<path fill="none" stroke="midnightblue" d="M165.48,-29.4C164.046,-34.3146 156.886,-38 144,-38 123.383,-38 117.423,-28.5653 126.121,-19.7571"/>
<polygon fill="midnightblue" stroke="midnightblue" points="168.657,-27.9004 161.879,-19.7571 162.099,-30.3496 168.657,-27.9004"/>
</g>
<!-- Node8 -->
<g id="node8" class="node"><title>Node8</title>
<g id="a_node8"><a xlink:href="$class_p_r_i_s_m_1_1_p_r_i_s_m_widget.html#a5354f5739815c9b04b2e8df68991a1b7" xlink:title=" ">
<polygon fill="none" stroke="black" points="0,-0.5 0,-19.5 53,-19.5 53,-0.5 0,-0.5"/>
<text text-anchor="middle" x="26.5" y="-7.5" font-family="Helvetica,sans-Serif" font-size="10.00">initState</text>
</a>
</g>
</g>
<!-- Node7&#45;&gt;Node8 -->
<g id="edge10" class="edge"><title>Node7&#45;&gt;Node8</title>
<path fill="none" stroke="midnightblue" d="M95.5084,-10C81.0591,-10 65.7246,-10 53.2812,-10"/>
<polygon fill="midnightblue" stroke="midnightblue" points="95.8193,-13.5001 105.819,-10 95.8193,-6.5001 95.8193,-13.5001"/>
</g>
</g>
</svg>
