<?xml version="1.0" encoding="UTF-8" standalone="no"?>
<!DOCTYPE svg PUBLIC "-//W3C//DTD SVG 1.1//EN"
 "http://www.w3.org/Graphics/SVG/1.1/DTD/svg11.dtd">
<!-- Generated by graphviz version 2.38.0 (20140413.2041)
 -->
<!-- Title: hideLayout Pages: 1 -->
<svg width="609pt" height="143pt"
 viewBox="0.00 0.00 609.00 143.24" xmlns="http://www.w3.org/2000/svg" xmlns:xlink="http://www.w3.org/1999/xlink">
<g id="graph0" class="graph" transform="scale(1 1) rotate(0) translate(4 139.236)">
<title>hideLayout</title>
<!-- Node1 -->
<g id="node1" class="node"><title>Node1</title>
<g id="a_node1"><a xlink:title="Function to clear the widgets of a specific layout.">
<polygon fill="#bfbfbf" stroke="black" points="537,-76.5 537,-95.5 601,-95.5 601,-76.5 537,-76.5"/>
<text text-anchor="middle" x="569" y="-83.5" font-family="Helvetica,sans-Serif" font-size="10.00">hideLayout</text>
</a>
</g>
</g>
<!-- Node2 -->
<g id="node2" class="node"><title>Node2</title>
<g id="a_node2"><a xlink:href="$class_slicer_p_r_i_s_m_1_1_p_r_i_s_m_1_1_p_r_i_s_m_widget.html#ac406a5ff5a88ee3578f24b16f74171ab" xlink:title="Function to create the parameters layout to enable adding new parameters to a file.">
<polygon fill="none" stroke="black" points="0,-76.5 0,-95.5 123,-95.5 123,-76.5 0,-76.5"/>
<text text-anchor="middle" x="61.5" y="-83.5" font-family="Helvetica,sans-Serif" font-size="10.00">createParametersLayout</text>
</a>
</g>
</g>
<!-- Node1&#45;&gt;Node2 -->
<g id="edge1" class="edge"><title>Node1&#45;&gt;Node2</title>
<path fill="none" stroke="midnightblue" d="M529.276,-98.3784C520.088,-100.925 510.263,-103.335 501,-105 351.235,-131.925 308.869,-147.339 159,-121 131.618,-116.188 101.774,-104.244 82.6362,-95.6465"/>
<polygon fill="midnightblue" stroke="midnightblue" points="530.303,-101.725 538.94,-95.5894 528.362,-94.9995 530.303,-101.725"/>
</g>
<!-- Node3 -->
<g id="node3" class="node"><title>Node3</title>
<g id="a_node3"><a xlink:href="$class_slicer_p_r_i_s_m_1_1_p_r_i_s_m_1_1_p_r_i_s_m_widget.html#a645a019fd9d617af14565ec9d4333dbd" xlink:title="Sets the current parameter type according to the combobox input.">
<polygon fill="none" stroke="black" points="336,-76.5 336,-95.5 501,-95.5 501,-76.5 336,-76.5"/>
<text text-anchor="middle" x="418.5" y="-83.5" font-family="Helvetica,sans-Serif" font-size="10.00">onAddParamComboIndexChanged</text>
</a>
</g>
</g>
<!-- Node1&#45;&gt;Node3 -->
<g id="edge2" class="edge"><title>Node1&#45;&gt;Node3</title>
<path fill="none" stroke="midnightblue" d="M526.692,-86C518.633,-86 509.925,-86 501.077,-86"/>
<polygon fill="midnightblue" stroke="midnightblue" points="526.87,-89.5001 536.87,-86 526.869,-82.5001 526.87,-89.5001"/>
</g>
<!-- Node6 -->
<g id="node6" class="node"><title>Node6</title>
<g id="a_node6"><a xlink:href="$class_slicer_p_r_i_s_m_1_1_p_r_i_s_m_1_1_p_r_i_s_m_widget.html#a4d4c0f2a4bf9afc519d14631ee71e1f0" xlink:title="Function to reset a specific layout.">
<polygon fill="none" stroke="black" points="384.5,-19.5 384.5,-38.5 452.5,-38.5 452.5,-19.5 384.5,-19.5"/>
<text text-anchor="middle" x="418.5" y="-26.5" font-family="Helvetica,sans-Serif" font-size="10.00">resetLayout</text>
</a>
</g>
</g>
<!-- Node1&#45;&gt;Node6 -->
<g id="edge8" class="edge"><title>Node1&#45;&gt;Node6</title>
<path fill="none" stroke="midnightblue" d="M533.603,-72.797C506.336,-62.331 468.88,-47.9538 444.437,-38.5716"/>
<polygon fill="midnightblue" stroke="midnightblue" points="532.554,-76.1435 543.144,-76.4595 535.063,-69.6084 532.554,-76.1435"/>
</g>
<!-- Node3&#45;&gt;Node2 -->
<g id="edge3" class="edge"><title>Node3&#45;&gt;Node2</title>
<path fill="none" stroke="midnightblue" d="M359.715,-97.2336C340.766,-100.41 319.555,-103.429 300,-105 237.535,-110.018 221.371,-111.082 159,-105 139.966,-103.144 119.116,-99.2753 101.682,-95.5102"/>
<polygon fill="midnightblue" stroke="midnightblue" points="360.43,-100.662 369.69,-95.5129 359.24,-93.7638 360.43,-100.662"/>
</g>
<!-- Node4 -->
<g id="node4" class="node"><title>Node4</title>
<g id="a_node4"><a xlink:href="$class_slicer_p_r_i_s_m_1_1_p_r_i_s_m_1_1_p_r_i_s_m_widget.html#ab7c52ead53f10907b9369a7011ed227f" xlink:title="Function to hide/show the points related widgets.">
<polygon fill="none" stroke="black" points="159,-76.5 159,-95.5 300,-95.5 300,-76.5 159,-76.5"/>
<text text-anchor="middle" x="229.5" y="-83.5" font-family="Helvetica,sans-Serif" font-size="10.00">onAddPointsComboChanged</text>
</a>
</g>
</g>
<!-- Node3&#45;&gt;Node4 -->
<g id="edge4" class="edge"><title>Node3&#45;&gt;Node4</title>
<path fill="none" stroke="midnightblue" d="M325.674,-86C317.067,-86 308.441,-86 300.089,-86"/>
<polygon fill="midnightblue" stroke="midnightblue" points="325.751,-89.5001 335.751,-86 325.751,-82.5001 325.751,-89.5001"/>
</g>
<!-- Node5 -->
<g id="node5" class="node"><title>Node5</title>
<g id="a_node5"><a xlink:href="$class_slicer_p_r_i_s_m_1_1_p_r_i_s_m_1_1_p_r_i_s_m_widget.html#aacc3a0a2f4821602d9869f8d12aa2e6a" xlink:title="Function to hide/show the transfer functions related widgets.">
<polygon fill="none" stroke="black" points="167,-38.5 167,-57.5 292,-57.5 292,-38.5 167,-38.5"/>
<text text-anchor="middle" x="229.5" y="-45.5" font-family="Helvetica,sans-Serif" font-size="10.00">onAddTFComboChanged</text>
</a>
</g>
</g>
<!-- Node3&#45;&gt;Node5 -->
<g id="edge6" class="edge"><title>Node3&#45;&gt;Node5</title>
<path fill="none" stroke="midnightblue" d="M360.369,-74.3905C333.773,-68.986 302.527,-62.6365 277.349,-57.5201"/>
<polygon fill="midnightblue" stroke="midnightblue" points="359.815,-77.8494 370.312,-76.411 361.209,-70.9896 359.815,-77.8494"/>
</g>
<!-- Node4&#45;&gt;Node2 -->
<g id="edge5" class="edge"><title>Node4&#45;&gt;Node2</title>
<path fill="none" stroke="midnightblue" d="M148.575,-86C140.015,-86 131.411,-86 123.128,-86"/>
<polygon fill="midnightblue" stroke="midnightblue" points="148.582,-89.5001 158.582,-86 148.582,-82.5001 148.582,-89.5001"/>
</g>
<!-- Node5&#45;&gt;Node2 -->
<g id="edge7" class="edge"><title>Node5&#45;&gt;Node2</title>
<path fill="none" stroke="midnightblue" d="M176.847,-59.8243C153.444,-65.1816 126.143,-71.4311 104.088,-76.4799"/>
<polygon fill="midnightblue" stroke="midnightblue" points="177.644,-63.2323 186.611,-57.589 176.082,-56.4088 177.644,-63.2323"/>
</g>
<!-- Node7 -->
<g id="node7" class="node"><title>Node7</title>
<g id="a_node7"><a xlink:href="$class_slicer_p_r_i_s_m_1_1_p_r_i_s_m_1_1_p_r_i_s_m_widget.html#a1eb16a219f95634ee6a878b4926d5d2a" xlink:title="Function to get the current parameters and add them into a dictionnary.">
<polygon fill="none" stroke="black" points="168.5,-0.5 168.5,-19.5 290.5,-19.5 290.5,-0.5 168.5,-0.5"/>
<text text-anchor="middle" x="229.5" y="-7.5" font-family="Helvetica,sans-Serif" font-size="10.00">addParamButtonClicked</text>
</a>
</g>
</g>
<!-- Node6&#45;&gt;Node7 -->
<g id="edge9" class="edge"><title>Node6&#45;&gt;Node7</title>
<path fill="none" stroke="midnightblue" d="M374.31,-24.6117C349.501,-22.091 317.961,-18.8865 290.745,-16.1211"/>
<polygon fill="midnightblue" stroke="midnightblue" points="374.196,-28.1181 384.499,-25.6469 374.904,-21.1539 374.196,-28.1181"/>
</g>
<!-- Node7&#45;&gt;Node2 -->
<g id="edge10" class="edge"><title>Node7&#45;&gt;Node2</title>
<path fill="none" stroke="midnightblue" d="M176.383,-22.6082C170.441,-24.5266 164.535,-26.6585 159,-29 127.639,-42.2663 94.0601,-64.0312 75.9504,-76.4762"/>
<polygon fill="midnightblue" stroke="midnightblue" points="177.805,-25.8343 186.358,-19.5818 175.773,-19.1358 177.805,-25.8343"/>
</g>
</g>
</svg>
