<?xml version="1.0" encoding="UTF-8" standalone="no"?>
<!DOCTYPE svg PUBLIC "-//W3C//DTD SVG 1.1//EN"
 "http://www.w3.org/Graphics/SVG/1.1/DTD/svg11.dtd">
<!-- Generated by graphviz version 2.38.0 (20140413.2041)
 -->
<!-- Title: onMidSagittalSelectorChanged Pages: 1 -->
<svg width="475pt" height="97pt"
 viewBox="0.00 0.00 475.00 96.78" xmlns="http://www.w3.org/2000/svg" xmlns:xlink="http://www.w3.org/1999/xlink">
<g id="graph0" class="graph" transform="scale(1 1) rotate(0) translate(4 92.7821)">
<title>onMidSagittalSelectorChanged</title>
<!-- Node1 -->
<g id="node1" class="node"><title>Node1</title>
<g id="a_node1"><a xlink:title=" ">
<polygon fill="#bfbfbf" stroke="black" points="317,-13.2821 317,-32.2821 467,-32.2821 467,-13.2821 317,-13.2821"/>
<text text-anchor="middle" x="392" y="-20.2821" font-family="Helvetica,sans-Serif" font-size="10.00">onMidSagittalSelectorChanged</text>
</a>
</g>
</g>
<!-- Node1&#45;&gt;Node1 -->
<g id="edge9" class="edge"><title>Node1&#45;&gt;Node1</title>
<path fill="none" stroke="midnightblue" d="M417.298,-41.8113C415.918,-46.9101 407.485,-50.7821 392,-50.7821 367.828,-50.7821 360.841,-41.3474 371.038,-32.5392"/>
<polygon fill="midnightblue" stroke="midnightblue" points="420.368,-40.115 412.962,-32.5392 414.027,-43.0803 420.368,-40.115"/>
</g>
<!-- Node2 -->
<g id="node2" class="node"><title>Node2</title>
<g id="a_node2"><a xlink:href="$class_p_r_i_s_m_1_1_p_r_i_s_m_widget.html#a5354f5739815c9b04b2e8df68991a1b7" xlink:title=" ">
<polygon fill="none" stroke="black" points="228,-13.2821 228,-32.2821 281,-32.2821 281,-13.2821 228,-13.2821"/>
<text text-anchor="middle" x="254.5" y="-20.2821" font-family="Helvetica,sans-Serif" font-size="10.00">initState</text>
</a>
</g>
</g>
<!-- Node1&#45;&gt;Node2 -->
<g id="edge1" class="edge"><title>Node1&#45;&gt;Node2</title>
<path fill="none" stroke="midnightblue" d="M306.766,-22.7821C297.545,-22.7821 288.758,-22.7821 281.146,-22.7821"/>
<polygon fill="midnightblue" stroke="midnightblue" points="306.907,-26.2822 316.907,-22.7821 306.907,-19.2822 306.907,-26.2822"/>
</g>
<!-- Node2&#45;&gt;Node2 -->
<g id="edge2" class="edge"><title>Node2&#45;&gt;Node2</title>
<path fill="none" stroke="midnightblue" d="M273.388,-42.1822C272.127,-47.0967 265.831,-50.7821 254.5,-50.7821 236.371,-50.7821 231.131,-41.3474 238.779,-32.5392"/>
<polygon fill="midnightblue" stroke="midnightblue" points="276.667,-40.9479 270.221,-32.5392 270.016,-43.132 276.667,-40.9479"/>
</g>
<!-- Node3 -->
<g id="node3" class="node"><title>Node3</title>
<g id="a_node3"><a xlink:href="$class_p_r_i_s_m_1_1_p_r_i_s_m_widget.html#a132b0f123f6fdc57ed5a62c70b7326a7" xlink:title=" ">
<polygon fill="none" stroke="black" points="112,-51.2821 112,-70.2821 192,-70.2821 192,-51.2821 112,-51.2821"/>
<text text-anchor="middle" x="152" y="-58.2821" font-family="Helvetica,sans-Serif" font-size="10.00">onCloseScene</text>
</a>
</g>
</g>
<!-- Node2&#45;&gt;Node3 -->
<g id="edge3" class="edge"><title>Node2&#45;&gt;Node3</title>
<path fill="none" stroke="midnightblue" d="M218.419,-36.0467C205.225,-41.0354 190.492,-46.6062 178.352,-51.1962"/>
<polygon fill="midnightblue" stroke="midnightblue" points="220.024,-39.1817 228.14,-32.3711 217.548,-32.6341 220.024,-39.1817"/>
</g>
<!-- Node5 -->
<g id="node5" class="node"><title>Node5</title>
<g id="a_node5"><a xlink:href="$class_p_r_i_s_m_1_1_p_r_i_s_m_widget.html#ade41f93307784822f8bc17e85964d427" xlink:title=" ">
<polygon fill="none" stroke="black" points="131.5,-13.2821 131.5,-32.2821 172.5,-32.2821 172.5,-13.2821 131.5,-13.2821"/>
<text text-anchor="middle" x="152" y="-20.2821" font-family="Helvetica,sans-Serif" font-size="10.00">setup</text>
</a>
</g>
</g>
<!-- Node2&#45;&gt;Node5 -->
<g id="edge8" class="edge"><title>Node2&#45;&gt;Node5</title>
<path fill="none" stroke="midnightblue" d="M217.733,-22.7821C202.519,-22.7821 185.369,-22.7821 172.545,-22.7821"/>
<polygon fill="midnightblue" stroke="midnightblue" points="217.88,-26.2822 227.88,-22.7821 217.88,-19.2822 217.88,-26.2822"/>
</g>
<!-- Node3&#45;&gt;Node3 -->
<g id="edge7" class="edge"><title>Node3&#45;&gt;Node3</title>
<path fill="none" stroke="midnightblue" d="M170.888,-80.1822C169.627,-85.0967 163.331,-88.7821 152,-88.7821 133.871,-88.7821 128.631,-79.3474 136.279,-70.5392"/>
<polygon fill="midnightblue" stroke="midnightblue" points="174.167,-78.9479 167.721,-70.5392 167.516,-81.132 174.167,-78.9479"/>
</g>
<!-- Node4 -->
<g id="node4" class="node"><title>Node4</title>
<g id="a_node4"><a xlink:href="$class_p_r_i_s_m_1_1_p_r_i_s_m_widget.html#a4122013a40eb6518717520443b9ab010" xlink:title=" ">
<polygon fill="none" stroke="black" points="0,-13.2821 0,-32.2821 76,-32.2821 76,-13.2821 0,-13.2821"/>
<text text-anchor="middle" x="38" y="-20.2821" font-family="Helvetica,sans-Serif" font-size="10.00">addObservers</text>
</a>
</g>
</g>
<!-- Node3&#45;&gt;Node4 -->
<g id="edge4" class="edge"><title>Node3&#45;&gt;Node4</title>
<path fill="none" stroke="midnightblue" d="M113.197,-47.9562C98.1692,-42.8574 81.1795,-37.093 67.2533,-32.3681"/>
<polygon fill="midnightblue" stroke="midnightblue" points="112.143,-51.2945 122.738,-51.1931 114.392,-44.6657 112.143,-51.2945"/>
</g>
<!-- Node4&#45;&gt;Node2 -->
<g id="edge6" class="edge"><title>Node4&#45;&gt;Node2</title>
<path fill="none" stroke="midnightblue" d="M78.4688,-10.5546C89.2361,-7.75737 100.975,-5.1934 112,-3.78213 147.268,0.732308 156.843,1.52491 192,-3.78213 204.265,-5.6336 217.457,-9.45157 228.465,-13.1826"/>
<polygon fill="midnightblue" stroke="midnightblue" points="77.2227,-7.26666 68.4983,-13.2779 79.0671,-14.0193 77.2227,-7.26666"/>
</g>
<!-- Node4&#45;&gt;Node4 -->
<g id="edge5" class="edge"><title>Node4&#45;&gt;Node4</title>
<path fill="none" stroke="midnightblue" d="M59.1101,-42.1822C57.7003,-47.0967 50.6636,-50.7821 38,-50.7821 17.7383,-50.7821 11.8814,-41.3474 20.4293,-32.5392"/>
<polygon fill="midnightblue" stroke="midnightblue" points="62.3021,-40.7208 55.5707,-32.5392 55.7307,-43.1328 62.3021,-40.7208"/>
</g>
</g>
</svg>
