<?xml version="1.0" encoding="UTF-8" standalone="no"?>
<!DOCTYPE svg PUBLIC "-//W3C//DTD SVG 1.1//EN"
 "http://www.w3.org/Graphics/SVG/1.1/DTD/svg11.dtd">
<!-- Generated by graphviz version 2.38.0 (20140413.2041)
 -->
<!-- Title: onVolumeRenderingCheckBoxToggled Pages: 1 -->
<svg width="524pt" height="57pt"
 viewBox="0.00 0.00 524.00 57.00" xmlns="http://www.w3.org/2000/svg" xmlns:xlink="http://www.w3.org/1999/xlink">
<g id="graph0" class="graph" transform="scale(1 1) rotate(0) translate(4 53)">
<title>onVolumeRenderingCheckBoxToggled</title>
<!-- Node1 -->
<g id="node1" class="node"><title>Node1</title>
<g id="a_node1"><a xlink:title=" ">
<polygon fill="#bfbfbf" stroke="black" points="0,-0.5 0,-30.5 149,-30.5 149,-0.5 0,-0.5"/>
<text text-anchor="start" x="8" y="-18.5" font-family="Helvetica,sans-Serif" font-size="10.00">onVolumeRenderingCheckBox</text>
<text text-anchor="middle" x="74.5" y="-7.5" font-family="Helvetica,sans-Serif" font-size="10.00">Toggled</text>
</a>
</g>
</g>
<!-- Node1&#45;&gt;Node1 -->
<g id="edge1" class="edge"><title>Node1&#45;&gt;Node1</title>
<path fill="none" stroke="midnightblue" d="M43.4798,-30.659C35.9998,-40.0566 46.3398,-49 74.5,-49 91.6601,-49 102.203,-45.679 106.128,-40.9579"/>
<polygon fill="midnightblue" stroke="midnightblue" points="109.604,-40.4352 105.52,-30.659 102.616,-40.848 109.604,-40.4352"/>
</g>
<!-- Node2 -->
<g id="node2" class="node"><title>Node2</title>
<g id="a_node2"><a xlink:href="$class_p_r_i_s_m_1_1_p_r_i_s_m_widget.html#aa315cc715c538dea175216d53f73915e" xlink:title=" ">
<polygon fill="none" stroke="black" points="185,-6 185,-25 322,-25 322,-6 185,-6"/>
<text text-anchor="middle" x="253.5" y="-13" font-family="Helvetica,sans-Serif" font-size="10.00">UpdateShaderParametersUI</text>
</a>
</g>
</g>
<!-- Node1&#45;&gt;Node2 -->
<g id="edge2" class="edge"><title>Node1&#45;&gt;Node2</title>
<path fill="none" stroke="midnightblue" d="M149.026,-15.5C157.467,-15.5 166.095,-15.5 174.591,-15.5"/>
<polygon fill="midnightblue" stroke="midnightblue" points="174.867,-19.0001 184.867,-15.5 174.867,-12.0001 174.867,-19.0001"/>
</g>
<!-- Node3 -->
<g id="node3" class="node"><title>Node3</title>
<g id="a_node3"><a xlink:href="$class_p_r_i_s_m_1_1_p_r_i_s_m_widget.html#a5d6fb9b478e94c2f199af600607385ff" xlink:title=" ">
<polygon fill="none" stroke="black" points="358,-6 358,-25 516,-25 516,-6 358,-6"/>
<text text-anchor="middle" x="437" y="-13" font-family="Helvetica,sans-Serif" font-size="10.00">onCustomShaderParamChanged</text>
</a>
</g>
</g>
<!-- Node2&#45;&gt;Node3 -->
<g id="edge3" class="edge"><title>Node2&#45;&gt;Node3</title>
<path fill="none" stroke="midnightblue" d="M322.084,-15.5C330.487,-15.5 339.174,-15.5 347.83,-15.5"/>
<polygon fill="midnightblue" stroke="midnightblue" points="347.958,-19.0001 357.958,-15.5 347.958,-12.0001 347.958,-19.0001"/>
</g>
</g>
</svg>
