<?xml version="1.0" encoding="UTF-8" standalone="no"?>
<!DOCTYPE svg PUBLIC "-//W3C//DTD SVG 1.1//EN"
 "http://www.w3.org/Graphics/SVG/1.1/DTD/svg11.dtd">
<!-- Generated by graphviz version 2.38.0 (20140413.2041)
 -->
<!-- Title: cleanup Pages: 1 -->
<svg width="505pt" height="66pt"
 viewBox="0.00 0.00 505.00 66.00" xmlns="http://www.w3.org/2000/svg" xmlns:xlink="http://www.w3.org/1999/xlink">
<g id="graph0" class="graph" transform="scale(1 1) rotate(0) translate(4 62)">
<title>cleanup</title>
<!-- Node1 -->
<g id="node1" class="node"><title>Node1</title>
<g id="a_node1"><a xlink:title="Function to clean up the scene.">
<polygon fill="#bfbfbf" stroke="black" points="0,-19.5 0,-38.5 50,-38.5 50,-19.5 0,-19.5"/>
<text text-anchor="middle" x="25" y="-26.5" font-family="Helvetica,sans-Serif" font-size="10.00">cleanup</text>
</a>
</g>
</g>
<!-- Node2 -->
<g id="node2" class="node"><title>Node2</title>
<g id="a_node2"><a xlink:href="class_slicer_p_r_i_s_m_1_1_p_r_i_s_m_1_1_p_r_i_s_m_widget.html#a16e1c85444e27fae67a4b0973d36fe67" target="_top" xlink:title="Function to remove observers from the GUI&#39;s widgets.">
<polygon fill="none" stroke="black" points="86,-38.5 86,-57.5 193,-57.5 193,-38.5 86,-38.5"/>
<text text-anchor="middle" x="139.5" y="-45.5" font-family="Helvetica,sans-Serif" font-size="10.00">removeGUIObservers</text>
</a>
</g>
</g>
<!-- Node1&#45;&gt;Node2 -->
<g id="edge1" class="edge"><title>Node1&#45;&gt;Node2</title>
<path fill="none" stroke="midnightblue" d="M50.1341,-33.076C57.815,-34.3732 66.6975,-35.8734 75.8084,-37.4121"/>
<polygon fill="midnightblue" stroke="midnightblue" points="75.2951,-40.8749 85.7383,-39.0891 76.4608,-33.9726 75.2951,-40.8749"/>
</g>
<!-- Node5 -->
<g id="node5" class="node"><title>Node5</title>
<g id="a_node5"><a xlink:href="class_slicer_p_r_i_s_m_1_1_p_r_i_s_m_1_1_p_r_i_s_m_widget.html#a9e06923a1c7ae8cf0bf3f5595150d9e9" target="_top" xlink:title="Function to reset the ROI in the scene.">
<polygon fill="none" stroke="black" points="112,-0.5 112,-19.5 167,-19.5 167,-0.5 112,-0.5"/>
<text text-anchor="middle" x="139.5" y="-7.5" font-family="Helvetica,sans-Serif" font-size="10.00">resetROI</text>
</a>
</g>
</g>
<!-- Node1&#45;&gt;Node5 -->
<g id="edge5" class="edge"><title>Node1&#45;&gt;Node5</title>
<path fill="none" stroke="midnightblue" d="M50.1341,-24.924C65.1046,-22.3957 84.6393,-19.0965 101.534,-16.2432"/>
<polygon fill="midnightblue" stroke="midnightblue" points="102.37,-19.6516 111.647,-14.5351 101.204,-12.7494 102.37,-19.6516"/>
</g>
<!-- Node3 -->
<g id="node3" class="node"><title>Node3</title>
<g id="a_node3"><a xlink:href="class_slicer_p_r_i_s_m_1_1_p_r_i_s_m_1_1_p_r_i_s_m_widget.html#adfb7a3a22452b635bb615e4750c2bf29" target="_top" xlink:title="Function to get the class name of a widget.">
<polygon fill="none" stroke="black" points="417,-38.5 417,-57.5 497,-57.5 497,-38.5 417,-38.5"/>
<text text-anchor="middle" x="457" y="-45.5" font-family="Helvetica,sans-Serif" font-size="10.00">getClassName</text>
</a>
</g>
</g>
<!-- Node2&#45;&gt;Node3 -->
<g id="edge2" class="edge"><title>Node2&#45;&gt;Node3</title>
<path fill="none" stroke="midnightblue" d="M193.308,-48C252.882,-48 349.001,-48 406.974,-48"/>
<polygon fill="midnightblue" stroke="midnightblue" points="406.987,-51.5001 416.987,-48 406.987,-44.5001 406.987,-51.5001"/>
</g>
<!-- Node4 -->
<g id="node4" class="node"><title>Node4</title>
<g id="a_node4"><a xlink:href="class_slicer_p_r_i_s_m_1_1_p_r_i_s_m_1_1_p_r_i_s_m_widget.html#a9c2580701ccfac91074c348bf51d8353" target="_top" xlink:title="Function to update the parameter node from gui values.">
<polygon fill="none" stroke="black" points="229,-19.5 229,-38.5 381,-38.5 381,-19.5 229,-19.5"/>
<text text-anchor="middle" x="305" y="-26.5" font-family="Helvetica,sans-Serif" font-size="10.00">updateParameterNodeFromGUI</text>
</a>
</g>
</g>
<!-- Node2&#45;&gt;Node4 -->
<g id="edge3" class="edge"><title>Node2&#45;&gt;Node4</title>
<path fill="none" stroke="midnightblue" d="M193.132,-41.8837C201.318,-40.9324 209.952,-39.9291 218.64,-38.9195"/>
<polygon fill="midnightblue" stroke="midnightblue" points="219.312,-42.3651 228.841,-37.7341 218.504,-35.4118 219.312,-42.3651"/>
</g>
<!-- Node4&#45;&gt;Node3 -->
<g id="edge4" class="edge"><title>Node4&#45;&gt;Node3</title>
<path fill="none" stroke="midnightblue" d="M381.439,-38.5557C390.057,-39.6473 398.667,-40.7379 406.815,-41.7698"/>
<polygon fill="midnightblue" stroke="midnightblue" points="406.492,-45.2569 416.852,-43.0413 407.372,-38.3123 406.492,-45.2569"/>
</g>
</g>
</svg>
