<?xml version="1.0" encoding="UTF-8" standalone="no"?>
<!DOCTYPE svg PUBLIC "-//W3C//DTD SVG 1.1//EN"
 "http://www.w3.org/Graphics/SVG/1.1/DTD/svg11.dtd">
<!-- Generated by graphviz version 2.38.0 (20140413.2041)
 -->
<!-- Title: onFileSelected Pages: 1 -->
<svg width="282pt" height="46pt"
 viewBox="0.00 0.00 282.00 46.00" xmlns="http://www.w3.org/2000/svg" xmlns:xlink="http://www.w3.org/1999/xlink">
<g id="graph0" class="graph" transform="scale(1 1) rotate(0) translate(4 42)">
<title>onFileSelected</title>
<!-- Node1 -->
<g id="node1" class="node"><title>Node1</title>
<g id="a_node1"><a xlink:title=" ">
<polygon fill="#bfbfbf" stroke="black" points="193,-0.5 193,-19.5 274,-19.5 274,-0.5 193,-0.5"/>
<text text-anchor="middle" x="233.5" y="-7.5" font-family="Helvetica,sans-Serif" font-size="10.00">onFileSelected</text>
</a>
</g>
</g>
<!-- Node1&#45;&gt;Node1 -->
<g id="edge1" class="edge"><title>Node1&#45;&gt;Node1</title>
<path fill="none" stroke="midnightblue" d="M254.98,-29.4C253.546,-34.3146 246.386,-38 233.5,-38 212.883,-38 206.923,-28.5653 215.621,-19.7571"/>
<polygon fill="midnightblue" stroke="midnightblue" points="258.157,-27.9004 251.379,-19.7571 251.599,-30.3496 258.157,-27.9004"/>
</g>
<!-- Node2 -->
<g id="node2" class="node"><title>Node2</title>
<g id="a_node2"><a xlink:href="$class_p_r_i_s_m_1_1_p_r_i_s_m_widget.html#acfd78bfac3f15ee38491fe82fbe5bf82" xlink:title=" ">
<polygon fill="none" stroke="black" points="77,-0.5 77,-19.5 157,-19.5 157,-0.5 77,-0.5"/>
<text text-anchor="middle" x="117" y="-7.5" font-family="Helvetica,sans-Serif" font-size="10.00">openFileDialog</text>
</a>
</g>
</g>
<!-- Node1&#45;&gt;Node2 -->
<g id="edge2" class="edge"><title>Node1&#45;&gt;Node2</title>
<path fill="none" stroke="midnightblue" d="M182.594,-10C174.117,-10 165.422,-10 157.268,-10"/>
<polygon fill="midnightblue" stroke="midnightblue" points="182.775,-13.5001 192.775,-10 182.775,-6.5001 182.775,-13.5001"/>
</g>
<!-- Node2&#45;&gt;Node2 -->
<g id="edge3" class="edge"><title>Node2&#45;&gt;Node2</title>
<path fill="none" stroke="midnightblue" d="M134.777,-29.4C133.59,-34.3146 127.664,-38 117,-38 99.9375,-38 95.0054,-28.5653 102.204,-19.7571"/>
<polygon fill="midnightblue" stroke="midnightblue" points="138.093,-28.2775 131.796,-19.7571 131.406,-30.3447 138.093,-28.2775"/>
</g>
<!-- Node3 -->
<g id="node3" class="node"><title>Node3</title>
<g id="a_node3"><a xlink:href="$class_p_r_i_s_m_1_1_p_r_i_s_m_widget.html#ade41f93307784822f8bc17e85964d427" xlink:title=" ">
<polygon fill="none" stroke="black" points="0,-0.5 0,-19.5 41,-19.5 41,-0.5 0,-0.5"/>
<text text-anchor="middle" x="20.5" y="-7.5" font-family="Helvetica,sans-Serif" font-size="10.00">setup</text>
</a>
</g>
</g>
<!-- Node2&#45;&gt;Node3 -->
<g id="edge4" class="edge"><title>Node2&#45;&gt;Node3</title>
<path fill="none" stroke="midnightblue" d="M66.5818,-10C57.558,-10 48.6399,-10 41.1477,-10"/>
<polygon fill="midnightblue" stroke="midnightblue" points="66.7445,-13.5001 76.7445,-10 66.7444,-6.5001 66.7445,-13.5001"/>
</g>
</g>
</svg>
