<?xml version="1.0" encoding="UTF-8" standalone="no"?>
<!DOCTYPE svg PUBLIC "-//W3C//DTD SVG 1.1//EN"
 "http://www.w3.org/Graphics/SVG/1.1/DTD/svg11.dtd">
<!-- Generated by graphviz version 2.38.0 (20140413.2041)
 -->
<!-- Title: addObservers Pages: 1 -->
<svg width="648pt" height="199pt"
 viewBox="0.00 0.00 648.00 199.00" xmlns="http://www.w3.org/2000/svg" xmlns:xlink="http://www.w3.org/1999/xlink">
<g id="graph0" class="graph" transform="scale(1 1) rotate(0) translate(4 195)">
<title>addObservers</title>
<!-- Node1 -->
<g id="node1" class="node"><title>Node1</title>
<g id="a_node1"><a xlink:title=" ">
<polygon fill="#bfbfbf" stroke="black" points="0,-76.5 0,-95.5 76,-95.5 76,-76.5 0,-76.5"/>
<text text-anchor="middle" x="38" y="-83.5" font-family="Helvetica,sans-Serif" font-size="10.00">addObservers</text>
</a>
</g>
</g>
<!-- Node1&#45;&gt;Node1 -->
<g id="edge1" class="edge"><title>Node1&#45;&gt;Node1</title>
<path fill="none" stroke="midnightblue" d="M15.8054,-95.7571C5.00806,-104.565 12.4063,-114 38,-114 54.7959,-114 63.7556,-109.937 64.8792,-104.654"/>
<polygon fill="midnightblue" stroke="midnightblue" points="67.9506,-102.975 60.1946,-95.7571 61.7567,-106.236 67.9506,-102.975"/>
</g>
<!-- Node2 -->
<g id="node2" class="node"><title>Node2</title>
<g id="a_node2"><a xlink:href="$class_p_r_i_s_m_1_1_p_r_i_s_m_widget.html#a71ea96f4fb70b5a651b99da5892b2d95" xlink:title=" ">
<polygon fill="none" stroke="black" points="123,-114.5 123,-133.5 243,-133.5 243,-114.5 123,-114.5"/>
<text text-anchor="middle" x="183" y="-121.5" font-family="Helvetica,sans-Serif" font-size="10.00">onACPCPointsChanged</text>
</a>
</g>
</g>
<!-- Node1&#45;&gt;Node2 -->
<g id="edge2" class="edge"><title>Node1&#45;&gt;Node2</title>
<path fill="none" stroke="midnightblue" d="M75.0849,-95.589C93.6296,-100.517 116.426,-106.575 136.199,-111.829"/>
<polygon fill="midnightblue" stroke="midnightblue" points="135.363,-115.228 145.927,-114.414 137.161,-108.463 135.363,-115.228"/>
</g>
<!-- Node4 -->
<g id="node4" class="node"><title>Node4</title>
<g id="a_node4"><a xlink:href="$class_p_r_i_s_m_1_1_p_r_i_s_m_widget.html#a132b0f123f6fdc57ed5a62c70b7326a7" xlink:title=" ">
<polygon fill="none" stroke="black" points="143,-152.5 143,-171.5 223,-171.5 223,-152.5 143,-152.5"/>
<text text-anchor="middle" x="183" y="-159.5" font-family="Helvetica,sans-Serif" font-size="10.00">onCloseScene</text>
</a>
</g>
</g>
<!-- Node1&#45;&gt;Node4 -->
<g id="edge4" class="edge"><title>Node1&#45;&gt;Node4</title>
<path fill="none" stroke="midnightblue" d="M48.5168,-95.5098C61.6787,-108.143 86.6922,-130.335 112,-143 118.581,-146.293 125.805,-149.073 133.035,-151.402"/>
<polygon fill="midnightblue" stroke="midnightblue" points="132.257,-154.822 142.839,-154.305 134.244,-148.11 132.257,-154.822"/>
</g>
<!-- Node10 -->
<g id="node10" class="node"><title>Node10</title>
<g id="a_node10"><a xlink:href="$class_p_r_i_s_m_1_1_p_r_i_s_m_widget.html#a6671941a4f52b9c1996b41e9557c864d" xlink:title=" ">
<polygon fill="none" stroke="black" points="135.5,-76.5 135.5,-95.5 230.5,-95.5 230.5,-76.5 135.5,-76.5"/>
<text text-anchor="middle" x="183" y="-83.5" font-family="Helvetica,sans-Serif" font-size="10.00">onEndPointAdded</text>
</a>
</g>
</g>
<!-- Node1&#45;&gt;Node10 -->
<g id="edge10" class="edge"><title>Node1&#45;&gt;Node10</title>
<path fill="none" stroke="midnightblue" d="M76.1983,-86C91.138,-86 108.696,-86 125.169,-86"/>
<polygon fill="midnightblue" stroke="midnightblue" points="125.252,-89.5001 135.252,-86 125.252,-82.5001 125.252,-89.5001"/>
</g>
<!-- Node11 -->
<g id="node11" class="node"><title>Node11</title>
<g id="a_node11"><a xlink:href="$class_p_r_i_s_m_1_1_p_r_i_s_m_widget.html#a92a408ae5db8734e6bacb469864ee574" xlink:title=" ">
<polygon fill="none" stroke="black" points="128,-38.5 128,-57.5 238,-57.5 238,-38.5 128,-38.5"/>
<text text-anchor="middle" x="183" y="-45.5" font-family="Helvetica,sans-Serif" font-size="10.00">onEndPointsChanged</text>
</a>
</g>
</g>
<!-- Node1&#45;&gt;Node11 -->
<g id="edge11" class="edge"><title>Node1&#45;&gt;Node11</title>
<path fill="none" stroke="midnightblue" d="M75.0849,-76.411C93.6296,-71.4831 116.426,-65.4251 136.199,-60.1709"/>
<polygon fill="midnightblue" stroke="midnightblue" points="137.161,-63.5368 145.927,-57.5859 135.363,-56.7716 137.161,-63.5368"/>
</g>
<!-- Node12 -->
<g id="node12" class="node"><title>Node12</title>
<g id="a_node12"><a xlink:href="$class_p_r_i_s_m_1_1_p_r_i_s_m_widget.html#a3cdb67eeb9092692c5b3e1d42f5a37cb" xlink:title=" ">
<polygon fill="none" stroke="black" points="112,-0.5 112,-19.5 254,-19.5 254,-0.5 112,-0.5"/>
<text text-anchor="middle" x="183" y="-7.5" font-family="Helvetica,sans-Serif" font-size="10.00">onMidSagittalPointsChanged</text>
</a>
</g>
</g>
<!-- Node1&#45;&gt;Node12 -->
<g id="edge12" class="edge"><title>Node1&#45;&gt;Node12</title>
<path fill="none" stroke="midnightblue" d="M48.5168,-76.4902C61.6787,-63.8569 86.6922,-41.6647 112,-29 116.598,-26.6992 121.509,-24.649 126.518,-22.828"/>
<polygon fill="midnightblue" stroke="midnightblue" points="127.828,-26.0808 136.212,-19.603 125.618,-19.4387 127.828,-26.0808"/>
</g>
<!-- Node3 -->
<g id="node3" class="node"><title>Node3</title>
<g id="a_node3"><a xlink:href="$class_p_r_i_s_m_1_1_p_r_i_s_m_widget.html#a15db542a420a1415fc3675c689213a4d" xlink:title=" ">
<polygon fill="none" stroke="black" points="290,-47.5 290,-66.5 454,-66.5 454,-47.5 290,-47.5"/>
<text text-anchor="middle" x="372" y="-54.5" font-family="Helvetica,sans-Serif" font-size="10.00">updateACPCTranformApplyButton</text>
</a>
</g>
</g>
<!-- Node2&#45;&gt;Node3 -->
<g id="edge3" class="edge"><title>Node2&#45;&gt;Node3</title>
<path fill="none" stroke="midnightblue" d="M222.406,-114.497C232.742,-111.69 243.864,-108.44 254,-105 283.835,-94.8748 316.985,-81.0187 340.359,-70.7958"/>
<polygon fill="midnightblue" stroke="midnightblue" points="342.003,-73.8963 349.74,-66.6585 339.178,-67.4915 342.003,-73.8963"/>
</g>
<!-- Node5 -->
<g id="node5" class="node"><title>Node5</title>
<g id="a_node5"><a xlink:href="$class_p_r_i_s_m_1_1_p_r_i_s_m_widget.html#a5354f5739815c9b04b2e8df68991a1b7" xlink:title=" ">
<polygon fill="none" stroke="black" points="345.5,-133.5 345.5,-152.5 398.5,-152.5 398.5,-133.5 345.5,-133.5"/>
<text text-anchor="middle" x="372" y="-140.5" font-family="Helvetica,sans-Serif" font-size="10.00">initState</text>
</a>
</g>
</g>
<!-- Node4&#45;&gt;Node5 -->
<g id="edge5" class="edge"><title>Node4&#45;&gt;Node5</title>
<path fill="none" stroke="midnightblue" d="M223.201,-158.017C256.205,-154.664 303.022,-149.907 335.068,-146.651"/>
<polygon fill="midnightblue" stroke="midnightblue" points="335.734,-150.101 345.329,-145.608 335.026,-143.137 335.734,-150.101"/>
</g>
<!-- Node9 -->
<g id="node9" class="node"><title>Node9</title>
<g id="a_node9"><a xlink:href="$class_p_r_i_s_m_1_1_p_r_i_s_m_widget.html#a29b182c927e1baf9f15c5fb937a53012" xlink:title=" ">
<polygon fill="none" stroke="black" points="291.5,-171.5 291.5,-190.5 452.5,-190.5 452.5,-171.5 291.5,-171.5"/>
<text text-anchor="middle" x="372" y="-178.5" font-family="Helvetica,sans-Serif" font-size="10.00">removeLeftClickOnSlicerObserver</text>
</a>
</g>
</g>
<!-- Node4&#45;&gt;Node9 -->
<g id="edge9" class="edge"><title>Node4&#45;&gt;Node9</title>
<path fill="none" stroke="midnightblue" d="M223.201,-165.983C240.228,-167.713 260.932,-169.817 281.387,-171.895"/>
<polygon fill="midnightblue" stroke="midnightblue" points="281.089,-175.383 291.391,-172.911 281.796,-168.418 281.089,-175.383"/>
</g>
<!-- Node6 -->
<g id="node6" class="node"><title>Node6</title>
<g id="a_node6"><a xlink:href="$class_p_r_i_s_m_1_1_p_r_i_s_m_widget.html#ac4d8229495b59b9bf1f851f3a7637d42" xlink:title=" ">
<polygon fill="none" stroke="black" points="492,-171.5 492,-190.5 638,-190.5 638,-171.5 492,-171.5"/>
<text text-anchor="middle" x="565" y="-178.5" font-family="Helvetica,sans-Serif" font-size="10.00">onACPCLineSelectorChanged</text>
</a>
</g>
</g>
<!-- Node5&#45;&gt;Node6 -->
<g id="edge6" class="edge"><title>Node5&#45;&gt;Node6</title>
<path fill="none" stroke="midnightblue" d="M398.759,-148.125C426.123,-153.569 470.284,-162.355 506.071,-169.475"/>
<polygon fill="midnightblue" stroke="midnightblue" points="505.431,-172.916 515.922,-171.435 506.797,-166.051 505.431,-172.916"/>
</g>
<!-- Node7 -->
<g id="node7" class="node"><title>Node7</title>
<g id="a_node7"><a xlink:href="$class_p_r_i_s_m_1_1_p_r_i_s_m_widget.html#a99157d870f447ea268c6f5b55a128d7d" xlink:title=" ">
<polygon fill="none" stroke="black" points="490,-133.5 490,-152.5 640,-152.5 640,-133.5 490,-133.5"/>
<text text-anchor="middle" x="565" y="-140.5" font-family="Helvetica,sans-Serif" font-size="10.00">onMidSagittalSelectorChanged</text>
</a>
</g>
</g>
<!-- Node5&#45;&gt;Node7 -->
<g id="edge7" class="edge"><title>Node5&#45;&gt;Node7</title>
<path fill="none" stroke="midnightblue" d="M398.759,-143C419.618,-143 450.237,-143 479.467,-143"/>
<polygon fill="midnightblue" stroke="midnightblue" points="479.729,-146.5 489.729,-143 479.729,-139.5 479.729,-146.5"/>
</g>
<!-- Node8 -->
<g id="node8" class="node"><title>Node8</title>
<g id="a_node8"><a xlink:href="$class_p_r_i_s_m_1_1_p_r_i_s_m_widget.html#afa92c17d5fd6d29831a9f2f310f47741" xlink:title=" ">
<polygon fill="none" stroke="black" points="515,-95.5 515,-114.5 615,-114.5 615,-95.5 515,-95.5"/>
<text text-anchor="middle" x="565" y="-102.5" font-family="Helvetica,sans-Serif" font-size="10.00">updateEndPointsUI</text>
</a>
</g>
</g>
<!-- Node5&#45;&gt;Node8 -->
<g id="edge8" class="edge"><title>Node5&#45;&gt;Node8</title>
<path fill="none" stroke="midnightblue" d="M398.759,-137.875C426.123,-132.431 470.284,-123.645 506.071,-116.525"/>
<polygon fill="midnightblue" stroke="midnightblue" points="506.797,-119.949 515.922,-114.565 505.431,-113.084 506.797,-119.949"/>
</g>
<!-- Node12&#45;&gt;Node3 -->
<g id="edge13" class="edge"><title>Node12&#45;&gt;Node3</title>
<path fill="none" stroke="midnightblue" d="M221.842,-19.5112C251.021,-26.8449 291.571,-37.0365 323.026,-44.9424"/>
<polygon fill="midnightblue" stroke="midnightblue" points="322.342,-48.3792 332.894,-47.4224 324.048,-41.5904 322.342,-48.3792"/>
</g>
</g>
</svg>
