<?xml version="1.0" encoding="UTF-8" standalone="no"?>
<!DOCTYPE svg PUBLIC "-//W3C//DTD SVG 1.1//EN"
 "http://www.w3.org/Graphics/SVG/1.1/DTD/svg11.dtd">
<!-- Generated by graphviz version 2.38.0 (20140413.2041)
 -->
<!-- Title: onLeftClick Pages: 1 -->
<svg width="377pt" height="102pt"
 viewBox="0.00 0.00 377.00 102.00" xmlns="http://www.w3.org/2000/svg" xmlns:xlink="http://www.w3.org/1999/xlink">
<g id="graph0" class="graph" transform="scale(1 1) rotate(0) translate(4 98)">
<title>onLeftClick</title>
<!-- Node1 -->
<g id="node1" class="node"><title>Node1</title>
<g id="a_node1"><a xlink:title=" ">
<polygon fill="#bfbfbf" stroke="black" points="304,-0.5 304,-19.5 369,-19.5 369,-0.5 304,-0.5"/>
<text text-anchor="middle" x="336.5" y="-7.5" font-family="Helvetica,sans-Serif" font-size="10.00">onLeftClick</text>
</a>
</g>
</g>
<!-- Node1&#45;&gt;Node1 -->
<g id="edge4" class="edge"><title>Node1&#45;&gt;Node1</title>
<path fill="none" stroke="midnightblue" d="M360.309,-29.0292C359.011,-34.128 351.074,-38 336.5,-38 313.75,-38 307.174,-28.5653 316.771,-19.7571"/>
<polygon fill="midnightblue" stroke="midnightblue" points="363.46,-27.4998 356.229,-19.7571 357.053,-30.3197 363.46,-27.4998"/>
</g>
<!-- Node2 -->
<g id="node2" class="node"><title>Node2</title>
<g id="a_node2"><a xlink:href="$class_p_r_i_s_m_1_1_p_r_i_s_m_widget.html#a629595610431be5633652f4880dc4776" xlink:title=" ">
<polygon fill="none" stroke="black" points="146,-56.5 146,-75.5 268,-75.5 268,-56.5 146,-56.5"/>
<text text-anchor="middle" x="207" y="-63.5" font-family="Helvetica,sans-Serif" font-size="10.00">observeLeftClickOnSlice</text>
</a>
</g>
</g>
<!-- Node1&#45;&gt;Node2 -->
<g id="edge1" class="edge"><title>Node1&#45;&gt;Node2</title>
<path fill="none" stroke="midnightblue" d="M311.178,-24.8344C298.585,-32.1248 282.786,-40.6781 268,-47 259.762,-50.5225 250.645,-53.7377 242.058,-56.4812"/>
<polygon fill="midnightblue" stroke="midnightblue" points="313.278,-27.659 320.113,-19.5635 309.722,-21.6298 313.278,-27.659"/>
</g>
<!-- Node4 -->
<g id="node4" class="node"><title>Node4</title>
<g id="a_node4"><a xlink:href="$class_p_r_i_s_m_1_1_p_r_i_s_m_widget.html#a6c7af80ff3037f565daf28c111fe1649" xlink:title=" ">
<polygon fill="none" stroke="black" points="158.5,-0.5 158.5,-19.5 255.5,-19.5 255.5,-0.5 158.5,-0.5"/>
<text text-anchor="middle" x="207" y="-7.5" font-family="Helvetica,sans-Serif" font-size="10.00">onMouseReleased</text>
</a>
</g>
</g>
<!-- Node1&#45;&gt;Node4 -->
<g id="edge5" class="edge"><title>Node1&#45;&gt;Node4</title>
<path fill="none" stroke="midnightblue" d="M293.64,-3.6169C281.455,-3.19278 268.055,-3.13636 255.547,-3.44764"/>
<polygon fill="midnightblue" stroke="midnightblue" points="293.835,-7.12919 303.983,-4.08427 294.151,-0.136326 293.835,-7.12919"/>
</g>
<!-- Node2&#45;&gt;Node2 -->
<g id="edge2" class="edge"><title>Node2&#45;&gt;Node2</title>
<path fill="none" stroke="midnightblue" d="M230.809,-85.0292C229.511,-90.128 221.574,-94 207,-94 184.25,-94 177.674,-84.5653 187.271,-75.7571"/>
<polygon fill="midnightblue" stroke="midnightblue" points="233.96,-83.4998 226.729,-75.7571 227.553,-86.3197 233.96,-83.4998"/>
</g>
<!-- Node3 -->
<g id="node3" class="node"><title>Node3</title>
<g id="a_node3"><a xlink:href="$class_p_r_i_s_m_1_1_p_r_i_s_m_widget.html#a92a408ae5db8734e6bacb469864ee574" xlink:title=" ">
<polygon fill="none" stroke="black" points="0,-56.5 0,-75.5 110,-75.5 110,-56.5 0,-56.5"/>
<text text-anchor="middle" x="55" y="-63.5" font-family="Helvetica,sans-Serif" font-size="10.00">onEndPointsChanged</text>
</a>
</g>
</g>
<!-- Node2&#45;&gt;Node3 -->
<g id="edge3" class="edge"><title>Node2&#45;&gt;Node3</title>
<path fill="none" stroke="midnightblue" d="M135.578,-66C127.098,-66 118.54,-66 110.339,-66"/>
<polygon fill="midnightblue" stroke="midnightblue" points="135.854,-69.5001 145.854,-66 135.854,-62.5001 135.854,-69.5001"/>
</g>
<!-- Node4&#45;&gt;Node1 -->
<g id="edge6" class="edge"><title>Node4&#45;&gt;Node1</title>
<path fill="none" stroke="midnightblue" d="M265.548,-16.7215C278.769,-16.8433 292.348,-16.5747 303.983,-15.9157"/>
<polygon fill="midnightblue" stroke="midnightblue" points="265.605,-13.2221 255.547,-16.5524 265.486,-20.2211 265.605,-13.2221"/>
</g>
<!-- Node4&#45;&gt;Node4 -->
<g id="edge7" class="edge"><title>Node4&#45;&gt;Node4</title>
<path fill="none" stroke="midnightblue" d="M230.809,-29.0292C229.511,-34.128 221.574,-38 207,-38 184.25,-38 177.674,-28.5653 187.271,-19.7571"/>
<polygon fill="midnightblue" stroke="midnightblue" points="233.96,-27.4998 226.729,-19.7571 227.553,-30.3197 233.96,-27.4998"/>
</g>
</g>
</svg>
