<?xml version="1.0" encoding="UTF-8" standalone="no"?>
<!DOCTYPE svg PUBLIC "-//W3C//DTD SVG 1.1//EN"
 "http://www.w3.org/Graphics/SVG/1.1/DTD/svg11.dtd">
<!-- Generated by graphviz version 2.38.0 (20140413.2041)
 -->
<!-- Title: onMouseMoved Pages: 1 -->
<svg width="238pt" height="46pt"
 viewBox="0.00 0.00 238.00 46.00" xmlns="http://www.w3.org/2000/svg" xmlns:xlink="http://www.w3.org/1999/xlink">
<g id="graph0" class="graph" transform="scale(1 1) rotate(0) translate(4 42)">
<title>onMouseMoved</title>
<!-- Node1 -->
<g id="node1" class="node"><title>Node1</title>
<g id="a_node1"><a xlink:title=" ">
<polygon fill="#bfbfbf" stroke="black" points="0,-0.5 0,-19.5 84,-19.5 84,-0.5 0,-0.5"/>
<text text-anchor="middle" x="42" y="-7.5" font-family="Helvetica,sans-Serif" font-size="10.00">onMouseMoved</text>
</a>
</g>
</g>
<!-- Node1&#45;&gt;Node1 -->
<g id="edge2" class="edge"><title>Node1&#45;&gt;Node1</title>
<path fill="none" stroke="midnightblue" d="M21.655,-19.7571C11.7574,-28.5653 18.5391,-38 42,-38 57.0297,-38 65.2142,-34.128 66.5535,-29.0292"/>
<polygon fill="midnightblue" stroke="midnightblue" points="69.6652,-27.4164 62.345,-19.7571 63.291,-30.3096 69.6652,-27.4164"/>
</g>
<!-- Node2 -->
<g id="node2" class="node"><title>Node2</title>
<g id="a_node2"><a xlink:href="$class_p_r_i_s_m_1_1_p_r_i_s_m_widget.html#a92a408ae5db8734e6bacb469864ee574" xlink:title=" ">
<polygon fill="none" stroke="black" points="120,-0.5 120,-19.5 230,-19.5 230,-0.5 120,-0.5"/>
<text text-anchor="middle" x="175" y="-7.5" font-family="Helvetica,sans-Serif" font-size="10.00">onEndPointsChanged</text>
</a>
</g>
</g>
<!-- Node1&#45;&gt;Node2 -->
<g id="edge1" class="edge"><title>Node1&#45;&gt;Node2</title>
<path fill="none" stroke="midnightblue" d="M84.0898,-10C92.1795,-10 100.849,-10 109.495,-10"/>
<polygon fill="midnightblue" stroke="midnightblue" points="109.599,-13.5001 119.599,-10 109.599,-6.5001 109.599,-13.5001"/>
</g>
</g>
</svg>
