<?xml version="1.0" encoding="UTF-8" standalone="no"?>
<!DOCTYPE svg PUBLIC "-//W3C//DTD SVG 1.1//EN"
 "http://www.w3.org/Graphics/SVG/1.1/DTD/svg11.dtd">
<!-- Generated by graphviz version 2.38.0 (20140413.2041)
 -->
<!-- Title: addGUIObservers Pages: 1 -->
<svg width="404pt" height="47pt"
 viewBox="0.00 0.00 404.00 47.00" xmlns="http://www.w3.org/2000/svg" xmlns:xlink="http://www.w3.org/1999/xlink">
<g id="graph0" class="graph" transform="scale(1 1) rotate(0) translate(4 43)">
<title>addGUIObservers</title>
<!-- Node1 -->
<g id="node1" class="node"><title>Node1</title>
<g id="a_node1"><a xlink:title="Function to add observers to the GUI&#39;s widgets.">
<polygon fill="#bfbfbf" stroke="black" points="0,-19.5 0,-38.5 92,-38.5 92,-19.5 0,-19.5"/>
<text text-anchor="middle" x="46" y="-26.5" font-family="Helvetica,sans-Serif" font-size="10.00">addGUIObservers</text>
</a>
</g>
</g>
<!-- Node2 -->
<g id="node2" class="node"><title>Node2</title>
<g id="a_node2"><a xlink:href="$class_slicer_p_r_i_s_m_1_1_p_r_i_s_m_1_1_p_r_i_s_m_widget.html#adfb7a3a22452b635bb615e4750c2bf29" xlink:title="Function to get the class name of a widget.">
<polygon fill="none" stroke="black" points="316,-19.5 316,-38.5 396,-38.5 396,-19.5 316,-19.5"/>
<text text-anchor="middle" x="356" y="-26.5" font-family="Helvetica,sans-Serif" font-size="10.00">getClassName</text>
</a>
</g>
</g>
<!-- Node1&#45;&gt;Node2 -->
<g id="edge1" class="edge"><title>Node1&#45;&gt;Node2</title>
<path fill="none" stroke="midnightblue" d="M92.1157,-29C149.019,-29 246.528,-29 305.451,-29"/>
<polygon fill="midnightblue" stroke="midnightblue" points="305.63,-32.5001 315.63,-29 305.63,-25.5001 305.63,-32.5001"/>
</g>
<!-- Node3 -->
<g id="node3" class="node"><title>Node3</title>
<g id="a_node3"><a xlink:href="$class_slicer_p_r_i_s_m_1_1_p_r_i_s_m_1_1_p_r_i_s_m_widget.html#a9c2580701ccfac91074c348bf51d8353" xlink:title="Function to update the parameter node from gui values.">
<polygon fill="none" stroke="black" points="128,-0.5 128,-19.5 280,-19.5 280,-0.5 128,-0.5"/>
<text text-anchor="middle" x="204" y="-7.5" font-family="Helvetica,sans-Serif" font-size="10.00">updateParameterNodeFromGUI</text>
</a>
</g>
</g>
<!-- Node1&#45;&gt;Node3 -->
<g id="edge2" class="edge"><title>Node1&#45;&gt;Node3</title>
<path fill="none" stroke="midnightblue" d="M92.1217,-23.5044C100.229,-22.517 108.916,-21.4589 117.728,-20.3857"/>
<polygon fill="midnightblue" stroke="midnightblue" points="118.203,-23.8539 127.706,-19.1704 117.356,-16.9052 118.203,-23.8539"/>
</g>
<!-- Node3&#45;&gt;Node2 -->
<g id="edge3" class="edge"><title>Node3&#45;&gt;Node2</title>
<path fill="none" stroke="midnightblue" d="M280.439,-19.5557C289.057,-20.6473 297.667,-21.7379 305.815,-22.7698"/>
<polygon fill="midnightblue" stroke="midnightblue" points="305.492,-26.2569 315.852,-24.0413 306.372,-19.3123 305.492,-26.2569"/>
</g>
</g>
</svg>
