<?xml version="1.0" encoding="UTF-8" standalone="no"?>
<!DOCTYPE svg PUBLIC "-//W3C//DTD SVG 1.1//EN"
 "http://www.w3.org/Graphics/SVG/1.1/DTD/svg11.dtd">
<!-- Generated by graphviz version 2.38.0 (20140413.2041)
 -->
<!-- Title: getEntry Pages: 1 -->
<svg width="217pt" height="116pt"
 viewBox="0.00 0.00 217.00 115.50" xmlns="http://www.w3.org/2000/svg" xmlns:xlink="http://www.w3.org/1999/xlink">
<g id="graph0" class="graph" transform="scale(1 1) rotate(0) translate(4 111.5)">
<title>getEntry</title>
<!-- Node1 -->
<g id="node1" class="node"><title>Node1</title>
<g id="a_node1"><a xlink:title="Get Entry point position.">
<polygon fill="#bfbfbf" stroke="black" points="156,-50 156,-69 209,-69 209,-50 156,-50"/>
<text text-anchor="middle" x="182.5" y="-57" font-family="Helvetica,sans-Serif" font-size="10.00">getEntry</text>
</a>
</g>
</g>
<!-- Node2 -->
<g id="node2" class="node"><title>Node2</title>
<g id="a_node2"><a xlink:href="class_slicer_p_r_i_s_m_1_1_p_r_i_s_m_logic_1_1_p_r_i_s_m_logic.html#a9d2c16412bacf4e807ce418176c0e550" target="_top" xlink:title="Callback function w hen a the left controller position has changed.">
<polygon fill="none" stroke="black" points="4,-88 4,-107 116,-107 116,-88 4,-88"/>
<text text-anchor="middle" x="60" y="-95" font-family="Helvetica,sans-Serif" font-size="10.00">onLeftControllerMoved</text>
</a>
</g>
</g>
<!-- Node1&#45;&gt;Node2 -->
<g id="edge1" class="edge"><title>Node1&#45;&gt;Node2</title>
<path fill="none" stroke="midnightblue" d="M146.125,-70.6555C128.689,-76.154 107.882,-82.7157 91.2031,-87.9754"/>
<polygon fill="midnightblue" stroke="midnightblue" points="147.461,-73.9044 155.945,-67.5588 145.355,-67.2285 147.461,-73.9044"/>
</g>
<!-- Node3 -->
<g id="node3" class="node"><title>Node3</title>
<g id="a_node3"><a xlink:href="class_slicer_p_r_i_s_m_1_1_p_r_i_s_m_logic_1_1_p_r_i_s_m_logic.html#a3634ff4fb8d67cfd0d14c6008deacc9b" target="_top" xlink:title="Callback function when a the right controller position has changed.">
<polygon fill="none" stroke="black" points="0.5,-50 0.5,-69 119.5,-69 119.5,-50 0.5,-50"/>
<text text-anchor="middle" x="60" y="-57" font-family="Helvetica,sans-Serif" font-size="10.00">onRightControllerMoved</text>
</a>
</g>
</g>
<!-- Node1&#45;&gt;Node3 -->
<g id="edge2" class="edge"><title>Node1&#45;&gt;Node3</title>
<path fill="none" stroke="midnightblue" d="M145.675,-59.5C137.497,-59.5 128.596,-59.5 119.739,-59.5"/>
<polygon fill="midnightblue" stroke="midnightblue" points="145.945,-63.0001 155.945,-59.5 145.945,-56.0001 145.945,-63.0001"/>
</g>
<!-- Node4 -->
<g id="node4" class="node"><title>Node4</title>
<g id="a_node4"><a xlink:href="class_slicer_p_r_i_s_m_1_1_p_r_i_s_m_logic_1_1_p_r_i_s_m_logic.html#af02aa10c3f36dbc9e4f6c6040fcb39b1" target="_top" xlink:title="Callback function on trigger pressed event.">
<polygon fill="none" stroke="black" points="0,-0.5 0,-30.5 120,-30.5 120,-0.5 0,-0.5"/>
<text text-anchor="start" x="8" y="-18.5" font-family="Helvetica,sans-Serif" font-size="10.00">onRightControllerTrigger</text>
<text text-anchor="middle" x="60" y="-7.5" font-family="Helvetica,sans-Serif" font-size="10.00">Pressed</text>
</a>
</g>
</g>
<!-- Node1&#45;&gt;Node4 -->
<g id="edge3" class="edge"><title>Node1&#45;&gt;Node4</title>
<path fill="none" stroke="midnightblue" d="M146.311,-46.6508C132.486,-41.6027 116.519,-35.7724 102.164,-30.5308"/>
<polygon fill="midnightblue" stroke="midnightblue" points="145.351,-50.0264 155.945,-50.1687 147.752,-43.451 145.351,-50.0264"/>
</g>
</g>
</svg>
