<?xml version="1.0" encoding="UTF-8" standalone="no"?>
<!DOCTYPE svg PUBLIC "-//W3C//DTD SVG 1.1//EN"
 "http://www.w3.org/Graphics/SVG/1.1/DTD/svg11.dtd">
<!-- Generated by graphviz version 2.38.0 (20140413.2041)
 -->
<!-- Title: getLeftControllerPosition Pages: 1 -->
<svg width="366pt" height="78pt"
 viewBox="0.00 0.00 366.00 77.50" xmlns="http://www.w3.org/2000/svg" xmlns:xlink="http://www.w3.org/1999/xlink">
<g id="graph0" class="graph" transform="scale(1 1) rotate(0) translate(4 73.5)">
<title>getLeftControllerPosition</title>
<!-- Node1 -->
<g id="node1" class="node"><title>Node1</title>
<g id="a_node1"><a xlink:title=" ">
<polygon fill="#bfbfbf" stroke="black" points="236,-22.5 236,-41.5 358,-41.5 358,-22.5 236,-22.5"/>
<text text-anchor="middle" x="297" y="-29.5" font-family="Helvetica,sans-Serif" font-size="10.00">getLeftControllerPosition</text>
</a>
</g>
</g>
<!-- Node2 -->
<g id="node2" class="node"><title>Node2</title>
<g id="a_node2"><a xlink:href="class_slicer_p_r_i_s_m_1_1_p_r_i_s_m_logic_1_1_p_r_i_s_m_logic.html#a9d2c16412bacf4e807ce418176c0e550" target="_top" xlink:title="Callback function w hen a the left controller position has changed.">
<polygon fill="none" stroke="black" points="0,-39 0,-69 200,-69 200,-39 0,-39"/>
<text text-anchor="start" x="8" y="-57" font-family="Helvetica,sans-Serif" font-size="10.00">SlicerPRISM.PRISMLogic.PRISMLogic.on</text>
<text text-anchor="middle" x="100" y="-46" font-family="Helvetica,sans-Serif" font-size="10.00">LeftControllerMoved</text>
</a>
</g>
</g>
<!-- Node1&#45;&gt;Node2 -->
<g id="edge1" class="edge"><title>Node1&#45;&gt;Node2</title>
<path fill="none" stroke="midnightblue" d="M225.821,-39.9177C217.42,-40.8654 208.726,-41.8463 200.015,-42.8291"/>
<polygon fill="midnightblue" stroke="midnightblue" points="226.358,-43.3794 235.902,-38.7802 225.573,-36.4235 226.358,-43.3794"/>
</g>
<!-- Node3 -->
<g id="node3" class="node"><title>Node3</title>
<g id="a_node3"><a xlink:href="class_slicer_p_r_i_s_m_1_1_resources_1_1_virtual_reality_helper_1_1_virtual_reality_helper.html#ab8ddfd67f45ae3e6555ebb1070b43357" target="_top" xlink:title=" ">
<polygon fill="none" stroke="black" points="47.5,-0.5 47.5,-19.5 152.5,-19.5 152.5,-0.5 47.5,-0.5"/>
<text text-anchor="middle" x="100" y="-7.5" font-family="Helvetica,sans-Serif" font-size="10.00">updateLaserPosition</text>
</a>
</g>
</g>
<!-- Node1&#45;&gt;Node3 -->
<g id="edge2" class="edge"><title>Node1&#45;&gt;Node3</title>
<path fill="none" stroke="midnightblue" d="M225.728,-24.0719C201.598,-21.3496 175.05,-18.3543 152.671,-15.8295"/>
<polygon fill="midnightblue" stroke="midnightblue" points="225.573,-27.5765 235.902,-25.2198 226.358,-20.6206 225.573,-27.5765"/>
</g>
</g>
</svg>
