<?xml version="1.0" encoding="UTF-8" standalone="no"?>
<!DOCTYPE svg PUBLIC "-//W3C//DTD SVG 1.1//EN"
 "http://www.w3.org/Graphics/SVG/1.1/DTD/svg11.dtd">
<!-- Generated by graphviz version 2.38.0 (20140413.2041)
 -->
<!-- Title: onMidSagittalPointsChanged Pages: 1 -->
<svg width="425pt" height="84pt"
 viewBox="0.00 0.00 425.00 84.00" xmlns="http://www.w3.org/2000/svg" xmlns:xlink="http://www.w3.org/1999/xlink">
<g id="graph0" class="graph" transform="scale(1 1) rotate(0) translate(4 80)">
<title>onMidSagittalPointsChanged</title>
<!-- Node1 -->
<g id="node1" class="node"><title>Node1</title>
<g id="a_node1"><a xlink:title=" ">
<polygon fill="#bfbfbf" stroke="black" points="275,-19.5 275,-38.5 417,-38.5 417,-19.5 275,-19.5"/>
<text text-anchor="middle" x="346" y="-26.5" font-family="Helvetica,sans-Serif" font-size="10.00">onMidSagittalPointsChanged</text>
</a>
</g>
</g>
<!-- Node1&#45;&gt;Node1 -->
<g id="edge4" class="edge"><title>Node1&#45;&gt;Node1</title>
<path fill="none" stroke="midnightblue" d="M380.108,-46.8913C379.608,-52.5406 368.239,-57 346,-57 313.652,-57 304.302,-47.5653 317.949,-38.7571"/>
<polygon fill="midnightblue" stroke="midnightblue" points="382.831,-44.6878 374.051,-38.7571 377.216,-48.8682 382.831,-44.6878"/>
</g>
<!-- Node2 -->
<g id="node2" class="node"><title>Node2</title>
<g id="a_node2"><a xlink:href="$class_p_r_i_s_m_1_1_p_r_i_s_m_widget.html#a4122013a40eb6518717520443b9ab010" xlink:title=" ">
<polygon fill="none" stroke="black" points="126,-38.5 126,-57.5 202,-57.5 202,-38.5 126,-38.5"/>
<text text-anchor="middle" x="164" y="-45.5" font-family="Helvetica,sans-Serif" font-size="10.00">addObservers</text>
</a>
</g>
</g>
<!-- Node1&#45;&gt;Node2 -->
<g id="edge1" class="edge"><title>Node1&#45;&gt;Node2</title>
<path fill="none" stroke="midnightblue" d="M264.927,-37.4522C243.075,-39.7587 220.434,-42.1486 202.24,-44.0691"/>
<polygon fill="midnightblue" stroke="midnightblue" points="265.315,-40.9308 274.892,-36.4003 264.58,-33.9695 265.315,-40.9308"/>
</g>
<!-- Node4 -->
<g id="node4" class="node"><title>Node4</title>
<g id="a_node4"><a xlink:href="$class_p_r_i_s_m_1_1_p_r_i_s_m_widget.html#a99157d870f447ea268c6f5b55a128d7d" xlink:title=" ">
<polygon fill="none" stroke="black" points="89,-0.5 89,-19.5 239,-19.5 239,-0.5 89,-0.5"/>
<text text-anchor="middle" x="164" y="-7.5" font-family="Helvetica,sans-Serif" font-size="10.00">onMidSagittalSelectorChanged</text>
</a>
</g>
</g>
<!-- Node1&#45;&gt;Node4 -->
<g id="edge5" class="edge"><title>Node1&#45;&gt;Node4</title>
<path fill="none" stroke="midnightblue" d="M264.887,-20.5436C256.3,-19.6372 247.592,-18.718 239.079,-17.8195"/>
<polygon fill="midnightblue" stroke="midnightblue" points="264.58,-24.0305 274.892,-21.5997 265.315,-17.0692 264.58,-24.0305"/>
</g>
<!-- Node2&#45;&gt;Node2 -->
<g id="edge2" class="edge"><title>Node2&#45;&gt;Node2</title>
<path fill="none" stroke="midnightblue" d="M189.298,-67.0292C187.918,-72.128 179.485,-76 164,-76 139.828,-76 132.841,-66.5653 143.038,-57.7571"/>
<polygon fill="midnightblue" stroke="midnightblue" points="192.368,-65.3329 184.962,-57.7571 186.027,-68.2982 192.368,-65.3329"/>
</g>
<!-- Node3 -->
<g id="node3" class="node"><title>Node3</title>
<g id="a_node3"><a xlink:href="$class_p_r_i_s_m_1_1_p_r_i_s_m_widget.html#a5354f5739815c9b04b2e8df68991a1b7" xlink:title=" ">
<polygon fill="none" stroke="black" points="0,-38.5 0,-57.5 53,-57.5 53,-38.5 0,-38.5"/>
<text text-anchor="middle" x="26.5" y="-45.5" font-family="Helvetica,sans-Serif" font-size="10.00">initState</text>
</a>
</g>
</g>
<!-- Node2&#45;&gt;Node3 -->
<g id="edge3" class="edge"><title>Node2&#45;&gt;Node3</title>
<path fill="none" stroke="midnightblue" d="M115.939,-48C94.9345,-48 70.9955,-48 53.3254,-48"/>
<polygon fill="midnightblue" stroke="midnightblue" points="115.974,-51.5001 125.974,-48 115.974,-44.5001 115.974,-51.5001"/>
</g>
</g>
</svg>
