<?xml version="1.0" encoding="UTF-8" standalone="no"?>
<!DOCTYPE svg PUBLIC "-//W3C//DTD SVG 1.1//EN"
 "http://www.w3.org/Graphics/SVG/1.1/DTD/svg11.dtd">
<!-- Generated by graphviz version 2.38.0 (20140413.2041)
 -->
<!-- Title: getLeftTransformNode Pages: 1 -->
<svg width="513pt" height="78pt"
 viewBox="0.00 0.00 513.00 77.50" xmlns="http://www.w3.org/2000/svg" xmlns:xlink="http://www.w3.org/1999/xlink">
<g id="graph0" class="graph" transform="scale(1 1) rotate(0) translate(4 73.5)">
<title>getLeftTransformNode</title>
<!-- Node1 -->
<g id="node1" class="node"><title>Node1</title>
<g id="a_node1"><a xlink:title=" ">
<polygon fill="#bfbfbf" stroke="black" points="394,-19.5 394,-38.5 505,-38.5 505,-19.5 394,-19.5"/>
<text text-anchor="middle" x="449.5" y="-26.5" font-family="Helvetica,sans-Serif" font-size="10.00">getLeftTransformNode</text>
</a>
</g>
</g>
<!-- Node2 -->
<g id="node2" class="node"><title>Node2</title>
<g id="a_node2"><a xlink:href="class_slicer_p_r_i_s_m_1_1_resources_1_1_virtual_reality_helper_1_1_virtual_reality_helper.html#a0540f1d575f42e8fa3d6013367056cad" target="_top" xlink:title=" ">
<polygon fill="none" stroke="black" points="236,-38.5 236,-57.5 358,-57.5 358,-38.5 236,-38.5"/>
<text text-anchor="middle" x="297" y="-45.5" font-family="Helvetica,sans-Serif" font-size="10.00">getLeftControllerPosition</text>
</a>
</g>
</g>
<!-- Node1&#45;&gt;Node2 -->
<g id="edge1" class="edge"><title>Node1&#45;&gt;Node2</title>
<path fill="none" stroke="midnightblue" d="M383.815,-37.1663C375.263,-38.2458 366.527,-39.3488 358.058,-40.418"/>
<polygon fill="midnightblue" stroke="midnightblue" points="384.257,-40.6382 393.74,-35.9132 383.381,-33.6933 384.257,-40.6382"/>
</g>
<!-- Node4 -->
<g id="node4" class="node"><title>Node4</title>
<g id="a_node4"><a xlink:href="class_slicer_p_r_i_s_m_1_1_resources_1_1_virtual_reality_helper_1_1_virtual_reality_helper.html#ab8ddfd67f45ae3e6555ebb1070b43357" target="_top" xlink:title=" ">
<polygon fill="none" stroke="black" points="47.5,-0.5 47.5,-19.5 152.5,-19.5 152.5,-0.5 47.5,-0.5"/>
<text text-anchor="middle" x="100" y="-7.5" font-family="Helvetica,sans-Serif" font-size="10.00">updateLaserPosition</text>
</a>
</g>
</g>
<!-- Node1&#45;&gt;Node4 -->
<g id="edge4" class="edge"><title>Node1&#45;&gt;Node4</title>
<path fill="none" stroke="midnightblue" d="M383.827,-25.4639C317.009,-21.8106 214.054,-16.1814 152.528,-12.8173"/>
<polygon fill="midnightblue" stroke="midnightblue" points="383.645,-28.9591 393.821,-26.0103 384.027,-21.9695 383.645,-28.9591"/>
</g>
<!-- Node3 -->
<g id="node3" class="node"><title>Node3</title>
<g id="a_node3"><a xlink:href="class_slicer_p_r_i_s_m_1_1_p_r_i_s_m_logic_1_1_p_r_i_s_m_logic.html#a9d2c16412bacf4e807ce418176c0e550" target="_top" xlink:title="Callback function w hen a the left controller position has changed.">
<polygon fill="none" stroke="black" points="0,-39 0,-69 200,-69 200,-39 0,-39"/>
<text text-anchor="start" x="8" y="-57" font-family="Helvetica,sans-Serif" font-size="10.00">SlicerPRISM.PRISMLogic.PRISMLogic.on</text>
<text text-anchor="middle" x="100" y="-46" font-family="Helvetica,sans-Serif" font-size="10.00">LeftControllerMoved</text>
</a>
</g>
</g>
<!-- Node2&#45;&gt;Node3 -->
<g id="edge2" class="edge"><title>Node2&#45;&gt;Node3</title>
<path fill="none" stroke="midnightblue" d="M225.821,-50.1594C217.42,-50.4178 208.726,-50.6854 200.015,-50.9534"/>
<polygon fill="midnightblue" stroke="midnightblue" points="226.015,-53.6551 235.902,-49.8492 225.799,-46.6585 226.015,-53.6551"/>
</g>
<!-- Node2&#45;&gt;Node4 -->
<g id="edge3" class="edge"><title>Node2&#45;&gt;Node4</title>
<path fill="none" stroke="midnightblue" d="M238.226,-36.5094C225.629,-34.0198 212.369,-31.4109 200,-29 184.025,-25.8861 166.591,-22.5272 150.867,-19.5122"/>
<polygon fill="midnightblue" stroke="midnightblue" points="237.667,-39.9667 248.157,-38.4745 239.026,-33.0998 237.667,-39.9667"/>
</g>
</g>
</svg>
