<?xml version="1.0" encoding="UTF-8" standalone="no"?>
<!DOCTYPE svg PUBLIC "-//W3C//DTD SVG 1.1//EN"
 "http://www.w3.org/Graphics/SVG/1.1/DTD/svg11.dtd">
<!-- Generated by graphviz version 2.38.0 (20140413.2041)
 -->
<!-- Title: updateGUIFromParameterNode Pages: 1 -->
<svg width="607pt" height="97pt"
 viewBox="0.00 0.00 607.00 97.21" xmlns="http://www.w3.org/2000/svg" xmlns:xlink="http://www.w3.org/1999/xlink">
<g id="graph0" class="graph" transform="scale(1 1) rotate(0) translate(4 93.2057)">
<title>updateGUIFromParameterNode</title>
<!-- Node1 -->
<g id="node1" class="node"><title>Node1</title>
<g id="a_node1"><a xlink:title="Function to update GUI from parameter node values.">
<polygon fill="#bfbfbf" stroke="black" points="0,-14.6002 0,-33.6002 152,-33.6002 152,-14.6002 0,-14.6002"/>
<text text-anchor="middle" x="76" y="-21.6002" font-family="Helvetica,sans-Serif" font-size="10.00">updateGUIFromParameterNode</text>
</a>
</g>
</g>
<!-- Node2 -->
<g id="node2" class="node"><title>Node2</title>
<g id="a_node2"><a xlink:href="class_slicer_p_r_i_s_m_1_1_p_r_i_s_m_1_1_p_r_i_s_m_widget.html#a69a2d837a10281b583a4e5f9044db193" target="_top" xlink:title="Function to add observers to the GUI&#39;s widgets.">
<polygon fill="none" stroke="black" points="195.5,-52.6002 195.5,-71.6002 287.5,-71.6002 287.5,-52.6002 195.5,-52.6002"/>
<text text-anchor="middle" x="241.5" y="-59.6002" font-family="Helvetica,sans-Serif" font-size="10.00">addGUIObservers</text>
</a>
</g>
</g>
<!-- Node1&#45;&gt;Node2 -->
<g id="edge1" class="edge"><title>Node1&#45;&gt;Node2</title>
<path fill="none" stroke="midnightblue" d="M118.258,-33.6892C139.931,-38.7263 166.683,-44.944 189.63,-50.2773"/>
<polygon fill="midnightblue" stroke="midnightblue" points="189.006,-53.7254 199.539,-52.5802 190.591,-46.9071 189.006,-53.7254"/>
</g>
<!-- Node3 -->
<g id="node3" class="node"><title>Node3</title>
<g id="a_node3"><a xlink:href="class_slicer_p_r_i_s_m_1_1_p_r_i_s_m_1_1_p_r_i_s_m_widget.html#adfb7a3a22452b635bb615e4750c2bf29" target="_top" xlink:title="Function to get the class name of a widget.">
<polygon fill="none" stroke="black" points="519,-33.6002 519,-52.6002 599,-52.6002 599,-33.6002 519,-33.6002"/>
<text text-anchor="middle" x="559" y="-40.6002" font-family="Helvetica,sans-Serif" font-size="10.00">getClassName</text>
</a>
</g>
</g>
<!-- Node1&#45;&gt;Node3 -->
<g id="edge5" class="edge"><title>Node1&#45;&gt;Node3</title>
<path fill="none" stroke="midnightblue" d="M122.141,-14.588C142.208,-10.8225 166.181,-6.95409 188,-5.10021 318.94,6.02548 353.499,-2.76858 483,-25.1002 492.598,-26.7553 502.796,-28.9229 512.479,-31.1783"/>
<polygon fill="midnightblue" stroke="midnightblue" points="511.795,-34.6135 522.336,-33.5425 513.428,-27.8066 511.795,-34.6135"/>
</g>
<!-- Node5 -->
<g id="node5" class="node"><title>Node5</title>
<g id="a_node5"><a xlink:href="class_slicer_p_r_i_s_m_1_1_p_r_i_s_m_1_1_p_r_i_s_m_widget.html#a16e1c85444e27fae67a4b0973d36fe67" target="_top" xlink:title="Function to remove observers from the GUI&#39;s widgets.">
<polygon fill="none" stroke="black" points="188,-14.6002 188,-33.6002 295,-33.6002 295,-14.6002 188,-14.6002"/>
<text text-anchor="middle" x="241.5" y="-21.6002" font-family="Helvetica,sans-Serif" font-size="10.00">removeGUIObservers</text>
</a>
</g>
</g>
<!-- Node1&#45;&gt;Node5 -->
<g id="edge6" class="edge"><title>Node1&#45;&gt;Node5</title>
<path fill="none" stroke="midnightblue" d="M152.051,-24.1002C160.645,-24.1002 169.338,-24.1002 177.748,-24.1002"/>
<polygon fill="midnightblue" stroke="midnightblue" points="177.839,-27.6003 187.839,-24.1002 177.839,-20.6003 177.839,-27.6003"/>
</g>
<!-- Node2&#45;&gt;Node3 -->
<g id="edge2" class="edge"><title>Node2&#45;&gt;Node3</title>
<path fill="none" stroke="midnightblue" d="M277.678,-71.621C325.008,-82.9114 411.506,-98.1786 483,-81.1002 501.75,-76.6212 521.116,-66.6498 535.471,-58.0452"/>
<polygon fill="midnightblue" stroke="midnightblue" points="537.483,-60.9152 544.124,-52.6596 533.785,-54.9722 537.483,-60.9152"/>
</g>
<!-- Node4 -->
<g id="node4" class="node"><title>Node4</title>
<g id="a_node4"><a xlink:href="class_slicer_p_r_i_s_m_1_1_p_r_i_s_m_1_1_p_r_i_s_m_widget.html#a9c2580701ccfac91074c348bf51d8353" target="_top" xlink:title="Function to update the parameter node from gui values.">
<polygon fill="none" stroke="black" points="331,-52.6002 331,-71.6002 483,-71.6002 483,-52.6002 331,-52.6002"/>
<text text-anchor="middle" x="407" y="-59.6002" font-family="Helvetica,sans-Serif" font-size="10.00">updateParameterNodeFromGUI</text>
</a>
</g>
</g>
<!-- Node2&#45;&gt;Node4 -->
<g id="edge3" class="edge"><title>Node2&#45;&gt;Node4</title>
<path fill="none" stroke="midnightblue" d="M287.61,-62.1002C297.991,-62.1002 309.366,-62.1002 320.831,-62.1002"/>
<polygon fill="midnightblue" stroke="midnightblue" points="320.906,-65.6003 330.906,-62.1002 320.906,-58.6003 320.906,-65.6003"/>
</g>
<!-- Node4&#45;&gt;Node3 -->
<g id="edge4" class="edge"><title>Node4&#45;&gt;Node3</title>
<path fill="none" stroke="midnightblue" d="M483.439,-52.5446C492.057,-51.453 500.667,-50.3624 508.815,-49.3304"/>
<polygon fill="midnightblue" stroke="midnightblue" points="509.372,-52.7879 518.852,-48.0589 508.492,-45.8434 509.372,-52.7879"/>
</g>
<!-- Node5&#45;&gt;Node3 -->
<g id="edge7" class="edge"><title>Node5&#45;&gt;Node3</title>
<path fill="none" stroke="midnightblue" d="M295.308,-27.2804C354.882,-30.8681 451.001,-36.6565 508.974,-40.1478"/>
<polygon fill="midnightblue" stroke="midnightblue" points="508.795,-43.6432 518.987,-40.7508 509.216,-36.6559 508.795,-43.6432"/>
</g>
<!-- Node5&#45;&gt;Node4 -->
<g id="edge8" class="edge"><title>Node5&#45;&gt;Node4</title>
<path fill="none" stroke="midnightblue" d="M283.758,-33.6892C305.431,-38.7263 332.183,-44.944 355.13,-50.2773"/>
<polygon fill="midnightblue" stroke="midnightblue" points="354.506,-53.7254 365.039,-52.5802 356.091,-46.9071 354.506,-53.7254"/>
</g>
</g>
</svg>
