<?xml version="1.0" encoding="UTF-8" standalone="no"?>
<!DOCTYPE svg PUBLIC "-//W3C//DTD SVG 1.1//EN"
 "http://www.w3.org/Graphics/SVG/1.1/DTD/svg11.dtd">
<!-- Generated by graphviz version 2.38.0 (20140413.2041)
 -->
<!-- Title: addParamButtonClicked Pages: 1 -->
<svg width="334pt" height="66pt"
 viewBox="0.00 0.00 334.00 66.00" xmlns="http://www.w3.org/2000/svg" xmlns:xlink="http://www.w3.org/1999/xlink">
<g id="graph0" class="graph" transform="scale(1 1) rotate(0) translate(4 62)">
<title>addParamButtonClicked</title>
<!-- Node1 -->
<g id="node1" class="node"><title>Node1</title>
<g id="a_node1"><a xlink:title="Function to get the current parameters and add them into a dictionnary.">
<polygon fill="#bfbfbf" stroke="black" points="0,-19.5 0,-38.5 122,-38.5 122,-19.5 0,-19.5"/>
<text text-anchor="middle" x="61" y="-26.5" font-family="Helvetica,sans-Serif" font-size="10.00">addParamButtonClicked</text>
</a>
</g>
</g>
<!-- Node2 -->
<g id="node2" class="node"><title>Node2</title>
<g id="a_node2"><a xlink:href="$class_slicer_p_r_i_s_m_1_1_p_r_i_s_m_1_1_p_r_i_s_m_widget.html#a220c420339b770100d81a3015e0ac60f" xlink:title="Function to modify the specified dictionnary in the specified shader.">
<polygon fill="none" stroke="black" points="161,-38.5 161,-57.5 223,-57.5 223,-38.5 161,-38.5"/>
<text text-anchor="middle" x="192" y="-45.5" font-family="Helvetica,sans-Serif" font-size="10.00">modifyDict</text>
</a>
</g>
</g>
<!-- Node1&#45;&gt;Node2 -->
<g id="edge1" class="edge"><title>Node1&#45;&gt;Node2</title>
<path fill="none" stroke="midnightblue" d="M122.345,-37.8881C131.96,-39.3042 141.698,-40.7385 150.701,-42.0645"/>
<polygon fill="midnightblue" stroke="midnightblue" points="150.477,-45.5691 160.88,-43.5637 151.497,-38.6438 150.477,-45.5691"/>
</g>
<!-- Node3 -->
<g id="node3" class="node"><title>Node3</title>
<g id="a_node3"><a xlink:href="$class_slicer_p_r_i_s_m_1_1_p_r_i_s_m_1_1_p_r_i_s_m_widget.html#a4d4c0f2a4bf9afc519d14631ee71e1f0" xlink:title="Function to reset a specific layout.">
<polygon fill="none" stroke="black" points="158,-0.5 158,-19.5 226,-19.5 226,-0.5 158,-0.5"/>
<text text-anchor="middle" x="192" y="-7.5" font-family="Helvetica,sans-Serif" font-size="10.00">resetLayout</text>
</a>
</g>
</g>
<!-- Node1&#45;&gt;Node3 -->
<g id="edge2" class="edge"><title>Node1&#45;&gt;Node3</title>
<path fill="none" stroke="midnightblue" d="M122.345,-20.1119C130.921,-18.8488 139.595,-17.5712 147.758,-16.369"/>
<polygon fill="midnightblue" stroke="midnightblue" points="148.395,-19.813 157.778,-14.8932 147.375,-12.8878 148.395,-19.813"/>
</g>
<!-- Node4 -->
<g id="node4" class="node"><title>Node4</title>
<g id="a_node4"><a xlink:href="$class_slicer_p_r_i_s_m_1_1_p_r_i_s_m_1_1_p_r_i_s_m_widget.html#a09c30f6796c372b242ca908731f4aa1c" xlink:title="Function to clear the widgets of a specific layout.">
<polygon fill="none" stroke="black" points="262,-0.5 262,-19.5 326,-19.5 326,-0.5 262,-0.5"/>
<text text-anchor="middle" x="294" y="-7.5" font-family="Helvetica,sans-Serif" font-size="10.00">hideLayout</text>
</a>
</g>
</g>
<!-- Node3&#45;&gt;Node4 -->
<g id="edge3" class="edge"><title>Node3&#45;&gt;Node4</title>
<path fill="none" stroke="midnightblue" d="M226.021,-10C234.191,-10 243.047,-10 251.562,-10"/>
<polygon fill="midnightblue" stroke="midnightblue" points="251.71,-13.5001 261.71,-10 251.71,-6.5001 251.71,-13.5001"/>
</g>
</g>
</svg>
