<?xml version="1.0" encoding="UTF-8" standalone="no"?>
<!DOCTYPE svg PUBLIC "-//W3C//DTD SVG 1.1//EN"
 "http://www.w3.org/Graphics/SVG/1.1/DTD/svg11.dtd">
<!-- Generated by graphviz version 2.38.0 (20140413.2041)
 -->
<!-- Title: onMouseReleased Pages: 1 -->
<svg width="206pt" height="46pt"
 viewBox="0.00 0.00 206.00 46.00" xmlns="http://www.w3.org/2000/svg" xmlns:xlink="http://www.w3.org/1999/xlink">
<g id="graph0" class="graph" transform="scale(1 1) rotate(0) translate(4 42)">
<title>onMouseReleased</title>
<!-- Node1 -->
<g id="node1" class="node"><title>Node1</title>
<g id="a_node1"><a xlink:title=" ">
<polygon fill="#bfbfbf" stroke="black" points="0,-0.5 0,-19.5 97,-19.5 97,-0.5 0,-0.5"/>
<text text-anchor="middle" x="48.5" y="-7.5" font-family="Helvetica,sans-Serif" font-size="10.00">onMouseReleased</text>
</a>
</g>
</g>
<!-- Node1&#45;&gt;Node1 -->
<g id="edge2" class="edge"><title>Node1&#45;&gt;Node1</title>
<path fill="none" stroke="midnightblue" d="M30.621,-19.7571C21.9232,-28.5653 27.8828,-38 48.5,-38 61.3857,-38 68.5459,-34.3146 69.9804,-29.4"/>
<polygon fill="midnightblue" stroke="midnightblue" points="73.1566,-27.9004 66.379,-19.7571 66.599,-30.3496 73.1566,-27.9004"/>
</g>
<!-- Node2 -->
<g id="node2" class="node"><title>Node2</title>
<g id="a_node2"><a xlink:href="$class_p_r_i_s_m_1_1_p_r_i_s_m_widget.html#a5d8e1b70982f6361d32d8e18972b3b65" xlink:title=" ">
<polygon fill="none" stroke="black" points="133,-0.5 133,-19.5 198,-19.5 198,-0.5 133,-0.5"/>
<text text-anchor="middle" x="165.5" y="-7.5" font-family="Helvetica,sans-Serif" font-size="10.00">onLeftClick</text>
</a>
</g>
</g>
<!-- Node1&#45;&gt;Node2 -->
<g id="edge1" class="edge"><title>Node1&#45;&gt;Node2</title>
<path fill="none" stroke="midnightblue" d="M97.2713,-10C105.689,-10 114.393,-10 122.634,-10"/>
<polygon fill="midnightblue" stroke="midnightblue" points="122.768,-13.5001 132.768,-10 122.768,-6.5001 122.768,-13.5001"/>
</g>
</g>
</svg>
