<?xml version="1.0" encoding="UTF-8" standalone="no"?>
<!DOCTYPE svg PUBLIC "-//W3C//DTD SVG 1.1//EN"
 "http://www.w3.org/Graphics/SVG/1.1/DTD/svg11.dtd">
<!-- Generated by graphviz version 2.38.0 (20140413.2041)
 -->
<!-- Title: CylinderIntersectionShader Pages: 1 -->
<svg width="266pt" height="662pt"
 viewBox="0.00 0.00 266.00 662.00" xmlns="http://www.w3.org/2000/svg" xmlns:xlink="http://www.w3.org/1999/xlink">
<g id="graph0" class="graph" transform="scale(1 1) rotate(0) translate(4 658)">
<title>CylinderIntersectionShader</title>
<!-- Node1 -->
<g id="node1" class="node"><title>Node1</title>
<g id="a_node1"><a xlink:title=" ">
<polygon fill="#bfbfbf" stroke="black" points="0,-0.5 0,-145.5 133,-145.5 133,-0.5 0,-0.5"/>
<text text-anchor="middle" x="66.5" y="-133.5" font-family="Helvetica,sans-Serif" font-size="10.00">CylinderIntersectionShader</text>
<polyline fill="none" stroke="black" points="0,-126.5 133,-126.5 "/>
<text text-anchor="start" x="8" y="-114.5" font-family="Helvetica,sans-Serif" font-size="10.00">+ entry</text>
<text text-anchor="start" x="8" y="-103.5" font-family="Helvetica,sans-Serif" font-size="10.00">+ target</text>
<polyline fill="none" stroke="black" points="0,-96.5 133,-96.5 "/>
<text text-anchor="start" x="8" y="-84.5" font-family="Helvetica,sans-Serif" font-size="10.00">+ __init__()</text>
<text text-anchor="start" x="8" y="-73.5" font-family="Helvetica,sans-Serif" font-size="10.00">+ GetDisplayName()</text>
<text text-anchor="start" x="8" y="-62.5" font-family="Helvetica,sans-Serif" font-size="10.00">+ setupShader()</text>
<text text-anchor="start" x="8" y="-51.5" font-family="Helvetica,sans-Serif" font-size="10.00">+ setPathEnds()</text>
<text text-anchor="start" x="8" y="-40.5" font-family="Helvetica,sans-Serif" font-size="10.00">+ __init__()</text>
<text text-anchor="start" x="8" y="-29.5" font-family="Helvetica,sans-Serif" font-size="10.00">+ GetDisplayName()</text>
<text text-anchor="start" x="8" y="-18.5" font-family="Helvetica,sans-Serif" font-size="10.00">+ setupShader()</text>
<text text-anchor="start" x="8" y="-7.5" font-family="Helvetica,sans-Serif" font-size="10.00">+ setPathEnds()</text>
</a>
</g>
</g>
<!-- Node2 -->
<g id="node2" class="node"><title>Node2</title>
<g id="a_node2"><a xlink:href="$class_custom_shader_1_1_custom_shader.html" xlink:title=" ">
<polygon fill="none" stroke="black" points="113,-183.5 113,-548.5 258,-548.5 258,-183.5 113,-183.5"/>
<text text-anchor="middle" x="185.5" y="-536.5" font-family="Helvetica,sans-Serif" font-size="10.00">CustomShader</text>
<polyline fill="none" stroke="black" points="113,-529.5 258,-529.5 "/>
<text text-anchor="start" x="121" y="-517.5" font-family="Helvetica,sans-Serif" font-size="10.00">+ shaderPropertyNode</text>
<text text-anchor="start" x="121" y="-506.5" font-family="Helvetica,sans-Serif" font-size="10.00">+ shaderProperty</text>
<text text-anchor="start" x="121" y="-495.5" font-family="Helvetica,sans-Serif" font-size="10.00">+ shaderUniforms</text>
<text text-anchor="start" x="121" y="-484.5" font-family="Helvetica,sans-Serif" font-size="10.00">+ paramfValues</text>
<polyline fill="none" stroke="black" points="113,-477.5 258,-477.5 "/>
<text text-anchor="start" x="121" y="-465.5" font-family="Helvetica,sans-Serif" font-size="10.00">+ InstanciateCustomShader()</text>
<text text-anchor="start" x="121" y="-454.5" font-family="Helvetica,sans-Serif" font-size="10.00">+ GetAllShaderClassNames()</text>
<text text-anchor="start" x="121" y="-443.5" font-family="Helvetica,sans-Serif" font-size="10.00">+ GetDisplayName()</text>
<text text-anchor="start" x="121" y="-432.5" font-family="Helvetica,sans-Serif" font-size="10.00">+ hasShaderfParameter()</text>
<text text-anchor="start" x="121" y="-421.5" font-family="Helvetica,sans-Serif" font-size="10.00">+ __init__()</text>
<text text-anchor="start" x="121" y="-410.5" font-family="Helvetica,sans-Serif" font-size="10.00">+ getParameterNames()</text>
<text text-anchor="start" x="121" y="-399.5" font-family="Helvetica,sans-Serif" font-size="10.00">+ getShaderPropertyNode()</text>
<text text-anchor="start" x="121" y="-388.5" font-family="Helvetica,sans-Serif" font-size="10.00">+ setupShader()</text>
<text text-anchor="start" x="121" y="-377.5" font-family="Helvetica,sans-Serif" font-size="10.00">+ setPathEnds()</text>
<text text-anchor="start" x="121" y="-366.5" font-family="Helvetica,sans-Serif" font-size="10.00">+ setAllUniforms()</text>
<text text-anchor="start" x="121" y="-355.5" font-family="Helvetica,sans-Serif" font-size="10.00">+ setShaderParameter()</text>
<text text-anchor="start" x="121" y="-344.5" font-family="Helvetica,sans-Serif" font-size="10.00">+ getShaderParameter()</text>
<text text-anchor="start" x="121" y="-333.5" font-family="Helvetica,sans-Serif" font-size="10.00">+ clear()</text>
<text text-anchor="start" x="121" y="-322.5" font-family="Helvetica,sans-Serif" font-size="10.00">+ InstanciateCustomShader()</text>
<text text-anchor="start" x="121" y="-311.5" font-family="Helvetica,sans-Serif" font-size="10.00">+ GetAllShaderClassNames()</text>
<text text-anchor="start" x="121" y="-300.5" font-family="Helvetica,sans-Serif" font-size="10.00">+ GetDisplayName()</text>
<text text-anchor="start" x="121" y="-289.5" font-family="Helvetica,sans-Serif" font-size="10.00">+ hasShaderfParameter()</text>
<text text-anchor="start" x="121" y="-278.5" font-family="Helvetica,sans-Serif" font-size="10.00">+ __init__()</text>
<text text-anchor="start" x="121" y="-267.5" font-family="Helvetica,sans-Serif" font-size="10.00">+ getParameterNames()</text>
<text text-anchor="start" x="121" y="-256.5" font-family="Helvetica,sans-Serif" font-size="10.00">+ getShaderPropertyNode()</text>
<text text-anchor="start" x="121" y="-245.5" font-family="Helvetica,sans-Serif" font-size="10.00">+ setupShader()</text>
<text text-anchor="start" x="121" y="-234.5" font-family="Helvetica,sans-Serif" font-size="10.00">+ setPathEnds()</text>
<text text-anchor="start" x="121" y="-223.5" font-family="Helvetica,sans-Serif" font-size="10.00">+ setAllUniforms()</text>
<text text-anchor="start" x="121" y="-212.5" font-family="Helvetica,sans-Serif" font-size="10.00">+ setShaderParameter()</text>
<text text-anchor="start" x="121" y="-201.5" font-family="Helvetica,sans-Serif" font-size="10.00">+ getShaderParameter()</text>
<text text-anchor="start" x="121" y="-190.5" font-family="Helvetica,sans-Serif" font-size="10.00">+ clear()</text>
</a>
</g>
</g>
<!-- Node2&#45;&gt;Node1 -->
<g id="edge1" class="edge"><title>Node2&#45;&gt;Node1</title>
<path fill="none" stroke="midnightblue" d="M108.972,-177.861C104.395,-166.668 99.9647,-155.834 95.8024,-145.655"/>
<polygon fill="none" stroke="midnightblue" points="105.825,-179.41 112.849,-187.341 112.304,-176.761 105.825,-179.41"/>
</g>
<!-- Node3 -->
<g id="node3" class="node"><title>Node3</title>
<g id="a_node3"><a xlink:title=" ">
<polygon fill="none" stroke="#bfbfbf" points="39,-596.5 39,-653.5 98,-653.5 98,-596.5 39,-596.5"/>
<text text-anchor="middle" x="68.5" y="-641.5" font-family="Helvetica,sans-Serif" font-size="10.00">dictionary</text>
<polyline fill="none" stroke="#bfbfbf" points="39,-634.5 98,-634.5 "/>
<text text-anchor="middle" x="68.5" y="-622.5" font-family="Helvetica,sans-Serif" font-size="10.00"> </text>
<polyline fill="none" stroke="#bfbfbf" points="39,-615.5 98,-615.5 "/>
<text text-anchor="middle" x="68.5" y="-603.5" font-family="Helvetica,sans-Serif" font-size="10.00"> </text>
</a>
</g>
</g>
<!-- Node3&#45;&gt;Node1 -->
<g id="edge3" class="edge"><title>Node3&#45;&gt;Node1</title>
<path fill="none" stroke="#404040" d="M50.0989,-596.43C42.0742,-582.779 33.5776,-565.68 29.5,-549 -9.12832,-390.986 3.00268,-343.494 29.5,-183 30.8988,-174.528 32.8703,-165.829 35.1831,-157.218"/>
<polygon fill="none" stroke="#404040" points="35.2183,-157.095 33.0273,-150.225 38.5264,-145.56 40.7173,-152.43 35.2183,-157.095"/>
<text text-anchor="middle" x="67" y="-363.5" font-family="Helvetica,sans-Serif" font-size="10.00"> +shaderfParams</text>
</g>
<!-- Node3&#45;&gt;Node2 -->
<g id="edge2" class="edge"><title>Node3&#45;&gt;Node2</title>
<path fill="none" stroke="#404040" d="M81.021,-596.496C88.0949,-580.958 97.5918,-560.097 107.987,-537.263"/>
<polygon fill="none" stroke="#404040" points="108.016,-537.2 106.862,-530.081 112.988,-526.278 114.143,-533.396 108.016,-537.2"/>
<text text-anchor="middle" x="131" y="-570" font-family="Helvetica,sans-Serif" font-size="10.00"> +shaderfParams</text>
</g>
</g>
</svg>
