<?xml version="1.0" encoding="UTF-8" standalone="no"?>
<!DOCTYPE svg PUBLIC "-//W3C//DTD SVG 1.1//EN"
 "http://www.w3.org/Graphics/SVG/1.1/DTD/svg11.dtd">
<!-- Generated by graphviz version 2.38.0 (20140413.2041)
 -->
<!-- Title: removeGUIObservers Pages: 1 -->
<svg width="419pt" height="47pt"
 viewBox="0.00 0.00 419.00 47.00" xmlns="http://www.w3.org/2000/svg" xmlns:xlink="http://www.w3.org/1999/xlink">
<g id="graph0" class="graph" transform="scale(1 1) rotate(0) translate(4 43)">
<title>removeGUIObservers</title>
<!-- Node1 -->
<g id="node1" class="node"><title>Node1</title>
<g id="a_node1"><a xlink:title="Function to remove observers from the GUI&#39;s widgets.">
<polygon fill="#bfbfbf" stroke="black" points="0,-19.5 0,-38.5 107,-38.5 107,-19.5 0,-19.5"/>
<text text-anchor="middle" x="53.5" y="-26.5" font-family="Helvetica,sans-Serif" font-size="10.00">removeGUIObservers</text>
</a>
</g>
</g>
<!-- Node2 -->
<g id="node2" class="node"><title>Node2</title>
<g id="a_node2"><a xlink:href="$class_slicer_p_r_i_s_m_1_1_p_r_i_s_m_1_1_p_r_i_s_m_widget.html#adfb7a3a22452b635bb615e4750c2bf29" xlink:title="Function to get the class name of a widget.">
<polygon fill="none" stroke="black" points="331,-19.5 331,-38.5 411,-38.5 411,-19.5 331,-19.5"/>
<text text-anchor="middle" x="371" y="-26.5" font-family="Helvetica,sans-Serif" font-size="10.00">getClassName</text>
</a>
</g>
</g>
<!-- Node1&#45;&gt;Node2 -->
<g id="edge1" class="edge"><title>Node1&#45;&gt;Node2</title>
<path fill="none" stroke="midnightblue" d="M107.308,-29C166.882,-29 263.001,-29 320.974,-29"/>
<polygon fill="midnightblue" stroke="midnightblue" points="320.987,-32.5001 330.987,-29 320.987,-25.5001 320.987,-32.5001"/>
</g>
<!-- Node3 -->
<g id="node3" class="node"><title>Node3</title>
<g id="a_node3"><a xlink:href="$class_slicer_p_r_i_s_m_1_1_p_r_i_s_m_1_1_p_r_i_s_m_widget.html#a9c2580701ccfac91074c348bf51d8353" xlink:title="Function to update the parameter node from gui values.">
<polygon fill="none" stroke="black" points="143,-0.5 143,-19.5 295,-19.5 295,-0.5 143,-0.5"/>
<text text-anchor="middle" x="219" y="-7.5" font-family="Helvetica,sans-Serif" font-size="10.00">updateParameterNodeFromGUI</text>
</a>
</g>
</g>
<!-- Node1&#45;&gt;Node3 -->
<g id="edge2" class="edge"><title>Node1&#45;&gt;Node3</title>
<path fill="none" stroke="midnightblue" d="M107.132,-22.8837C115.318,-21.9324 123.952,-20.9291 132.64,-19.9195"/>
<polygon fill="midnightblue" stroke="midnightblue" points="133.312,-23.3651 142.841,-18.7341 132.504,-16.4118 133.312,-23.3651"/>
</g>
<!-- Node3&#45;&gt;Node2 -->
<g id="edge3" class="edge"><title>Node3&#45;&gt;Node2</title>
<path fill="none" stroke="midnightblue" d="M295.439,-19.5557C304.057,-20.6473 312.667,-21.7379 320.815,-22.7698"/>
<polygon fill="midnightblue" stroke="midnightblue" points="320.492,-26.2569 330.852,-24.0413 321.372,-19.3123 320.492,-26.2569"/>
</g>
</g>
</svg>
