<?xml version="1.0" encoding="UTF-8" standalone="no"?>
<!DOCTYPE svg PUBLIC "-//W3C//DTD SVG 1.1//EN"
 "http://www.w3.org/Graphics/SVG/1.1/DTD/svg11.dtd">
<!-- Generated by graphviz version 2.38.0 (20140413.2041)
 -->
<!-- Title: onShaderOpenFileButtonClicked Pages: 1 -->
<svg width="349pt" height="28pt"
 viewBox="0.00 0.00 349.00 28.00" xmlns="http://www.w3.org/2000/svg" xmlns:xlink="http://www.w3.org/1999/xlink">
<g id="graph0" class="graph" transform="scale(1 1) rotate(0) translate(4 24)">
<title>onShaderOpenFileButtonClicked</title>
<!-- Node1 -->
<g id="node1" class="node"><title>Node1</title>
<g id="a_node1"><a xlink:title="Function to open a file containing the new shader replacement.">
<polygon fill="#bfbfbf" stroke="black" points="0,-0.5 0,-19.5 158,-19.5 158,-0.5 0,-0.5"/>
<text text-anchor="middle" x="79" y="-7.5" font-family="Helvetica,sans-Serif" font-size="10.00">onShaderOpenFileButtonClicked</text>
</a>
</g>
</g>
<!-- Node2 -->
<g id="node2" class="node"><title>Node2</title>
<g id="a_node2"><a xlink:href="class_slicer_p_r_i_s_m_1_1_p_r_i_s_m_1_1_p_r_i_s_m_widget.html#a1ba3668a0c21b14d86ad81f50450d03b" target="_top" xlink:title="Function to get a selected shader file path.">
<polygon fill="none" stroke="black" points="194,-0.5 194,-19.5 244,-19.5 244,-0.5 194,-0.5"/>
<text text-anchor="middle" x="219" y="-7.5" font-family="Helvetica,sans-Serif" font-size="10.00">getPath</text>
</a>
</g>
</g>
<!-- Node1&#45;&gt;Node2 -->
<g id="edge1" class="edge"><title>Node1&#45;&gt;Node2</title>
<path fill="none" stroke="midnightblue" d="M158.274,-10C167.14,-10 175.799,-10 183.649,-10"/>
<polygon fill="midnightblue" stroke="midnightblue" points="183.797,-13.5001 193.797,-10 183.797,-6.5001 183.797,-13.5001"/>
</g>
<!-- Node3 -->
<g id="node3" class="node"><title>Node3</title>
<g id="a_node3"><a xlink:href="class_slicer_p_r_i_s_m_1_1_p_r_i_s_m_1_1_p_r_i_s_m_widget.html#af7406c9a5d8910debb54a749fa9462e9" target="_top" xlink:title="Function to get the module&#39;s path.">
<polygon fill="none" stroke="black" points="280,-0.5 280,-19.5 341,-19.5 341,-0.5 280,-0.5"/>
<text text-anchor="middle" x="310.5" y="-7.5" font-family="Helvetica,sans-Serif" font-size="10.00">prismPath</text>
</a>
</g>
</g>
<!-- Node2&#45;&gt;Node3 -->
<g id="edge2" class="edge"><title>Node2&#45;&gt;Node3</title>
<path fill="none" stroke="midnightblue" d="M244.456,-10C252.257,-10 261.101,-10 269.699,-10"/>
<polygon fill="midnightblue" stroke="midnightblue" points="269.977,-13.5001 279.977,-10 269.977,-6.5001 269.977,-13.5001"/>
</g>
</g>
</svg>
