<?xml version="1.0" encoding="UTF-8" standalone="no"?>
<!DOCTYPE svg PUBLIC "-//W3C//DTD SVG 1.1//EN"
 "http://www.w3.org/Graphics/SVG/1.1/DTD/svg11.dtd">
<!-- Generated by graphviz version 2.38.0 (20140413.2041)
 -->
<!-- Title: onACPCPointsChanged Pages: 1 -->
<svg width="399pt" height="84pt"
 viewBox="0.00 0.00 399.00 84.00" xmlns="http://www.w3.org/2000/svg" xmlns:xlink="http://www.w3.org/1999/xlink">
<g id="graph0" class="graph" transform="scale(1 1) rotate(0) translate(4 80)">
<title>onACPCPointsChanged</title>
<!-- Node1 -->
<g id="node1" class="node"><title>Node1</title>
<g id="a_node1"><a xlink:title=" ">
<polygon fill="#bfbfbf" stroke="black" points="271,-19.5 271,-38.5 391,-38.5 391,-19.5 271,-19.5"/>
<text text-anchor="middle" x="331" y="-26.5" font-family="Helvetica,sans-Serif" font-size="10.00">onACPCPointsChanged</text>
</a>
</g>
</g>
<!-- Node1&#45;&gt;Node1 -->
<g id="edge5" class="edge"><title>Node1&#45;&gt;Node1</title>
<path fill="none" stroke="midnightblue" d="M362.437,-47.2746C361.541,-52.741 351.062,-57 331,-57 301.141,-57 292.509,-47.5653 305.106,-38.7571"/>
<polygon fill="midnightblue" stroke="midnightblue" points="365.282,-45.2291 356.894,-38.7571 359.415,-49.0475 365.282,-45.2291"/>
</g>
<!-- Node2 -->
<g id="node2" class="node"><title>Node2</title>
<g id="a_node2"><a xlink:href="$class_p_r_i_s_m_1_1_p_r_i_s_m_widget.html#a4122013a40eb6518717520443b9ab010" xlink:title=" ">
<polygon fill="none" stroke="black" points="124,-38.5 124,-57.5 200,-57.5 200,-38.5 124,-38.5"/>
<text text-anchor="middle" x="162" y="-45.5" font-family="Helvetica,sans-Serif" font-size="10.00">addObservers</text>
</a>
</g>
</g>
<!-- Node1&#45;&gt;Node2 -->
<g id="edge1" class="edge"><title>Node1&#45;&gt;Node2</title>
<path fill="none" stroke="midnightblue" d="M260.622,-36.8933C239.95,-39.2452 218.089,-41.7324 200.306,-43.7556"/>
<polygon fill="midnightblue" stroke="midnightblue" points="261.112,-40.3603 270.652,-35.7522 260.32,-33.4051 261.112,-40.3603"/>
</g>
<!-- Node4 -->
<g id="node4" class="node"><title>Node4</title>
<g id="a_node4"><a xlink:href="$class_p_r_i_s_m_1_1_p_r_i_s_m_widget.html#ac4d8229495b59b9bf1f851f3a7637d42" xlink:title=" ">
<polygon fill="none" stroke="black" points="89,-0.5 89,-19.5 235,-19.5 235,-0.5 89,-0.5"/>
<text text-anchor="middle" x="162" y="-7.5" font-family="Helvetica,sans-Serif" font-size="10.00">onACPCLineSelectorChanged</text>
</a>
</g>
</g>
<!-- Node1&#45;&gt;Node4 -->
<g id="edge4" class="edge"><title>Node1&#45;&gt;Node4</title>
<path fill="none" stroke="midnightblue" d="M260.507,-21.0936C252.092,-20.1362 243.48,-19.1565 235.029,-18.1949"/>
<polygon fill="midnightblue" stroke="midnightblue" points="260.32,-24.5949 270.652,-22.2478 261.112,-17.6397 260.32,-24.5949"/>
</g>
<!-- Node2&#45;&gt;Node2 -->
<g id="edge2" class="edge"><title>Node2&#45;&gt;Node2</title>
<path fill="none" stroke="midnightblue" d="M186.925,-67.0292C185.566,-72.128 177.257,-76 162,-76 138.184,-76 131.299,-66.5653 141.347,-57.7571"/>
<polygon fill="midnightblue" stroke="midnightblue" points="190.017,-65.3747 182.653,-57.7571 183.659,-68.304 190.017,-65.3747"/>
</g>
<!-- Node3 -->
<g id="node3" class="node"><title>Node3</title>
<g id="a_node3"><a xlink:href="$class_p_r_i_s_m_1_1_p_r_i_s_m_widget.html#a5354f5739815c9b04b2e8df68991a1b7" xlink:title=" ">
<polygon fill="none" stroke="black" points="0,-38.5 0,-57.5 53,-57.5 53,-38.5 0,-38.5"/>
<text text-anchor="middle" x="26.5" y="-45.5" font-family="Helvetica,sans-Serif" font-size="10.00">initState</text>
</a>
</g>
</g>
<!-- Node2&#45;&gt;Node3 -->
<g id="edge3" class="edge"><title>Node2&#45;&gt;Node3</title>
<path fill="none" stroke="midnightblue" d="M113.733,-48C93.3147,-48 70.23,-48 53.0871,-48"/>
<polygon fill="midnightblue" stroke="midnightblue" points="113.813,-51.5001 123.813,-48 113.813,-44.5001 113.813,-51.5001"/>
</g>
</g>
</svg>
