<?xml version="1.0" encoding="UTF-8" standalone="no"?>
<!DOCTYPE svg PUBLIC "-//W3C//DTD SVG 1.1//EN"
 "http://www.w3.org/Graphics/SVG/1.1/DTD/svg11.dtd">
<!-- Generated by graphviz version 2.38.0 (20140413.2041)
 -->
<!-- Title: observeLeftClickOnSlice Pages: 1 -->
<svg width="276pt" height="46pt"
 viewBox="0.00 0.00 276.00 46.00" xmlns="http://www.w3.org/2000/svg" xmlns:xlink="http://www.w3.org/1999/xlink">
<g id="graph0" class="graph" transform="scale(1 1) rotate(0) translate(4 42)">
<title>observeLeftClickOnSlice</title>
<!-- Node1 -->
<g id="node1" class="node"><title>Node1</title>
<g id="a_node1"><a xlink:title=" ">
<polygon fill="#bfbfbf" stroke="black" points="146,-0.5 146,-19.5 268,-19.5 268,-0.5 146,-0.5"/>
<text text-anchor="middle" x="207" y="-7.5" font-family="Helvetica,sans-Serif" font-size="10.00">observeLeftClickOnSlice</text>
</a>
</g>
</g>
<!-- Node1&#45;&gt;Node1 -->
<g id="edge1" class="edge"><title>Node1&#45;&gt;Node1</title>
<path fill="none" stroke="midnightblue" d="M235.372,-28.6539C234.186,-33.9368 224.729,-38 207,-38 179.984,-38 172.175,-28.5653 183.572,-19.7571"/>
<polygon fill="midnightblue" stroke="midnightblue" points="238.345,-26.7974 230.428,-19.7571 232.226,-30.1981 238.345,-26.7974"/>
</g>
<!-- Node2 -->
<g id="node2" class="node"><title>Node2</title>
<g id="a_node2"><a xlink:href="$class_p_r_i_s_m_1_1_p_r_i_s_m_widget.html#a92a408ae5db8734e6bacb469864ee574" xlink:title=" ">
<polygon fill="none" stroke="black" points="0,-0.5 0,-19.5 110,-19.5 110,-0.5 0,-0.5"/>
<text text-anchor="middle" x="55" y="-7.5" font-family="Helvetica,sans-Serif" font-size="10.00">onEndPointsChanged</text>
</a>
</g>
</g>
<!-- Node1&#45;&gt;Node2 -->
<g id="edge2" class="edge"><title>Node1&#45;&gt;Node2</title>
<path fill="none" stroke="midnightblue" d="M135.578,-10C127.098,-10 118.54,-10 110.339,-10"/>
<polygon fill="midnightblue" stroke="midnightblue" points="135.854,-13.5001 145.854,-10 135.854,-6.5001 135.854,-13.5001"/>
</g>
</g>
</svg>
