<?xml version="1.0" encoding="UTF-8" standalone="no"?>
<!DOCTYPE svg PUBLIC "-//W3C//DTD SVG 1.1//EN"
 "http://www.w3.org/Graphics/SVG/1.1/DTD/svg11.dtd">
<!-- Generated by graphviz version 2.38.0 (20140413.2041)
 -->
<!-- Title: GetAllShaderClassNames Pages: 1 -->
<svg width="264pt" height="46pt"
 viewBox="0.00 0.00 264.00 46.00" xmlns="http://www.w3.org/2000/svg" xmlns:xlink="http://www.w3.org/1999/xlink">
<g id="graph0" class="graph" transform="scale(1 1) rotate(0) translate(4 42)">
<title>GetAllShaderClassNames</title>
<!-- Node1 -->
<g id="node1" class="node"><title>Node1</title>
<g id="a_node1"><a xlink:title=" ">
<polygon fill="#bfbfbf" stroke="black" points="0,-0.5 0,-19.5 130,-19.5 130,-0.5 0,-0.5"/>
<text text-anchor="middle" x="65" y="-7.5" font-family="Helvetica,sans-Serif" font-size="10.00">GetAllShaderClassNames</text>
</a>
</g>
</g>
<!-- Node1&#45;&gt;Node1 -->
<g id="edge1" class="edge"><title>Node1&#45;&gt;Node1</title>
<path fill="none" stroke="midnightblue" d="M42.4972,-19.7571C31.5498,-28.5653 39.0508,-38 65,-38 82.0292,-38 91.1133,-33.9368 92.2525,-28.6539"/>
<polygon fill="midnightblue" stroke="midnightblue" points="95.2999,-26.9303 87.5028,-19.7571 89.1248,-30.227 95.2999,-26.9303"/>
</g>
<!-- Node2 -->
<g id="node2" class="node"><title>Node2</title>
<g id="a_node2"><a xlink:href="$class_custom_shader_1_1_custom_shader.html#a4ad5db1be2c1a43db4cbe6211e0235d5" xlink:title=" ">
<polygon fill="none" stroke="black" points="166,-0.5 166,-19.5 256,-19.5 256,-0.5 166,-0.5"/>
<text text-anchor="middle" x="211" y="-7.5" font-family="Helvetica,sans-Serif" font-size="10.00">GetDisplayName</text>
</a>
</g>
</g>
<!-- Node1&#45;&gt;Node2 -->
<g id="edge2" class="edge"><title>Node1&#45;&gt;Node2</title>
<path fill="none" stroke="midnightblue" d="M130.419,-10C138.843,-10 147.408,-10 155.644,-10"/>
<polygon fill="midnightblue" stroke="midnightblue" points="155.866,-13.5001 165.866,-10 155.866,-6.5001 155.866,-13.5001"/>
</g>
</g>
</svg>
