<?xml version="1.0" encoding="UTF-8" standalone="no"?>
<!DOCTYPE svg PUBLIC "-//W3C//DTD SVG 1.1//EN"
 "http://www.w3.org/Graphics/SVG/1.1/DTD/svg11.dtd">
<!-- Generated by graphviz version 2.38.0 (20140413.2041)
 -->
<!-- Title: onComputeCollisionsButton Pages: 1 -->
<svg width="276pt" height="46pt"
 viewBox="0.00 0.00 276.00 46.00" xmlns="http://www.w3.org/2000/svg" xmlns:xlink="http://www.w3.org/1999/xlink">
<g id="graph0" class="graph" transform="scale(1 1) rotate(0) translate(4 42)">
<title>onComputeCollisionsButton</title>
<!-- Node1 -->
<g id="node1" class="node"><title>Node1</title>
<g id="a_node1"><a xlink:title=" ">
<polygon fill="#bfbfbf" stroke="black" points="0,-0.5 0,-19.5 137,-19.5 137,-0.5 0,-0.5"/>
<text text-anchor="middle" x="68.5" y="-7.5" font-family="Helvetica,sans-Serif" font-size="10.00">onComputeCollisionsButton</text>
</a>
</g>
</g>
<!-- Node1&#45;&gt;Node1 -->
<g id="edge1" class="edge"><title>Node1&#45;&gt;Node1</title>
<path fill="none" stroke="midnightblue" d="M45.0724,-19.7571C33.6752,-28.5653 41.4844,-38 68.5,-38 86.229,-38 95.6865,-33.9368 96.8725,-28.6539"/>
<polygon fill="midnightblue" stroke="midnightblue" points="99.8449,-26.7974 91.9276,-19.7571 93.7265,-30.1981 99.8449,-26.7974"/>
</g>
<!-- Node2 -->
<g id="node2" class="node"><title>Node2</title>
<g id="a_node2"><a xlink:href="$class_p_r_i_s_m_1_1_p_r_i_s_m_widget.html#af93a57fb8ae4668390678528dbe3165e" xlink:title=" ">
<polygon fill="none" stroke="black" points="173,-0.5 173,-19.5 268,-19.5 268,-0.5 173,-0.5"/>
<text text-anchor="middle" x="220.5" y="-7.5" font-family="Helvetica,sans-Serif" font-size="10.00">setCollisionsTable</text>
</a>
</g>
</g>
<!-- Node1&#45;&gt;Node2 -->
<g id="edge2" class="edge"><title>Node1&#45;&gt;Node2</title>
<path fill="none" stroke="midnightblue" d="M137.04,-10C145.665,-10 154.422,-10 162.849,-10"/>
<polygon fill="midnightblue" stroke="midnightblue" points="162.935,-13.5001 172.935,-10 162.935,-6.5001 162.935,-13.5001"/>
</g>
</g>
</svg>
