<?xml version="1.0" encoding="UTF-8" standalone="no"?>
<!DOCTYPE svg PUBLIC "-//W3C//DTD SVG 1.1//EN"
 "http://www.w3.org/Graphics/SVG/1.1/DTD/svg11.dtd">
<!-- Generated by graphviz version 2.38.0 (20140413.2041)
 -->
<!-- Title: onEndPointsChanged Pages: 1 -->
<svg width="339pt" height="102pt"
 viewBox="0.00 0.00 339.00 102.00" xmlns="http://www.w3.org/2000/svg" xmlns:xlink="http://www.w3.org/1999/xlink">
<g id="graph0" class="graph" transform="scale(1 1) rotate(0) translate(4 98)">
<title>onEndPointsChanged</title>
<!-- Node1 -->
<g id="node1" class="node"><title>Node1</title>
<g id="a_node1"><a xlink:title=" ">
<polygon fill="#bfbfbf" stroke="black" points="221,-28.5 221,-47.5 331,-47.5 331,-28.5 221,-28.5"/>
<text text-anchor="middle" x="276" y="-35.5" font-family="Helvetica,sans-Serif" font-size="10.00">onEndPointsChanged</text>
</a>
</g>
</g>
<!-- Node1&#45;&gt;Node1 -->
<g id="edge4" class="edge"><title>Node1&#45;&gt;Node1</title>
<path fill="none" stroke="midnightblue" d="M300.553,-57.0292C299.214,-62.128 291.03,-66 276,-66 252.539,-66 245.757,-56.5653 255.655,-47.7571"/>
<polygon fill="midnightblue" stroke="midnightblue" points="303.665,-55.4164 296.345,-47.7571 297.291,-58.3096 303.665,-55.4164"/>
</g>
<!-- Node2 -->
<g id="node2" class="node"><title>Node2</title>
<g id="a_node2"><a xlink:href="$class_p_r_i_s_m_1_1_p_r_i_s_m_widget.html#a4122013a40eb6518717520443b9ab010" xlink:title=" ">
<polygon fill="none" stroke="black" points="105,-56.5 105,-75.5 181,-75.5 181,-56.5 105,-56.5"/>
<text text-anchor="middle" x="143" y="-63.5" font-family="Helvetica,sans-Serif" font-size="10.00">addObservers</text>
</a>
</g>
</g>
<!-- Node1&#45;&gt;Node2 -->
<g id="edge1" class="edge"><title>Node1&#45;&gt;Node2</title>
<path fill="none" stroke="midnightblue" d="M220.336,-49.684C207.124,-52.5078 193.308,-55.4609 181.118,-58.0664"/>
<polygon fill="midnightblue" stroke="midnightblue" points="221.236,-53.0707 230.284,-47.5577 219.773,-46.2253 221.236,-53.0707"/>
</g>
<!-- Node4 -->
<g id="node4" class="node"><title>Node4</title>
<g id="a_node4"><a xlink:href="$class_p_r_i_s_m_1_1_p_r_i_s_m_widget.html#a1ff89311e70b7ee6a3743d5293786140" xlink:title=" ">
<polygon fill="none" stroke="black" points="101,-0.5 101,-19.5 185,-19.5 185,-0.5 101,-0.5"/>
<text text-anchor="middle" x="143" y="-7.5" font-family="Helvetica,sans-Serif" font-size="10.00">onMouseMoved</text>
</a>
</g>
</g>
<!-- Node1&#45;&gt;Node4 -->
<g id="edge5" class="edge"><title>Node1&#45;&gt;Node4</title>
<path fill="none" stroke="midnightblue" d="M220.213,-26.2899C208.575,-23.8022 196.472,-21.2154 185.43,-18.8552"/>
<polygon fill="midnightblue" stroke="midnightblue" points="219.773,-29.7747 230.284,-28.4423 221.236,-22.9293 219.773,-29.7747"/>
</g>
<!-- Node2&#45;&gt;Node2 -->
<g id="edge2" class="edge"><title>Node2&#45;&gt;Node2</title>
<path fill="none" stroke="midnightblue" d="M163.369,-85.4C162.009,-90.3146 155.219,-94 143,-94 123.449,-94 117.798,-84.5653 126.046,-75.7571"/>
<polygon fill="midnightblue" stroke="midnightblue" points="166.592,-84.0149 159.954,-75.7571 159.993,-86.3518 166.592,-84.0149"/>
</g>
<!-- Node3 -->
<g id="node3" class="node"><title>Node3</title>
<g id="a_node3"><a xlink:href="$class_p_r_i_s_m_1_1_p_r_i_s_m_widget.html#a5354f5739815c9b04b2e8df68991a1b7" xlink:title=" ">
<polygon fill="none" stroke="black" points="6,-56.5 6,-75.5 59,-75.5 59,-56.5 6,-56.5"/>
<text text-anchor="middle" x="32.5" y="-63.5" font-family="Helvetica,sans-Serif" font-size="10.00">initState</text>
</a>
</g>
</g>
<!-- Node2&#45;&gt;Node3 -->
<g id="edge3" class="edge"><title>Node2&#45;&gt;Node3</title>
<path fill="none" stroke="midnightblue" d="M94.8247,-66C82.5494,-66 69.7824,-66 59.096,-66"/>
<polygon fill="midnightblue" stroke="midnightblue" points="94.964,-69.5001 104.964,-66 94.9639,-62.5001 94.964,-69.5001"/>
</g>
<!-- Node4&#45;&gt;Node4 -->
<g id="edge7" class="edge"><title>Node4&#45;&gt;Node4</title>
<path fill="none" stroke="midnightblue" d="M163.369,-29.4C162.009,-34.3146 155.219,-38 143,-38 123.449,-38 117.798,-28.5653 126.046,-19.7571"/>
<polygon fill="midnightblue" stroke="midnightblue" points="166.592,-28.0149 159.954,-19.7571 159.993,-30.3518 166.592,-28.0149"/>
</g>
<!-- Node5 -->
<g id="node5" class="node"><title>Node5</title>
<g id="a_node5"><a xlink:href="$class_p_r_i_s_m_1_1_p_r_i_s_m_widget.html#a5d8e1b70982f6361d32d8e18972b3b65" xlink:title=" ">
<polygon fill="none" stroke="black" points="0,-0.5 0,-19.5 65,-19.5 65,-0.5 0,-0.5"/>
<text text-anchor="middle" x="32.5" y="-7.5" font-family="Helvetica,sans-Serif" font-size="10.00">onLeftClick</text>
</a>
</g>
</g>
<!-- Node4&#45;&gt;Node5 -->
<g id="edge6" class="edge"><title>Node4&#45;&gt;Node5</title>
<path fill="none" stroke="midnightblue" d="M90.7964,-10C82.0322,-10 73.1617,-10 65.1037,-10"/>
<polygon fill="midnightblue" stroke="midnightblue" points="90.9808,-13.5001 100.981,-10 90.9808,-6.5001 90.9808,-13.5001"/>
</g>
</g>
</svg>
