<?xml version="1.0" encoding="UTF-8" standalone="no"?>
<!DOCTYPE svg PUBLIC "-//W3C//DTD SVG 1.1//EN"
 "http://www.w3.org/Graphics/SVG/1.1/DTD/svg11.dtd">
<!-- Generated by graphviz version 2.38.0 (20140413.2041)
 -->
<!-- Title: renderVolume Pages: 1 -->
<svg width="259pt" height="66pt"
 viewBox="0.00 0.00 259.00 66.00" xmlns="http://www.w3.org/2000/svg" xmlns:xlink="http://www.w3.org/1999/xlink">
<g id="graph0" class="graph" transform="scale(1 1) rotate(0) translate(4 62)">
<title>renderVolume</title>
<!-- Node1 -->
<g id="node1" class="node"><title>Node1</title>
<g id="a_node1"><a xlink:title="Use Slicer Volume Rendering module to initialize and setup rendering of the given volume node.">
<polygon fill="#bfbfbf" stroke="black" points="0,-19.5 0,-38.5 77,-38.5 77,-19.5 0,-19.5"/>
<text text-anchor="middle" x="38.5" y="-26.5" font-family="Helvetica,sans-Serif" font-size="10.00">renderVolume</text>
</a>
</g>
</g>
<!-- Node2 -->
<g id="node2" class="node"><title>Node2</title>
<g id="a_node2"><a xlink:href="$class_slicer_p_r_i_s_m_1_1_p_r_i_s_m_logic_1_1_p_r_i_s_m_logic.html#adbde9c2b6f639fec066d50ad4cccf9fd" xlink:title="Get or create shader property node and initialize custom shader.">
<polygon fill="none" stroke="black" points="129.5,-38.5 129.5,-57.5 234.5,-57.5 234.5,-38.5 129.5,-38.5"/>
<text text-anchor="middle" x="182" y="-45.5" font-family="Helvetica,sans-Serif" font-size="10.00">setupCustomShader</text>
</a>
</g>
</g>
<!-- Node1&#45;&gt;Node2 -->
<g id="edge1" class="edge"><title>Node1&#45;&gt;Node2</title>
<path fill="none" stroke="midnightblue" d="M77.0479,-34.0418C89.9612,-35.7757 104.783,-37.7659 119.112,-39.6899"/>
<polygon fill="midnightblue" stroke="midnightblue" points="119.047,-43.2126 129.424,-41.0746 119.979,-36.2749 119.047,-43.2126"/>
</g>
<!-- Node3 -->
<g id="node3" class="node"><title>Node3</title>
<g id="a_node3"><a xlink:href="$class_slicer_p_r_i_s_m_1_1_p_r_i_s_m_logic_1_1_p_r_i_s_m_logic.html#a6a466cbdd1ef23e2d5cb1f60ea530682" xlink:title="Given a volume, compute a default color mapping to render volume in the given display node.">
<polygon fill="none" stroke="black" points="113,-0.5 113,-19.5 251,-19.5 251,-0.5 113,-0.5"/>
<text text-anchor="middle" x="182" y="-7.5" font-family="Helvetica,sans-Serif" font-size="10.00">updateVolumeColorMapping</text>
</a>
</g>
</g>
<!-- Node1&#45;&gt;Node3 -->
<g id="edge2" class="edge"><title>Node1&#45;&gt;Node3</title>
<path fill="none" stroke="midnightblue" d="M77.0479,-23.9582C85.0787,-22.8799 93.8476,-21.7024 102.777,-20.5034"/>
<polygon fill="midnightblue" stroke="midnightblue" points="103.451,-23.9444 112.896,-19.1447 102.519,-17.0067 103.451,-23.9444"/>
</g>
</g>
</svg>
