<?xml version="1.0" encoding="UTF-8" standalone="no"?>
<!DOCTYPE svg PUBLIC "-//W3C//DTD SVG 1.1//EN"
 "http://www.w3.org/Graphics/SVG/1.1/DTD/svg11.dtd">
<!-- Generated by graphviz version 2.38.0 (20140413.2041)
 -->
<!-- Title: GetClassName Pages: 1 -->
<svg width="257pt" height="66pt"
 viewBox="0.00 0.00 257.00 66.00" xmlns="http://www.w3.org/2000/svg" xmlns:xlink="http://www.w3.org/1999/xlink">
<g id="graph0" class="graph" transform="scale(1 1) rotate(0) translate(4 62)">
<title>GetClassName</title>
<!-- Node1 -->
<g id="node1" class="node"><title>Node1</title>
<g id="a_node1"><a xlink:title="Function to get a class from it&#39;s display name.">
<polygon fill="#bfbfbf" stroke="black" points="0,-19.5 0,-38.5 83,-38.5 83,-19.5 0,-19.5"/>
<text text-anchor="middle" x="41.5" y="-26.5" font-family="Helvetica,sans-Serif" font-size="10.00">GetClassName</text>
</a>
</g>
</g>
<!-- Node2 -->
<g id="node2" class="node"><title>Node2</title>
<g id="a_node2"><a xlink:href="class_slicer_p_r_i_s_m_1_1_resources_1_1_custom_shader_1_1_custom_shader.html#a5e926f947b2f828b6b26c130f068607f" target="_top" xlink:title="Function to get the class names of all of the shaders.">
<polygon fill="none" stroke="black" points="119,-38.5 119,-57.5 249,-57.5 249,-38.5 119,-38.5"/>
<text text-anchor="middle" x="184" y="-45.5" font-family="Helvetica,sans-Serif" font-size="10.00">GetAllShaderClassNames</text>
</a>
</g>
</g>
<!-- Node1&#45;&gt;Node2 -->
<g id="edge1" class="edge"><title>Node1&#45;&gt;Node2</title>
<path fill="none" stroke="midnightblue" d="M83.1384,-34.4956C91.2644,-35.5945 100.037,-36.7809 108.893,-37.9783"/>
<polygon fill="midnightblue" stroke="midnightblue" points="108.516,-41.4592 118.895,-39.331 109.454,-34.5223 108.516,-41.4592"/>
</g>
<!-- Node3 -->
<g id="node3" class="node"><title>Node3</title>
<g id="a_node3"><a xlink:href="class_slicer_p_r_i_s_m_1_1_resources_1_1_custom_shader_1_1_custom_shader.html#a4ad5db1be2c1a43db4cbe6211e0235d5" target="_top" xlink:title="Function to get the name of the current class.">
<polygon fill="none" stroke="black" points="139,-0.5 139,-19.5 229,-19.5 229,-0.5 139,-0.5"/>
<text text-anchor="middle" x="184" y="-7.5" font-family="Helvetica,sans-Serif" font-size="10.00">GetDisplayName</text>
</a>
</g>
</g>
<!-- Node1&#45;&gt;Node3 -->
<g id="edge2" class="edge"><title>Node1&#45;&gt;Node3</title>
<path fill="none" stroke="midnightblue" d="M83.1384,-23.5044C97.2301,-21.5988 113.268,-19.43 128.304,-17.3966"/>
<polygon fill="midnightblue" stroke="midnightblue" points="129.077,-20.824 138.518,-16.0154 128.139,-13.8872 129.077,-20.824"/>
</g>
</g>
</svg>
