<?xml version="1.0" encoding="UTF-8" standalone="no"?>
<!DOCTYPE svg PUBLIC "-//W3C//DTD SVG 1.1//EN"
 "http://www.w3.org/Graphics/SVG/1.1/DTD/svg11.dtd">
<!-- Generated by graphviz version 2.38.0 (20140413.2041)
 -->
<!-- Title: updateACPCTranformApplyButton Pages: 1 -->
<svg width="631pt" height="340pt"
 viewBox="0.00 0.00 631.00 339.96" xmlns="http://www.w3.org/2000/svg" xmlns:xlink="http://www.w3.org/1999/xlink">
<g id="graph0" class="graph" transform="scale(1 1) rotate(0) translate(4 335.959)">
<title>updateACPCTranformApplyButton</title>
<!-- Node1 -->
<g id="node1" class="node"><title>Node1</title>
<g id="a_node1"><a xlink:title=" ">
<polygon fill="#bfbfbf" stroke="black" points="459,-144.459 459,-163.459 623,-163.459 623,-144.459 459,-144.459"/>
<text text-anchor="middle" x="541" y="-151.459" font-family="Helvetica,sans-Serif" font-size="10.00">updateACPCTranformApplyButton</text>
</a>
</g>
</g>
<!-- Node1&#45;&gt;Node1 -->
<g id="edge22" class="edge"><title>Node1&#45;&gt;Node1</title>
<path fill="none" stroke="midnightblue" d="M577,-171.463C576.994,-177.295 564.994,-181.959 541,-181.959 506.875,-181.959 497.011,-172.524 511.407,-163.716"/>
<polygon fill="midnightblue" stroke="midnightblue" points="579.663,-169.192 570.593,-163.716 574.269,-173.653 579.663,-169.192"/>
</g>
<!-- Node2 -->
<g id="node2" class="node"><title>Node2</title>
<g id="a_node2"><a xlink:href="$class_p_r_i_s_m_1_1_p_r_i_s_m_widget.html#abc5f596d31e6da2fd1cd2fae213deafc" xlink:title=" ">
<polygon fill="none" stroke="black" points="287.5,-294.459 287.5,-313.459 410.5,-313.459 410.5,-294.459 287.5,-294.459"/>
<text text-anchor="middle" x="349" y="-301.459" font-family="Helvetica,sans-Serif" font-size="10.00">onACPCLineClearButton</text>
</a>
</g>
</g>
<!-- Node1&#45;&gt;Node2 -->
<g id="edge1" class="edge"><title>Node1&#45;&gt;Node2</title>
<path fill="none" stroke="midnightblue" d="M528.859,-172.195C510.455,-200.729 470.933,-255.69 423,-284.959 416.629,-288.849 409.476,-291.949 402.206,-294.418"/>
<polygon fill="midnightblue" stroke="midnightblue" points="531.901,-173.932 534.272,-163.606 525.979,-170.2 531.901,-173.932"/>
</g>
<!-- Node4 -->
<g id="node4" class="node"><title>Node4</title>
<g id="a_node4"><a xlink:href="$class_p_r_i_s_m_1_1_p_r_i_s_m_widget.html#ac4d8229495b59b9bf1f851f3a7637d42" xlink:title=" ">
<polygon fill="none" stroke="black" points="91,-130.459 91,-149.459 237,-149.459 237,-130.459 91,-130.459"/>
<text text-anchor="middle" x="164" y="-137.459" font-family="Helvetica,sans-Serif" font-size="10.00">onACPCLineSelectorChanged</text>
</a>
</g>
</g>
<!-- Node1&#45;&gt;Node4 -->
<g id="edge4" class="edge"><title>Node1&#45;&gt;Node4</title>
<path fill="none" stroke="midnightblue" d="M448.377,-150.539C383.317,-148.11 297.187,-144.894 237.028,-142.648"/>
<polygon fill="midnightblue" stroke="midnightblue" points="448.507,-154.046 458.631,-150.921 448.768,-147.051 448.507,-154.046"/>
</g>
<!-- Node5 -->
<g id="node5" class="node"><title>Node5</title>
<g id="a_node5"><a xlink:href="$class_p_r_i_s_m_1_1_p_r_i_s_m_widget.html#a71ea96f4fb70b5a651b99da5892b2d95" xlink:title=" ">
<polygon fill="none" stroke="black" points="289,-88.4592 289,-107.459 409,-107.459 409,-88.4592 289,-88.4592"/>
<text text-anchor="middle" x="349" y="-95.4592" font-family="Helvetica,sans-Serif" font-size="10.00">onACPCPointsChanged</text>
</a>
</g>
</g>
<!-- Node1&#45;&gt;Node5 -->
<g id="edge5" class="edge"><title>Node1&#45;&gt;Node5</title>
<path fill="none" stroke="midnightblue" d="M497.44,-141.415C462.563,-131.136 413.953,-116.809 382.236,-107.46"/>
<polygon fill="midnightblue" stroke="midnightblue" points="496.756,-144.862 507.338,-144.332 498.735,-138.148 496.756,-144.862"/>
</g>
<!-- Node8 -->
<g id="node8" class="node"><title>Node8</title>
<g id="a_node8"><a xlink:href="$class_p_r_i_s_m_1_1_p_r_i_s_m_widget.html#a85c28bc1d69f40e3bcde48381ea16d08" xlink:title=" ">
<polygon fill="none" stroke="black" points="285.5,-238.459 285.5,-257.459 412.5,-257.459 412.5,-238.459 285.5,-238.459"/>
<text text-anchor="middle" x="349" y="-245.459" font-family="Helvetica,sans-Serif" font-size="10.00">onMidSagittalClearButton</text>
</a>
</g>
</g>
<!-- Node1&#45;&gt;Node8 -->
<g id="edge11" class="edge"><title>Node1&#45;&gt;Node8</title>
<path fill="none" stroke="midnightblue" d="M519.659,-169.849C497.167,-186.717 459.298,-213.082 423,-228.959 414.481,-232.685 405.073,-235.806 395.923,-238.371"/>
<polygon fill="midnightblue" stroke="midnightblue" points="521.925,-172.523 527.763,-163.681 517.686,-166.953 521.925,-172.523"/>
</g>
<!-- Node9 -->
<g id="node9" class="node"><title>Node9</title>
<g id="a_node9"><a xlink:href="$class_p_r_i_s_m_1_1_p_r_i_s_m_widget.html#a3cdb67eeb9092692c5b3e1d42f5a37cb" xlink:title=" ">
<polygon fill="none" stroke="black" points="278,-32.4592 278,-51.4592 420,-51.4592 420,-32.4592 278,-32.4592"/>
<text text-anchor="middle" x="349" y="-39.4592" font-family="Helvetica,sans-Serif" font-size="10.00">onMidSagittalPointsChanged</text>
</a>
</g>
</g>
<!-- Node1&#45;&gt;Node9 -->
<g id="edge14" class="edge"><title>Node1&#45;&gt;Node9</title>
<path fill="none" stroke="midnightblue" d="M517.41,-138.512C494.149,-122.838 456.65,-98.2071 423,-78.9592 405.486,-68.9415 384.942,-58.6531 370.117,-51.4765"/>
<polygon fill="midnightblue" stroke="midnightblue" points="515.636,-141.538 525.878,-144.247 519.561,-135.742 515.636,-141.538"/>
</g>
<!-- Node10 -->
<g id="node10" class="node"><title>Node10</title>
<g id="a_node10"><a xlink:href="$class_p_r_i_s_m_1_1_p_r_i_s_m_widget.html#a99157d870f447ea268c6f5b55a128d7d" xlink:title=" ">
<polygon fill="none" stroke="black" points="89,-8.45919 89,-27.4592 239,-27.4592 239,-8.45919 89,-8.45919"/>
<text text-anchor="middle" x="164" y="-15.4592" font-family="Helvetica,sans-Serif" font-size="10.00">onMidSagittalSelectorChanged</text>
</a>
</g>
</g>
<!-- Node1&#45;&gt;Node10 -->
<g id="edge18" class="edge"><title>Node1&#45;&gt;Node10</title>
<path fill="none" stroke="midnightblue" d="M530.095,-135.231C512.94,-105.045 474.534,-46.6302 423,-22.9592 353.995,8.73665 263.263,0.652205 209.827,-8.42982"/>
<polygon fill="midnightblue" stroke="midnightblue" points="527.196,-137.223 535.086,-144.294 533.328,-133.846 527.196,-137.223"/>
</g>
<!-- Node11 -->
<g id="node11" class="node"><title>Node11</title>
<g id="a_node11"><a xlink:href="$class_p_r_i_s_m_1_1_p_r_i_s_m_widget.html#a9bea2b4c30e146ecfcb54a28ddac9987" xlink:title=" ">
<polygon fill="none" stroke="black" points="275,-182.459 275,-201.459 423,-201.459 423,-182.459 275,-182.459"/>
<text text-anchor="middle" x="349" y="-189.459" font-family="Helvetica,sans-Serif" font-size="10.00">onUndoACPCTransformButton</text>
</a>
</g>
</g>
<!-- Node1&#45;&gt;Node11 -->
<g id="edge19" class="edge"><title>Node1&#45;&gt;Node11</title>
<path fill="none" stroke="midnightblue" d="M481.952,-165.569C454.93,-170.973 423.182,-177.323 397.6,-182.439"/>
<polygon fill="midnightblue" stroke="midnightblue" points="482.936,-168.941 492.055,-163.548 481.563,-162.077 482.936,-168.941"/>
</g>
<!-- Node2&#45;&gt;Node2 -->
<g id="edge2" class="edge"><title>Node2&#45;&gt;Node2</title>
<path fill="none" stroke="midnightblue" d="M383.483,-321.85C382.978,-327.5 371.483,-331.959 349,-331.959 316.297,-331.959 306.844,-322.524 320.64,-313.716"/>
<polygon fill="midnightblue" stroke="midnightblue" points="386.17,-319.601 377.36,-313.716 380.577,-323.811 386.17,-319.601"/>
</g>
<!-- Node3 -->
<g id="node3" class="node"><title>Node3</title>
<g id="a_node3"><a xlink:href="$class_p_r_i_s_m_1_1_p_r_i_s_m_widget.html#ade41f93307784822f8bc17e85964d427" xlink:title=" ">
<polygon fill="none" stroke="black" points="143.5,-238.459 143.5,-257.459 184.5,-257.459 184.5,-238.459 143.5,-238.459"/>
<text text-anchor="middle" x="164" y="-245.459" font-family="Helvetica,sans-Serif" font-size="10.00">setup</text>
</a>
</g>
</g>
<!-- Node2&#45;&gt;Node3 -->
<g id="edge3" class="edge"><title>Node2&#45;&gt;Node3</title>
<path fill="none" stroke="midnightblue" d="M299.398,-291.816C291.226,-289.629 282.852,-287.298 275,-284.959 243.139,-275.467 206.652,-262.84 184.739,-255.063"/>
<polygon fill="midnightblue" stroke="midnightblue" points="298.655,-295.239 309.217,-294.402 300.439,-288.47 298.655,-295.239"/>
</g>
<!-- Node5&#45;&gt;Node4 -->
<g id="edge9" class="edge"><title>Node5&#45;&gt;Node4</title>
<path fill="none" stroke="midnightblue" d="M296.714,-109.73C268.291,-116.253 233.405,-124.26 206.678,-130.394"/>
<polygon fill="midnightblue" stroke="midnightblue" points="297.511,-113.138 306.474,-107.49 295.945,-106.315 297.511,-113.138"/>
</g>
<!-- Node5&#45;&gt;Node5 -->
<g id="edge10" class="edge"><title>Node5&#45;&gt;Node5</title>
<path fill="none" stroke="midnightblue" d="M383.483,-115.85C382.978,-121.5 371.483,-125.959 349,-125.959 316.297,-125.959 306.844,-116.524 320.64,-107.716"/>
<polygon fill="midnightblue" stroke="midnightblue" points="386.17,-113.601 377.36,-107.716 380.577,-117.811 386.17,-113.601"/>
</g>
<!-- Node6 -->
<g id="node6" class="node"><title>Node6</title>
<g id="a_node6"><a xlink:href="$class_p_r_i_s_m_1_1_p_r_i_s_m_widget.html#a4122013a40eb6518717520443b9ab010" xlink:title=" ">
<polygon fill="none" stroke="black" points="126,-46.4592 126,-65.4592 202,-65.4592 202,-46.4592 126,-46.4592"/>
<text text-anchor="middle" x="164" y="-53.4592" font-family="Helvetica,sans-Serif" font-size="10.00">addObservers</text>
</a>
</g>
</g>
<!-- Node5&#45;&gt;Node6 -->
<g id="edge6" class="edge"><title>Node5&#45;&gt;Node6</title>
<path fill="none" stroke="midnightblue" d="M296.573,-86.1564C266.49,-79.2521 229.205,-70.6948 202.016,-64.4546"/>
<polygon fill="midnightblue" stroke="midnightblue" points="295.945,-89.6031 306.474,-88.4287 297.511,-82.7804 295.945,-89.6031"/>
</g>
<!-- Node6&#45;&gt;Node6 -->
<g id="edge7" class="edge"><title>Node6&#45;&gt;Node6</title>
<path fill="none" stroke="midnightblue" d="M189.298,-74.9884C187.918,-80.0872 179.485,-83.9592 164,-83.9592 139.828,-83.9592 132.841,-74.5245 143.038,-65.7163"/>
<polygon fill="midnightblue" stroke="midnightblue" points="192.368,-73.2921 184.962,-65.7163 186.027,-76.2574 192.368,-73.2921"/>
</g>
<!-- Node7 -->
<g id="node7" class="node"><title>Node7</title>
<g id="a_node7"><a xlink:href="$class_p_r_i_s_m_1_1_p_r_i_s_m_widget.html#a5354f5739815c9b04b2e8df68991a1b7" xlink:title=" ">
<polygon fill="none" stroke="black" points="0,-46.4592 0,-65.4592 53,-65.4592 53,-46.4592 0,-46.4592"/>
<text text-anchor="middle" x="26.5" y="-53.4592" font-family="Helvetica,sans-Serif" font-size="10.00">initState</text>
</a>
</g>
</g>
<!-- Node6&#45;&gt;Node7 -->
<g id="edge8" class="edge"><title>Node6&#45;&gt;Node7</title>
<path fill="none" stroke="midnightblue" d="M115.939,-55.9592C94.9345,-55.9592 70.9955,-55.9592 53.3254,-55.9592"/>
<polygon fill="midnightblue" stroke="midnightblue" points="115.974,-59.4593 125.974,-55.9592 115.974,-52.4593 115.974,-59.4593"/>
</g>
<!-- Node8&#45;&gt;Node3 -->
<g id="edge13" class="edge"><title>Node8&#45;&gt;Node3</title>
<path fill="none" stroke="midnightblue" d="M275.237,-247.959C242.473,-247.959 206.361,-247.959 184.691,-247.959"/>
<polygon fill="midnightblue" stroke="midnightblue" points="275.278,-251.459 285.278,-247.959 275.278,-244.459 275.278,-251.459"/>
</g>
<!-- Node8&#45;&gt;Node8 -->
<g id="edge12" class="edge"><title>Node8&#45;&gt;Node8</title>
<path fill="none" stroke="midnightblue" d="M383.483,-265.85C382.978,-271.5 371.483,-275.959 349,-275.959 316.297,-275.959 306.844,-266.524 320.64,-257.716"/>
<polygon fill="midnightblue" stroke="midnightblue" points="386.17,-263.601 377.36,-257.716 380.577,-267.811 386.17,-263.601"/>
</g>
<!-- Node9&#45;&gt;Node6 -->
<g id="edge15" class="edge"><title>Node9&#45;&gt;Node6</title>
<path fill="none" stroke="midnightblue" d="M267.692,-48.103C244.806,-49.8538 220.972,-51.6772 202.033,-53.1261"/>
<polygon fill="midnightblue" stroke="midnightblue" points="268.067,-51.5846 277.771,-47.3319 267.533,-44.605 268.067,-51.5846"/>
</g>
<!-- Node9&#45;&gt;Node9 -->
<g id="edge16" class="edge"><title>Node9&#45;&gt;Node9</title>
<path fill="none" stroke="midnightblue" d="M383.483,-59.8505C382.978,-65.4998 371.483,-69.9592 349,-69.9592 316.297,-69.9592 306.844,-60.5245 320.64,-51.7163"/>
<polygon fill="midnightblue" stroke="midnightblue" points="386.17,-57.6009 377.36,-51.7163 380.577,-61.8107 386.17,-57.6009"/>
</g>
<!-- Node9&#45;&gt;Node10 -->
<g id="edge17" class="edge"><title>Node9&#45;&gt;Node10</title>
<path fill="none" stroke="midnightblue" d="M267.769,-31.4371C257.687,-30.1148 247.419,-28.7683 237.466,-27.4629"/>
<polygon fill="midnightblue" stroke="midnightblue" points="267.401,-34.9187 277.771,-32.7488 268.311,-27.9781 267.401,-34.9187"/>
</g>
<!-- Node11&#45;&gt;Node3 -->
<g id="edge21" class="edge"><title>Node11&#45;&gt;Node3</title>
<path fill="none" stroke="midnightblue" d="M306.745,-204.584C268.576,-216.264 213.502,-233.117 184.523,-241.985"/>
<polygon fill="midnightblue" stroke="midnightblue" points="308.003,-207.859 316.541,-201.586 305.955,-201.165 308.003,-207.859"/>
</g>
<!-- Node11&#45;&gt;Node11 -->
<g id="edge20" class="edge"><title>Node11&#45;&gt;Node11</title>
<path fill="none" stroke="midnightblue" d="M383.483,-209.85C382.978,-215.5 371.483,-219.959 349,-219.959 316.297,-219.959 306.844,-210.524 320.64,-201.716"/>
<polygon fill="midnightblue" stroke="midnightblue" points="386.17,-207.601 377.36,-201.716 380.577,-211.811 386.17,-207.601"/>
</g>
</g>
</svg>
