<?xml version="1.0" encoding="UTF-8" standalone="no"?>
<!DOCTYPE svg PUBLIC "-//W3C//DTD SVG 1.1//EN"
 "http://www.w3.org/Graphics/SVG/1.1/DTD/svg11.dtd">
<!-- Generated by graphviz version 2.38.0 (20140413.2041)
 -->
<!-- Title: GetAllShaderClassNames Pages: 1 -->
<svg width="358pt" height="88pt"
 viewBox="0.00 0.00 358.00 88.00" xmlns="http://www.w3.org/2000/svg" xmlns:xlink="http://www.w3.org/1999/xlink">
<g id="graph0" class="graph" transform="scale(1 1) rotate(0) translate(4 84)">
<title>GetAllShaderClassNames</title>
<!-- Node1 -->
<g id="node1" class="node"><title>Node1</title>
<g id="a_node1"><a xlink:title=" ">
<polygon fill="#bfbfbf" stroke="black" points="220,-30 220,-49 350,-49 350,-30 220,-30"/>
<text text-anchor="middle" x="285" y="-37" font-family="Helvetica,sans-Serif" font-size="10.00">GetAllShaderClassNames</text>
</a>
</g>
</g>
<!-- Node2 -->
<g id="node2" class="node"><title>Node2</title>
<g id="a_node2"><a xlink:href="$class_slicer_p_r_i_s_m_1_1_resources_1_1_custom_shader_1_1_custom_shader.html#a56ffa9aa2f49dd34ca89522f6912f861" xlink:title="Function to get a class from it&#39;s name.">
<polygon fill="none" stroke="black" points="13,-49.5 13,-79.5 171,-79.5 171,-49.5 13,-49.5"/>
<text text-anchor="start" x="21" y="-67.5" font-family="Helvetica,sans-Serif" font-size="10.00">SlicerPRISM.Resources.Custom</text>
<text text-anchor="middle" x="92" y="-56.5" font-family="Helvetica,sans-Serif" font-size="10.00">Shader.CustomShader.GetClass</text>
</a>
</g>
</g>
<!-- Node1&#45;&gt;Node2 -->
<g id="edge1" class="edge"><title>Node1&#45;&gt;Node2</title>
<path fill="none" stroke="midnightblue" d="M209.843,-49.2064C197.179,-50.864 183.987,-52.5907 171.221,-54.2617"/>
<polygon fill="midnightblue" stroke="midnightblue" points="210.407,-52.6625 219.868,-47.8942 209.499,-45.7217 210.407,-52.6625"/>
</g>
<!-- Node3 -->
<g id="node3" class="node"><title>Node3</title>
<g id="a_node3"><a xlink:href="$class_slicer_p_r_i_s_m_1_1_resources_1_1_custom_shader_1_1_custom_shader.html#a344ccd90b2c8c6868d8e57fbfa16e4e4" xlink:title="Function to get a class from it&#39;s display name.">
<polygon fill="none" stroke="black" points="0,-0.5 0,-30.5 184,-30.5 184,-0.5 0,-0.5"/>
<text text-anchor="start" x="8" y="-18.5" font-family="Helvetica,sans-Serif" font-size="10.00">SlicerPRISM.Resources.Custom</text>
<text text-anchor="middle" x="92" y="-7.5" font-family="Helvetica,sans-Serif" font-size="10.00">Shader.CustomShader.GetClassName</text>
</a>
</g>
</g>
<!-- Node1&#45;&gt;Node3 -->
<g id="edge2" class="edge"><title>Node1&#45;&gt;Node3</title>
<path fill="none" stroke="midnightblue" d="M209.754,-30.1707C201.353,-29.1151 192.721,-28.0304 184.136,-26.9517"/>
<polygon fill="midnightblue" stroke="midnightblue" points="209.51,-33.6674 219.868,-31.4416 210.383,-26.7221 209.51,-33.6674"/>
</g>
</g>
</svg>
