<?xml version="1.0" encoding="UTF-8" standalone="no"?>
<!DOCTYPE svg PUBLIC "-//W3C//DTD SVG 1.1//EN"
 "http://www.w3.org/Graphics/SVG/1.1/DTD/svg11.dtd">
<!-- Generated by graphviz version 2.38.0 (20140413.2041)
 -->
<!-- Title: onCustomShaderParamChanged Pages: 1 -->
<svg width="402pt" height="88pt"
 viewBox="0.00 0.00 402.00 88.00" xmlns="http://www.w3.org/2000/svg" xmlns:xlink="http://www.w3.org/1999/xlink">
<g id="graph0" class="graph" transform="scale(1 1) rotate(0) translate(4 84)">
<title>onCustomShaderParamChanged</title>
<!-- Node1 -->
<g id="node1" class="node"><title>Node1</title>
<g id="a_node1"><a xlink:title=" ">
<polygon fill="#bfbfbf" stroke="black" points="236,-30 236,-49 394,-49 394,-30 236,-30"/>
<text text-anchor="middle" x="315" y="-37" font-family="Helvetica,sans-Serif" font-size="10.00">onCustomShaderParamChanged</text>
</a>
</g>
</g>
<!-- Node2 -->
<g id="node2" class="node"><title>Node2</title>
<g id="a_node2"><a xlink:href="$class_slicer_p_r_i_s_m_1_1_p_r_i_s_m_logic_1_1_p_r_i_s_m_logic.html#a6671941a4f52b9c1996b41e9557c864d" xlink:title="Callback function to get the position of the new point.">
<polygon fill="none" stroke="black" points="0,-49.5 0,-79.5 200,-79.5 200,-49.5 0,-49.5"/>
<text text-anchor="start" x="8" y="-67.5" font-family="Helvetica,sans-Serif" font-size="10.00">SlicerPRISM.PRISMLogic.PRISMLogic.on</text>
<text text-anchor="middle" x="100" y="-56.5" font-family="Helvetica,sans-Serif" font-size="10.00">EndPointAdded</text>
</a>
</g>
</g>
<!-- Node1&#45;&gt;Node2 -->
<g id="edge1" class="edge"><title>Node1&#45;&gt;Node2</title>
<path fill="none" stroke="midnightblue" d="M225.698,-49.864C217.262,-50.8542 208.669,-51.8628 200.139,-52.864"/>
<polygon fill="midnightblue" stroke="midnightblue" points="226.372,-53.3091 235.896,-48.6671 225.556,-46.3568 226.372,-53.3091"/>
</g>
<!-- Node3 -->
<g id="node3" class="node"><title>Node3</title>
<g id="a_node3"><a xlink:href="$class_slicer_p_r_i_s_m_1_1_p_r_i_s_m_logic_1_1_p_r_i_s_m_logic.html#a92a408ae5db8734e6bacb469864ee574" xlink:title="Callback function to get the position of the modified point.">
<polygon fill="none" stroke="black" points="0,-0.5 0,-30.5 200,-30.5 200,-0.5 0,-0.5"/>
<text text-anchor="start" x="8" y="-18.5" font-family="Helvetica,sans-Serif" font-size="10.00">SlicerPRISM.PRISMLogic.PRISMLogic.on</text>
<text text-anchor="middle" x="100" y="-7.5" font-family="Helvetica,sans-Serif" font-size="10.00">EndPointsChanged</text>
</a>
</g>
</g>
<!-- Node1&#45;&gt;Node3 -->
<g id="edge2" class="edge"><title>Node1&#45;&gt;Node3</title>
<path fill="none" stroke="midnightblue" d="M225.698,-29.5505C217.262,-28.6 208.669,-27.6317 200.139,-26.6706"/>
<polygon fill="midnightblue" stroke="midnightblue" points="225.567,-33.0578 235.896,-30.6996 226.351,-26.1018 225.567,-33.0578"/>
</g>
</g>
</svg>
