<?xml version="1.0" encoding="UTF-8" standalone="no"?>
<!DOCTYPE svg PUBLIC "-//W3C//DTD SVG 1.1//EN"
 "http://www.w3.org/Graphics/SVG/1.1/DTD/svg11.dtd">
<!-- Generated by graphviz version 2.38.0 (20140413.2041)
 -->
<!-- Title: prismPath Pages: 1 -->
<svg width="349pt" height="214pt"
 viewBox="0.00 0.00 349.00 213.50" xmlns="http://www.w3.org/2000/svg" xmlns:xlink="http://www.w3.org/1999/xlink">
<g id="graph0" class="graph" transform="scale(1 1) rotate(0) translate(4 209.5)">
<title>prismPath</title>
<!-- Node1 -->
<g id="node1" class="node"><title>Node1</title>
<g id="a_node1"><a xlink:title="Function to get the module&#39;s path.">
<polygon fill="#bfbfbf" stroke="black" points="280,-46.5 280,-65.5 341,-65.5 341,-46.5 280,-46.5"/>
<text text-anchor="middle" x="310.5" y="-53.5" font-family="Helvetica,sans-Serif" font-size="10.00">prismPath</text>
</a>
</g>
</g>
<!-- Node2 -->
<g id="node2" class="node"><title>Node2</title>
<g id="a_node2"><a xlink:href="class_slicer_p_r_i_s_m_1_1_p_r_i_s_m_1_1_p_r_i_s_m_widget.html#a1ba3668a0c21b14d86ad81f50450d03b" target="_top" xlink:title="Function to get a selected shader file path.">
<polygon fill="none" stroke="black" points="194,-71.5 194,-90.5 244,-90.5 244,-71.5 194,-71.5"/>
<text text-anchor="middle" x="219" y="-78.5" font-family="Helvetica,sans-Serif" font-size="10.00">getPath</text>
</a>
</g>
</g>
<!-- Node1&#45;&gt;Node2 -->
<g id="edge1" class="edge"><title>Node1&#45;&gt;Node2</title>
<path fill="none" stroke="midnightblue" d="M269.922,-67.0552C261.096,-69.5207 251.997,-72.0623 244.025,-74.2892"/>
<polygon fill="midnightblue" stroke="midnightblue" points="271.008,-70.386 279.698,-64.3246 269.125,-63.6441 271.008,-70.386"/>
</g>
<!-- Node5 -->
<g id="node5" class="node"><title>Node5</title>
<g id="a_node5"><a xlink:href="class_slicer_p_r_i_s_m_1_1_p_r_i_s_m_1_1_p_r_i_s_m_widget.html#ab1895c94043be028238f122374b8df86" target="_top" xlink:title="Reload the modules.">
<polygon fill="none" stroke="black" points="50.5,-0.5 50.5,-19.5 107.5,-19.5 107.5,-0.5 50.5,-0.5"/>
<text text-anchor="middle" x="79" y="-7.5" font-family="Helvetica,sans-Serif" font-size="10.00">onReload</text>
</a>
</g>
</g>
<!-- Node1&#45;&gt;Node5 -->
<g id="edge7" class="edge"><title>Node1&#45;&gt;Node5</title>
<path fill="none" stroke="midnightblue" d="M269.986,-48.08C223.662,-38.795 148.088,-23.6472 107.629,-15.5378"/>
<polygon fill="midnightblue" stroke="midnightblue" points="269.474,-51.5469 279.967,-50.0805 270.85,-44.6834 269.474,-51.5469"/>
</g>
<!-- Node3 -->
<g id="node3" class="node"><title>Node3</title>
<g id="a_node3"><a xlink:href="class_slicer_p_r_i_s_m_1_1_p_r_i_s_m_1_1_p_r_i_s_m_widget.html#ae1a03b1dc14c2746bb2892f37a99e13e" target="_top" xlink:title="Function to add the new shader replacement to a file.">
<polygon fill="none" stroke="black" points="4.5,-175 4.5,-205 153.5,-205 153.5,-175 4.5,-175"/>
<text text-anchor="start" x="12.5" y="-193" font-family="Helvetica,sans-Serif" font-size="10.00">onModifyCustomShaderButton</text>
<text text-anchor="middle" x="79" y="-182" font-family="Helvetica,sans-Serif" font-size="10.00">Clicked</text>
</a>
</g>
</g>
<!-- Node2&#45;&gt;Node3 -->
<g id="edge2" class="edge"><title>Node2&#45;&gt;Node3</title>
<path fill="none" stroke="midnightblue" d="M209.372,-99.7856C199.567,-119.112 181.786,-148.755 158,-166 153.297,-169.41 148.1,-172.343 142.687,-174.865"/>
<polygon fill="midnightblue" stroke="midnightblue" points="212.545,-101.265 213.762,-90.7401 206.247,-98.2084 212.545,-101.265"/>
</g>
<!-- Node4 -->
<g id="node4" class="node"><title>Node4</title>
<g id="a_node4"><a xlink:href="class_slicer_p_r_i_s_m_1_1_p_r_i_s_m_1_1_p_r_i_s_m_widget.html#a603b7c0196c8c4985ff8c65976e33c7e" target="_top" xlink:title="Function to open custom shader file.">
<polygon fill="none" stroke="black" points="7.5,-126 7.5,-156 150.5,-156 150.5,-126 7.5,-126"/>
<text text-anchor="start" x="15.5" y="-144" font-family="Helvetica,sans-Serif" font-size="10.00">onOpenCustomShaderButton</text>
<text text-anchor="middle" x="79" y="-133" font-family="Helvetica,sans-Serif" font-size="10.00">Clicked</text>
</a>
</g>
</g>
<!-- Node2&#45;&gt;Node4 -->
<g id="edge3" class="edge"><title>Node2&#45;&gt;Node4</title>
<path fill="none" stroke="midnightblue" d="M195.676,-96.1614C184.673,-103.169 171.002,-111.202 158,-117 150.754,-120.231 142.945,-123.197 135.167,-125.86"/>
<polygon fill="midnightblue" stroke="midnightblue" points="197.755,-98.9837 204.218,-90.5881 193.93,-93.1212 197.755,-98.9837"/>
</g>
<!-- Node2&#45;&gt;Node5 -->
<g id="edge4" class="edge"><title>Node2&#45;&gt;Node5</title>
<path fill="none" stroke="midnightblue" d="M202.709,-64.0361C191.427,-52.5211 175.118,-37.8359 158,-29 142.395,-20.9449 123.256,-16.2163 107.842,-13.491"/>
<polygon fill="midnightblue" stroke="midnightblue" points="200.25,-66.5303 209.664,-71.3908 205.336,-61.7204 200.25,-66.5303"/>
</g>
<!-- Node6 -->
<g id="node6" class="node"><title>Node6</title>
<g id="a_node6"><a xlink:href="class_slicer_p_r_i_s_m_1_1_p_r_i_s_m_1_1_p_r_i_s_m_widget.html#a4913ae6c186230db1cfc893f6e9407ec" target="_top" xlink:title="Function to reload the current custom shader.">
<polygon fill="none" stroke="black" points="2.5,-77 2.5,-107 155.5,-107 155.5,-77 2.5,-77"/>
<text text-anchor="start" x="10.5" y="-95" font-family="Helvetica,sans-Serif" font-size="10.00">onReloadCurrentCustomShader</text>
<text text-anchor="middle" x="79" y="-84" font-family="Helvetica,sans-Serif" font-size="10.00">ButtonClicked</text>
</a>
</g>
</g>
<!-- Node2&#45;&gt;Node6 -->
<g id="edge5" class="edge"><title>Node2&#45;&gt;Node6</title>
<path fill="none" stroke="midnightblue" d="M183.912,-83.7172C175.219,-84.4101 165.523,-85.183 155.643,-85.9705"/>
<polygon fill="midnightblue" stroke="midnightblue" points="184.272,-87.1997 193.962,-82.9161 183.716,-80.2218 184.272,-87.1997"/>
</g>
<!-- Node7 -->
<g id="node7" class="node"><title>Node7</title>
<g id="a_node7"><a xlink:href="class_slicer_p_r_i_s_m_1_1_p_r_i_s_m_1_1_p_r_i_s_m_widget.html#a591e2cd1c5c25d29a86e537ffa0f431a" target="_top" xlink:title="Function to open a file containing the new shader replacement.">
<polygon fill="none" stroke="black" points="0,-38.5 0,-57.5 158,-57.5 158,-38.5 0,-38.5"/>
<text text-anchor="middle" x="79" y="-45.5" font-family="Helvetica,sans-Serif" font-size="10.00">onShaderOpenFileButtonClicked</text>
</a>
</g>
</g>
<!-- Node2&#45;&gt;Node7 -->
<g id="edge6" class="edge"><title>Node2&#45;&gt;Node7</title>
<path fill="none" stroke="midnightblue" d="M184.052,-72.882C164.67,-68.2473 140.265,-62.4111 119.962,-57.556"/>
<polygon fill="midnightblue" stroke="midnightblue" points="183.422,-76.3301 193.962,-75.2518 185.05,-69.522 183.422,-76.3301"/>
</g>
</g>
</svg>
