<?xml version="1.0" encoding="UTF-8" standalone="no"?>
<!DOCTYPE svg PUBLIC "-//W3C//DTD SVG 1.1//EN"
 "http://www.w3.org/Graphics/SVG/1.1/DTD/svg11.dtd">
<!-- Generated by graphviz version 2.38.0 (20140413.2041)
 -->
<!-- Title: getClassName Pages: 1 -->
<svg width="1027pt" height="352pt"
 viewBox="0.00 0.00 1027.00 352.00" xmlns="http://www.w3.org/2000/svg" xmlns:xlink="http://www.w3.org/1999/xlink">
<g id="graph0" class="graph" transform="scale(1 1) rotate(0) translate(4 347.996)">
<title>getClassName</title>
<!-- Node1 -->
<g id="node1" class="node"><title>Node1</title>
<g id="a_node1"><a xlink:title="Function to get the class name of a widget.">
<polygon fill="#bfbfbf" stroke="black" points="939,-266.5 939,-285.5 1019,-285.5 1019,-266.5 939,-266.5"/>
<text text-anchor="middle" x="979" y="-273.5" font-family="Helvetica,sans-Serif" font-size="10.00">getClassName</text>
</a>
</g>
</g>
<!-- Node2 -->
<g id="node2" class="node"><title>Node2</title>
<g id="a_node2"><a xlink:href="$class_slicer_p_r_i_s_m_1_1_p_r_i_s_m_1_1_p_r_i_s_m_widget.html#a69a2d837a10281b583a4e5f9044db193" xlink:title="Function to add observers to the GUI&#39;s widgets.">
<polygon fill="none" stroke="black" points="583,-304.5 583,-323.5 675,-323.5 675,-304.5 583,-304.5"/>
<text text-anchor="middle" x="629" y="-311.5" font-family="Helvetica,sans-Serif" font-size="10.00">addGUIObservers</text>
</a>
</g>
</g>
<!-- Node1&#45;&gt;Node2 -->
<g id="edge1" class="edge"><title>Node1&#45;&gt;Node2</title>
<path fill="none" stroke="midnightblue" d="M928.879,-285.874C920.277,-287.401 911.395,-288.85 903,-290 823.1,-300.943 729.325,-307.917 675.076,-311.38"/>
<polygon fill="midnightblue" stroke="midnightblue" points="929.596,-289.301 938.803,-284.058 928.336,-282.415 929.596,-289.301"/>
</g>
<!-- Node3 -->
<g id="node3" class="node"><title>Node3</title>
<g id="a_node3"><a xlink:href="$class_slicer_p_r_i_s_m_1_1_p_r_i_s_m_1_1_p_r_i_s_m_widget.html#a4cb394295cd619d0c99b9c173ff5de4b" xlink:title="Function to update GUI from parameter node values.">
<polygon fill="none" stroke="black" points="368,-304.5 368,-323.5 520,-323.5 520,-304.5 368,-304.5"/>
<text text-anchor="middle" x="444" y="-311.5" font-family="Helvetica,sans-Serif" font-size="10.00">updateGUIFromParameterNode</text>
</a>
</g>
</g>
<!-- Node1&#45;&gt;Node3 -->
<g id="edge15" class="edge"><title>Node1&#45;&gt;Node3</title>
<path fill="none" stroke="midnightblue" d="M953.147,-290.599C938.935,-298.254 920.502,-307.047 903,-312 754.335,-354.076 709.95,-346.081 556,-333 534.181,-331.146 510.208,-327.278 490.141,-323.512"/>
<polygon fill="midnightblue" stroke="midnightblue" points="955.207,-293.459 962.248,-285.542 951.807,-287.34 955.207,-293.459"/>
</g>
<!-- Node7 -->
<g id="node7" class="node"><title>Node7</title>
<g id="a_node7"><a xlink:href="$class_slicer_p_r_i_s_m_1_1_p_r_i_s_m_1_1_p_r_i_s_m_widget.html#a645a019fd9d617af14565ec9d4333dbd" xlink:title="Sets the current parameter type according to the combobox input.">
<polygon fill="none" stroke="black" points="738,-57.5 738,-76.5 903,-76.5 903,-57.5 738,-57.5"/>
<text text-anchor="middle" x="820.5" y="-64.5" font-family="Helvetica,sans-Serif" font-size="10.00">onAddParamComboIndexChanged</text>
</a>
</g>
</g>
<!-- Node1&#45;&gt;Node7 -->
<g id="edge6" class="edge"><title>Node1&#45;&gt;Node7</title>
<path fill="none" stroke="midnightblue" d="M964.867,-258.461C933.128,-216.075 853.077,-109.17 828.673,-76.5793"/>
<polygon fill="midnightblue" stroke="midnightblue" points="962.073,-260.57 970.869,-266.477 967.677,-256.374 962.073,-260.57"/>
</g>
<!-- Node11 -->
<g id="node11" class="node"><title>Node11</title>
<g id="a_node11"><a xlink:href="$class_slicer_p_r_i_s_m_1_1_p_r_i_s_m_1_1_p_r_i_s_m_widget.html#a16e1c85444e27fae67a4b0973d36fe67" xlink:title="Function to remove observers from the GUI&#39;s widgets.">
<polygon fill="none" stroke="black" points="575.5,-266.5 575.5,-285.5 682.5,-285.5 682.5,-266.5 575.5,-266.5"/>
<text text-anchor="middle" x="629" y="-273.5" font-family="Helvetica,sans-Serif" font-size="10.00">removeGUIObservers</text>
</a>
</g>
</g>
<!-- Node1&#45;&gt;Node11 -->
<g id="edge12" class="edge"><title>Node1&#45;&gt;Node11</title>
<path fill="none" stroke="midnightblue" d="M928.746,-276C863.653,-276 749.446,-276 682.681,-276"/>
<polygon fill="midnightblue" stroke="midnightblue" points="928.756,-279.5 938.756,-276 928.756,-272.5 928.756,-279.5"/>
</g>
<!-- Node13 -->
<g id="node13" class="node"><title>Node13</title>
<g id="a_node13"><a xlink:href="$class_slicer_p_r_i_s_m_1_1_p_r_i_s_m_1_1_p_r_i_s_m_widget.html#a9c2580701ccfac91074c348bf51d8353" xlink:title="Function to update the parameter node from gui values.">
<polygon fill="none" stroke="black" points="744.5,-228.5 744.5,-247.5 896.5,-247.5 896.5,-228.5 744.5,-228.5"/>
<text text-anchor="middle" x="820.5" y="-235.5" font-family="Helvetica,sans-Serif" font-size="10.00">updateParameterNodeFromGUI</text>
</a>
</g>
</g>
<!-- Node1&#45;&gt;Node13 -->
<g id="edge16" class="edge"><title>Node1&#45;&gt;Node13</title>
<path fill="none" stroke="midnightblue" d="M929.072,-264.12C907.033,-258.768 881.366,-252.536 860.632,-247.502"/>
<polygon fill="midnightblue" stroke="midnightblue" points="928.369,-267.551 938.912,-266.509 930.02,-260.748 928.369,-267.551"/>
</g>
<!-- Node2&#45;&gt;Node3 -->
<g id="edge2" class="edge"><title>Node2&#45;&gt;Node3</title>
<path fill="none" stroke="midnightblue" d="M572.759,-314C556.262,-314 537.89,-314 520.337,-314"/>
<polygon fill="midnightblue" stroke="midnightblue" points="572.764,-317.5 582.764,-314 572.764,-310.5 572.764,-317.5"/>
</g>
<!-- Node4 -->
<g id="node4" class="node"><title>Node4</title>
<g id="a_node4"><a xlink:href="$class_slicer_p_r_i_s_m_1_1_p_r_i_s_m_1_1_p_r_i_s_m_widget.html#adaa9135573481fda408b1b56cea63670" xlink:title="Callback function when the custom shader combo box is changed.">
<polygon fill="none" stroke="black" points="186,-234 186,-264 332,-264 332,-234 186,-234"/>
<text text-anchor="start" x="194" y="-252" font-family="Helvetica,sans-Serif" font-size="10.00">onCustomShaderComboIndex</text>
<text text-anchor="middle" x="259" y="-241" font-family="Helvetica,sans-Serif" font-size="10.00">Changed</text>
</a>
</g>
</g>
<!-- Node3&#45;&gt;Node4 -->
<g id="edge3" class="edge"><title>Node3&#45;&gt;Node4</title>
<path fill="none" stroke="midnightblue" d="M390.914,-301.916C383.175,-299.8 375.338,-297.476 368,-295 341.738,-286.14 312.899,-273.711 291.633,-264.006"/>
<polygon fill="midnightblue" stroke="midnightblue" points="390.057,-305.309 400.62,-304.479 391.845,-298.541 390.057,-305.309"/>
</g>
<!-- Node5 -->
<g id="node5" class="node"><title>Node5</title>
<g id="a_node5"><a xlink:href="$class_slicer_p_r_i_s_m_1_1_p_r_i_s_m_1_1_p_r_i_s_m_widget.html#a325535c42ba7ec6ffe9b6484a0a71f85" xlink:title="Function to update the parameter node.">
<polygon fill="none" stroke="black" points="193.5,-304.5 193.5,-323.5 324.5,-323.5 324.5,-304.5 193.5,-304.5"/>
<text text-anchor="middle" x="259" y="-311.5" font-family="Helvetica,sans-Serif" font-size="10.00">onParameterNodeModified</text>
</a>
</g>
</g>
<!-- Node3&#45;&gt;Node5 -->
<g id="edge4" class="edge"><title>Node3&#45;&gt;Node5</title>
<path fill="none" stroke="midnightblue" d="M357.652,-314C346.573,-314 335.373,-314 324.706,-314"/>
<polygon fill="midnightblue" stroke="midnightblue" points="357.775,-317.5 367.775,-314 357.775,-310.5 357.775,-317.5"/>
</g>
<!-- Node6 -->
<g id="node6" class="node"><title>Node6</title>
<g id="a_node6"><a xlink:href="$class_slicer_p_r_i_s_m_1_1_p_r_i_s_m_1_1_p_r_i_s_m_widget.html#aec96b9b1b3199eeba9f95e65796306c1" xlink:title="Function to set the parameter node.">
<polygon fill="none" stroke="black" points="0,-304.5 0,-323.5 150,-323.5 150,-304.5 0,-304.5"/>
<text text-anchor="middle" x="75" y="-311.5" font-family="Helvetica,sans-Serif" font-size="10.00">setAndObserveParameterNode</text>
</a>
</g>
</g>
<!-- Node5&#45;&gt;Node6 -->
<g id="edge5" class="edge"><title>Node5&#45;&gt;Node6</title>
<path fill="none" stroke="midnightblue" d="M183.012,-314C172.137,-314 160.947,-314 150.09,-314"/>
<polygon fill="midnightblue" stroke="midnightblue" points="183.321,-317.5 193.321,-314 183.321,-310.5 183.321,-317.5"/>
</g>
<!-- Node8 -->
<g id="node8" class="node"><title>Node8</title>
<g id="a_node8"><a xlink:href="$class_slicer_p_r_i_s_m_1_1_p_r_i_s_m_1_1_p_r_i_s_m_widget.html#ac406a5ff5a88ee3578f24b16f74171ab" xlink:title="Function to create the parameters layout to enable adding new parameters to a file.">
<polygon fill="none" stroke="black" points="382.5,-38.5 382.5,-57.5 505.5,-57.5 505.5,-38.5 382.5,-38.5"/>
<text text-anchor="middle" x="444" y="-45.5" font-family="Helvetica,sans-Serif" font-size="10.00">createParametersLayout</text>
</a>
</g>
</g>
<!-- Node7&#45;&gt;Node8 -->
<g id="edge7" class="edge"><title>Node7&#45;&gt;Node8</title>
<path fill="none" stroke="midnightblue" d="M727.467,-70.8125C676.789,-71.9541 612.824,-71.8282 556,-67 534.181,-65.1461 510.208,-61.2777 490.141,-57.5122"/>
<polygon fill="midnightblue" stroke="midnightblue" points="727.834,-74.3046 737.745,-70.5596 727.662,-67.3067 727.834,-74.3046"/>
</g>
<!-- Node9 -->
<g id="node9" class="node"><title>Node9</title>
<g id="a_node9"><a xlink:href="$class_slicer_p_r_i_s_m_1_1_p_r_i_s_m_1_1_p_r_i_s_m_widget.html#ab7c52ead53f10907b9369a7011ed227f" xlink:title="Function to hide/show the points related widgets.">
<polygon fill="none" stroke="black" points="558.5,-38.5 558.5,-57.5 699.5,-57.5 699.5,-38.5 558.5,-38.5"/>
<text text-anchor="middle" x="629" y="-45.5" font-family="Helvetica,sans-Serif" font-size="10.00">onAddPointsComboChanged</text>
</a>
</g>
</g>
<!-- Node7&#45;&gt;Node9 -->
<g id="edge8" class="edge"><title>Node7&#45;&gt;Node9</title>
<path fill="none" stroke="midnightblue" d="M727.572,-57.783C718.154,-56.8387 708.699,-55.8906 699.579,-54.9762"/>
<polygon fill="midnightblue" stroke="midnightblue" points="727.461,-61.2892 737.76,-58.8044 728.159,-54.3242 727.461,-61.2892"/>
</g>
<!-- Node10 -->
<g id="node10" class="node"><title>Node10</title>
<g id="a_node10"><a xlink:href="$class_slicer_p_r_i_s_m_1_1_p_r_i_s_m_1_1_p_r_i_s_m_widget.html#aacc3a0a2f4821602d9869f8d12aa2e6a" xlink:title="Function to hide/show the transfer functions related widgets.">
<polygon fill="none" stroke="black" points="566.5,-0.5 566.5,-19.5 691.5,-19.5 691.5,-0.5 566.5,-0.5"/>
<text text-anchor="middle" x="629" y="-7.5" font-family="Helvetica,sans-Serif" font-size="10.00">onAddTFComboChanged</text>
</a>
</g>
</g>
<!-- Node7&#45;&gt;Node10 -->
<g id="edge10" class="edge"><title>Node7&#45;&gt;Node10</title>
<path fill="none" stroke="midnightblue" d="M781.453,-54.1115C758.531,-46.4927 728.701,-36.8344 702,-29 690.96,-25.7607 678.893,-22.4772 667.849,-19.5719"/>
<polygon fill="midnightblue" stroke="midnightblue" points="780.549,-57.4996 791.143,-57.3474 782.767,-50.8601 780.549,-57.4996"/>
</g>
<!-- Node9&#45;&gt;Node8 -->
<g id="edge9" class="edge"><title>Node9&#45;&gt;Node8</title>
<path fill="none" stroke="midnightblue" d="M548.007,-48C533.76,-48 519.135,-48 505.543,-48"/>
<polygon fill="midnightblue" stroke="midnightblue" points="548.294,-51.5001 558.294,-48 548.293,-44.5001 548.294,-51.5001"/>
</g>
<!-- Node10&#45;&gt;Node8 -->
<g id="edge11" class="edge"><title>Node10&#45;&gt;Node8</title>
<path fill="none" stroke="midnightblue" d="M571.747,-21.681C545.795,-27.0699 515.378,-33.3861 490.847,-38.4799"/>
<polygon fill="midnightblue" stroke="midnightblue" points="572.742,-25.0491 581.821,-19.589 571.319,-18.1953 572.742,-25.0491"/>
</g>
<!-- Node11&#45;&gt;Node3 -->
<g id="edge14" class="edge"><title>Node11&#45;&gt;Node3</title>
<path fill="none" stroke="midnightblue" d="M571.747,-287.681C545.795,-293.07 515.378,-299.386 490.847,-304.48"/>
<polygon fill="midnightblue" stroke="midnightblue" points="572.742,-291.049 581.821,-285.589 571.319,-284.195 572.742,-291.049"/>
</g>
<!-- Node12 -->
<g id="node12" class="node"><title>Node12</title>
<g id="a_node12"><a xlink:href="$class_slicer_p_r_i_s_m_1_1_p_r_i_s_m_1_1_p_r_i_s_m_widget.html#ad437efc961d478c0fbe40e9ad2a0578a" xlink:title="Function to clean up the scene.">
<polygon fill="none" stroke="black" points="419,-266.5 419,-285.5 469,-285.5 469,-266.5 419,-266.5"/>
<text text-anchor="middle" x="444" y="-273.5" font-family="Helvetica,sans-Serif" font-size="10.00">cleanup</text>
</a>
</g>
</g>
<!-- Node11&#45;&gt;Node12 -->
<g id="edge13" class="edge"><title>Node11&#45;&gt;Node12</title>
<path fill="none" stroke="midnightblue" d="M565.052,-276C532.141,-276 493.753,-276 469.416,-276"/>
<polygon fill="midnightblue" stroke="midnightblue" points="565.069,-279.5 575.069,-276 565.069,-272.5 565.069,-279.5"/>
</g>
<!-- Node13&#45;&gt;Node2 -->
<g id="edge17" class="edge"><title>Node13&#45;&gt;Node2</title>
<path fill="none" stroke="midnightblue" d="M793.508,-252.421C770.113,-264.958 734.514,-282.953 702,-295 692.423,-298.548 681.9,-301.716 671.928,-304.4"/>
<polygon fill="midnightblue" stroke="midnightblue" points="795.318,-255.421 802.443,-247.579 791.983,-249.266 795.318,-255.421"/>
</g>
<!-- Node13&#45;&gt;Node4 -->
<g id="edge23" class="edge"><title>Node13&#45;&gt;Node4</title>
<path fill="none" stroke="midnightblue" d="M734.28,-239.675C624.405,-241.836 435.24,-245.555 332.134,-247.582"/>
<polygon fill="midnightblue" stroke="midnightblue" points="734.405,-243.174 744.334,-239.478 734.267,-236.175 734.405,-243.174"/>
</g>
<!-- Node13&#45;&gt;Node11 -->
<g id="edge25" class="edge"><title>Node13&#45;&gt;Node11</title>
<path fill="none" stroke="midnightblue" d="M761.605,-249.61C734.654,-255.014 702.99,-261.364 677.475,-266.48"/>
<polygon fill="midnightblue" stroke="midnightblue" points="762.565,-252.987 771.681,-247.589 761.188,-246.124 762.565,-252.987"/>
</g>
<!-- Node14 -->
<g id="node14" class="node"><title>Node14</title>
<g id="a_node14"><a xlink:href="$class_slicer_p_r_i_s_m_1_1_p_r_i_s_m_1_1_p_r_i_s_m_widget.html#adc9c6622ed17fd138cccbdc9c82c1498" xlink:title="Function to create a transfert fuction widget.">
<polygon fill="none" stroke="black" points="556,-114.5 556,-133.5 702,-133.5 702,-114.5 556,-114.5"/>
<text text-anchor="middle" x="629" y="-121.5" font-family="Helvetica,sans-Serif" font-size="10.00">createTransferFunctionWidget</text>
</a>
</g>
</g>
<!-- Node13&#45;&gt;Node14 -->
<g id="edge18" class="edge"><title>Node13&#45;&gt;Node14</title>
<path fill="none" stroke="midnightblue" d="M801.79,-221.371C779.858,-201.538 740.647,-168.499 702,-148 690.942,-142.135 678.176,-137.317 666.492,-133.578"/>
<polygon fill="midnightblue" stroke="midnightblue" points="799.578,-224.091 809.313,-228.272 804.31,-218.933 799.578,-224.091"/>
</g>
<!-- Node16 -->
<g id="node16" class="node"><title>Node16</title>
<g id="a_node16"><a xlink:href="$class_slicer_p_r_i_s_m_1_1_p_r_i_s_m_1_1_p_r_i_s_m_widget.html#a54a1afbbde03873c1a73c339eaf4ac63" xlink:title="Callback function when the volume node has been changed in the dedicated combobox.">
<polygon fill="none" stroke="black" points="380,-152.5 380,-171.5 508,-171.5 508,-152.5 380,-152.5"/>
<text text-anchor="middle" x="444" y="-159.5" font-family="Helvetica,sans-Serif" font-size="10.00">onImageSelectorChanged</text>
</a>
</g>
</g>
<!-- Node13&#45;&gt;Node16 -->
<g id="edge24" class="edge"><title>Node13&#45;&gt;Node16</title>
<path fill="none" stroke="midnightblue" d="M793.751,-223.683C770.515,-211.483 735.013,-194.601 702,-186 637.279,-169.137 560.669,-163.779 508.033,-162.243"/>
<polygon fill="midnightblue" stroke="midnightblue" points="792.149,-226.795 802.618,-228.425 795.45,-220.622 792.149,-226.795"/>
</g>
<!-- Node17 -->
<g id="node17" class="node"><title>Node17</title>
<g id="a_node17"><a xlink:href="$class_slicer_p_r_i_s_m_1_1_p_r_i_s_m_1_1_p_r_i_s_m_widget.html#a5354f5739815c9b04b2e8df68991a1b7" xlink:title="Function to initialize the all user interface based on current scene.">
<polygon fill="none" stroke="black" points="232.5,-179.5 232.5,-198.5 285.5,-198.5 285.5,-179.5 232.5,-179.5"/>
<text text-anchor="middle" x="259" y="-186.5" font-family="Helvetica,sans-Serif" font-size="10.00">initState</text>
</a>
</g>
</g>
<!-- Node13&#45;&gt;Node17 -->
<g id="edge22" class="edge"><title>Node13&#45;&gt;Node17</title>
<path fill="none" stroke="midnightblue" d="M734.038,-230.515C604.258,-219.149 364.262,-198.131 285.658,-191.247"/>
<polygon fill="midnightblue" stroke="midnightblue" points="734.067,-234.031 744.334,-231.417 734.677,-227.058 734.067,-234.031"/>
</g>
<!-- Node15 -->
<g id="node15" class="node"><title>Node15</title>
<g id="a_node15"><a xlink:href="$class_slicer_p_r_i_s_m_1_1_p_r_i_s_m_1_1_p_r_i_s_m_widget.html#ac59c625f0d809c1dd0ec96e9e8312dd8" xlink:title="Function to add transfer function widgets to the ui.">
<polygon fill="none" stroke="black" points="389,-114.5 389,-133.5 499,-133.5 499,-114.5 389,-114.5"/>
<text text-anchor="middle" x="444" y="-121.5" font-family="Helvetica,sans-Serif" font-size="10.00">addTransferFunctions</text>
</a>
</g>
</g>
<!-- Node14&#45;&gt;Node15 -->
<g id="edge19" class="edge"><title>Node14&#45;&gt;Node15</title>
<path fill="none" stroke="midnightblue" d="M545.653,-124C529.895,-124 513.771,-124 499.176,-124"/>
<polygon fill="midnightblue" stroke="midnightblue" points="545.936,-127.5 555.936,-124 545.936,-120.5 545.936,-127.5"/>
</g>
<!-- Node14&#45;&gt;Node16 -->
<g id="edge20" class="edge"><title>Node14&#45;&gt;Node16</title>
<path fill="none" stroke="midnightblue" d="M571.747,-135.681C545.795,-141.07 515.378,-147.386 490.847,-152.48"/>
<polygon fill="midnightblue" stroke="midnightblue" points="572.742,-139.049 581.821,-133.589 571.319,-132.195 572.742,-139.049"/>
</g>
<!-- Node16&#45;&gt;Node17 -->
<g id="edge21" class="edge"><title>Node16&#45;&gt;Node17</title>
<path fill="none" stroke="midnightblue" d="M369.803,-172.8C340.066,-177.187 307.64,-181.971 285.792,-185.195"/>
<polygon fill="midnightblue" stroke="midnightblue" points="370.384,-176.252 379.766,-171.33 369.362,-169.327 370.384,-176.252"/>
</g>
</g>
</svg>
