<?xml version="1.0" encoding="UTF-8" standalone="no"?>
<!DOCTYPE svg PUBLIC "-//W3C//DTD SVG 1.1//EN"
 "http://www.w3.org/Graphics/SVG/1.1/DTD/svg11.dtd">
<!-- Generated by graphviz version 2.38.0 (20140413.2041)
 -->
<!-- Title: onCustomShaderComboIndexChanged Pages: 1 -->
<svg width="789pt" height="162pt"
 viewBox="0.00 0.00 789.00 162.39" xmlns="http://www.w3.org/2000/svg" xmlns:xlink="http://www.w3.org/1999/xlink">
<g id="graph0" class="graph" transform="scale(1 1) rotate(0) translate(4 158.391)">
<title>onCustomShaderComboIndexChanged</title>
<!-- Node1 -->
<g id="node1" class="node"><title>Node1</title>
<g id="a_node1"><a xlink:title="Callback function when the custom shader combo box is changed.">
<polygon fill="#bfbfbf" stroke="black" points="0,-33 0,-63 146,-63 146,-33 0,-33"/>
<text text-anchor="start" x="8" y="-51" font-family="Helvetica,sans-Serif" font-size="10.00">onCustomShaderComboIndex</text>
<text text-anchor="middle" x="73" y="-40" font-family="Helvetica,sans-Serif" font-size="10.00">Changed</text>
</a>
</g>
</g>
<!-- Node2 -->
<g id="node2" class="node"><title>Node2</title>
<g id="a_node2"><a xlink:href="class_slicer_p_r_i_s_m_1_1_p_r_i_s_m_1_1_p_r_i_s_m_widget.html#a4cb394295cd619d0c99b9c173ff5de4b" target="_top" xlink:title="Function to update GUI from parameter node values.">
<polygon fill="none" stroke="black" points="182,-95.5 182,-114.5 334,-114.5 334,-95.5 182,-95.5"/>
<text text-anchor="middle" x="258" y="-102.5" font-family="Helvetica,sans-Serif" font-size="10.00">updateGUIFromParameterNode</text>
</a>
</g>
</g>
<!-- Node1&#45;&gt;Node2 -->
<g id="edge1" class="edge"><title>Node1&#45;&gt;Node2</title>
<path fill="none" stroke="midnightblue" d="M122.56,-63.1253C151.89,-72.2607 188.831,-83.7671 216.565,-92.4056"/>
<polygon fill="midnightblue" stroke="midnightblue" points="215.747,-95.8164 226.335,-95.4487 217.829,-89.1331 215.747,-95.8164"/>
</g>
<!-- Node5 -->
<g id="node5" class="node"><title>Node5</title>
<g id="a_node5"><a xlink:href="class_slicer_p_r_i_s_m_1_1_p_r_i_s_m_1_1_p_r_i_s_m_widget.html#a9c2580701ccfac91074c348bf51d8353" target="_top" xlink:title="Function to update the parameter node from gui values.">
<polygon fill="none" stroke="black" points="513,-76.5 513,-95.5 665,-95.5 665,-76.5 513,-76.5"/>
<text text-anchor="middle" x="589" y="-83.5" font-family="Helvetica,sans-Serif" font-size="10.00">updateParameterNodeFromGUI</text>
</a>
</g>
</g>
<!-- Node1&#45;&gt;Node5 -->
<g id="edge10" class="edge"><title>Node1&#45;&gt;Node5</title>
<path fill="none" stroke="midnightblue" d="M146.277,-48.7461C227.09,-50.1986 361.758,-54.468 477,-67 494.223,-68.8729 512.821,-71.7256 529.78,-74.6554"/>
<polygon fill="midnightblue" stroke="midnightblue" points="529.643,-78.1855 540.1,-76.4815 530.863,-71.2926 529.643,-78.1855"/>
</g>
<!-- Node7 -->
<g id="node7" class="node"><title>Node7</title>
<g id="a_node7"><a xlink:href="class_slicer_p_r_i_s_m_1_1_p_r_i_s_m_1_1_p_r_i_s_m_widget.html#aa315cc715c538dea175216d53f73915e" target="_top" xlink:title="Updates the shader parameters on the UI.">
<polygon fill="none" stroke="black" points="189.5,-0.5 189.5,-19.5 326.5,-19.5 326.5,-0.5 189.5,-0.5"/>
<text text-anchor="middle" x="258" y="-7.5" font-family="Helvetica,sans-Serif" font-size="10.00">UpdateShaderParametersUI</text>
</a>
</g>
</g>
<!-- Node1&#45;&gt;Node7 -->
<g id="edge11" class="edge"><title>Node1&#45;&gt;Node7</title>
<path fill="none" stroke="midnightblue" d="M146.064,-33.0359C164.374,-29.2337 183.774,-25.2054 201.142,-21.5988"/>
<polygon fill="midnightblue" stroke="midnightblue" points="202.031,-24.9891 211.111,-19.5289 200.608,-18.1353 202.031,-24.9891"/>
</g>
<!-- Node3 -->
<g id="node3" class="node"><title>Node3</title>
<g id="a_node3"><a xlink:href="class_slicer_p_r_i_s_m_1_1_p_r_i_s_m_1_1_p_r_i_s_m_widget.html#a69a2d837a10281b583a4e5f9044db193" target="_top" xlink:title="Function to add observers to the GUI&#39;s widgets.">
<polygon fill="none" stroke="black" points="377.5,-76.5 377.5,-95.5 469.5,-95.5 469.5,-76.5 377.5,-76.5"/>
<text text-anchor="middle" x="423.5" y="-83.5" font-family="Helvetica,sans-Serif" font-size="10.00">addGUIObservers</text>
</a>
</g>
</g>
<!-- Node2&#45;&gt;Node3 -->
<g id="edge2" class="edge"><title>Node2&#45;&gt;Node3</title>
<path fill="none" stroke="midnightblue" d="M334.051,-96.2785C345.247,-94.9774 356.613,-93.6566 367.299,-92.4148"/>
<polygon fill="midnightblue" stroke="midnightblue" points="367.78,-95.8826 377.309,-91.2516 366.972,-88.9294 367.78,-95.8826"/>
</g>
<!-- Node4 -->
<g id="node4" class="node"><title>Node4</title>
<g id="a_node4"><a xlink:href="class_slicer_p_r_i_s_m_1_1_p_r_i_s_m_1_1_p_r_i_s_m_widget.html#adfb7a3a22452b635bb615e4750c2bf29" target="_top" xlink:title="Function to get the class name of a widget.">
<polygon fill="none" stroke="black" points="701,-95.5 701,-114.5 781,-114.5 781,-95.5 701,-95.5"/>
<text text-anchor="middle" x="741" y="-102.5" font-family="Helvetica,sans-Serif" font-size="10.00">getClassName</text>
</a>
</g>
</g>
<!-- Node2&#45;&gt;Node4 -->
<g id="edge6" class="edge"><title>Node2&#45;&gt;Node4</title>
<path fill="none" stroke="midnightblue" d="M280.148,-114.591C302.088,-123.974 337.651,-137.616 370,-143 499.522,-164.556 535.94,-151.168 665,-127 677.4,-124.678 690.685,-121.141 702.577,-117.578"/>
<polygon fill="midnightblue" stroke="midnightblue" points="703.669,-120.904 712.188,-114.605 701.6,-114.216 703.669,-120.904"/>
</g>
<!-- Node6 -->
<g id="node6" class="node"><title>Node6</title>
<g id="a_node6"><a xlink:href="class_slicer_p_r_i_s_m_1_1_p_r_i_s_m_1_1_p_r_i_s_m_widget.html#a16e1c85444e27fae67a4b0973d36fe67" target="_top" xlink:title="Function to remove observers from the GUI&#39;s widgets.">
<polygon fill="none" stroke="black" points="370,-114.5 370,-133.5 477,-133.5 477,-114.5 370,-114.5"/>
<text text-anchor="middle" x="423.5" y="-121.5" font-family="Helvetica,sans-Serif" font-size="10.00">removeGUIObservers</text>
</a>
</g>
</g>
<!-- Node2&#45;&gt;Node6 -->
<g id="edge7" class="edge"><title>Node2&#45;&gt;Node6</title>
<path fill="none" stroke="midnightblue" d="M334.051,-113.721C342.645,-114.72 351.338,-115.73 359.748,-116.708"/>
<polygon fill="midnightblue" stroke="midnightblue" points="359.502,-120.203 369.839,-117.88 360.31,-113.249 359.502,-120.203"/>
</g>
<!-- Node3&#45;&gt;Node4 -->
<g id="edge3" class="edge"><title>Node3&#45;&gt;Node4</title>
<path fill="none" stroke="midnightblue" d="M459.678,-76.4792C507.008,-65.1888 593.506,-49.9217 665,-67 683.75,-71.4791 703.116,-81.4504 717.471,-90.055"/>
<polygon fill="midnightblue" stroke="midnightblue" points="715.785,-93.128 726.124,-95.4406 719.483,-87.1851 715.785,-93.128"/>
</g>
<!-- Node3&#45;&gt;Node5 -->
<g id="edge4" class="edge"><title>Node3&#45;&gt;Node5</title>
<path fill="none" stroke="midnightblue" d="M469.61,-86C479.991,-86 491.366,-86 502.831,-86"/>
<polygon fill="midnightblue" stroke="midnightblue" points="502.906,-89.5001 512.906,-86 502.906,-82.5001 502.906,-89.5001"/>
</g>
<!-- Node5&#45;&gt;Node4 -->
<g id="edge5" class="edge"><title>Node5&#45;&gt;Node4</title>
<path fill="none" stroke="midnightblue" d="M665.439,-95.5557C674.057,-96.6473 682.667,-97.7379 690.815,-98.7698"/>
<polygon fill="midnightblue" stroke="midnightblue" points="690.492,-102.257 700.852,-100.041 691.372,-95.3123 690.492,-102.257"/>
</g>
<!-- Node6&#45;&gt;Node4 -->
<g id="edge8" class="edge"><title>Node6&#45;&gt;Node4</title>
<path fill="none" stroke="midnightblue" d="M477.308,-120.82C536.882,-117.232 633.001,-111.444 690.974,-107.952"/>
<polygon fill="midnightblue" stroke="midnightblue" points="691.216,-111.444 700.987,-107.349 690.795,-104.457 691.216,-111.444"/>
</g>
<!-- Node6&#45;&gt;Node5 -->
<g id="edge9" class="edge"><title>Node6&#45;&gt;Node5</title>
<path fill="none" stroke="midnightblue" d="M465.758,-114.411C487.431,-109.374 514.183,-103.156 537.13,-97.8229"/>
<polygon fill="midnightblue" stroke="midnightblue" points="538.091,-101.193 547.039,-95.5201 536.506,-94.3748 538.091,-101.193"/>
</g>
</g>
</svg>
