<?xml version="1.0" encoding="UTF-8" standalone="no"?>
<!DOCTYPE svg PUBLIC "-//W3C//DTD SVG 1.1//EN"
 "http://www.w3.org/Graphics/SVG/1.1/DTD/svg11.dtd">
<!-- Generated by graphviz version 2.38.0 (20140413.2041)
 -->
<!-- Title: onClearPointsButton Pages: 1 -->
<svg width="426pt" height="66pt"
 viewBox="0.00 0.00 426.00 66.00" xmlns="http://www.w3.org/2000/svg" xmlns:xlink="http://www.w3.org/1999/xlink">
<g id="graph0" class="graph" transform="scale(1 1) rotate(0) translate(4 62)">
<title>onClearPointsButton</title>
<!-- Node1 -->
<g id="node1" class="node"><title>Node1</title>
<g id="a_node1"><a xlink:title=" ">
<polygon fill="#bfbfbf" stroke="black" points="0,-19.5 0,-38.5 106,-38.5 106,-19.5 0,-19.5"/>
<text text-anchor="middle" x="53" y="-26.5" font-family="Helvetica,sans-Serif" font-size="10.00">onClearPointsButton</text>
</a>
</g>
</g>
<!-- Node1&#45;&gt;Node1 -->
<g id="edge1" class="edge"><title>Node1&#45;&gt;Node1</title>
<path fill="none" stroke="midnightblue" d="M27.1063,-38.7571C14.5094,-47.5653 23.1406,-57 53,-57 73.0618,-57 83.5408,-52.741 84.4371,-47.2746"/>
<polygon fill="midnightblue" stroke="midnightblue" points="87.2819,-45.2291 78.8937,-38.7571 81.415,-49.0475 87.2819,-45.2291"/>
</g>
<!-- Node2 -->
<g id="node2" class="node"><title>Node2</title>
<g id="a_node2"><a xlink:href="$class_p_r_i_s_m_1_1_p_r_i_s_m_widget.html#a29b182c927e1baf9f15c5fb937a53012" xlink:title=" ">
<polygon fill="none" stroke="black" points="142,-38.5 142,-57.5 303,-57.5 303,-38.5 142,-38.5"/>
<text text-anchor="middle" x="222.5" y="-45.5" font-family="Helvetica,sans-Serif" font-size="10.00">removeLeftClickOnSlicerObserver</text>
</a>
</g>
</g>
<!-- Node1&#45;&gt;Node2 -->
<g id="edge2" class="edge"><title>Node1&#45;&gt;Node2</title>
<path fill="none" stroke="midnightblue" d="M106.08,-34.9076C114.313,-35.8415 123.026,-36.8298 131.826,-37.828"/>
<polygon fill="midnightblue" stroke="midnightblue" points="131.447,-41.3074 141.778,-38.9569 132.236,-34.352 131.447,-41.3074"/>
</g>
<!-- Node3 -->
<g id="node3" class="node"><title>Node3</title>
<g id="a_node3"><a xlink:href="$class_p_r_i_s_m_1_1_p_r_i_s_m_widget.html#a33e0a923839dfe51e13784b3a3807903" xlink:title=" ">
<polygon fill="none" stroke="black" points="193,-0.5 193,-19.5 252,-19.5 252,-0.5 193,-0.5"/>
<text text-anchor="middle" x="222.5" y="-7.5" font-family="Helvetica,sans-Serif" font-size="10.00">resetView</text>
</a>
</g>
</g>
<!-- Node1&#45;&gt;Node3 -->
<g id="edge3" class="edge"><title>Node1&#45;&gt;Node3</title>
<path fill="none" stroke="midnightblue" d="M106.08,-23.0924C130.897,-20.2773 160.066,-16.9686 182.872,-14.3817"/>
<polygon fill="midnightblue" stroke="midnightblue" points="183.322,-17.8532 192.863,-13.2483 182.533,-10.8978 183.322,-17.8532"/>
</g>
<!-- Node4 -->
<g id="node4" class="node"><title>Node4</title>
<g id="a_node4"><a xlink:href="$class_p_r_i_s_m_1_1_p_r_i_s_m_widget.html#abe8481031aa0f7fdc23bc41fd6e655e7" xlink:title=" ">
<polygon fill="none" stroke="black" points="339,-0.5 339,-19.5 418,-19.5 418,-0.5 339,-0.5"/>
<text text-anchor="middle" x="378.5" y="-7.5" font-family="Helvetica,sans-Serif" font-size="10.00">onUpdateView</text>
</a>
</g>
</g>
<!-- Node3&#45;&gt;Node4 -->
<g id="edge4" class="edge"><title>Node3&#45;&gt;Node4</title>
<path fill="none" stroke="midnightblue" d="M252.105,-10C273.588,-10 303.522,-10 328.756,-10"/>
<polygon fill="midnightblue" stroke="midnightblue" points="328.884,-13.5001 338.884,-10 328.884,-6.5001 328.884,-13.5001"/>
</g>
</g>
</svg>
