<?xml version="1.0" encoding="UTF-8" standalone="no"?>
<!DOCTYPE svg PUBLIC "-//W3C//DTD SVG 1.1//EN"
 "http://www.w3.org/Graphics/SVG/1.1/DTD/svg11.dtd">
<!-- Generated by graphviz version 2.38.0 (20140413.2041)
 -->
<!-- Title: onApplyACPCTransformButton Pages: 1 -->
<svg width="235pt" height="46pt"
 viewBox="0.00 0.00 235.00 46.00" xmlns="http://www.w3.org/2000/svg" xmlns:xlink="http://www.w3.org/1999/xlink">
<g id="graph0" class="graph" transform="scale(1 1) rotate(0) translate(4 42)">
<title>onApplyACPCTransformButton</title>
<!-- Node1 -->
<g id="node1" class="node"><title>Node1</title>
<g id="a_node1"><a xlink:title=" ">
<polygon fill="#bfbfbf" stroke="black" points="77,-0.5 77,-19.5 227,-19.5 227,-0.5 77,-0.5"/>
<text text-anchor="middle" x="152" y="-7.5" font-family="Helvetica,sans-Serif" font-size="10.00">onApplyACPCTransformButton</text>
</a>
</g>
</g>
<!-- Node1&#45;&gt;Node1 -->
<g id="edge1" class="edge"><title>Node1&#45;&gt;Node1</title>
<path fill="none" stroke="midnightblue" d="M176.181,-29.0292C174.862,-34.128 166.802,-38 152,-38 128.895,-38 122.216,-28.5653 131.963,-19.7571"/>
<polygon fill="midnightblue" stroke="midnightblue" points="179.313,-27.4582 172.037,-19.7571 172.922,-30.3148 179.313,-27.4582"/>
</g>
<!-- Node2 -->
<g id="node2" class="node"><title>Node2</title>
<g id="a_node2"><a xlink:href="$class_p_r_i_s_m_1_1_p_r_i_s_m_widget.html#ade41f93307784822f8bc17e85964d427" xlink:title=" ">
<polygon fill="none" stroke="black" points="0,-0.5 0,-19.5 41,-19.5 41,-0.5 0,-0.5"/>
<text text-anchor="middle" x="20.5" y="-7.5" font-family="Helvetica,sans-Serif" font-size="10.00">setup</text>
</a>
</g>
</g>
<!-- Node1&#45;&gt;Node2 -->
<g id="edge2" class="edge"><title>Node1&#45;&gt;Node2</title>
<path fill="none" stroke="midnightblue" d="M66.7134,-10C57.2164,-10 48.3381,-10 41.0068,-10"/>
<polygon fill="midnightblue" stroke="midnightblue" points="66.7953,-13.5001 76.7953,-10 66.7953,-6.5001 66.7953,-13.5001"/>
</g>
</g>
</svg>
