<?xml version="1.0" encoding="UTF-8" standalone="no"?>
<!DOCTYPE svg PUBLIC "-//W3C//DTD SVG 1.1//EN"
 "http://www.w3.org/Graphics/SVG/1.1/DTD/svg11.dtd">
<!-- Generated by graphviz version 2.38.0 (20140413.2041)
 -->
<!-- Title: onLeftControllerMoved Pages: 1 -->
<svg width="550pt" height="126pt"
 viewBox="0.00 0.00 550.00 126.00" xmlns="http://www.w3.org/2000/svg" xmlns:xlink="http://www.w3.org/1999/xlink">
<g id="graph0" class="graph" transform="scale(1 1) rotate(0) translate(4 122)">
<title>onLeftControllerMoved</title>
<!-- Node1 -->
<g id="node1" class="node"><title>Node1</title>
<g id="a_node1"><a xlink:title="Callback function w hen a the left controller position has changed.">
<polygon fill="#bfbfbf" stroke="black" points="0,-49.5 0,-68.5 112,-68.5 112,-49.5 0,-49.5"/>
<text text-anchor="middle" x="56" y="-56.5" font-family="Helvetica,sans-Serif" font-size="10.00">onLeftControllerMoved</text>
</a>
</g>
</g>
<!-- Node2 -->
<g id="node2" class="node"><title>Node2</title>
<g id="a_node2"><a xlink:href="$class_slicer_p_r_i_s_m_1_1_p_r_i_s_m_logic_1_1_p_r_i_s_m_logic.html#ab2ba2b97a3e667b8f577568de11a6c92" xlink:title="Get Entry point position.">
<polygon fill="none" stroke="black" points="211,-98.5 211,-117.5 264,-117.5 264,-98.5 211,-98.5"/>
<text text-anchor="middle" x="237.5" y="-105.5" font-family="Helvetica,sans-Serif" font-size="10.00">getEntry</text>
</a>
</g>
</g>
<!-- Node1&#45;&gt;Node2 -->
<g id="edge1" class="edge"><title>Node1&#45;&gt;Node2</title>
<path fill="none" stroke="midnightblue" d="M83.4513,-68.5518C101.49,-74.8597 126.005,-83.0319 148,-89 165.169,-93.6586 184.459,-97.9124 200.637,-101.209"/>
<polygon fill="midnightblue" stroke="midnightblue" points="200.273,-104.705 210.765,-103.231 201.644,-97.8405 200.273,-104.705"/>
</g>
<!-- Node3 -->
<g id="node3" class="node"><title>Node3</title>
<g id="a_node3"><a xlink:href="$class_slicer_p_r_i_s_m_1_1_resources_1_1_virtual_reality_helper_1_1_virtual_reality_helper.html#a0540f1d575f42e8fa3d6013367056cad" xlink:title=" ">
<polygon fill="none" stroke="black" points="148,-38.5 148,-79.5 327,-79.5 327,-38.5 148,-38.5"/>
<text text-anchor="start" x="156" y="-67.5" font-family="Helvetica,sans-Serif" font-size="10.00">SlicerPRISM.Resources.Virtual</text>
<text text-anchor="start" x="156" y="-56.5" font-family="Helvetica,sans-Serif" font-size="10.00">RealityHelper.VirtualRealityHelper.get</text>
<text text-anchor="middle" x="237.5" y="-45.5" font-family="Helvetica,sans-Serif" font-size="10.00">LeftControllerPosition</text>
</a>
</g>
</g>
<!-- Node1&#45;&gt;Node3 -->
<g id="edge2" class="edge"><title>Node1&#45;&gt;Node3</title>
<path fill="none" stroke="midnightblue" d="M112.321,-59C120.391,-59 128.899,-59 137.522,-59"/>
<polygon fill="midnightblue" stroke="midnightblue" points="137.677,-62.5001 147.677,-59 137.677,-55.5001 137.677,-62.5001"/>
</g>
<!-- Node5 -->
<g id="node5" class="node"><title>Node5</title>
<g id="a_node5"><a xlink:href="$class_slicer_p_r_i_s_m_1_1_p_r_i_s_m_logic_1_1_p_r_i_s_m_logic.html#ac7f193e1acb5a2827b4a2798bcf267a8" xlink:title="Get Target point position.">
<polygon fill="none" stroke="black" points="209,-0.5 209,-19.5 266,-19.5 266,-0.5 209,-0.5"/>
<text text-anchor="middle" x="237.5" y="-7.5" font-family="Helvetica,sans-Serif" font-size="10.00">getTarget</text>
</a>
</g>
</g>
<!-- Node1&#45;&gt;Node5 -->
<g id="edge4" class="edge"><title>Node1&#45;&gt;Node5</title>
<path fill="none" stroke="midnightblue" d="M83.4513,-49.4482C101.49,-43.1403 126.005,-34.9681 148,-29 164.547,-24.5102 183.064,-20.3963 198.866,-17.1535"/>
<polygon fill="midnightblue" stroke="midnightblue" points="199.698,-20.5565 208.811,-15.1531 198.317,-13.694 199.698,-20.5565"/>
</g>
<!-- Node4 -->
<g id="node4" class="node"><title>Node4</title>
<g id="a_node4"><a xlink:href="$class_slicer_p_r_i_s_m_1_1_resources_1_1_virtual_reality_helper_1_1_virtual_reality_helper.html#ae13eb7a77da60691d9642cfcb81630fe" xlink:title=" ">
<polygon fill="none" stroke="black" points="363,-38.5 363,-79.5 542,-79.5 542,-38.5 363,-38.5"/>
<text text-anchor="start" x="371" y="-67.5" font-family="Helvetica,sans-Serif" font-size="10.00">SlicerPRISM.Resources.Virtual</text>
<text text-anchor="start" x="371" y="-56.5" font-family="Helvetica,sans-Serif" font-size="10.00">RealityHelper.VirtualRealityHelper.get</text>
<text text-anchor="middle" x="452.5" y="-45.5" font-family="Helvetica,sans-Serif" font-size="10.00">LeftTransformNode</text>
</a>
</g>
</g>
<!-- Node3&#45;&gt;Node4 -->
<g id="edge3" class="edge"><title>Node3&#45;&gt;Node4</title>
<path fill="none" stroke="midnightblue" d="M327.289,-59C335.648,-59 344.156,-59 352.601,-59"/>
<polygon fill="midnightblue" stroke="midnightblue" points="352.855,-62.5001 362.855,-59 352.855,-55.5001 352.855,-62.5001"/>
</g>
</g>
</svg>
