<?xml version="1.0" encoding="UTF-8" standalone="no"?>
<!DOCTYPE svg PUBLIC "-//W3C//DTD SVG 1.1//EN"
 "http://www.w3.org/Graphics/SVG/1.1/DTD/svg11.dtd">
<!-- Generated by graphviz version 2.38.0 (20140413.2041)
 -->
<!-- Title: onVolumeRenderingCheckBoxToggled Pages: 1 -->
<svg width="234pt" height="57pt"
 viewBox="0.00 0.00 234.00 57.00" xmlns="http://www.w3.org/2000/svg" xmlns:xlink="http://www.w3.org/1999/xlink">
<g id="graph0" class="graph" transform="scale(1 1) rotate(0) translate(4 53)">
<title>onVolumeRenderingCheckBoxToggled</title>
<!-- Node1 -->
<g id="node1" class="node"><title>Node1</title>
<g id="a_node1"><a xlink:title=" ">
<polygon fill="#bfbfbf" stroke="black" points="77,-0.5 77,-30.5 226,-30.5 226,-0.5 77,-0.5"/>
<text text-anchor="start" x="85" y="-18.5" font-family="Helvetica,sans-Serif" font-size="10.00">onVolumeRenderingCheckBox</text>
<text text-anchor="middle" x="151.5" y="-7.5" font-family="Helvetica,sans-Serif" font-size="10.00">Toggled</text>
</a>
</g>
</g>
<!-- Node1&#45;&gt;Node1 -->
<g id="edge1" class="edge"><title>Node1&#45;&gt;Node1</title>
<path fill="none" stroke="midnightblue" d="M174.599,-40.9579C171.732,-45.679 164.033,-49 151.5,-49 130.934,-49 123.382,-40.0566 128.845,-30.659"/>
<polygon fill="midnightblue" stroke="midnightblue" points="178.083,-40.4988 174.155,-30.659 171.089,-40.8006 178.083,-40.4988"/>
</g>
<!-- Node2 -->
<g id="node2" class="node"><title>Node2</title>
<g id="a_node2"><a xlink:href="$class_p_r_i_s_m_1_1_p_r_i_s_m_widget.html#ade41f93307784822f8bc17e85964d427" xlink:title=" ">
<polygon fill="none" stroke="black" points="0,-6 0,-25 41,-25 41,-6 0,-6"/>
<text text-anchor="middle" x="20.5" y="-13" font-family="Helvetica,sans-Serif" font-size="10.00">setup</text>
</a>
</g>
</g>
<!-- Node1&#45;&gt;Node2 -->
<g id="edge2" class="edge"><title>Node1&#45;&gt;Node2</title>
<path fill="none" stroke="midnightblue" d="M66.8586,-15.5C57.3435,-15.5 48.4396,-15.5 41.0836,-15.5"/>
<polygon fill="midnightblue" stroke="midnightblue" points="66.9563,-19.0001 76.9563,-15.5 66.9562,-12.0001 66.9563,-19.0001"/>
</g>
</g>
</svg>
