<?xml version="1.0" encoding="UTF-8" standalone="no"?>
<!DOCTYPE svg PUBLIC "-//W3C//DTD SVG 1.1//EN"
 "http://www.w3.org/Graphics/SVG/1.1/DTD/svg11.dtd">
<!-- Generated by graphviz version 2.38.0 (20140413.2041)
 -->
<!-- Title: createParametersLayout Pages: 1 -->
<svg width="625pt" height="294pt"
 viewBox="0.00 0.00 625.00 294.00" xmlns="http://www.w3.org/2000/svg" xmlns:xlink="http://www.w3.org/1999/xlink">
<g id="graph0" class="graph" transform="scale(1 1) rotate(0) translate(4 290)">
<title>createParametersLayout</title>
<!-- Node1 -->
<g id="node1" class="node"><title>Node1</title>
<g id="a_node1"><a xlink:title="Function to create the parameters layout to enable adding new parameters to a file.">
<polygon fill="#bfbfbf" stroke="black" points="0,-114.5 0,-133.5 123,-133.5 123,-114.5 0,-114.5"/>
<text text-anchor="middle" x="61.5" y="-121.5" font-family="Helvetica,sans-Serif" font-size="10.00">createParametersLayout</text>
</a>
</g>
</g>
<!-- Node2 -->
<g id="node2" class="node"><title>Node2</title>
<g id="a_node2"><a xlink:href="$class_slicer_p_r_i_s_m_1_1_p_r_i_s_m_1_1_p_r_i_s_m_widget.html#a1eb16a219f95634ee6a878b4926d5d2a" xlink:title="Function to get the current parameters and add them into a dictionnary.">
<polygon fill="none" stroke="black" points="168.5,-228.5 168.5,-247.5 290.5,-247.5 290.5,-228.5 168.5,-228.5"/>
<text text-anchor="middle" x="229.5" y="-235.5" font-family="Helvetica,sans-Serif" font-size="10.00">addParamButtonClicked</text>
</a>
</g>
</g>
<!-- Node1&#45;&gt;Node2 -->
<g id="edge1" class="edge"><title>Node1&#45;&gt;Node2</title>
<path fill="none" stroke="midnightblue" d="M70.2725,-133.528C85.5038,-151.629 121.112,-191.21 159,-214 166.077,-218.257 174.015,-221.895 181.928,-224.955"/>
<polygon fill="midnightblue" stroke="midnightblue" points="180.913,-228.31 191.508,-228.404 183.285,-221.723 180.913,-228.31"/>
</g>
<!-- Node5 -->
<g id="node5" class="node"><title>Node5</title>
<g id="a_node5"><a xlink:href="$class_slicer_p_r_i_s_m_1_1_p_r_i_s_m_1_1_p_r_i_s_m_widget.html#a09c30f6796c372b242ca908731f4aa1c" xlink:title="Function to clear the widgets of a specific layout.">
<polygon fill="none" stroke="black" points="545,-190.5 545,-209.5 609,-209.5 609,-190.5 545,-190.5"/>
<text text-anchor="middle" x="577" y="-197.5" font-family="Helvetica,sans-Serif" font-size="10.00">hideLayout</text>
</a>
</g>
</g>
<!-- Node1&#45;&gt;Node5 -->
<g id="edge6" class="edge"><title>Node1&#45;&gt;Node5</title>
<path fill="none" stroke="midnightblue" d="M74.3795,-133.669C91.7405,-147.15 125.62,-171.056 159,-181 291.669,-220.523 458.518,-211.643 534.677,-204.589"/>
<polygon fill="midnightblue" stroke="midnightblue" points="535.191,-208.056 544.809,-203.611 534.519,-201.088 535.191,-208.056"/>
</g>
<!-- Node6 -->
<g id="node6" class="node"><title>Node6</title>
<g id="a_node6"><a xlink:href="$class_slicer_p_r_i_s_m_1_1_p_r_i_s_m_1_1_p_r_i_s_m_widget.html#abb2588d12603fb3de8be8f15a3ee0fd8" xlink:title="Function to enable or disable the button to change the parametters.">
<polygon fill="none" stroke="black" points="173,-152.5 173,-171.5 286,-171.5 286,-152.5 173,-152.5"/>
<text text-anchor="middle" x="229.5" y="-159.5" font-family="Helvetica,sans-Serif" font-size="10.00">addParamButtonState</text>
</a>
</g>
</g>
<!-- Node1&#45;&gt;Node6 -->
<g id="edge5" class="edge"><title>Node1&#45;&gt;Node6</title>
<path fill="none" stroke="midnightblue" d="M104.389,-133.589C126.393,-138.626 153.555,-144.844 176.852,-150.177"/>
<polygon fill="midnightblue" stroke="midnightblue" points="176.384,-153.66 186.912,-152.48 177.946,-146.837 176.384,-153.66"/>
</g>
<!-- Node7 -->
<g id="node7" class="node"><title>Node7</title>
<g id="a_node7"><a xlink:href="$class_slicer_p_r_i_s_m_1_1_p_r_i_s_m_1_1_p_r_i_s_m_widget.html#a645a019fd9d617af14565ec9d4333dbd" xlink:title="Sets the current parameter type according to the combobox input.">
<polygon fill="none" stroke="black" points="336,-95.5 336,-114.5 501,-114.5 501,-95.5 336,-95.5"/>
<text text-anchor="middle" x="418.5" y="-102.5" font-family="Helvetica,sans-Serif" font-size="10.00">onAddParamComboIndexChanged</text>
</a>
</g>
</g>
<!-- Node1&#45;&gt;Node7 -->
<g id="edge7" class="edge"><title>Node1&#45;&gt;Node7</title>
<path fill="none" stroke="midnightblue" d="M123.123,-120.755C178.764,-117.777 261.987,-113.323 325.764,-109.91"/>
<polygon fill="midnightblue" stroke="midnightblue" points="326.027,-113.401 335.826,-109.371 325.653,-106.411 326.027,-113.401"/>
</g>
<!-- Node10 -->
<g id="node10" class="node"><title>Node10</title>
<g id="a_node10"><a xlink:href="$class_slicer_p_r_i_s_m_1_1_p_r_i_s_m_1_1_p_r_i_s_m_widget.html#ab7c52ead53f10907b9369a7011ed227f" xlink:title="Function to hide/show the points related widgets.">
<polygon fill="none" stroke="black" points="159,-76.5 159,-95.5 300,-95.5 300,-76.5 159,-76.5"/>
<text text-anchor="middle" x="229.5" y="-83.5" font-family="Helvetica,sans-Serif" font-size="10.00">onAddPointsComboChanged</text>
</a>
</g>
</g>
<!-- Node1&#45;&gt;Node10 -->
<g id="edge11" class="edge"><title>Node1&#45;&gt;Node10</title>
<path fill="none" stroke="midnightblue" d="M104.389,-114.411C126.393,-109.374 153.555,-103.156 176.852,-97.8229"/>
<polygon fill="midnightblue" stroke="midnightblue" points="177.946,-101.163 186.912,-95.5201 176.384,-94.3398 177.946,-101.163"/>
</g>
<!-- Node11 -->
<g id="node11" class="node"><title>Node11</title>
<g id="a_node11"><a xlink:href="$class_slicer_p_r_i_s_m_1_1_p_r_i_s_m_1_1_p_r_i_s_m_widget.html#aacc3a0a2f4821602d9869f8d12aa2e6a" xlink:title="Function to hide/show the transfer functions related widgets.">
<polygon fill="none" stroke="black" points="167,-38.5 167,-57.5 292,-57.5 292,-38.5 167,-38.5"/>
<text text-anchor="middle" x="229.5" y="-45.5" font-family="Helvetica,sans-Serif" font-size="10.00">onAddTFComboChanged</text>
</a>
</g>
</g>
<!-- Node1&#45;&gt;Node11 -->
<g id="edge13" class="edge"><title>Node1&#45;&gt;Node11</title>
<path fill="none" stroke="midnightblue" d="M75.9504,-114.476C94.0601,-102.031 127.639,-80.2663 159,-67 164.535,-64.6585 170.441,-62.5266 176.383,-60.6082"/>
<polygon fill="midnightblue" stroke="midnightblue" points="177.805,-63.8343 186.358,-57.5818 175.773,-57.1358 177.805,-63.8343"/>
</g>
<!-- Node12 -->
<g id="node12" class="node"><title>Node12</title>
<g id="a_node12"><a xlink:href="$class_slicer_p_r_i_s_m_1_1_p_r_i_s_m_1_1_p_r_i_s_m_widget.html#a16963baa48c5178a3d9c56088c3b9c92" xlink:title="Function to hide/show the transfer functions widgets.">
<polygon fill="none" stroke="black" points="162.5,-0.5 162.5,-19.5 296.5,-19.5 296.5,-0.5 162.5,-0.5"/>
<text text-anchor="middle" x="229.5" y="-7.5" font-family="Helvetica,sans-Serif" font-size="10.00">onAddTypeComboChanged</text>
</a>
</g>
</g>
<!-- Node1&#45;&gt;Node12 -->
<g id="edge15" class="edge"><title>Node1&#45;&gt;Node12</title>
<path fill="none" stroke="midnightblue" d="M69.5581,-114.284C84.0737,-95.0179 119.267,-51.8668 159,-29 162.886,-26.7636 167.046,-24.7809 171.328,-23.0249"/>
<polygon fill="midnightblue" stroke="midnightblue" points="172.656,-26.2658 180.835,-19.5319 170.242,-19.6952 172.656,-26.2658"/>
</g>
<!-- Node3 -->
<g id="node3" class="node"><title>Node3</title>
<g id="a_node3"><a xlink:href="$class_slicer_p_r_i_s_m_1_1_p_r_i_s_m_1_1_p_r_i_s_m_widget.html#a220c420339b770100d81a3015e0ac60f" xlink:title="Function to modify the specified dictionnary in the specified shader.">
<polygon fill="none" stroke="black" points="387.5,-266.5 387.5,-285.5 449.5,-285.5 449.5,-266.5 387.5,-266.5"/>
<text text-anchor="middle" x="418.5" y="-273.5" font-family="Helvetica,sans-Serif" font-size="10.00">modifyDict</text>
</a>
</g>
</g>
<!-- Node2&#45;&gt;Node3 -->
<g id="edge2" class="edge"><title>Node2&#45;&gt;Node3</title>
<path fill="none" stroke="midnightblue" d="M277.688,-247.589C308.466,-253.843 348.201,-261.918 377.44,-267.859"/>
<polygon fill="midnightblue" stroke="midnightblue" points="376.816,-271.304 387.312,-269.866 378.21,-264.444 376.816,-271.304"/>
</g>
<!-- Node4 -->
<g id="node4" class="node"><title>Node4</title>
<g id="a_node4"><a xlink:href="$class_slicer_p_r_i_s_m_1_1_p_r_i_s_m_1_1_p_r_i_s_m_widget.html#a4d4c0f2a4bf9afc519d14631ee71e1f0" xlink:title="Function to reset a specific layout.">
<polygon fill="none" stroke="black" points="384.5,-228.5 384.5,-247.5 452.5,-247.5 452.5,-228.5 384.5,-228.5"/>
<text text-anchor="middle" x="418.5" y="-235.5" font-family="Helvetica,sans-Serif" font-size="10.00">resetLayout</text>
</a>
</g>
</g>
<!-- Node2&#45;&gt;Node4 -->
<g id="edge3" class="edge"><title>Node2&#45;&gt;Node4</title>
<path fill="none" stroke="midnightblue" d="M290.697,-238C317.884,-238 349.391,-238 374.197,-238"/>
<polygon fill="midnightblue" stroke="midnightblue" points="374.386,-241.5 384.386,-238 374.386,-234.5 374.386,-241.5"/>
</g>
<!-- Node4&#45;&gt;Node5 -->
<g id="edge4" class="edge"><title>Node4&#45;&gt;Node5</title>
<path fill="none" stroke="midnightblue" d="M452.69,-229.941C476.77,-224.094 509.486,-216.15 535.168,-209.914"/>
<polygon fill="midnightblue" stroke="midnightblue" points="536.095,-213.291 544.987,-207.53 534.444,-206.489 536.095,-213.291"/>
</g>
<!-- Node7&#45;&gt;Node5 -->
<g id="edge9" class="edge"><title>Node7&#45;&gt;Node5</title>
<path fill="none" stroke="midnightblue" d="M435.367,-114.632C462.668,-131.204 518.717,-165.228 551.208,-184.951"/>
<polygon fill="midnightblue" stroke="midnightblue" points="549.726,-188.145 560.091,-190.343 553.359,-182.162 549.726,-188.145"/>
</g>
<!-- Node8 -->
<g id="node8" class="node"><title>Node8</title>
<g id="a_node8"><a xlink:href="$class_slicer_p_r_i_s_m_1_1_p_r_i_s_m_1_1_p_r_i_s_m_widget.html#adfb7a3a22452b635bb615e4750c2bf29" xlink:title="Function to get the class name of a widget.">
<polygon fill="none" stroke="black" points="537,-114.5 537,-133.5 617,-133.5 617,-114.5 537,-114.5"/>
<text text-anchor="middle" x="577" y="-121.5" font-family="Helvetica,sans-Serif" font-size="10.00">getClassName</text>
</a>
</g>
</g>
<!-- Node7&#45;&gt;Node8 -->
<g id="edge8" class="edge"><title>Node7&#45;&gt;Node8</title>
<path fill="none" stroke="midnightblue" d="M498.208,-114.556C507.942,-115.737 517.666,-116.918 526.778,-118.024"/>
<polygon fill="midnightblue" stroke="midnightblue" points="526.425,-121.507 536.774,-119.238 527.268,-114.558 526.425,-121.507"/>
</g>
<!-- Node9 -->
<g id="node9" class="node"><title>Node9</title>
<g id="a_node9"><a xlink:href="$class_slicer_p_r_i_s_m_1_1_p_r_i_s_m_1_1_p_r_i_s_m_widget.html#a7ee7b1fc1343a8a2914eb4e0d72668f5" xlink:title="Function to show specific widgets of a layout.">
<polygon fill="none" stroke="black" points="543,-76.5 543,-95.5 611,-95.5 611,-76.5 543,-76.5"/>
<text text-anchor="middle" x="577" y="-83.5" font-family="Helvetica,sans-Serif" font-size="10.00">showLayout</text>
</a>
</g>
</g>
<!-- Node7&#45;&gt;Node9 -->
<g id="edge10" class="edge"><title>Node7&#45;&gt;Node9</title>
<path fill="none" stroke="midnightblue" d="M498.208,-95.4443C510.091,-94.0017 521.959,-92.5608 532.718,-91.2547"/>
<polygon fill="midnightblue" stroke="midnightblue" points="533.151,-94.7279 542.656,-90.0481 532.307,-87.7789 533.151,-94.7279"/>
</g>
<!-- Node10&#45;&gt;Node7 -->
<g id="edge12" class="edge"><title>Node10&#45;&gt;Node7</title>
<path fill="none" stroke="midnightblue" d="M300.132,-93.0749C308.491,-93.9242 317.123,-94.8013 325.735,-95.6763"/>
<polygon fill="midnightblue" stroke="midnightblue" points="325.517,-99.172 335.819,-96.7009 326.224,-92.2079 325.517,-99.172"/>
</g>
<!-- Node11&#45;&gt;Node7 -->
<g id="edge14" class="edge"><title>Node11&#45;&gt;Node7</title>
<path fill="none" stroke="midnightblue" d="M266.661,-57.5478C277.419,-60.4792 289.212,-63.7827 300,-67 326.666,-74.9525 356.497,-84.6091 379.428,-92.1977"/>
<polygon fill="midnightblue" stroke="midnightblue" points="378.529,-95.587 389.122,-95.4185 380.736,-88.944 378.529,-95.587"/>
</g>
</g>
</svg>
