<?xml version="1.0" encoding="UTF-8" standalone="no"?>
<!DOCTYPE svg PUBLIC "-//W3C//DTD SVG 1.1//EN"
 "http://www.w3.org/Graphics/SVG/1.1/DTD/svg11.dtd">
<!-- Generated by graphviz version 2.38.0 (20140413.2041)
 -->
<!-- Title: setupShader Pages: 1 -->
<svg width="280pt" height="52pt"
 viewBox="0.00 0.00 280.00 51.50" xmlns="http://www.w3.org/2000/svg" xmlns:xlink="http://www.w3.org/1999/xlink">
<g id="graph0" class="graph" transform="scale(1 1) rotate(0) translate(4 47.5)">
<title>setupShader</title>
<!-- Node1 -->
<g id="node1" class="node"><title>Node1</title>
<g id="a_node1"><a xlink:title=" ">
<polygon fill="#bfbfbf" stroke="black" points="0,-6 0,-25 71,-25 71,-6 0,-6"/>
<text text-anchor="middle" x="35.5" y="-13" font-family="Helvetica,sans-Serif" font-size="10.00">setupShader</text>
</a>
</g>
</g>
<!-- Node1&#45;&gt;Node1 -->
<g id="edge2" class="edge"><title>Node1&#45;&gt;Node1</title>
<path fill="none" stroke="midnightblue" d="M11.7641,-25.2571C0.216949,-34.0653 8.12891,-43.5 35.5,-43.5 53.4623,-43.5 63.0442,-39.4368 64.2458,-34.1539"/>
<polygon fill="midnightblue" stroke="midnightblue" points="67.1923,-32.2532 59.2359,-25.2571 61.0928,-35.6879 67.1923,-32.2532"/>
</g>
<!-- Node2 -->
<g id="node2" class="node"><title>Node2</title>
<g id="a_node2"><a xlink:href="$class_custom_shader_1_1_custom_shader.html#afa709225c85d81a8ca96f674e865ffa2" xlink:title=" ">
<polygon fill="none" stroke="black" points="107,-0.5 107,-30.5 272,-30.5 272,-0.5 107,-0.5"/>
<text text-anchor="start" x="115" y="-18.5" font-family="Helvetica,sans-Serif" font-size="10.00">CustomShader.CustomShader.set</text>
<text text-anchor="middle" x="189.5" y="-7.5" font-family="Helvetica,sans-Serif" font-size="10.00">AllUniforms</text>
</a>
</g>
</g>
<!-- Node1&#45;&gt;Node2 -->
<g id="edge1" class="edge"><title>Node1&#45;&gt;Node2</title>
<path fill="none" stroke="midnightblue" d="M71.3719,-15.5C79.141,-15.5 87.7307,-15.5 96.624,-15.5"/>
<polygon fill="midnightblue" stroke="midnightblue" points="96.7663,-19.0001 106.766,-15.5 96.7662,-12.0001 96.7663,-19.0001"/>
</g>
</g>
</svg>
