<?xml version="1.0" encoding="UTF-8" standalone="no"?>
<!DOCTYPE svg PUBLIC "-//W3C//DTD SVG 1.1//EN"
 "http://www.w3.org/Graphics/SVG/1.1/DTD/svg11.dtd">
<!-- Generated by graphviz version 2.38.0 (20140413.2041)
 -->
<!-- Title: onAddParamComboIndexChanged Pages: 1 -->
<svg width="289pt" height="104pt"
 viewBox="0.00 0.00 289.00 104.00" xmlns="http://www.w3.org/2000/svg" xmlns:xlink="http://www.w3.org/1999/xlink">
<g id="graph0" class="graph" transform="scale(1 1) rotate(0) translate(4 100)">
<title>onAddParamComboIndexChanged</title>
<!-- Node1 -->
<g id="node1" class="node"><title>Node1</title>
<g id="a_node1"><a xlink:title="Sets the current parameter type according to the combobox input.">
<polygon fill="#bfbfbf" stroke="black" points="0,-38.5 0,-57.5 165,-57.5 165,-38.5 0,-38.5"/>
<text text-anchor="middle" x="82.5" y="-45.5" font-family="Helvetica,sans-Serif" font-size="10.00">onAddParamComboIndexChanged</text>
</a>
</g>
</g>
<!-- Node2 -->
<g id="node2" class="node"><title>Node2</title>
<g id="a_node2"><a xlink:href="$class_slicer_p_r_i_s_m_1_1_p_r_i_s_m_1_1_p_r_i_s_m_widget.html#adfb7a3a22452b635bb615e4750c2bf29" xlink:title="Function to get the class name of a widget.">
<polygon fill="none" stroke="black" points="201,-76.5 201,-95.5 281,-95.5 281,-76.5 201,-76.5"/>
<text text-anchor="middle" x="241" y="-83.5" font-family="Helvetica,sans-Serif" font-size="10.00">getClassName</text>
</a>
</g>
</g>
<!-- Node1&#45;&gt;Node2 -->
<g id="edge1" class="edge"><title>Node1&#45;&gt;Node2</title>
<path fill="none" stroke="midnightblue" d="M122.992,-57.589C143.643,-62.6035 169.114,-68.7881 191.012,-74.1053"/>
<polygon fill="midnightblue" stroke="midnightblue" points="190.249,-77.5215 200.792,-76.4799 191.901,-70.7191 190.249,-77.5215"/>
</g>
<!-- Node3 -->
<g id="node3" class="node"><title>Node3</title>
<g id="a_node3"><a xlink:href="$class_slicer_p_r_i_s_m_1_1_p_r_i_s_m_1_1_p_r_i_s_m_widget.html#a09c30f6796c372b242ca908731f4aa1c" xlink:title="Function to clear the widgets of a specific layout.">
<polygon fill="none" stroke="black" points="209,-38.5 209,-57.5 273,-57.5 273,-38.5 209,-38.5"/>
<text text-anchor="middle" x="241" y="-45.5" font-family="Helvetica,sans-Serif" font-size="10.00">hideLayout</text>
</a>
</g>
</g>
<!-- Node1&#45;&gt;Node3 -->
<g id="edge2" class="edge"><title>Node1&#45;&gt;Node3</title>
<path fill="none" stroke="midnightblue" d="M165.417,-48C176.943,-48 188.364,-48 198.674,-48"/>
<polygon fill="midnightblue" stroke="midnightblue" points="198.975,-51.5001 208.975,-48 198.975,-44.5001 198.975,-51.5001"/>
</g>
<!-- Node4 -->
<g id="node4" class="node"><title>Node4</title>
<g id="a_node4"><a xlink:href="$class_slicer_p_r_i_s_m_1_1_p_r_i_s_m_1_1_p_r_i_s_m_widget.html#a7ee7b1fc1343a8a2914eb4e0d72668f5" xlink:title="Function to show specific widgets of a layout.">
<polygon fill="none" stroke="black" points="207,-0.5 207,-19.5 275,-19.5 275,-0.5 207,-0.5"/>
<text text-anchor="middle" x="241" y="-7.5" font-family="Helvetica,sans-Serif" font-size="10.00">showLayout</text>
</a>
</g>
</g>
<!-- Node1&#45;&gt;Node4 -->
<g id="edge3" class="edge"><title>Node1&#45;&gt;Node4</title>
<path fill="none" stroke="midnightblue" d="M122.992,-38.411C145.551,-32.9334 173.86,-26.0597 196.981,-20.4454"/>
<polygon fill="midnightblue" stroke="midnightblue" points="197.978,-23.8051 206.87,-18.0443 196.327,-17.0028 197.978,-23.8051"/>
</g>
</g>
</svg>
