<?xml version="1.0" encoding="UTF-8" standalone="no"?>
<!DOCTYPE svg PUBLIC "-//W3C//DTD SVG 1.1//EN"
 "http://www.w3.org/Graphics/SVG/1.1/DTD/svg11.dtd">
<!-- Generated by graphviz version 2.38.0 (20140413.2041)
 -->
<!-- Title: PRISM Pages: 1 -->
<svg width="131pt" height="160pt"
 viewBox="0.00 0.00 131.00 160.00" xmlns="http://www.w3.org/2000/svg" xmlns:xlink="http://www.w3.org/1999/xlink">
<g id="graph0" class="graph" transform="scale(1 1) rotate(0) translate(4 156)">
<title>PRISM</title>
<!-- Node1 -->
<g id="node1" class="node"><title>Node1</title>
<g id="a_node1"><a xlink:title=" ">
<polygon fill="#bfbfbf" stroke="black" points="29,-0.5 29,-57.5 94,-57.5 94,-0.5 29,-0.5"/>
<text text-anchor="middle" x="61.5" y="-45.5" font-family="Helvetica,sans-Serif" font-size="10.00">PRISM</text>
<polyline fill="none" stroke="black" points="29,-38.5 94,-38.5 "/>
<text text-anchor="middle" x="61.5" y="-26.5" font-family="Helvetica,sans-Serif" font-size="10.00"> </text>
<polyline fill="none" stroke="black" points="29,-19.5 94,-19.5 "/>
<text text-anchor="start" x="37" y="-7.5" font-family="Helvetica,sans-Serif" font-size="10.00">+ __init__()</text>
</a>
</g>
</g>
<!-- Node2 -->
<g id="node2" class="node"><title>Node2</title>
<g id="a_node2"><a xlink:href="class_scripted_loadable_module.html" target="_top" xlink:title=" ">
<polygon fill="none" stroke="black" points="0,-94.5 0,-151.5 123,-151.5 123,-94.5 0,-94.5"/>
<text text-anchor="middle" x="61.5" y="-139.5" font-family="Helvetica,sans-Serif" font-size="10.00">ScriptedLoadableModule</text>
<polyline fill="none" stroke="black" points="0,-132.5 123,-132.5 "/>
<text text-anchor="middle" x="61.5" y="-120.5" font-family="Helvetica,sans-Serif" font-size="10.00"> </text>
<polyline fill="none" stroke="black" points="0,-113.5 123,-113.5 "/>
<text text-anchor="middle" x="61.5" y="-101.5" font-family="Helvetica,sans-Serif" font-size="10.00"> </text>
</a>
</g>
</g>
<!-- Node2&#45;&gt;Node1 -->
<g id="edge1" class="edge"><title>Node2&#45;&gt;Node1</title>
<path fill="none" stroke="midnightblue" d="M61.5,-84.2092C61.5,-75.2929 61.5,-65.9513 61.5,-57.5836"/>
<polygon fill="none" stroke="midnightblue" points="58.0001,-84.3969 61.5,-94.397 65.0001,-84.397 58.0001,-84.3969"/>
</g>
</g>
</svg>
