<?xml version="1.0" encoding="UTF-8" standalone="no"?>
<!DOCTYPE svg PUBLIC "-//W3C//DTD SVG 1.1//EN"
 "http://www.w3.org/Graphics/SVG/1.1/DTD/svg11.dtd">
<!-- Generated by graphviz version 2.38.0 (20140413.2041)
 -->
<!-- Title: onEndPointsChanged Pages: 1 -->
<svg width="515pt" height="104pt"
 viewBox="0.00 0.00 515.00 104.00" xmlns="http://www.w3.org/2000/svg" xmlns:xlink="http://www.w3.org/1999/xlink">
<g id="graph0" class="graph" transform="scale(1 1) rotate(0) translate(4 100)">
<title>onEndPointsChanged</title>
<!-- Node1 -->
<g id="node1" class="node"><title>Node1</title>
<g id="a_node1"><a xlink:title=" ">
<polygon fill="#bfbfbf" stroke="black" points="0,-19.5 0,-38.5 110,-38.5 110,-19.5 0,-19.5"/>
<text text-anchor="middle" x="55" y="-26.5" font-family="Helvetica,sans-Serif" font-size="10.00">onEndPointsChanged</text>
</a>
</g>
</g>
<!-- Node1&#45;&gt;Node1 -->
<g id="edge4" class="edge"><title>Node1&#45;&gt;Node1</title>
<path fill="none" stroke="midnightblue" d="M28.4898,-38.7571C15.593,-47.5653 24.4297,-57 55,-57 75.5394,-57 86.268,-52.741 87.1856,-47.2746"/>
<polygon fill="midnightblue" stroke="midnightblue" points="89.9679,-45.1381 81.5102,-38.7571 84.1426,-49.0197 89.9679,-45.1381"/>
</g>
<!-- Node2 -->
<g id="node2" class="node"><title>Node2</title>
<g id="a_node2"><a xlink:href="$class_p_r_i_s_m_1_1_p_r_i_s_m_widget.html#a629595610431be5633652f4880dc4776" xlink:title=" ">
<polygon fill="none" stroke="black" points="167,-38.5 167,-57.5 289,-57.5 289,-38.5 167,-38.5"/>
<text text-anchor="middle" x="228" y="-45.5" font-family="Helvetica,sans-Serif" font-size="10.00">observeLeftClickOnSlice</text>
</a>
</g>
</g>
<!-- Node1&#45;&gt;Node2 -->
<g id="edge1" class="edge"><title>Node1&#45;&gt;Node2</title>
<path fill="none" stroke="midnightblue" d="M110.105,-35.0117C124.874,-36.6527 141.094,-38.4549 156.626,-40.1807"/>
<polygon fill="midnightblue" stroke="midnightblue" points="156.386,-43.6755 166.712,-41.3013 157.159,-36.7183 156.386,-43.6755"/>
</g>
<!-- Node5 -->
<g id="node5" class="node"><title>Node5</title>
<g id="a_node5"><a xlink:href="$class_p_r_i_s_m_1_1_p_r_i_s_m_widget.html#a40a19da92b9e78ded9109165a21f455a" xlink:title=" ">
<polygon fill="none" stroke="black" points="146,-0.5 146,-19.5 310,-19.5 310,-0.5 146,-0.5"/>
<text text-anchor="middle" x="228" y="-7.5" font-family="Helvetica,sans-Serif" font-size="10.00">removeRightClickOnSliceObserver</text>
</a>
</g>
</g>
<!-- Node1&#45;&gt;Node5 -->
<g id="edge5" class="edge"><title>Node1&#45;&gt;Node5</title>
<path fill="none" stroke="midnightblue" d="M110.105,-22.9883C118.263,-22.0818 126.864,-21.1262 135.547,-20.1614"/>
<polygon fill="midnightblue" stroke="midnightblue" points="136.204,-23.61 145.757,-19.027 135.431,-16.6528 136.204,-23.61"/>
</g>
<!-- Node3 -->
<g id="node3" class="node"><title>Node3</title>
<g id="a_node3"><a xlink:href="$class_p_r_i_s_m_1_1_p_r_i_s_m_widget.html#a5d8e1b70982f6361d32d8e18972b3b65" xlink:title=" ">
<polygon fill="none" stroke="black" points="394,-76.5 394,-95.5 459,-95.5 459,-76.5 394,-76.5"/>
<text text-anchor="middle" x="426.5" y="-83.5" font-family="Helvetica,sans-Serif" font-size="10.00">onLeftClick</text>
</a>
</g>
</g>
<!-- Node2&#45;&gt;Node3 -->
<g id="edge2" class="edge"><title>Node2&#45;&gt;Node3</title>
<path fill="none" stroke="midnightblue" d="M278.332,-57.54C310.914,-63.8409 353.133,-72.0054 383.991,-77.9728"/>
<polygon fill="midnightblue" stroke="midnightblue" points="383.507,-81.444 393.99,-79.9064 384.836,-74.5713 383.507,-81.444"/>
</g>
<!-- Node4 -->
<g id="node4" class="node"><title>Node4</title>
<g id="a_node4"><a xlink:href="$class_p_r_i_s_m_1_1_p_r_i_s_m_widget.html#a29b182c927e1baf9f15c5fb937a53012" xlink:title=" ">
<polygon fill="none" stroke="black" points="346,-38.5 346,-57.5 507,-57.5 507,-38.5 346,-38.5"/>
<text text-anchor="middle" x="426.5" y="-45.5" font-family="Helvetica,sans-Serif" font-size="10.00">removeLeftClickOnSlicerObserver</text>
</a>
</g>
</g>
<!-- Node2&#45;&gt;Node4 -->
<g id="edge3" class="edge"><title>Node2&#45;&gt;Node4</title>
<path fill="none" stroke="midnightblue" d="M289.024,-48C303.745,-48 319.823,-48 335.61,-48"/>
<polygon fill="midnightblue" stroke="midnightblue" points="335.926,-51.5001 345.926,-48 335.926,-44.5001 335.926,-51.5001"/>
</g>
<!-- Node6 -->
<g id="node6" class="node"><title>Node6</title>
<g id="a_node6"><a xlink:href="$class_p_r_i_s_m_1_1_p_r_i_s_m_widget.html#afa92c17d5fd6d29831a9f2f310f47741" xlink:title=" ">
<polygon fill="none" stroke="black" points="376.5,-0.5 376.5,-19.5 476.5,-19.5 476.5,-0.5 376.5,-0.5"/>
<text text-anchor="middle" x="426.5" y="-7.5" font-family="Helvetica,sans-Serif" font-size="10.00">updateEndPointsUI</text>
</a>
</g>
</g>
<!-- Node5&#45;&gt;Node6 -->
<g id="edge6" class="edge"><title>Node5&#45;&gt;Node6</title>
<path fill="none" stroke="midnightblue" d="M310.059,-10C328.882,-10 348.575,-10 366.256,-10"/>
<polygon fill="midnightblue" stroke="midnightblue" points="366.412,-13.5001 376.412,-10 366.412,-6.5001 366.412,-13.5001"/>
</g>
</g>
</svg>
