<?xml version="1.0" encoding="UTF-8" standalone="no"?>
<!DOCTYPE svg PUBLIC "-//W3C//DTD SVG 1.1//EN"
 "http://www.w3.org/Graphics/SVG/1.1/DTD/svg11.dtd">
<!-- Generated by graphviz version 2.38.0 (20140413.2041)
 -->
<!-- Title: onModifyCustomShaderButtonClicked Pages: 1 -->
<svg width="340pt" height="39pt"
 viewBox="0.00 0.00 340.00 39.00" xmlns="http://www.w3.org/2000/svg" xmlns:xlink="http://www.w3.org/1999/xlink">
<g id="graph0" class="graph" transform="scale(1 1) rotate(0) translate(4 35)">
<title>onModifyCustomShaderButtonClicked</title>
<!-- Node1 -->
<g id="node1" class="node"><title>Node1</title>
<g id="a_node1"><a xlink:title="Function to add the new shader replacement to a file.">
<polygon fill="#bfbfbf" stroke="black" points="0,-0.5 0,-30.5 149,-30.5 149,-0.5 0,-0.5"/>
<text text-anchor="start" x="8" y="-18.5" font-family="Helvetica,sans-Serif" font-size="10.00">onModifyCustomShaderButton</text>
<text text-anchor="middle" x="74.5" y="-7.5" font-family="Helvetica,sans-Serif" font-size="10.00">Clicked</text>
</a>
</g>
</g>
<!-- Node2 -->
<g id="node2" class="node"><title>Node2</title>
<g id="a_node2"><a xlink:href="$class_slicer_p_r_i_s_m_1_1_p_r_i_s_m_1_1_p_r_i_s_m_widget.html#a1ba3668a0c21b14d86ad81f50450d03b" xlink:title="Function to get a selected shader file path.">
<polygon fill="none" stroke="black" points="185,-6 185,-25 235,-25 235,-6 185,-6"/>
<text text-anchor="middle" x="210" y="-13" font-family="Helvetica,sans-Serif" font-size="10.00">getPath</text>
</a>
</g>
</g>
<!-- Node1&#45;&gt;Node2 -->
<g id="edge1" class="edge"><title>Node1&#45;&gt;Node2</title>
<path fill="none" stroke="midnightblue" d="M149.278,-15.5C158.15,-15.5 166.855,-15.5 174.756,-15.5"/>
<polygon fill="midnightblue" stroke="midnightblue" points="174.971,-19.0001 184.971,-15.5 174.971,-12.0001 174.971,-19.0001"/>
</g>
<!-- Node3 -->
<g id="node3" class="node"><title>Node3</title>
<g id="a_node3"><a xlink:href="$class_slicer_p_r_i_s_m_1_1_p_r_i_s_m_1_1_p_r_i_s_m_widget.html#af7406c9a5d8910debb54a749fa9462e9" xlink:title="Function to get the module&#39;s path.">
<polygon fill="none" stroke="black" points="271,-6 271,-25 332,-25 332,-6 271,-6"/>
<text text-anchor="middle" x="301.5" y="-13" font-family="Helvetica,sans-Serif" font-size="10.00">prismPath</text>
</a>
</g>
</g>
<!-- Node2&#45;&gt;Node3 -->
<g id="edge2" class="edge"><title>Node2&#45;&gt;Node3</title>
<path fill="none" stroke="midnightblue" d="M235.456,-15.5C243.257,-15.5 252.101,-15.5 260.699,-15.5"/>
<polygon fill="midnightblue" stroke="midnightblue" points="260.977,-19.0001 270.977,-15.5 260.977,-12.0001 260.977,-19.0001"/>
</g>
</g>
</svg>
