<?xml version="1.0" encoding="UTF-8" standalone="no"?>
<!DOCTYPE svg PUBLIC "-//W3C//DTD SVG 1.1//EN"
 "http://www.w3.org/Graphics/SVG/1.1/DTD/svg11.dtd">
<!-- Generated by graphviz version 2.38.0 (20140413.2041)
 -->
<!-- Title: CarveOpacityPeelingShader Pages: 1 -->
<svg width="268pt" height="651pt"
 viewBox="0.00 0.00 268.00 651.00" xmlns="http://www.w3.org/2000/svg" xmlns:xlink="http://www.w3.org/1999/xlink">
<g id="graph0" class="graph" transform="scale(1 1) rotate(0) translate(4 647)">
<title>CarveOpacityPeelingShader</title>
<!-- Node1 -->
<g id="node1" class="node"><title>Node1</title>
<g id="a_node1"><a xlink:title=" ">
<polygon fill="#bfbfbf" stroke="black" points="0,-0.5 0,-134.5 137,-134.5 137,-0.5 0,-0.5"/>
<text text-anchor="middle" x="68.5" y="-122.5" font-family="Helvetica,sans-Serif" font-size="10.00">CarveOpacityPeelingShader</text>
<polyline fill="none" stroke="black" points="0,-115.5 137,-115.5 "/>
<text text-anchor="middle" x="68.5" y="-103.5" font-family="Helvetica,sans-Serif" font-size="10.00"> </text>
<polyline fill="none" stroke="black" points="0,-96.5 137,-96.5 "/>
<text text-anchor="start" x="8" y="-84.5" font-family="Helvetica,sans-Serif" font-size="10.00">+ __init__()</text>
<text text-anchor="start" x="8" y="-73.5" font-family="Helvetica,sans-Serif" font-size="10.00">+ GetDisplayName()</text>
<text text-anchor="start" x="8" y="-62.5" font-family="Helvetica,sans-Serif" font-size="10.00">+ setupShader()</text>
<text text-anchor="start" x="8" y="-51.5" font-family="Helvetica,sans-Serif" font-size="10.00">+ setPathEnds()</text>
<text text-anchor="start" x="8" y="-40.5" font-family="Helvetica,sans-Serif" font-size="10.00">+ __init__()</text>
<text text-anchor="start" x="8" y="-29.5" font-family="Helvetica,sans-Serif" font-size="10.00">+ GetDisplayName()</text>
<text text-anchor="start" x="8" y="-18.5" font-family="Helvetica,sans-Serif" font-size="10.00">+ setupShader()</text>
<text text-anchor="start" x="8" y="-7.5" font-family="Helvetica,sans-Serif" font-size="10.00">+ setPathEnds()</text>
</a>
</g>
</g>
<!-- Node2 -->
<g id="node2" class="node"><title>Node2</title>
<g id="a_node2"><a xlink:href="$class_custom_shader_1_1_custom_shader.html" xlink:title=" ">
<polygon fill="none" stroke="black" points="115,-172.5 115,-537.5 260,-537.5 260,-172.5 115,-172.5"/>
<text text-anchor="middle" x="187.5" y="-525.5" font-family="Helvetica,sans-Serif" font-size="10.00">CustomShader</text>
<polyline fill="none" stroke="black" points="115,-518.5 260,-518.5 "/>
<text text-anchor="start" x="123" y="-506.5" font-family="Helvetica,sans-Serif" font-size="10.00">+ shaderPropertyNode</text>
<text text-anchor="start" x="123" y="-495.5" font-family="Helvetica,sans-Serif" font-size="10.00">+ shaderProperty</text>
<text text-anchor="start" x="123" y="-484.5" font-family="Helvetica,sans-Serif" font-size="10.00">+ shaderUniforms</text>
<text text-anchor="start" x="123" y="-473.5" font-family="Helvetica,sans-Serif" font-size="10.00">+ paramfValues</text>
<polyline fill="none" stroke="black" points="115,-466.5 260,-466.5 "/>
<text text-anchor="start" x="123" y="-454.5" font-family="Helvetica,sans-Serif" font-size="10.00">+ InstanciateCustomShader()</text>
<text text-anchor="start" x="123" y="-443.5" font-family="Helvetica,sans-Serif" font-size="10.00">+ GetAllShaderClassNames()</text>
<text text-anchor="start" x="123" y="-432.5" font-family="Helvetica,sans-Serif" font-size="10.00">+ GetDisplayName()</text>
<text text-anchor="start" x="123" y="-421.5" font-family="Helvetica,sans-Serif" font-size="10.00">+ hasShaderfParameter()</text>
<text text-anchor="start" x="123" y="-410.5" font-family="Helvetica,sans-Serif" font-size="10.00">+ __init__()</text>
<text text-anchor="start" x="123" y="-399.5" font-family="Helvetica,sans-Serif" font-size="10.00">+ getParameterNames()</text>
<text text-anchor="start" x="123" y="-388.5" font-family="Helvetica,sans-Serif" font-size="10.00">+ getShaderPropertyNode()</text>
<text text-anchor="start" x="123" y="-377.5" font-family="Helvetica,sans-Serif" font-size="10.00">+ setupShader()</text>
<text text-anchor="start" x="123" y="-366.5" font-family="Helvetica,sans-Serif" font-size="10.00">+ setPathEnds()</text>
<text text-anchor="start" x="123" y="-355.5" font-family="Helvetica,sans-Serif" font-size="10.00">+ setAllUniforms()</text>
<text text-anchor="start" x="123" y="-344.5" font-family="Helvetica,sans-Serif" font-size="10.00">+ setShaderParameter()</text>
<text text-anchor="start" x="123" y="-333.5" font-family="Helvetica,sans-Serif" font-size="10.00">+ getShaderParameter()</text>
<text text-anchor="start" x="123" y="-322.5" font-family="Helvetica,sans-Serif" font-size="10.00">+ clear()</text>
<text text-anchor="start" x="123" y="-311.5" font-family="Helvetica,sans-Serif" font-size="10.00">+ InstanciateCustomShader()</text>
<text text-anchor="start" x="123" y="-300.5" font-family="Helvetica,sans-Serif" font-size="10.00">+ GetAllShaderClassNames()</text>
<text text-anchor="start" x="123" y="-289.5" font-family="Helvetica,sans-Serif" font-size="10.00">+ GetDisplayName()</text>
<text text-anchor="start" x="123" y="-278.5" font-family="Helvetica,sans-Serif" font-size="10.00">+ hasShaderfParameter()</text>
<text text-anchor="start" x="123" y="-267.5" font-family="Helvetica,sans-Serif" font-size="10.00">+ __init__()</text>
<text text-anchor="start" x="123" y="-256.5" font-family="Helvetica,sans-Serif" font-size="10.00">+ getParameterNames()</text>
<text text-anchor="start" x="123" y="-245.5" font-family="Helvetica,sans-Serif" font-size="10.00">+ getShaderPropertyNode()</text>
<text text-anchor="start" x="123" y="-234.5" font-family="Helvetica,sans-Serif" font-size="10.00">+ setupShader()</text>
<text text-anchor="start" x="123" y="-223.5" font-family="Helvetica,sans-Serif" font-size="10.00">+ setPathEnds()</text>
<text text-anchor="start" x="123" y="-212.5" font-family="Helvetica,sans-Serif" font-size="10.00">+ setAllUniforms()</text>
<text text-anchor="start" x="123" y="-201.5" font-family="Helvetica,sans-Serif" font-size="10.00">+ setShaderParameter()</text>
<text text-anchor="start" x="123" y="-190.5" font-family="Helvetica,sans-Serif" font-size="10.00">+ getShaderParameter()</text>
<text text-anchor="start" x="123" y="-179.5" font-family="Helvetica,sans-Serif" font-size="10.00">+ clear()</text>
</a>
</g>
</g>
<!-- Node2&#45;&gt;Node1 -->
<g id="edge1" class="edge"><title>Node2&#45;&gt;Node1</title>
<path fill="none" stroke="midnightblue" d="M110.87,-170.152C105.71,-157.773 100.738,-145.844 96.1282,-134.784"/>
<polygon fill="none" stroke="midnightblue" points="107.771,-171.816 114.849,-179.699 114.232,-169.122 107.771,-171.816"/>
</g>
<!-- Node3 -->
<g id="node3" class="node"><title>Node3</title>
<g id="a_node3"><a xlink:title=" ">
<polygon fill="none" stroke="#bfbfbf" points="41,-585.5 41,-642.5 100,-642.5 100,-585.5 41,-585.5"/>
<text text-anchor="middle" x="70.5" y="-630.5" font-family="Helvetica,sans-Serif" font-size="10.00">dictionary</text>
<polyline fill="none" stroke="#bfbfbf" points="41,-623.5 100,-623.5 "/>
<text text-anchor="middle" x="70.5" y="-611.5" font-family="Helvetica,sans-Serif" font-size="10.00"> </text>
<polyline fill="none" stroke="#bfbfbf" points="41,-604.5 100,-604.5 "/>
<text text-anchor="middle" x="70.5" y="-592.5" font-family="Helvetica,sans-Serif" font-size="10.00"> </text>
</a>
</g>
</g>
<!-- Node3&#45;&gt;Node1 -->
<g id="edge3" class="edge"><title>Node3&#45;&gt;Node1</title>
<path fill="none" stroke="#404040" d="M52.0989,-585.43C44.0742,-571.779 35.5776,-554.68 31.5,-538 -7.12832,-379.986 3.71278,-332.276 31.5,-172 32.9679,-163.533 35.0642,-154.843 37.5225,-146.269"/>
<polygon fill="none" stroke="#404040" points="37.5573,-146.155 35.4912,-139.246 41.074,-134.682 43.14,-141.591 37.5573,-146.155"/>
<text text-anchor="middle" x="69" y="-352.5" font-family="Helvetica,sans-Serif" font-size="10.00"> +shaderfParams</text>
</g>
<!-- Node3&#45;&gt;Node2 -->
<g id="edge2" class="edge"><title>Node3&#45;&gt;Node2</title>
<path fill="none" stroke="#404040" d="M83.021,-585.496C90.0949,-569.958 99.5918,-549.097 109.987,-526.263"/>
<polygon fill="none" stroke="#404040" points="110.016,-526.2 108.862,-519.081 114.988,-515.278 116.143,-522.396 110.016,-526.2"/>
<text text-anchor="middle" x="133" y="-559" font-family="Helvetica,sans-Serif" font-size="10.00"> +shaderfParams</text>
</g>
</g>
</svg>
