<?xml version="1.0" encoding="UTF-8" standalone="no"?>
<!DOCTYPE svg PUBLIC "-//W3C//DTD SVG 1.1//EN"
 "http://www.w3.org/Graphics/SVG/1.1/DTD/svg11.dtd">
<!-- Generated by graphviz version 2.38.0 (20140413.2041)
 -->
<!-- Title: onUndoACPCTransformButton Pages: 1 -->
<svg width="233pt" height="46pt"
 viewBox="0.00 0.00 233.00 46.00" xmlns="http://www.w3.org/2000/svg" xmlns:xlink="http://www.w3.org/1999/xlink">
<g id="graph0" class="graph" transform="scale(1 1) rotate(0) translate(4 42)">
<title>onUndoACPCTransformButton</title>
<!-- Node1 -->
<g id="node1" class="node"><title>Node1</title>
<g id="a_node1"><a xlink:title=" ">
<polygon fill="#bfbfbf" stroke="black" points="77,-0.5 77,-19.5 225,-19.5 225,-0.5 77,-0.5"/>
<text text-anchor="middle" x="151" y="-7.5" font-family="Helvetica,sans-Serif" font-size="10.00">onUndoACPCTransformButton</text>
</a>
</g>
</g>
<!-- Node1&#45;&gt;Node1 -->
<g id="edge1" class="edge"><title>Node1&#45;&gt;Node1</title>
<path fill="none" stroke="midnightblue" d="M175.181,-29.0292C173.862,-34.128 165.802,-38 151,-38 127.895,-38 121.216,-28.5653 130.963,-19.7571"/>
<polygon fill="midnightblue" stroke="midnightblue" points="178.313,-27.4582 171.037,-19.7571 171.922,-30.3148 178.313,-27.4582"/>
</g>
<!-- Node2 -->
<g id="node2" class="node"><title>Node2</title>
<g id="a_node2"><a xlink:href="$class_p_r_i_s_m_1_1_p_r_i_s_m_widget.html#ade41f93307784822f8bc17e85964d427" xlink:title=" ">
<polygon fill="none" stroke="black" points="0,-0.5 0,-19.5 41,-19.5 41,-0.5 0,-0.5"/>
<text text-anchor="middle" x="20.5" y="-7.5" font-family="Helvetica,sans-Serif" font-size="10.00">setup</text>
</a>
</g>
</g>
<!-- Node1&#45;&gt;Node2 -->
<g id="edge2" class="edge"><title>Node1&#45;&gt;Node2</title>
<path fill="none" stroke="midnightblue" d="M66.6828,-10C57.2046,-10 48.3352,-10 41.0077,-10"/>
<polygon fill="midnightblue" stroke="midnightblue" points="66.7413,-13.5001 76.7413,-10 66.7413,-6.5001 66.7413,-13.5001"/>
</g>
</g>
</svg>
