<?xml version="1.0" encoding="UTF-8" standalone="no"?>
<!DOCTYPE svg PUBLIC "-//W3C//DTD SVG 1.1//EN"
 "http://www.w3.org/Graphics/SVG/1.1/DTD/svg11.dtd">
<!-- Generated by graphviz version 2.38.0 (20140413.2041)
 -->
<!-- Title: GetAllShaderClassNames Pages: 1 -->
<svg width="257pt" height="66pt"
 viewBox="0.00 0.00 257.00 66.00" xmlns="http://www.w3.org/2000/svg" xmlns:xlink="http://www.w3.org/1999/xlink">
<g id="graph0" class="graph" transform="scale(1 1) rotate(0) translate(4 62)">
<title>GetAllShaderClassNames</title>
<!-- Node1 -->
<g id="node1" class="node"><title>Node1</title>
<g id="a_node1"><a xlink:title="Function to get the class names of all of the shaders.">
<polygon fill="#bfbfbf" stroke="black" points="119,-19.5 119,-38.5 249,-38.5 249,-19.5 119,-19.5"/>
<text text-anchor="middle" x="184" y="-26.5" font-family="Helvetica,sans-Serif" font-size="10.00">GetAllShaderClassNames</text>
</a>
</g>
</g>
<!-- Node2 -->
<g id="node2" class="node"><title>Node2</title>
<g id="a_node2"><a xlink:href="class_slicer_p_r_i_s_m_1_1_resources_1_1_custom_shader_1_1_custom_shader.html#a56ffa9aa2f49dd34ca89522f6912f861" target="_top" xlink:title="Function to get a class from it&#39;s name.">
<polygon fill="none" stroke="black" points="13,-38.5 13,-57.5 70,-57.5 70,-38.5 13,-38.5"/>
<text text-anchor="middle" x="41.5" y="-45.5" font-family="Helvetica,sans-Serif" font-size="10.00">GetClass</text>
</a>
</g>
</g>
<!-- Node1&#45;&gt;Node2 -->
<g id="edge1" class="edge"><title>Node1&#45;&gt;Node2</title>
<path fill="none" stroke="midnightblue" d="M108.884,-39.0229C95.1106,-40.8854 81.5363,-42.7211 70.2871,-44.2423"/>
<polygon fill="midnightblue" stroke="midnightblue" points="109.477,-42.4746 118.917,-37.666 108.538,-35.5378 109.477,-42.4746"/>
</g>
<!-- Node3 -->
<g id="node3" class="node"><title>Node3</title>
<g id="a_node3"><a xlink:href="class_slicer_p_r_i_s_m_1_1_resources_1_1_custom_shader_1_1_custom_shader.html#a344ccd90b2c8c6868d8e57fbfa16e4e4" target="_top" xlink:title="Function to get a class from it&#39;s display name.">
<polygon fill="none" stroke="black" points="0,-0.5 0,-19.5 83,-19.5 83,-0.5 0,-0.5"/>
<text text-anchor="middle" x="41.5" y="-7.5" font-family="Helvetica,sans-Serif" font-size="10.00">GetClassName</text>
</a>
</g>
</g>
<!-- Node1&#45;&gt;Node3 -->
<g id="edge2" class="edge"><title>Node1&#45;&gt;Node3</title>
<path fill="none" stroke="midnightblue" d="M108.918,-18.9817C100.065,-17.7846 91.2933,-16.5984 83.1679,-15.4996"/>
<polygon fill="midnightblue" stroke="midnightblue" points="108.538,-22.4622 118.917,-20.334 109.477,-15.5254 108.538,-22.4622"/>
</g>
</g>
</svg>
