<?xml version="1.0" encoding="UTF-8" standalone="no"?>
<!DOCTYPE svg PUBLIC "-//W3C//DTD SVG 1.1//EN"
 "http://www.w3.org/Graphics/SVG/1.1/DTD/svg11.dtd">
<!-- Generated by graphviz version 2.38.0 (20140413.2041)
 -->
<!-- Title: onComputeCoverageButton Pages: 1 -->
<svg width="271pt" height="46pt"
 viewBox="0.00 0.00 271.00 46.00" xmlns="http://www.w3.org/2000/svg" xmlns:xlink="http://www.w3.org/1999/xlink">
<g id="graph0" class="graph" transform="scale(1 1) rotate(0) translate(4 42)">
<title>onComputeCoverageButton</title>
<!-- Node1 -->
<g id="node1" class="node"><title>Node1</title>
<g id="a_node1"><a xlink:title=" ">
<polygon fill="#bfbfbf" stroke="black" points="0,-0.5 0,-19.5 134,-19.5 134,-0.5 0,-0.5"/>
<text text-anchor="middle" x="67" y="-7.5" font-family="Helvetica,sans-Serif" font-size="10.00">onComputeCoverageButton</text>
</a>
</g>
</g>
<!-- Node1&#45;&gt;Node1 -->
<g id="edge1" class="edge"><title>Node1&#45;&gt;Node1</title>
<path fill="none" stroke="midnightblue" d="M44.1889,-19.7571C33.0916,-28.5653 40.6953,-38 67,-38 84.2625,-38 93.4711,-33.9368 94.6258,-28.6539"/>
<polygon fill="midnightblue" stroke="midnightblue" points="97.6488,-26.886 89.8111,-19.7571 91.4924,-30.2176 97.6488,-26.886"/>
</g>
<!-- Node2 -->
<g id="node2" class="node"><title>Node2</title>
<g id="a_node2"><a xlink:href="$class_p_r_i_s_m_1_1_p_r_i_s_m_widget.html#a8f4a27b07d53c6210284e34dcbba6c2f" xlink:title=" ">
<polygon fill="none" stroke="black" points="170,-0.5 170,-19.5 263,-19.5 263,-0.5 170,-0.5"/>
<text text-anchor="middle" x="216.5" y="-7.5" font-family="Helvetica,sans-Serif" font-size="10.00">setCoverageTable</text>
</a>
</g>
</g>
<!-- Node1&#45;&gt;Node2 -->
<g id="edge2" class="edge"><title>Node1&#45;&gt;Node2</title>
<path fill="none" stroke="midnightblue" d="M134.415,-10C142.802,-10 151.317,-10 159.52,-10"/>
<polygon fill="midnightblue" stroke="midnightblue" points="159.711,-13.5001 169.711,-10 159.711,-6.5001 159.711,-13.5001"/>
</g>
</g>
</svg>
