<?xml version="1.0" encoding="UTF-8" standalone="no"?>
<!DOCTYPE svg PUBLIC "-//W3C//DTD SVG 1.1//EN"
 "http://www.w3.org/Graphics/SVG/1.1/DTD/svg11.dtd">
<!-- Generated by graphviz version 2.38.0 (20140413.2041)
 -->
<!-- Title: setupCustomShader Pages: 1 -->
<svg width="265pt" height="66pt"
 viewBox="0.00 0.00 265.00 66.00" xmlns="http://www.w3.org/2000/svg" xmlns:xlink="http://www.w3.org/1999/xlink">
<g id="graph0" class="graph" transform="scale(1 1) rotate(0) translate(4 62)">
<title>setupCustomShader</title>
<!-- Node1 -->
<g id="node1" class="node"><title>Node1</title>
<g id="a_node1"><a xlink:title="Get or create shader property node and initialize custom shader.">
<polygon fill="#bfbfbf" stroke="black" points="152,-19.5 152,-38.5 257,-38.5 257,-19.5 152,-19.5"/>
<text text-anchor="middle" x="204.5" y="-26.5" font-family="Helvetica,sans-Serif" font-size="10.00">setupCustomShader</text>
</a>
</g>
</g>
<!-- Node2 -->
<g id="node2" class="node"><title>Node2</title>
<g id="a_node2"><a xlink:href="$class_slicer_p_r_i_s_m_1_1_p_r_i_s_m_logic_1_1_p_r_i_s_m_logic.html#a2035ec5a3e3b3e79fa6065f3775fb0c8" xlink:title="Use Slicer Volume Rendering module to initialize and setup rendering of the given volume node.">
<polygon fill="none" stroke="black" points="19.5,-38.5 19.5,-57.5 96.5,-57.5 96.5,-38.5 19.5,-38.5"/>
<text text-anchor="middle" x="58" y="-45.5" font-family="Helvetica,sans-Serif" font-size="10.00">renderVolume</text>
</a>
</g>
</g>
<!-- Node1&#45;&gt;Node2 -->
<g id="edge1" class="edge"><title>Node1&#45;&gt;Node2</title>
<path fill="none" stroke="midnightblue" d="M141.809,-37.1116C126.511,-39.1232 110.566,-41.2196 96.8005,-43.0297"/>
<polygon fill="midnightblue" stroke="midnightblue" points="142.282,-40.5796 151.74,-35.8058 141.369,-33.6394 142.282,-40.5796"/>
</g>
<!-- Node3 -->
<g id="node3" class="node"><title>Node3</title>
<g id="a_node3"><a xlink:href="$class_slicer_p_r_i_s_m_1_1_p_r_i_s_m_logic_1_1_p_r_i_s_m_logic.html#aa3140c75748d4c9c9435a8a24f51c9d3" xlink:title="Set given shader type as current active shader.">
<polygon fill="none" stroke="black" points="0,-0.5 0,-19.5 116,-19.5 116,-0.5 0,-0.5"/>
<text text-anchor="middle" x="58" y="-7.5" font-family="Helvetica,sans-Serif" font-size="10.00">setCustomShaderType</text>
</a>
</g>
</g>
<!-- Node1&#45;&gt;Node3 -->
<g id="edge2" class="edge"><title>Node1&#45;&gt;Node3</title>
<path fill="none" stroke="midnightblue" d="M141.61,-20.8623C133.202,-19.7567 124.603,-18.626 116.28,-17.5317"/>
<polygon fill="midnightblue" stroke="midnightblue" points="141.369,-24.3606 151.74,-22.1942 142.282,-17.4204 141.369,-24.3606"/>
</g>
</g>
</svg>
