<?xml version="1.0" encoding="UTF-8" standalone="no"?>
<!DOCTYPE svg PUBLIC "-//W3C//DTD SVG 1.1//EN"
 "http://www.w3.org/Graphics/SVG/1.1/DTD/svg11.dtd">
<!-- Generated by graphviz version 2.38.0 (20140413.2041)
 -->
<!-- Title: onParameterNodeModified Pages: 1 -->
<svg width="774pt" height="97pt"
 viewBox="0.00 0.00 774.00 97.21" xmlns="http://www.w3.org/2000/svg" xmlns:xlink="http://www.w3.org/1999/xlink">
<g id="graph0" class="graph" transform="scale(1 1) rotate(0) translate(4 93.2057)">
<title>onParameterNodeModified</title>
<!-- Node1 -->
<g id="node1" class="node"><title>Node1</title>
<g id="a_node1"><a xlink:title="Function to update the parameter node.">
<polygon fill="#bfbfbf" stroke="black" points="0,-14.6002 0,-33.6002 131,-33.6002 131,-14.6002 0,-14.6002"/>
<text text-anchor="middle" x="65.5" y="-21.6002" font-family="Helvetica,sans-Serif" font-size="10.00">onParameterNodeModified</text>
</a>
</g>
</g>
<!-- Node2 -->
<g id="node2" class="node"><title>Node2</title>
<g id="a_node2"><a xlink:href="$class_slicer_p_r_i_s_m_1_1_p_r_i_s_m_1_1_p_r_i_s_m_widget.html#a4cb394295cd619d0c99b9c173ff5de4b" xlink:title="Function to update GUI from parameter node values.">
<polygon fill="none" stroke="black" points="167,-14.6002 167,-33.6002 319,-33.6002 319,-14.6002 167,-14.6002"/>
<text text-anchor="middle" x="243" y="-21.6002" font-family="Helvetica,sans-Serif" font-size="10.00">updateGUIFromParameterNode</text>
</a>
</g>
</g>
<!-- Node1&#45;&gt;Node2 -->
<g id="edge1" class="edge"><title>Node1&#45;&gt;Node2</title>
<path fill="none" stroke="midnightblue" d="M131.351,-24.1002C139.542,-24.1002 148.02,-24.1002 156.47,-24.1002"/>
<polygon fill="midnightblue" stroke="midnightblue" points="156.743,-27.6003 166.743,-24.1002 156.743,-20.6003 156.743,-27.6003"/>
</g>
<!-- Node3 -->
<g id="node3" class="node"><title>Node3</title>
<g id="a_node3"><a xlink:href="$class_slicer_p_r_i_s_m_1_1_p_r_i_s_m_1_1_p_r_i_s_m_widget.html#a69a2d837a10281b583a4e5f9044db193" xlink:title="Function to add observers to the GUI&#39;s widgets.">
<polygon fill="none" stroke="black" points="362.5,-52.6002 362.5,-71.6002 454.5,-71.6002 454.5,-52.6002 362.5,-52.6002"/>
<text text-anchor="middle" x="408.5" y="-59.6002" font-family="Helvetica,sans-Serif" font-size="10.00">addGUIObservers</text>
</a>
</g>
</g>
<!-- Node2&#45;&gt;Node3 -->
<g id="edge2" class="edge"><title>Node2&#45;&gt;Node3</title>
<path fill="none" stroke="midnightblue" d="M285.258,-33.6892C306.931,-38.7263 333.683,-44.944 356.63,-50.2773"/>
<polygon fill="midnightblue" stroke="midnightblue" points="356.006,-53.7254 366.539,-52.5802 357.591,-46.9071 356.006,-53.7254"/>
</g>
<!-- Node4 -->
<g id="node4" class="node"><title>Node4</title>
<g id="a_node4"><a xlink:href="$class_slicer_p_r_i_s_m_1_1_p_r_i_s_m_1_1_p_r_i_s_m_widget.html#adfb7a3a22452b635bb615e4750c2bf29" xlink:title="Function to get the class name of a widget.">
<polygon fill="none" stroke="black" points="686,-33.6002 686,-52.6002 766,-52.6002 766,-33.6002 686,-33.6002"/>
<text text-anchor="middle" x="726" y="-40.6002" font-family="Helvetica,sans-Serif" font-size="10.00">getClassName</text>
</a>
</g>
</g>
<!-- Node2&#45;&gt;Node4 -->
<g id="edge6" class="edge"><title>Node2&#45;&gt;Node4</title>
<path fill="none" stroke="midnightblue" d="M289.141,-14.588C309.208,-10.8225 333.181,-6.95409 355,-5.10021 485.94,6.02548 520.499,-2.76858 650,-25.1002 659.598,-26.7553 669.796,-28.9229 679.479,-31.1783"/>
<polygon fill="midnightblue" stroke="midnightblue" points="678.795,-34.6135 689.336,-33.5425 680.428,-27.8066 678.795,-34.6135"/>
</g>
<!-- Node6 -->
<g id="node6" class="node"><title>Node6</title>
<g id="a_node6"><a xlink:href="$class_slicer_p_r_i_s_m_1_1_p_r_i_s_m_1_1_p_r_i_s_m_widget.html#a16e1c85444e27fae67a4b0973d36fe67" xlink:title="Function to remove observers from the GUI&#39;s widgets.">
<polygon fill="none" stroke="black" points="355,-14.6002 355,-33.6002 462,-33.6002 462,-14.6002 355,-14.6002"/>
<text text-anchor="middle" x="408.5" y="-21.6002" font-family="Helvetica,sans-Serif" font-size="10.00">removeGUIObservers</text>
</a>
</g>
</g>
<!-- Node2&#45;&gt;Node6 -->
<g id="edge7" class="edge"><title>Node2&#45;&gt;Node6</title>
<path fill="none" stroke="midnightblue" d="M319.051,-24.1002C327.645,-24.1002 336.338,-24.1002 344.748,-24.1002"/>
<polygon fill="midnightblue" stroke="midnightblue" points="344.839,-27.6003 354.839,-24.1002 344.839,-20.6003 344.839,-27.6003"/>
</g>
<!-- Node3&#45;&gt;Node4 -->
<g id="edge3" class="edge"><title>Node3&#45;&gt;Node4</title>
<path fill="none" stroke="midnightblue" d="M444.678,-71.621C492.008,-82.9114 578.506,-98.1786 650,-81.1002 668.75,-76.6212 688.116,-66.6498 702.471,-58.0452"/>
<polygon fill="midnightblue" stroke="midnightblue" points="704.483,-60.9152 711.124,-52.6596 700.785,-54.9722 704.483,-60.9152"/>
</g>
<!-- Node5 -->
<g id="node5" class="node"><title>Node5</title>
<g id="a_node5"><a xlink:href="$class_slicer_p_r_i_s_m_1_1_p_r_i_s_m_1_1_p_r_i_s_m_widget.html#a9c2580701ccfac91074c348bf51d8353" xlink:title="Function to update the parameter node from gui values.">
<polygon fill="none" stroke="black" points="498,-52.6002 498,-71.6002 650,-71.6002 650,-52.6002 498,-52.6002"/>
<text text-anchor="middle" x="574" y="-59.6002" font-family="Helvetica,sans-Serif" font-size="10.00">updateParameterNodeFromGUI</text>
</a>
</g>
</g>
<!-- Node3&#45;&gt;Node5 -->
<g id="edge4" class="edge"><title>Node3&#45;&gt;Node5</title>
<path fill="none" stroke="midnightblue" d="M454.61,-62.1002C464.991,-62.1002 476.366,-62.1002 487.831,-62.1002"/>
<polygon fill="midnightblue" stroke="midnightblue" points="487.906,-65.6003 497.906,-62.1002 487.906,-58.6003 487.906,-65.6003"/>
</g>
<!-- Node5&#45;&gt;Node4 -->
<g id="edge5" class="edge"><title>Node5&#45;&gt;Node4</title>
<path fill="none" stroke="midnightblue" d="M650.439,-52.5446C659.057,-51.453 667.667,-50.3624 675.815,-49.3304"/>
<polygon fill="midnightblue" stroke="midnightblue" points="676.372,-52.7879 685.852,-48.0589 675.492,-45.8434 676.372,-52.7879"/>
</g>
<!-- Node6&#45;&gt;Node4 -->
<g id="edge8" class="edge"><title>Node6&#45;&gt;Node4</title>
<path fill="none" stroke="midnightblue" d="M462.308,-27.2804C521.882,-30.8681 618.001,-36.6565 675.974,-40.1478"/>
<polygon fill="midnightblue" stroke="midnightblue" points="675.795,-43.6432 685.987,-40.7508 676.216,-36.6559 675.795,-43.6432"/>
</g>
<!-- Node6&#45;&gt;Node5 -->
<g id="edge9" class="edge"><title>Node6&#45;&gt;Node5</title>
<path fill="none" stroke="midnightblue" d="M450.758,-33.6892C472.431,-38.7263 499.183,-44.944 522.13,-50.2773"/>
<polygon fill="midnightblue" stroke="midnightblue" points="521.506,-53.7254 532.039,-52.5802 523.091,-46.9071 521.506,-53.7254"/>
</g>
</g>
</svg>
