<?xml version="1.0" encoding="UTF-8" standalone="no"?>
<!DOCTYPE svg PUBLIC "-//W3C//DTD SVG 1.1//EN"
 "http://www.w3.org/Graphics/SVG/1.1/DTD/svg11.dtd">
<!-- Generated by graphviz version 2.38.0 (20140413.2041)
 -->
<!-- Title: UpdateShaderParametersUI Pages: 1 -->
<svg width="339pt" height="46pt"
 viewBox="0.00 0.00 339.00 46.00" xmlns="http://www.w3.org/2000/svg" xmlns:xlink="http://www.w3.org/1999/xlink">
<g id="graph0" class="graph" transform="scale(1 1) rotate(0) translate(4 42)">
<title>UpdateShaderParametersUI</title>
<!-- Node1 -->
<g id="node1" class="node"><title>Node1</title>
<g id="a_node1"><a xlink:title=" ">
<polygon fill="#bfbfbf" stroke="black" points="0,-0.5 0,-19.5 137,-19.5 137,-0.5 0,-0.5"/>
<text text-anchor="middle" x="68.5" y="-7.5" font-family="Helvetica,sans-Serif" font-size="10.00">UpdateShaderParametersUI</text>
</a>
</g>
</g>
<!-- Node1&#45;&gt;Node1 -->
<g id="edge2" class="edge"><title>Node1&#45;&gt;Node1</title>
<path fill="none" stroke="midnightblue" d="M40.4485,-19.7571C26.8018,-28.5653 36.1523,-38 68.5,-38 90.739,-38 102.108,-33.5406 102.608,-27.8913"/>
<polygon fill="midnightblue" stroke="midnightblue" points="105.331,-25.6878 96.5515,-19.7571 99.7162,-29.8682 105.331,-25.6878"/>
</g>
<!-- Node2 -->
<g id="node2" class="node"><title>Node2</title>
<g id="a_node2"><a xlink:href="$class_p_r_i_s_m_1_1_p_r_i_s_m_widget.html#a5d6fb9b478e94c2f199af600607385ff" xlink:title=" ">
<polygon fill="none" stroke="black" points="173,-0.5 173,-19.5 331,-19.5 331,-0.5 173,-0.5"/>
<text text-anchor="middle" x="252" y="-7.5" font-family="Helvetica,sans-Serif" font-size="10.00">onCustomShaderParamChanged</text>
</a>
</g>
</g>
<!-- Node1&#45;&gt;Node2 -->
<g id="edge1" class="edge"><title>Node1&#45;&gt;Node2</title>
<path fill="none" stroke="midnightblue" d="M137.084,-10C145.487,-10 154.174,-10 162.83,-10"/>
<polygon fill="midnightblue" stroke="midnightblue" points="162.958,-13.5001 172.958,-10 162.958,-6.5001 162.958,-13.5001"/>
</g>
</g>
</svg>
