<?xml version="1.0" encoding="UTF-8" standalone="no"?>
<!DOCTYPE svg PUBLIC "-//W3C//DTD SVG 1.1//EN"
 "http://www.w3.org/Graphics/SVG/1.1/DTD/svg11.dtd">
<!-- Generated by graphviz version 2.38.0 (20140413.2041)
 -->
<!-- Title: onCustomShaderParamChanged Pages: 1 -->
<svg width="312pt" height="66pt"
 viewBox="0.00 0.00 312.00 66.00" xmlns="http://www.w3.org/2000/svg" xmlns:xlink="http://www.w3.org/1999/xlink">
<g id="graph0" class="graph" transform="scale(1 1) rotate(0) translate(4 62)">
<title>onCustomShaderParamChanged</title>
<!-- Node1 -->
<g id="node1" class="node"><title>Node1</title>
<g id="a_node1"><a xlink:title="Change the custom parameters in the shader.">
<polygon fill="#bfbfbf" stroke="black" points="146,-19.5 146,-38.5 304,-38.5 304,-19.5 146,-19.5"/>
<text text-anchor="middle" x="225" y="-26.5" font-family="Helvetica,sans-Serif" font-size="10.00">onCustomShaderParamChanged</text>
</a>
</g>
</g>
<!-- Node2 -->
<g id="node2" class="node"><title>Node2</title>
<g id="a_node2"><a xlink:href="$class_slicer_p_r_i_s_m_1_1_p_r_i_s_m_logic_1_1_p_r_i_s_m_logic.html#a6671941a4f52b9c1996b41e9557c864d" xlink:title="Callback function to get the position of the new point.">
<polygon fill="none" stroke="black" points="7.5,-38.5 7.5,-57.5 102.5,-57.5 102.5,-38.5 7.5,-38.5"/>
<text text-anchor="middle" x="55" y="-45.5" font-family="Helvetica,sans-Serif" font-size="10.00">onEndPointAdded</text>
</a>
</g>
</g>
<!-- Node1&#45;&gt;Node2 -->
<g id="edge1" class="edge"><title>Node1&#45;&gt;Node2</title>
<path fill="none" stroke="midnightblue" d="M135.868,-38.9673C124.456,-40.2579 113.146,-41.537 102.783,-42.709"/>
<polygon fill="midnightblue" stroke="midnightblue" points="136.359,-42.4342 145.902,-37.8325 135.572,-35.4786 136.359,-42.4342"/>
</g>
<!-- Node3 -->
<g id="node3" class="node"><title>Node3</title>
<g id="a_node3"><a xlink:href="$class_slicer_p_r_i_s_m_1_1_p_r_i_s_m_logic_1_1_p_r_i_s_m_logic.html#a92a408ae5db8734e6bacb469864ee574" xlink:title="Callback function to get the position of the modified point.">
<polygon fill="none" stroke="black" points="0,-0.5 0,-19.5 110,-19.5 110,-0.5 0,-0.5"/>
<text text-anchor="middle" x="55" y="-7.5" font-family="Helvetica,sans-Serif" font-size="10.00">onEndPointsChanged</text>
</a>
</g>
</g>
<!-- Node1&#45;&gt;Node3 -->
<g id="edge2" class="edge"><title>Node1&#45;&gt;Node3</title>
<path fill="none" stroke="midnightblue" d="M135.764,-19.0209C127.132,-18.0447 118.56,-17.0753 110.414,-16.154"/>
<polygon fill="midnightblue" stroke="midnightblue" points="135.572,-22.5214 145.902,-20.1675 136.359,-15.5658 135.572,-22.5214"/>
</g>
</g>
</svg>
