<?xml version="1.0" encoding="UTF-8" standalone="no"?>
<!DOCTYPE svg PUBLIC "-//W3C//DTD SVG 1.1//EN"
 "http://www.w3.org/Graphics/SVG/1.1/DTD/svg11.dtd">
<!-- Generated by graphviz version 2.38.0 (20140413.2041)
 -->
<!-- Title: GetDisplayName Pages: 1 -->
<svg width="262pt" height="66pt"
 viewBox="0.00 0.00 262.00 66.00" xmlns="http://www.w3.org/2000/svg" xmlns:xlink="http://www.w3.org/1999/xlink">
<g id="graph0" class="graph" transform="scale(1 1) rotate(0) translate(4 62)">
<title>GetDisplayName</title>
<!-- Node1 -->
<g id="node1" class="node"><title>Node1</title>
<g id="a_node1"><a xlink:title="Function to get the name of the current class.">
<polygon fill="#bfbfbf" stroke="black" points="164,-19.5 164,-38.5 254,-38.5 254,-19.5 164,-19.5"/>
<text text-anchor="middle" x="209" y="-26.5" font-family="Helvetica,sans-Serif" font-size="10.00">GetDisplayName</text>
</a>
</g>
</g>
<!-- Node2 -->
<g id="node2" class="node"><title>Node2</title>
<g id="a_node2"><a xlink:href="$class_slicer_p_r_i_s_m_1_1_resources_1_1_custom_shader_1_1_custom_shader.html#a344ccd90b2c8c6868d8e57fbfa16e4e4" xlink:title="Function to get a class from it&#39;s display name.">
<polygon fill="none" stroke="black" points="22.5,-38.5 22.5,-57.5 105.5,-57.5 105.5,-38.5 22.5,-38.5"/>
<text text-anchor="middle" x="64" y="-45.5" font-family="Helvetica,sans-Serif" font-size="10.00">GetClassName</text>
</a>
</g>
</g>
<!-- Node1&#45;&gt;Node2 -->
<g id="edge1" class="edge"><title>Node1&#45;&gt;Node2</title>
<path fill="none" stroke="midnightblue" d="M153.685,-36.2166C137.78,-38.33 120.668,-40.6036 105.758,-42.5846"/>
<polygon fill="midnightblue" stroke="midnightblue" points="154.477,-39.6424 163.928,-34.8557 153.555,-32.7033 154.477,-39.6424"/>
</g>
<!-- Node3 -->
<g id="node3" class="node"><title>Node3</title>
<g id="a_node3"><a xlink:href="$class_slicer_p_r_i_s_m_1_1_resources_1_1_custom_shader_1_1_custom_shader.html#a65180c6f2b9e3f40fb7bdc84a197ee75" xlink:title="Function to instanciate a custom shader.">
<polygon fill="none" stroke="black" points="0,-0.5 0,-19.5 128,-19.5 128,-0.5 0,-0.5"/>
<text text-anchor="middle" x="64" y="-7.5" font-family="Helvetica,sans-Serif" font-size="10.00">InstanciateCustomShader</text>
</a>
</g>
</g>
<!-- Node1&#45;&gt;Node3 -->
<g id="edge2" class="edge"><title>Node1&#45;&gt;Node3</title>
<path fill="none" stroke="midnightblue" d="M153.87,-21.808C145.458,-20.6902 136.704,-19.5271 128.114,-18.3857"/>
<polygon fill="midnightblue" stroke="midnightblue" points="153.555,-25.2967 163.928,-23.1443 154.477,-18.3576 153.555,-25.2967"/>
</g>
</g>
</svg>
