<?xml version="1.0" encoding="UTF-8" standalone="no"?>
<!DOCTYPE svg PUBLIC "-//W3C//DTD SVG 1.1//EN"
 "http://www.w3.org/Graphics/SVG/1.1/DTD/svg11.dtd">
<!-- Generated by graphviz version 2.38.0 (20140413.2041)
 -->
<!-- Title: initState Pages: 1 -->
<svg width="720pt" height="142pt"
 viewBox="0.00 0.00 720.00 142.00" xmlns="http://www.w3.org/2000/svg" xmlns:xlink="http://www.w3.org/1999/xlink">
<g id="graph0" class="graph" transform="scale(1 1) rotate(0) translate(4 138)">
<title>initState</title>
<!-- Node1 -->
<g id="node1" class="node"><title>Node1</title>
<g id="a_node1"><a xlink:title="Function to initialize the all user interface based on current scene.">
<polygon fill="#bfbfbf" stroke="black" points="0,-38.5 0,-57.5 53,-57.5 53,-38.5 0,-38.5"/>
<text text-anchor="middle" x="26.5" y="-45.5" font-family="Helvetica,sans-Serif" font-size="10.00">initState</text>
</a>
</g>
</g>
<!-- Node2 -->
<g id="node2" class="node"><title>Node2</title>
<g id="a_node2"><a xlink:href="$class_slicer_p_r_i_s_m_1_1_p_r_i_s_m_1_1_p_r_i_s_m_widget.html#a54a1afbbde03873c1a73c339eaf4ac63" xlink:title="Callback function when the volume node has been changed in the dedicated combobox.">
<polygon fill="none" stroke="black" points="93.5,-76.5 93.5,-95.5 221.5,-95.5 221.5,-76.5 93.5,-76.5"/>
<text text-anchor="middle" x="157.5" y="-83.5" font-family="Helvetica,sans-Serif" font-size="10.00">onImageSelectorChanged</text>
</a>
</g>
</g>
<!-- Node1&#45;&gt;Node2 -->
<g id="edge1" class="edge"><title>Node1&#45;&gt;Node2</title>
<path fill="none" stroke="midnightblue" d="M53.295,-55.5985C70.6553,-60.7124 93.9517,-67.5749 114.018,-73.4858"/>
<polygon fill="midnightblue" stroke="midnightblue" points="113.286,-76.9188 123.867,-76.3872 115.264,-70.2041 113.286,-76.9188"/>
</g>
<!-- Node5 -->
<g id="node5" class="node"><title>Node5</title>
<g id="a_node5"><a xlink:href="$class_slicer_p_r_i_s_m_1_1_p_r_i_s_m_1_1_p_r_i_s_m_widget.html#a9c2580701ccfac91074c348bf51d8353" xlink:title="Function to update the parameter node from gui values.">
<polygon fill="none" stroke="black" points="444,-76.5 444,-95.5 596,-95.5 596,-76.5 444,-76.5"/>
<text text-anchor="middle" x="520" y="-83.5" font-family="Helvetica,sans-Serif" font-size="10.00">updateParameterNodeFromGUI</text>
</a>
</g>
</g>
<!-- Node1&#45;&gt;Node5 -->
<g id="edge7" class="edge"><title>Node1&#45;&gt;Node5</title>
<path fill="none" stroke="midnightblue" d="M53.2332,-49.9895C123.216,-55.4002 319.384,-70.5668 433.583,-79.396"/>
<polygon fill="midnightblue" stroke="midnightblue" points="433.453,-82.8964 443.693,-80.1777 433.993,-75.9172 433.453,-82.8964"/>
</g>
<!-- Node7 -->
<g id="node7" class="node"><title>Node7</title>
<g id="a_node7"><a xlink:href="$class_slicer_p_r_i_s_m_1_1_p_r_i_s_m_1_1_p_r_i_s_m_widget.html#aa315cc715c538dea175216d53f73915e" xlink:title="Updates the shader parameters on the UI.">
<polygon fill="none" stroke="black" points="89,-0.5 89,-19.5 226,-19.5 226,-0.5 89,-0.5"/>
<text text-anchor="middle" x="157.5" y="-7.5" font-family="Helvetica,sans-Serif" font-size="10.00">UpdateShaderParametersUI</text>
</a>
</g>
</g>
<!-- Node1&#45;&gt;Node7 -->
<g id="edge8" class="edge"><title>Node1&#45;&gt;Node7</title>
<path fill="none" stroke="midnightblue" d="M53.295,-40.4015C70.6553,-35.2876 93.9517,-28.4251 114.018,-22.5142"/>
<polygon fill="midnightblue" stroke="midnightblue" points="115.264,-25.7959 123.867,-19.6128 113.286,-19.0812 115.264,-25.7959"/>
</g>
<!-- Node3 -->
<g id="node3" class="node"><title>Node3</title>
<g id="a_node3"><a xlink:href="$class_slicer_p_r_i_s_m_1_1_p_r_i_s_m_1_1_p_r_i_s_m_widget.html#adc9c6622ed17fd138cccbdc9c82c1498" xlink:title="Function to create a transfert fuction widget.">
<polygon fill="none" stroke="black" points="262,-114.5 262,-133.5 408,-133.5 408,-114.5 262,-114.5"/>
<text text-anchor="middle" x="335" y="-121.5" font-family="Helvetica,sans-Serif" font-size="10.00">createTransferFunctionWidget</text>
</a>
</g>
</g>
<!-- Node2&#45;&gt;Node3 -->
<g id="edge2" class="edge"><title>Node2&#45;&gt;Node3</title>
<path fill="none" stroke="midnightblue" d="M202.786,-95.589C226.258,-100.671 255.281,-106.955 280.058,-112.32"/>
<polygon fill="midnightblue" stroke="midnightblue" points="279.518,-115.784 290.032,-114.48 281,-108.943 279.518,-115.784"/>
</g>
<!-- Node2&#45;&gt;Node5 -->
<g id="edge6" class="edge"><title>Node2&#45;&gt;Node5</title>
<path fill="none" stroke="midnightblue" d="M221.707,-86C280.456,-86 368.432,-86 433.449,-86"/>
<polygon fill="midnightblue" stroke="midnightblue" points="433.679,-89.5001 443.679,-86 433.679,-82.5001 433.679,-89.5001"/>
</g>
<!-- Node4 -->
<g id="node4" class="node"><title>Node4</title>
<g id="a_node4"><a xlink:href="$class_slicer_p_r_i_s_m_1_1_p_r_i_s_m_1_1_p_r_i_s_m_widget.html#a050018ff82526951ddafef689bb131cf" xlink:title="Function to add a widget to self.widgets without duplicate.">
<polygon fill="none" stroke="black" points="488,-114.5 488,-133.5 552,-133.5 552,-114.5 488,-114.5"/>
<text text-anchor="middle" x="520" y="-121.5" font-family="Helvetica,sans-Serif" font-size="10.00">appendList</text>
</a>
</g>
</g>
<!-- Node3&#45;&gt;Node4 -->
<g id="edge3" class="edge"><title>Node3&#45;&gt;Node4</title>
<path fill="none" stroke="midnightblue" d="M408.064,-124C431.572,-124 456.874,-124 477.37,-124"/>
<polygon fill="midnightblue" stroke="midnightblue" points="477.614,-127.5 487.614,-124 477.614,-120.5 477.614,-127.5"/>
</g>
<!-- Node3&#45;&gt;Node5 -->
<g id="edge4" class="edge"><title>Node3&#45;&gt;Node5</title>
<path fill="none" stroke="midnightblue" d="M382.179,-114.411C406.763,-109.306 437.186,-102.989 463.097,-97.6082"/>
<polygon fill="midnightblue" stroke="midnightblue" points="464.074,-100.98 473.153,-95.5201 462.651,-94.1264 464.074,-100.98"/>
</g>
<!-- Node6 -->
<g id="node6" class="node"><title>Node6</title>
<g id="a_node6"><a xlink:href="$class_slicer_p_r_i_s_m_1_1_p_r_i_s_m_1_1_p_r_i_s_m_widget.html#adfb7a3a22452b635bb615e4750c2bf29" xlink:title="Function to get the class name of a widget.">
<polygon fill="none" stroke="black" points="632,-76.5 632,-95.5 712,-95.5 712,-76.5 632,-76.5"/>
<text text-anchor="middle" x="672" y="-83.5" font-family="Helvetica,sans-Serif" font-size="10.00">getClassName</text>
</a>
</g>
</g>
<!-- Node5&#45;&gt;Node6 -->
<g id="edge5" class="edge"><title>Node5&#45;&gt;Node6</title>
<path fill="none" stroke="midnightblue" d="M596.439,-86C605.057,-86 613.667,-86 621.815,-86"/>
<polygon fill="midnightblue" stroke="midnightblue" points="621.853,-89.5001 631.852,-86 621.852,-82.5001 621.853,-89.5001"/>
</g>
</g>
</svg>
