<?xml version="1.0" encoding="UTF-8" standalone="no"?>
<!DOCTYPE svg PUBLIC "-//W3C//DTD SVG 1.1//EN"
 "http://www.w3.org/Graphics/SVG/1.1/DTD/svg11.dtd">
<!-- Generated by graphviz version 2.38.0 (20140413.2041)
 -->
<!-- Title: onMidSagittalSelectorChanged Pages: 1 -->
<svg width="536pt" height="47pt"
 viewBox="0.00 0.00 536.00 47.00" xmlns="http://www.w3.org/2000/svg" xmlns:xlink="http://www.w3.org/1999/xlink">
<g id="graph0" class="graph" transform="scale(1 1) rotate(0) translate(4 43)">
<title>onMidSagittalSelectorChanged</title>
<!-- Node1 -->
<g id="node1" class="node"><title>Node1</title>
<g id="a_node1"><a xlink:title=" ">
<polygon fill="#bfbfbf" stroke="black" points="0,-0.5 0,-19.5 150,-19.5 150,-0.5 0,-0.5"/>
<text text-anchor="middle" x="75" y="-7.5" font-family="Helvetica,sans-Serif" font-size="10.00">onMidSagittalSelectorChanged</text>
</a>
</g>
</g>
<!-- Node1&#45;&gt;Node1 -->
<g id="edge3" class="edge"><title>Node1&#45;&gt;Node1</title>
<path fill="none" stroke="midnightblue" d="M46.9485,-19.7571C33.3018,-28.5653 42.6523,-38 75,-38 97.239,-38 108.608,-33.5406 109.108,-27.8913"/>
<polygon fill="midnightblue" stroke="midnightblue" points="111.831,-25.6878 103.051,-19.7571 106.216,-29.8682 111.831,-25.6878"/>
</g>
<!-- Node2 -->
<g id="node2" class="node"><title>Node2</title>
<g id="a_node2"><a xlink:href="$class_p_r_i_s_m_1_1_p_r_i_s_m_widget.html#a3cdb67eeb9092692c5b3e1d42f5a37cb" xlink:title=" ">
<polygon fill="none" stroke="black" points="186,-19.5 186,-38.5 328,-38.5 328,-19.5 186,-19.5"/>
<text text-anchor="middle" x="257" y="-26.5" font-family="Helvetica,sans-Serif" font-size="10.00">onMidSagittalPointsChanged</text>
</a>
</g>
</g>
<!-- Node1&#45;&gt;Node2 -->
<g id="edge1" class="edge"><title>Node1&#45;&gt;Node2</title>
<path fill="none" stroke="midnightblue" d="M150.252,-17.8377C158.744,-18.7341 167.429,-19.6508 175.992,-20.5547"/>
<polygon fill="midnightblue" stroke="midnightblue" points="175.656,-24.0386 185.968,-21.6078 176.391,-17.0773 175.656,-24.0386"/>
</g>
<!-- Node3 -->
<g id="node3" class="node"><title>Node3</title>
<g id="a_node3"><a xlink:href="$class_p_r_i_s_m_1_1_p_r_i_s_m_widget.html#a15db542a420a1415fc3675c689213a4d" xlink:title=" ">
<polygon fill="none" stroke="black" points="364,-0.5 364,-19.5 528,-19.5 528,-0.5 364,-0.5"/>
<text text-anchor="middle" x="446" y="-7.5" font-family="Helvetica,sans-Serif" font-size="10.00">updateACPCTranformApplyButton</text>
</a>
</g>
</g>
<!-- Node1&#45;&gt;Node3 -->
<g id="edge4" class="edge"><title>Node1&#45;&gt;Node3</title>
<path fill="none" stroke="midnightblue" d="M150.229,-10C208.84,-10 290.903,-10 353.564,-10"/>
<polygon fill="midnightblue" stroke="midnightblue" points="353.841,-13.5001 363.841,-10 353.841,-6.5001 353.841,-13.5001"/>
</g>
<!-- Node2&#45;&gt;Node3 -->
<g id="edge2" class="edge"><title>Node2&#45;&gt;Node3</title>
<path fill="none" stroke="midnightblue" d="M328.164,-21.871C336.507,-21.0234 345.114,-20.1488 353.697,-19.2768"/>
<polygon fill="midnightblue" stroke="midnightblue" points="354.149,-22.749 363.744,-18.256 353.441,-15.7848 354.149,-22.749"/>
</g>
</g>
</svg>
