<?xml version="1.0" encoding="UTF-8" standalone="no"?>
<!DOCTYPE svg PUBLIC "-//W3C//DTD SVG 1.1//EN"
 "http://www.w3.org/Graphics/SVG/1.1/DTD/svg11.dtd">
<!-- Generated by graphviz version 2.38.0 (20140413.2041)
 -->
<!-- Title: onImageSelectorChanged Pages: 1 -->
<svg width="622pt" height="66pt"
 viewBox="0.00 0.00 622.00 66.00" xmlns="http://www.w3.org/2000/svg" xmlns:xlink="http://www.w3.org/1999/xlink">
<g id="graph0" class="graph" transform="scale(1 1) rotate(0) translate(4 62)">
<title>onImageSelectorChanged</title>
<!-- Node1 -->
<g id="node1" class="node"><title>Node1</title>
<g id="a_node1"><a xlink:title="Callback function when the volume node has been changed in the dedicated combobox.">
<polygon fill="#bfbfbf" stroke="black" points="0,-19.5 0,-38.5 128,-38.5 128,-19.5 0,-19.5"/>
<text text-anchor="middle" x="64" y="-26.5" font-family="Helvetica,sans-Serif" font-size="10.00">onImageSelectorChanged</text>
</a>
</g>
</g>
<!-- Node2 -->
<g id="node2" class="node"><title>Node2</title>
<g id="a_node2"><a xlink:href="class_slicer_p_r_i_s_m_1_1_p_r_i_s_m_1_1_p_r_i_s_m_widget.html#adc9c6622ed17fd138cccbdc9c82c1498" target="_top" xlink:title="Function to create a transfert fuction widget.">
<polygon fill="none" stroke="black" points="164,-38.5 164,-57.5 310,-57.5 310,-38.5 164,-38.5"/>
<text text-anchor="middle" x="237" y="-45.5" font-family="Helvetica,sans-Serif" font-size="10.00">createTransferFunctionWidget</text>
</a>
</g>
</g>
<!-- Node1&#45;&gt;Node2 -->
<g id="edge1" class="edge"><title>Node1&#45;&gt;Node2</title>
<path fill="none" stroke="midnightblue" d="M128.188,-36.0209C136.531,-36.9479 145.178,-37.9087 153.781,-38.8646"/>
<polygon fill="midnightblue" stroke="midnightblue" points="153.513,-42.3563 163.839,-39.9821 154.287,-35.3991 153.513,-42.3563"/>
</g>
<!-- Node4 -->
<g id="node4" class="node"><title>Node4</title>
<g id="a_node4"><a xlink:href="class_slicer_p_r_i_s_m_1_1_p_r_i_s_m_1_1_p_r_i_s_m_widget.html#a9c2580701ccfac91074c348bf51d8353" target="_top" xlink:title="Function to update the parameter node from gui values.">
<polygon fill="none" stroke="black" points="346,-0.5 346,-19.5 498,-19.5 498,-0.5 346,-0.5"/>
<text text-anchor="middle" x="422" y="-7.5" font-family="Helvetica,sans-Serif" font-size="10.00">updateParameterNodeFromGUI</text>
</a>
</g>
</g>
<!-- Node1&#45;&gt;Node4 -->
<g id="edge5" class="edge"><title>Node1&#45;&gt;Node4</title>
<path fill="none" stroke="midnightblue" d="M128.235,-25.6251C185.987,-22.5429 271.835,-17.9611 335.652,-14.5551"/>
<polygon fill="midnightblue" stroke="midnightblue" points="335.898,-18.047 345.697,-14.019 335.525,-11.057 335.898,-18.047"/>
</g>
<!-- Node3 -->
<g id="node3" class="node"><title>Node3</title>
<g id="a_node3"><a xlink:href="class_slicer_p_r_i_s_m_1_1_p_r_i_s_m_1_1_p_r_i_s_m_widget.html#a050018ff82526951ddafef689bb131cf" target="_top" xlink:title="Function to add a widget to self.widgets without duplicate.">
<polygon fill="none" stroke="black" points="390,-38.5 390,-57.5 454,-57.5 454,-38.5 390,-38.5"/>
<text text-anchor="middle" x="422" y="-45.5" font-family="Helvetica,sans-Serif" font-size="10.00">appendList</text>
</a>
</g>
</g>
<!-- Node2&#45;&gt;Node3 -->
<g id="edge2" class="edge"><title>Node2&#45;&gt;Node3</title>
<path fill="none" stroke="midnightblue" d="M310.064,-48C333.572,-48 358.874,-48 379.37,-48"/>
<polygon fill="midnightblue" stroke="midnightblue" points="379.614,-51.5001 389.614,-48 379.614,-44.5001 379.614,-51.5001"/>
</g>
<!-- Node2&#45;&gt;Node4 -->
<g id="edge3" class="edge"><title>Node2&#45;&gt;Node4</title>
<path fill="none" stroke="midnightblue" d="M284.179,-38.411C308.763,-33.3061 339.186,-26.9887 365.097,-21.6082"/>
<polygon fill="midnightblue" stroke="midnightblue" points="366.074,-24.9802 375.153,-19.5201 364.651,-18.1264 366.074,-24.9802"/>
</g>
<!-- Node5 -->
<g id="node5" class="node"><title>Node5</title>
<g id="a_node5"><a xlink:href="class_slicer_p_r_i_s_m_1_1_p_r_i_s_m_1_1_p_r_i_s_m_widget.html#adfb7a3a22452b635bb615e4750c2bf29" target="_top" xlink:title="Function to get the class name of a widget.">
<polygon fill="none" stroke="black" points="534,-0.5 534,-19.5 614,-19.5 614,-0.5 534,-0.5"/>
<text text-anchor="middle" x="574" y="-7.5" font-family="Helvetica,sans-Serif" font-size="10.00">getClassName</text>
</a>
</g>
</g>
<!-- Node4&#45;&gt;Node5 -->
<g id="edge4" class="edge"><title>Node4&#45;&gt;Node5</title>
<path fill="none" stroke="midnightblue" d="M498.439,-10C507.057,-10 515.667,-10 523.815,-10"/>
<polygon fill="midnightblue" stroke="midnightblue" points="523.853,-13.5001 533.852,-10 523.852,-6.5001 523.853,-13.5001"/>
</g>
</g>
</svg>
