<?xml version="1.0" encoding="UTF-8" standalone="no"?>
<!DOCTYPE svg PUBLIC "-//W3C//DTD SVG 1.1//EN"
 "http://www.w3.org/Graphics/SVG/1.1/DTD/svg11.dtd">
<!-- Generated by graphviz version 2.38.0 (20140413.2041)
 -->
<!-- Title: onDuplicateCustomShaderButtonClicked Pages: 1 -->
<svg width="276pt" height="66pt"
 viewBox="0.00 0.00 276.00 66.00" xmlns="http://www.w3.org/2000/svg" xmlns:xlink="http://www.w3.org/1999/xlink">
<g id="graph0" class="graph" transform="scale(1 1) rotate(0) translate(4 62)">
<title>onDuplicateCustomShaderButtonClicked</title>
<!-- Node1 -->
<g id="node1" class="node"><title>Node1</title>
<g id="a_node1"><a xlink:title="Function to duplicate custom shader file.">
<polygon fill="#bfbfbf" stroke="black" points="0,-14 0,-44 161,-44 161,-14 0,-14"/>
<text text-anchor="start" x="8" y="-32" font-family="Helvetica,sans-Serif" font-size="10.00">onDuplicateCustomShaderButton</text>
<text text-anchor="middle" x="80.5" y="-21" font-family="Helvetica,sans-Serif" font-size="10.00">Clicked</text>
</a>
</g>
</g>
<!-- Node2 -->
<g id="node2" class="node"><title>Node2</title>
<g id="a_node2"><a xlink:href="$class_slicer_p_r_i_s_m_1_1_p_r_i_s_m_1_1_p_r_i_s_m_widget.html#a46d3449d84d3687bf2e6daef46a9a012" xlink:title="Function to create a new class from the template.">
<polygon fill="none" stroke="black" points="197,-38.5 197,-57.5 268,-57.5 268,-38.5 197,-38.5"/>
<text text-anchor="middle" x="232.5" y="-45.5" font-family="Helvetica,sans-Serif" font-size="10.00">duplicateFile</text>
</a>
</g>
</g>
<!-- Node1&#45;&gt;Node2 -->
<g id="edge1" class="edge"><title>Node1&#45;&gt;Node2</title>
<path fill="none" stroke="midnightblue" d="M161.331,-39.1119C169.99,-40.2088 178.563,-41.2947 186.586,-42.3109"/>
<polygon fill="midnightblue" stroke="midnightblue" points="186.416,-45.8172 196.776,-43.6017 187.295,-38.8727 186.416,-45.8172"/>
</g>
<!-- Node3 -->
<g id="node3" class="node"><title>Node3</title>
<g id="a_node3"><a xlink:href="$class_slicer_p_r_i_s_m_1_1_p_r_i_s_m_1_1_p_r_i_s_m_widget.html#ab776505316edd3e3b118d69ca7f9e480" xlink:title="Function to create a window with input to get the file name.">
<polygon fill="none" stroke="black" points="208,-0.5 208,-19.5 257,-19.5 257,-0.5 208,-0.5"/>
<text text-anchor="middle" x="232.5" y="-7.5" font-family="Helvetica,sans-Serif" font-size="10.00">getText</text>
</a>
</g>
</g>
<!-- Node1&#45;&gt;Node3 -->
<g id="edge2" class="edge"><title>Node1&#45;&gt;Node3</title>
<path fill="none" stroke="midnightblue" d="M161.331,-18.8881C174.268,-17.2494 187.013,-15.6351 198.017,-14.2412"/>
<polygon fill="midnightblue" stroke="midnightblue" points="198.502,-17.7078 207.983,-12.9789 197.622,-10.7633 198.502,-17.7078"/>
</g>
</g>
</svg>
