<?xml version="1.0" encoding="UTF-8" standalone="no"?>
<!DOCTYPE svg PUBLIC "-//W3C//DTD SVG 1.1//EN"
 "http://www.w3.org/Graphics/SVG/1.1/DTD/svg11.dtd">
<!-- Generated by graphviz version 2.38.0 (20140413.2041)
 -->
<!-- Title: onMouseMoved Pages: 1 -->
<svg width="193pt" height="46pt"
 viewBox="0.00 0.00 193.00 46.00" xmlns="http://www.w3.org/2000/svg" xmlns:xlink="http://www.w3.org/1999/xlink">
<g id="graph0" class="graph" transform="scale(1 1) rotate(0) translate(4 42)">
<title>onMouseMoved</title>
<!-- Node1 -->
<g id="node1" class="node"><title>Node1</title>
<g id="a_node1"><a xlink:title=" ">
<polygon fill="#bfbfbf" stroke="black" points="101,-0.5 101,-19.5 185,-19.5 185,-0.5 101,-0.5"/>
<text text-anchor="middle" x="143" y="-7.5" font-family="Helvetica,sans-Serif" font-size="10.00">onMouseMoved</text>
</a>
</g>
</g>
<!-- Node1&#45;&gt;Node1 -->
<g id="edge2" class="edge"><title>Node1&#45;&gt;Node1</title>
<path fill="none" stroke="midnightblue" d="M163.369,-29.4C162.009,-34.3146 155.219,-38 143,-38 123.449,-38 117.798,-28.5653 126.046,-19.7571"/>
<polygon fill="midnightblue" stroke="midnightblue" points="166.592,-28.0149 159.954,-19.7571 159.993,-30.3518 166.592,-28.0149"/>
</g>
<!-- Node2 -->
<g id="node2" class="node"><title>Node2</title>
<g id="a_node2"><a xlink:href="$class_p_r_i_s_m_1_1_p_r_i_s_m_widget.html#a5d8e1b70982f6361d32d8e18972b3b65" xlink:title=" ">
<polygon fill="none" stroke="black" points="0,-0.5 0,-19.5 65,-19.5 65,-0.5 0,-0.5"/>
<text text-anchor="middle" x="32.5" y="-7.5" font-family="Helvetica,sans-Serif" font-size="10.00">onLeftClick</text>
</a>
</g>
</g>
<!-- Node1&#45;&gt;Node2 -->
<g id="edge1" class="edge"><title>Node1&#45;&gt;Node2</title>
<path fill="none" stroke="midnightblue" d="M90.7964,-10C82.0322,-10 73.1617,-10 65.1037,-10"/>
<polygon fill="midnightblue" stroke="midnightblue" points="90.9808,-13.5001 100.981,-10 90.9808,-6.5001 90.9808,-13.5001"/>
</g>
</g>
</svg>
