<?xml version="1.0" encoding="UTF-8" standalone="no"?>
<!DOCTYPE svg PUBLIC "-//W3C//DTD SVG 1.1//EN"
 "http://www.w3.org/Graphics/SVG/1.1/DTD/svg11.dtd">
<!-- Generated by graphviz version 2.38.0 (20140413.2041)
 -->
<!-- Title: onImageSelectorChanged Pages: 1 -->
<svg width="503pt" height="46pt"
 viewBox="0.00 0.00 503.00 46.00" xmlns="http://www.w3.org/2000/svg" xmlns:xlink="http://www.w3.org/1999/xlink">
<g id="graph0" class="graph" transform="scale(1 1) rotate(0) translate(4 42)">
<title>onImageSelectorChanged</title>
<!-- Node1 -->
<g id="node1" class="node"><title>Node1</title>
<g id="a_node1"><a xlink:title=" ">
<polygon fill="#bfbfbf" stroke="black" points="0,-0.5 0,-19.5 128,-19.5 128,-0.5 0,-0.5"/>
<text text-anchor="middle" x="64" y="-7.5" font-family="Helvetica,sans-Serif" font-size="10.00">onImageSelectorChanged</text>
</a>
</g>
</g>
<!-- Node1&#45;&gt;Node1 -->
<g id="edge1" class="edge"><title>Node1&#45;&gt;Node1</title>
<path fill="none" stroke="midnightblue" d="M38.1063,-19.7571C25.5094,-28.5653 34.1406,-38 64,-38 84.0618,-38 94.5408,-33.741 95.4371,-28.2746"/>
<polygon fill="midnightblue" stroke="midnightblue" points="98.2819,-26.2291 89.8937,-19.7571 92.415,-30.0475 98.2819,-26.2291"/>
</g>
<!-- Node2 -->
<g id="node2" class="node"><title>Node2</title>
<g id="a_node2"><a xlink:href="$class_p_r_i_s_m_1_1_p_r_i_s_m_widget.html#aa315cc715c538dea175216d53f73915e" xlink:title=" ">
<polygon fill="none" stroke="black" points="164,-0.5 164,-19.5 301,-19.5 301,-0.5 164,-0.5"/>
<text text-anchor="middle" x="232.5" y="-7.5" font-family="Helvetica,sans-Serif" font-size="10.00">UpdateShaderParametersUI</text>
</a>
</g>
</g>
<!-- Node1&#45;&gt;Node2 -->
<g id="edge2" class="edge"><title>Node1&#45;&gt;Node2</title>
<path fill="none" stroke="midnightblue" d="M128.421,-10C136.654,-10 145.161,-10 153.594,-10"/>
<polygon fill="midnightblue" stroke="midnightblue" points="153.821,-13.5001 163.821,-10 153.821,-6.5001 153.821,-13.5001"/>
</g>
<!-- Node3 -->
<g id="node3" class="node"><title>Node3</title>
<g id="a_node3"><a xlink:href="$class_p_r_i_s_m_1_1_p_r_i_s_m_widget.html#a5d6fb9b478e94c2f199af600607385ff" xlink:title=" ">
<polygon fill="none" stroke="black" points="337,-0.5 337,-19.5 495,-19.5 495,-0.5 337,-0.5"/>
<text text-anchor="middle" x="416" y="-7.5" font-family="Helvetica,sans-Serif" font-size="10.00">onCustomShaderParamChanged</text>
</a>
</g>
</g>
<!-- Node2&#45;&gt;Node3 -->
<g id="edge3" class="edge"><title>Node2&#45;&gt;Node3</title>
<path fill="none" stroke="midnightblue" d="M301.084,-10C309.487,-10 318.174,-10 326.83,-10"/>
<polygon fill="midnightblue" stroke="midnightblue" points="326.958,-13.5001 336.958,-10 326.958,-6.5001 326.958,-13.5001"/>
</g>
</g>
</svg>
