<?xml version="1.0" encoding="UTF-8" standalone="no"?>
<!DOCTYPE svg PUBLIC "-//W3C//DTD SVG 1.1//EN"
 "http://www.w3.org/Graphics/SVG/1.1/DTD/svg11.dtd">
<!-- Generated by graphviz version 2.38.0 (20140413.2041)
 -->
<!-- Title: getPath Pages: 1 -->
<svg width="252pt" height="215pt"
 viewBox="0.00 0.00 252.00 214.50" xmlns="http://www.w3.org/2000/svg" xmlns:xlink="http://www.w3.org/1999/xlink">
<g id="graph0" class="graph" transform="scale(1 1) rotate(0) translate(4 210.5)">
<title>getPath</title>
<!-- Node1 -->
<g id="node1" class="node"><title>Node1</title>
<g id="a_node1"><a xlink:title="Function to get a selected shader file path.">
<polygon fill="#bfbfbf" stroke="black" points="194,-88.5 194,-107.5 244,-107.5 244,-88.5 194,-88.5"/>
<text text-anchor="middle" x="219" y="-95.5" font-family="Helvetica,sans-Serif" font-size="10.00">getPath</text>
</a>
</g>
</g>
<!-- Node2 -->
<g id="node2" class="node"><title>Node2</title>
<g id="a_node2"><a xlink:href="class_slicer_p_r_i_s_m_1_1_p_r_i_s_m_1_1_p_r_i_s_m_widget.html#ae1a03b1dc14c2746bb2892f37a99e13e" target="_top" xlink:title="Function to add the new shader replacement to a file.">
<polygon fill="none" stroke="black" points="4.5,-176 4.5,-206 153.5,-206 153.5,-176 4.5,-176"/>
<text text-anchor="start" x="12.5" y="-194" font-family="Helvetica,sans-Serif" font-size="10.00">onModifyCustomShaderButton</text>
<text text-anchor="middle" x="79" y="-183" font-family="Helvetica,sans-Serif" font-size="10.00">Clicked</text>
</a>
</g>
</g>
<!-- Node1&#45;&gt;Node2 -->
<g id="edge1" class="edge"><title>Node1&#45;&gt;Node2</title>
<path fill="none" stroke="midnightblue" d="M206.432,-116.28C195.672,-131.876 178.276,-153.809 158,-167 152.774,-170.4 147.041,-173.339 141.129,-175.877"/>
<polygon fill="midnightblue" stroke="midnightblue" points="209.63,-117.792 212.242,-107.524 203.797,-113.922 209.63,-117.792"/>
</g>
<!-- Node3 -->
<g id="node3" class="node"><title>Node3</title>
<g id="a_node3"><a xlink:href="class_slicer_p_r_i_s_m_1_1_p_r_i_s_m_1_1_p_r_i_s_m_widget.html#a603b7c0196c8c4985ff8c65976e33c7e" target="_top" xlink:title="Function to open custom shader file.">
<polygon fill="none" stroke="black" points="7.5,-127 7.5,-157 150.5,-157 150.5,-127 7.5,-127"/>
<text text-anchor="start" x="15.5" y="-145" font-family="Helvetica,sans-Serif" font-size="10.00">onOpenCustomShaderButton</text>
<text text-anchor="middle" x="79" y="-134" font-family="Helvetica,sans-Serif" font-size="10.00">Clicked</text>
</a>
</g>
</g>
<!-- Node1&#45;&gt;Node3 -->
<g id="edge2" class="edge"><title>Node1&#45;&gt;Node3</title>
<path fill="none" stroke="midnightblue" d="M184.356,-108.727C167.172,-114.206 145.979,-120.963 127.19,-126.954"/>
<polygon fill="midnightblue" stroke="midnightblue" points="185.498,-112.037 193.962,-105.664 183.372,-105.367 185.498,-112.037"/>
</g>
<!-- Node4 -->
<g id="node4" class="node"><title>Node4</title>
<g id="a_node4"><a xlink:href="class_slicer_p_r_i_s_m_1_1_p_r_i_s_m_1_1_p_r_i_s_m_widget.html#ab1895c94043be028238f122374b8df86" target="_top" xlink:title="Reload the modules.">
<polygon fill="none" stroke="black" points="50.5,-88.5 50.5,-107.5 107.5,-107.5 107.5,-88.5 50.5,-88.5"/>
<text text-anchor="middle" x="79" y="-95.5" font-family="Helvetica,sans-Serif" font-size="10.00">onReload</text>
</a>
</g>
</g>
<!-- Node1&#45;&gt;Node4 -->
<g id="edge3" class="edge"><title>Node1&#45;&gt;Node4</title>
<path fill="none" stroke="midnightblue" d="M183.735,-98C160.236,-98 129.465,-98 107.553,-98"/>
<polygon fill="midnightblue" stroke="midnightblue" points="183.962,-101.5 193.962,-98 183.962,-94.5001 183.962,-101.5"/>
</g>
<!-- Node5 -->
<g id="node5" class="node"><title>Node5</title>
<g id="a_node5"><a xlink:href="class_slicer_p_r_i_s_m_1_1_p_r_i_s_m_1_1_p_r_i_s_m_widget.html#a4913ae6c186230db1cfc893f6e9407ec" target="_top" xlink:title="Function to reload the current custom shader.">
<polygon fill="none" stroke="black" points="2.5,-39 2.5,-69 155.5,-69 155.5,-39 2.5,-39"/>
<text text-anchor="start" x="10.5" y="-57" font-family="Helvetica,sans-Serif" font-size="10.00">onReloadCurrentCustomShader</text>
<text text-anchor="middle" x="79" y="-46" font-family="Helvetica,sans-Serif" font-size="10.00">ButtonClicked</text>
</a>
</g>
</g>
<!-- Node1&#45;&gt;Node5 -->
<g id="edge4" class="edge"><title>Node1&#45;&gt;Node5</title>
<path fill="none" stroke="midnightblue" d="M184.356,-87.273C167.172,-81.7939 145.979,-75.0367 127.19,-69.0461"/>
<polygon fill="midnightblue" stroke="midnightblue" points="183.372,-90.6326 193.962,-90.3358 185.498,-83.9634 183.372,-90.6326"/>
</g>
<!-- Node6 -->
<g id="node6" class="node"><title>Node6</title>
<g id="a_node6"><a xlink:href="class_slicer_p_r_i_s_m_1_1_p_r_i_s_m_1_1_p_r_i_s_m_widget.html#a591e2cd1c5c25d29a86e537ffa0f431a" target="_top" xlink:title="Function to open a file containing the new shader replacement.">
<polygon fill="none" stroke="black" points="0,-0.5 0,-19.5 158,-19.5 158,-0.5 0,-0.5"/>
<text text-anchor="middle" x="79" y="-7.5" font-family="Helvetica,sans-Serif" font-size="10.00">onShaderOpenFileButtonClicked</text>
</a>
</g>
</g>
<!-- Node1&#45;&gt;Node6 -->
<g id="edge5" class="edge"><title>Node1&#45;&gt;Node6</title>
<path fill="none" stroke="midnightblue" d="M206.523,-79.7523C195.82,-64.2328 178.46,-42.5273 158,-30 150.847,-25.62 142.762,-22.1945 134.575,-19.5167"/>
<polygon fill="midnightblue" stroke="midnightblue" points="203.858,-82.0687 212.294,-88.4787 209.697,-78.2071 203.858,-82.0687"/>
</g>
</g>
</svg>
