<?xml version="1.0" encoding="UTF-8" standalone="no"?>
<!DOCTYPE svg PUBLIC "-//W3C//DTD SVG 1.1//EN"
 "http://www.w3.org/Graphics/SVG/1.1/DTD/svg11.dtd">
<!-- Generated by graphviz version 2.38.0 (20140413.2041)
 -->
<!-- Title: updateParameterNodeFromGUI Pages: 1 -->
<svg width="898pt" height="224pt"
 viewBox="0.00 0.00 898.00 223.50" xmlns="http://www.w3.org/2000/svg" xmlns:xlink="http://www.w3.org/1999/xlink">
<g id="graph0" class="graph" transform="scale(1 1) rotate(0) translate(4 219.5)">
<title>updateParameterNodeFromGUI</title>
<!-- Node1 -->
<g id="node1" class="node"><title>Node1</title>
<g id="a_node1"><a xlink:title="Function to update the parameter node from gui values.">
<polygon fill="#bfbfbf" stroke="black" points="738,-95.5 738,-114.5 890,-114.5 890,-95.5 738,-95.5"/>
<text text-anchor="middle" x="814" y="-102.5" font-family="Helvetica,sans-Serif" font-size="10.00">updateParameterNodeFromGUI</text>
</a>
</g>
</g>
<!-- Node2 -->
<g id="node2" class="node"><title>Node2</title>
<g id="a_node2"><a xlink:href="$class_slicer_p_r_i_s_m_1_1_p_r_i_s_m_1_1_p_r_i_s_m_widget.html#a69a2d837a10281b583a4e5f9044db193" xlink:title="Function to add observers to the GUI&#39;s widgets.">
<polygon fill="none" stroke="black" points="583,-152.5 583,-171.5 675,-171.5 675,-152.5 583,-152.5"/>
<text text-anchor="middle" x="629" y="-159.5" font-family="Helvetica,sans-Serif" font-size="10.00">addGUIObservers</text>
</a>
</g>
</g>
<!-- Node1&#45;&gt;Node2 -->
<g id="edge1" class="edge"><title>Node1&#45;&gt;Node2</title>
<path fill="none" stroke="midnightblue" d="M777.258,-117.966C755.606,-125.638 727.359,-135.324 702,-143 691.111,-146.296 679.201,-149.571 668.258,-152.45"/>
<polygon fill="midnightblue" stroke="midnightblue" points="778.464,-121.252 786.709,-114.597 776.114,-114.658 778.464,-121.252"/>
</g>
<!-- Node4 -->
<g id="node4" class="node"><title>Node4</title>
<g id="a_node4"><a xlink:href="$class_slicer_p_r_i_s_m_1_1_p_r_i_s_m_1_1_p_r_i_s_m_widget.html#adaa9135573481fda408b1b56cea63670" xlink:title="Callback function when the custom shader combo box is changed.">
<polygon fill="none" stroke="black" points="186,-185 186,-215 332,-215 332,-185 186,-185"/>
<text text-anchor="start" x="194" y="-203" font-family="Helvetica,sans-Serif" font-size="10.00">onCustomShaderComboIndex</text>
<text text-anchor="middle" x="259" y="-192" font-family="Helvetica,sans-Serif" font-size="10.00">Changed</text>
</a>
</g>
</g>
<!-- Node1&#45;&gt;Node4 -->
<g id="edge11" class="edge"><title>Node1&#45;&gt;Node4</title>
<path fill="none" stroke="midnightblue" d="M795.494,-121.702C774.961,-140.087 739.001,-168.67 702,-181 577.214,-222.584 421.589,-217.035 332.224,-208.804"/>
<polygon fill="midnightblue" stroke="midnightblue" points="798.065,-124.093 803.065,-114.752 793.331,-118.936 798.065,-124.093"/>
</g>
<!-- Node7 -->
<g id="node7" class="node"><title>Node7</title>
<g id="a_node7"><a xlink:href="$class_slicer_p_r_i_s_m_1_1_p_r_i_s_m_1_1_p_r_i_s_m_widget.html#adc9c6622ed17fd138cccbdc9c82c1498" xlink:title="Function to create a transfert fuction widget.">
<polygon fill="none" stroke="black" points="556,-38.5 556,-57.5 702,-57.5 702,-38.5 556,-38.5"/>
<text text-anchor="middle" x="629" y="-45.5" font-family="Helvetica,sans-Serif" font-size="10.00">createTransferFunctionWidget</text>
</a>
</g>
</g>
<!-- Node1&#45;&gt;Node7 -->
<g id="edge6" class="edge"><title>Node1&#45;&gt;Node7</title>
<path fill="none" stroke="midnightblue" d="M772.804,-92.4799C739.042,-81.964 691.512,-67.1595 660.73,-57.5716"/>
<polygon fill="midnightblue" stroke="midnightblue" points="771.781,-95.8272 782.37,-95.4595 773.863,-89.1439 771.781,-95.8272"/>
</g>
<!-- Node9 -->
<g id="node9" class="node"><title>Node9</title>
<g id="a_node9"><a xlink:href="$class_slicer_p_r_i_s_m_1_1_p_r_i_s_m_1_1_p_r_i_s_m_widget.html#a54a1afbbde03873c1a73c339eaf4ac63" xlink:title="Callback function when the volume node has been changed in the dedicated combobox.">
<polygon fill="none" stroke="black" points="380,-0.5 380,-19.5 508,-19.5 508,-0.5 380,-0.5"/>
<text text-anchor="middle" x="444" y="-7.5" font-family="Helvetica,sans-Serif" font-size="10.00">onImageSelectorChanged</text>
</a>
</g>
</g>
<!-- Node1&#45;&gt;Node9 -->
<g id="edge12" class="edge"><title>Node1&#45;&gt;Node9</title>
<path fill="none" stroke="midnightblue" d="M795.424,-88.5046C774.826,-70.3087 738.806,-41.8991 702,-29 638.667,-6.80433 561.318,-4.09608 508.122,-5.6587"/>
<polygon fill="midnightblue" stroke="midnightblue" points="793.257,-91.264 803.021,-95.3766 797.953,-86.0727 793.257,-91.264"/>
</g>
<!-- Node10 -->
<g id="node10" class="node"><title>Node10</title>
<g id="a_node10"><a xlink:href="$class_slicer_p_r_i_s_m_1_1_p_r_i_s_m_1_1_p_r_i_s_m_widget.html#a5354f5739815c9b04b2e8df68991a1b7" xlink:title="Function to initialize the all user interface based on current scene.">
<polygon fill="none" stroke="black" points="232.5,-38.5 232.5,-57.5 285.5,-57.5 285.5,-38.5 232.5,-38.5"/>
<text text-anchor="middle" x="259" y="-45.5" font-family="Helvetica,sans-Serif" font-size="10.00">initState</text>
</a>
</g>
</g>
<!-- Node1&#45;&gt;Node10 -->
<g id="edge10" class="edge"><title>Node1&#45;&gt;Node10</title>
<path fill="none" stroke="midnightblue" d="M727.859,-99.9884C638.115,-94.178 492.747,-83.2666 368,-67 339.683,-63.3075 307.471,-57.419 285.65,-53.1757"/>
<polygon fill="midnightblue" stroke="midnightblue" points="727.779,-103.49 737.982,-100.637 728.227,-96.5047 727.779,-103.49"/>
</g>
<!-- Node11 -->
<g id="node11" class="node"><title>Node11</title>
<g id="a_node11"><a xlink:href="$class_slicer_p_r_i_s_m_1_1_p_r_i_s_m_1_1_p_r_i_s_m_widget.html#a16e1c85444e27fae67a4b0973d36fe67" xlink:title="Function to remove observers from the GUI&#39;s widgets.">
<polygon fill="none" stroke="black" points="575.5,-114.5 575.5,-133.5 682.5,-133.5 682.5,-114.5 575.5,-114.5"/>
<text text-anchor="middle" x="629" y="-121.5" font-family="Helvetica,sans-Serif" font-size="10.00">removeGUIObservers</text>
</a>
</g>
</g>
<!-- Node1&#45;&gt;Node11 -->
<g id="edge13" class="edge"><title>Node1&#45;&gt;Node11</title>
<path fill="none" stroke="midnightblue" d="M727.713,-113.855C712.323,-115.453 696.697,-117.075 682.588,-118.54"/>
<polygon fill="midnightblue" stroke="midnightblue" points="728.19,-117.324 737.775,-112.81 727.467,-110.362 728.19,-117.324"/>
</g>
<!-- Node3 -->
<g id="node3" class="node"><title>Node3</title>
<g id="a_node3"><a xlink:href="$class_slicer_p_r_i_s_m_1_1_p_r_i_s_m_1_1_p_r_i_s_m_widget.html#a4cb394295cd619d0c99b9c173ff5de4b" xlink:title="Function to update GUI from parameter node values.">
<polygon fill="none" stroke="black" points="368,-152.5 368,-171.5 520,-171.5 520,-152.5 368,-152.5"/>
<text text-anchor="middle" x="444" y="-159.5" font-family="Helvetica,sans-Serif" font-size="10.00">updateGUIFromParameterNode</text>
</a>
</g>
</g>
<!-- Node2&#45;&gt;Node3 -->
<g id="edge2" class="edge"><title>Node2&#45;&gt;Node3</title>
<path fill="none" stroke="midnightblue" d="M572.759,-162C556.262,-162 537.89,-162 520.337,-162"/>
<polygon fill="midnightblue" stroke="midnightblue" points="572.764,-165.5 582.764,-162 572.764,-158.5 572.764,-165.5"/>
</g>
<!-- Node3&#45;&gt;Node4 -->
<g id="edge3" class="edge"><title>Node3&#45;&gt;Node4</title>
<path fill="none" stroke="midnightblue" d="M386.904,-173.648C369.63,-177.235 350.366,-181.235 332.17,-185.014"/>
<polygon fill="midnightblue" stroke="midnightblue" points="387.742,-177.049 396.821,-171.589 386.319,-170.195 387.742,-177.049"/>
</g>
<!-- Node5 -->
<g id="node5" class="node"><title>Node5</title>
<g id="a_node5"><a xlink:href="$class_slicer_p_r_i_s_m_1_1_p_r_i_s_m_1_1_p_r_i_s_m_widget.html#a325535c42ba7ec6ffe9b6484a0a71f85" xlink:title="Function to update the parameter node.">
<polygon fill="none" stroke="black" points="193.5,-146.5 193.5,-165.5 324.5,-165.5 324.5,-146.5 193.5,-146.5"/>
<text text-anchor="middle" x="259" y="-153.5" font-family="Helvetica,sans-Serif" font-size="10.00">onParameterNodeModified</text>
</a>
</g>
</g>
<!-- Node3&#45;&gt;Node5 -->
<g id="edge4" class="edge"><title>Node3&#45;&gt;Node5</title>
<path fill="none" stroke="midnightblue" d="M357.652,-159.202C346.573,-158.838 335.373,-158.471 324.706,-158.121"/>
<polygon fill="midnightblue" stroke="midnightblue" points="357.665,-162.704 367.775,-159.534 357.895,-155.708 357.665,-162.704"/>
</g>
<!-- Node6 -->
<g id="node6" class="node"><title>Node6</title>
<g id="a_node6"><a xlink:href="$class_slicer_p_r_i_s_m_1_1_p_r_i_s_m_1_1_p_r_i_s_m_widget.html#aec96b9b1b3199eeba9f95e65796306c1" xlink:title="Function to set the parameter node.">
<polygon fill="none" stroke="black" points="0,-146.5 0,-165.5 150,-165.5 150,-146.5 0,-146.5"/>
<text text-anchor="middle" x="75" y="-153.5" font-family="Helvetica,sans-Serif" font-size="10.00">setAndObserveParameterNode</text>
</a>
</g>
</g>
<!-- Node5&#45;&gt;Node6 -->
<g id="edge5" class="edge"><title>Node5&#45;&gt;Node6</title>
<path fill="none" stroke="midnightblue" d="M183.012,-156C172.137,-156 160.947,-156 150.09,-156"/>
<polygon fill="midnightblue" stroke="midnightblue" points="183.321,-159.5 193.321,-156 183.321,-152.5 183.321,-159.5"/>
</g>
<!-- Node8 -->
<g id="node8" class="node"><title>Node8</title>
<g id="a_node8"><a xlink:href="$class_slicer_p_r_i_s_m_1_1_p_r_i_s_m_1_1_p_r_i_s_m_widget.html#ac59c625f0d809c1dd0ec96e9e8312dd8" xlink:title="Function to add transfer function widgets to the ui.">
<polygon fill="none" stroke="black" points="389,-38.5 389,-57.5 499,-57.5 499,-38.5 389,-38.5"/>
<text text-anchor="middle" x="444" y="-45.5" font-family="Helvetica,sans-Serif" font-size="10.00">addTransferFunctions</text>
</a>
</g>
</g>
<!-- Node7&#45;&gt;Node8 -->
<g id="edge7" class="edge"><title>Node7&#45;&gt;Node8</title>
<path fill="none" stroke="midnightblue" d="M545.653,-48C529.895,-48 513.771,-48 499.176,-48"/>
<polygon fill="midnightblue" stroke="midnightblue" points="545.936,-51.5001 555.936,-48 545.936,-44.5001 545.936,-51.5001"/>
</g>
<!-- Node7&#45;&gt;Node9 -->
<g id="edge8" class="edge"><title>Node7&#45;&gt;Node9</title>
<path fill="none" stroke="midnightblue" d="M571.747,-36.319C545.795,-30.9301 515.378,-24.6139 490.847,-19.5201"/>
<polygon fill="midnightblue" stroke="midnightblue" points="571.319,-39.8047 581.821,-38.411 572.742,-32.9509 571.319,-39.8047"/>
</g>
<!-- Node9&#45;&gt;Node10 -->
<g id="edge9" class="edge"><title>Node9&#45;&gt;Node10</title>
<path fill="none" stroke="midnightblue" d="M386.613,-21.7087C352.862,-28.7172 311.596,-37.286 285.548,-42.695"/>
<polygon fill="midnightblue" stroke="midnightblue" points="387.742,-25.0491 396.821,-19.589 386.319,-18.1953 387.742,-25.0491"/>
</g>
<!-- Node11&#45;&gt;Node3 -->
<g id="edge15" class="edge"><title>Node11&#45;&gt;Node3</title>
<path fill="none" stroke="midnightblue" d="M571.747,-135.681C545.795,-141.07 515.378,-147.386 490.847,-152.48"/>
<polygon fill="midnightblue" stroke="midnightblue" points="572.742,-139.049 581.821,-133.589 571.319,-132.195 572.742,-139.049"/>
</g>
<!-- Node12 -->
<g id="node12" class="node"><title>Node12</title>
<g id="a_node12"><a xlink:href="$class_slicer_p_r_i_s_m_1_1_p_r_i_s_m_1_1_p_r_i_s_m_widget.html#ad437efc961d478c0fbe40e9ad2a0578a" xlink:title="Function to clean up the scene.">
<polygon fill="none" stroke="black" points="419,-114.5 419,-133.5 469,-133.5 469,-114.5 419,-114.5"/>
<text text-anchor="middle" x="444" y="-121.5" font-family="Helvetica,sans-Serif" font-size="10.00">cleanup</text>
</a>
</g>
</g>
<!-- Node11&#45;&gt;Node12 -->
<g id="edge14" class="edge"><title>Node11&#45;&gt;Node12</title>
<path fill="none" stroke="midnightblue" d="M565.052,-124C532.141,-124 493.753,-124 469.416,-124"/>
<polygon fill="midnightblue" stroke="midnightblue" points="565.069,-127.5 575.069,-124 565.069,-120.5 565.069,-127.5"/>
</g>
</g>
</svg>
