<?xml version="1.0" encoding="UTF-8" standalone="no"?>
<!DOCTYPE svg PUBLIC "-//W3C//DTD SVG 1.1//EN"
 "http://www.w3.org/Graphics/SVG/1.1/DTD/svg11.dtd">
<!-- Generated by graphviz version 2.38.0 (20140413.2041)
 -->
<!-- Title: PRISM Pages: 1 -->
<svg width="131pt" height="171pt"
 viewBox="0.00 0.00 131.00 171.00" xmlns="http://www.w3.org/2000/svg" xmlns:xlink="http://www.w3.org/1999/xlink">
<g id="graph0" class="graph" transform="scale(1 1) rotate(0) translate(4 167)">
<title>PRISM</title>
<!-- Node1 -->
<g id="node1" class="node"><title>Node1</title>
<g id="a_node1"><a xlink:title=" ">
<polygon fill="#bfbfbf" stroke="black" points="29,-0.5 29,-68.5 94,-68.5 94,-0.5 29,-0.5"/>
<text text-anchor="middle" x="61.5" y="-56.5" font-family="Helvetica,sans-Serif" font-size="10.00">PRISM</text>
<polyline fill="none" stroke="black" points="29,-49.5 94,-49.5 "/>
<text text-anchor="middle" x="61.5" y="-37.5" font-family="Helvetica,sans-Serif" font-size="10.00"> </text>
<polyline fill="none" stroke="black" points="29,-30.5 94,-30.5 "/>
<text text-anchor="start" x="37" y="-18.5" font-family="Helvetica,sans-Serif" font-size="10.00">+ __init__()</text>
<text text-anchor="start" x="37" y="-7.5" font-family="Helvetica,sans-Serif" font-size="10.00">+ __init__()</text>
</a>
</g>
</g>
<!-- Node2 -->
<g id="node2" class="node"><title>Node2</title>
<g id="a_node2"><a xlink:href="$class_scripted_loadable_module.html" xlink:title=" ">
<polygon fill="none" stroke="black" points="0,-105.5 0,-162.5 123,-162.5 123,-105.5 0,-105.5"/>
<text text-anchor="middle" x="61.5" y="-150.5" font-family="Helvetica,sans-Serif" font-size="10.00">ScriptedLoadableModule</text>
<polyline fill="none" stroke="black" points="0,-143.5 123,-143.5 "/>
<text text-anchor="middle" x="61.5" y="-131.5" font-family="Helvetica,sans-Serif" font-size="10.00"> </text>
<polyline fill="none" stroke="black" points="0,-124.5 123,-124.5 "/>
<text text-anchor="middle" x="61.5" y="-112.5" font-family="Helvetica,sans-Serif" font-size="10.00"> </text>
</a>
</g>
</g>
<!-- Node2&#45;&gt;Node1 -->
<g id="edge1" class="edge"><title>Node2&#45;&gt;Node1</title>
<path fill="none" stroke="midnightblue" d="M61.5,-95.0631C61.5,-86.3933 61.5,-77.2431 61.5,-68.7855"/>
<polygon fill="none" stroke="midnightblue" points="58.0001,-95.3212 61.5,-105.321 65.0001,-95.3212 58.0001,-95.3212"/>
</g>
</g>
</svg>
