<?xml version="1.0" encoding="UTF-8" standalone="no"?>
<!DOCTYPE svg PUBLIC "-//W3C//DTD SVG 1.1//EN"
 "http://www.w3.org/Graphics/SVG/1.1/DTD/svg11.dtd">
<!-- Generated by graphviz version 2.38.0 (20140413.2041)
 -->
<!-- Title: onCloseScene Pages: 1 -->
<svg width="289pt" height="46pt"
 viewBox="0.00 0.00 289.00 46.00" xmlns="http://www.w3.org/2000/svg" xmlns:xlink="http://www.w3.org/1999/xlink">
<g id="graph0" class="graph" transform="scale(1 1) rotate(0) translate(4 42)">
<title>onCloseScene</title>
<!-- Node1 -->
<g id="node1" class="node"><title>Node1</title>
<g id="a_node1"><a xlink:title=" ">
<polygon fill="#bfbfbf" stroke="black" points="201,-0.5 201,-19.5 281,-19.5 281,-0.5 201,-0.5"/>
<text text-anchor="middle" x="241" y="-7.5" font-family="Helvetica,sans-Serif" font-size="10.00">onCloseScene</text>
</a>
</g>
</g>
<!-- Node1&#45;&gt;Node1 -->
<g id="edge4" class="edge"><title>Node1&#45;&gt;Node1</title>
<path fill="none" stroke="midnightblue" d="M262.11,-29.4C260.7,-34.3146 253.664,-38 241,-38 220.738,-38 214.881,-28.5653 223.429,-19.7571"/>
<polygon fill="midnightblue" stroke="midnightblue" points="265.302,-27.9387 258.571,-19.7571 258.731,-30.3507 265.302,-27.9387"/>
</g>
<!-- Node2 -->
<g id="node2" class="node"><title>Node2</title>
<g id="a_node2"><a xlink:href="$class_p_r_i_s_m_1_1_p_r_i_s_m_widget.html#a4122013a40eb6518717520443b9ab010" xlink:title=" ">
<polygon fill="none" stroke="black" points="89,-0.5 89,-19.5 165,-19.5 165,-0.5 89,-0.5"/>
<text text-anchor="middle" x="127" y="-7.5" font-family="Helvetica,sans-Serif" font-size="10.00">addObservers</text>
</a>
</g>
</g>
<!-- Node1&#45;&gt;Node2 -->
<g id="edge1" class="edge"><title>Node1&#45;&gt;Node2</title>
<path fill="none" stroke="midnightblue" d="M190.551,-10C181.996,-10 173.235,-10 165.081,-10"/>
<polygon fill="midnightblue" stroke="midnightblue" points="190.828,-13.5001 200.828,-10 190.828,-6.5001 190.828,-13.5001"/>
</g>
<!-- Node2&#45;&gt;Node2 -->
<g id="edge2" class="edge"><title>Node2&#45;&gt;Node2</title>
<path fill="none" stroke="midnightblue" d="M145.518,-29.4C144.281,-34.3146 138.108,-38 127,-38 109.227,-38 104.089,-28.5653 111.587,-19.7571"/>
<polygon fill="midnightblue" stroke="midnightblue" points="148.809,-28.2032 142.413,-19.7571 142.146,-30.3485 148.809,-28.2032"/>
</g>
<!-- Node3 -->
<g id="node3" class="node"><title>Node3</title>
<g id="a_node3"><a xlink:href="$class_p_r_i_s_m_1_1_p_r_i_s_m_widget.html#a5354f5739815c9b04b2e8df68991a1b7" xlink:title=" ">
<polygon fill="none" stroke="black" points="0,-0.5 0,-19.5 53,-19.5 53,-0.5 0,-0.5"/>
<text text-anchor="middle" x="26.5" y="-7.5" font-family="Helvetica,sans-Serif" font-size="10.00">initState</text>
</a>
</g>
</g>
<!-- Node2&#45;&gt;Node3 -->
<g id="edge3" class="edge"><title>Node2&#45;&gt;Node3</title>
<path fill="none" stroke="midnightblue" d="M78.5717,-10C69.8047,-10 60.9606,-10 53.1527,-10"/>
<polygon fill="midnightblue" stroke="midnightblue" points="78.7614,-13.5001 88.7614,-10 78.7613,-6.5001 78.7614,-13.5001"/>
</g>
</g>
</svg>
