<?xml version="1.0" encoding="UTF-8" standalone="no"?>
<!DOCTYPE svg PUBLIC "-//W3C//DTD SVG 1.1//EN"
 "http://www.w3.org/Graphics/SVG/1.1/DTD/svg11.dtd">
<!-- Generated by graphviz version 2.38.0 (20140413.2041)
 -->
<!-- Title: updateGUIFromParameterNode Pages: 1 -->
<svg width="528pt" height="78pt"
 viewBox="0.00 0.00 528.00 77.50" xmlns="http://www.w3.org/2000/svg" xmlns:xlink="http://www.w3.org/1999/xlink">
<g id="graph0" class="graph" transform="scale(1 1) rotate(0) translate(4 73.5)">
<title>updateGUIFromParameterNode</title>
<!-- Node1 -->
<g id="node1" class="node"><title>Node1</title>
<g id="a_node1"><a xlink:title="Function to update GUI from parameter node values.">
<polygon fill="#bfbfbf" stroke="black" points="368,-22.5 368,-41.5 520,-41.5 520,-22.5 368,-22.5"/>
<text text-anchor="middle" x="444" y="-29.5" font-family="Helvetica,sans-Serif" font-size="10.00">updateGUIFromParameterNode</text>
</a>
</g>
</g>
<!-- Node2 -->
<g id="node2" class="node"><title>Node2</title>
<g id="a_node2"><a xlink:href="$class_slicer_p_r_i_s_m_1_1_p_r_i_s_m_1_1_p_r_i_s_m_widget.html#adaa9135573481fda408b1b56cea63670" xlink:title="Callback function when the custom shader combo box is changed.">
<polygon fill="none" stroke="black" points="186,-39 186,-69 332,-69 332,-39 186,-39"/>
<text text-anchor="start" x="194" y="-57" font-family="Helvetica,sans-Serif" font-size="10.00">onCustomShaderComboIndex</text>
<text text-anchor="middle" x="259" y="-46" font-family="Helvetica,sans-Serif" font-size="10.00">Changed</text>
</a>
</g>
</g>
<!-- Node1&#45;&gt;Node2 -->
<g id="edge1" class="edge"><title>Node1&#45;&gt;Node2</title>
<path fill="none" stroke="midnightblue" d="M357.807,-42.2418C349.272,-43.2679 340.663,-44.3028 332.28,-45.3106"/>
<polygon fill="midnightblue" stroke="midnightblue" points="358.264,-45.7121 367.775,-41.0435 357.428,-38.7622 358.264,-45.7121"/>
</g>
<!-- Node3 -->
<g id="node3" class="node"><title>Node3</title>
<g id="a_node3"><a xlink:href="$class_slicer_p_r_i_s_m_1_1_p_r_i_s_m_1_1_p_r_i_s_m_widget.html#a325535c42ba7ec6ffe9b6484a0a71f85" xlink:title="Function to update the parameter node.">
<polygon fill="none" stroke="black" points="193.5,-0.5 193.5,-19.5 324.5,-19.5 324.5,-0.5 193.5,-0.5"/>
<text text-anchor="middle" x="259" y="-7.5" font-family="Helvetica,sans-Serif" font-size="10.00">onParameterNodeModified</text>
</a>
</g>
</g>
<!-- Node1&#45;&gt;Node3 -->
<g id="edge2" class="edge"><title>Node1&#45;&gt;Node3</title>
<path fill="none" stroke="midnightblue" d="M357.652,-21.7396C346.573,-20.4077 335.373,-19.0612 324.706,-17.7788"/>
<polygon fill="midnightblue" stroke="midnightblue" points="357.428,-25.2378 367.775,-22.9565 358.264,-18.2879 357.428,-25.2378"/>
</g>
<!-- Node4 -->
<g id="node4" class="node"><title>Node4</title>
<g id="a_node4"><a xlink:href="$class_slicer_p_r_i_s_m_1_1_p_r_i_s_m_1_1_p_r_i_s_m_widget.html#aec96b9b1b3199eeba9f95e65796306c1" xlink:title="Function to set the parameter node.">
<polygon fill="none" stroke="black" points="0,-0.5 0,-19.5 150,-19.5 150,-0.5 0,-0.5"/>
<text text-anchor="middle" x="75" y="-7.5" font-family="Helvetica,sans-Serif" font-size="10.00">setAndObserveParameterNode</text>
</a>
</g>
</g>
<!-- Node3&#45;&gt;Node4 -->
<g id="edge3" class="edge"><title>Node3&#45;&gt;Node4</title>
<path fill="none" stroke="midnightblue" d="M183.012,-10C172.137,-10 160.947,-10 150.09,-10"/>
<polygon fill="midnightblue" stroke="midnightblue" points="183.321,-13.5001 193.321,-10 183.321,-6.5001 183.321,-13.5001"/>
</g>
</g>
</svg>
