<?xml version="1.0" encoding="UTF-8" standalone="no"?>
<!DOCTYPE svg PUBLIC "-//W3C//DTD SVG 1.1//EN"
 "http://www.w3.org/Graphics/SVG/1.1/DTD/svg11.dtd">
<!-- Generated by graphviz version 2.38.0 (20140413.2041)
 -->
<!-- Title: GetDisplayName Pages: 1 -->
<svg width="318pt" height="100pt"
 viewBox="0.00 0.00 318.00 99.50" xmlns="http://www.w3.org/2000/svg" xmlns:xlink="http://www.w3.org/1999/xlink">
<g id="graph0" class="graph" transform="scale(1 1) rotate(0) translate(4 95.5)">
<title>GetDisplayName</title>
<!-- Node1 -->
<g id="node1" class="node"><title>Node1</title>
<g id="a_node1"><a xlink:title=" ">
<polygon fill="#bfbfbf" stroke="black" points="220,-38.5 220,-57.5 310,-57.5 310,-38.5 220,-38.5"/>
<text text-anchor="middle" x="265" y="-45.5" font-family="Helvetica,sans-Serif" font-size="10.00">GetDisplayName</text>
</a>
</g>
</g>
<!-- Node2 -->
<g id="node2" class="node"><title>Node2</title>
<g id="a_node2"><a xlink:href="$class_slicer_p_r_i_s_m_1_1_resources_1_1_custom_shader_1_1_custom_shader.html#a344ccd90b2c8c6868d8e57fbfa16e4e4" xlink:title="Function to get a class from it&#39;s display name.">
<polygon fill="none" stroke="black" points="0,-61 0,-91 184,-91 184,-61 0,-61"/>
<text text-anchor="start" x="8" y="-79" font-family="Helvetica,sans-Serif" font-size="10.00">SlicerPRISM.Resources.Custom</text>
<text text-anchor="middle" x="92" y="-68" font-family="Helvetica,sans-Serif" font-size="10.00">Shader.CustomShader.GetClassName</text>
</a>
</g>
</g>
<!-- Node1&#45;&gt;Node2 -->
<g id="edge1" class="edge"><title>Node1&#45;&gt;Node2</title>
<path fill="none" stroke="midnightblue" d="M210.07,-56.8306C201.75,-58.193 192.966,-59.6313 184.101,-61.0829"/>
<polygon fill="midnightblue" stroke="midnightblue" points="210.66,-60.2807 219.963,-55.2107 209.529,-53.3727 210.66,-60.2807"/>
</g>
<!-- Node3 -->
<g id="node3" class="node"><title>Node3</title>
<g id="a_node3"><a xlink:href="$class_slicer_p_r_i_s_m_1_1_resources_1_1_custom_shader_1_1_custom_shader.html#a65180c6f2b9e3f40fb7bdc84a197ee75" xlink:title="Function to instanciate a custom shader.">
<polygon fill="none" stroke="black" points="9.5,-0.5 9.5,-41.5 174.5,-41.5 174.5,-0.5 9.5,-0.5"/>
<text text-anchor="start" x="17.5" y="-29.5" font-family="Helvetica,sans-Serif" font-size="10.00">SlicerPRISM.Resources.Custom</text>
<text text-anchor="start" x="17.5" y="-18.5" font-family="Helvetica,sans-Serif" font-size="10.00">Shader.CustomShader.Instanciate</text>
<text text-anchor="middle" x="92" y="-7.5" font-family="Helvetica,sans-Serif" font-size="10.00">CustomShader</text>
</a>
</g>
</g>
<!-- Node1&#45;&gt;Node3 -->
<g id="edge2" class="edge"><title>Node1&#45;&gt;Node3</title>
<path fill="none" stroke="midnightblue" d="M209.933,-39.4631C198.726,-37.6936 186.682,-35.7919 174.736,-33.9057"/>
<polygon fill="midnightblue" stroke="midnightblue" points="209.54,-42.9443 219.963,-41.0468 210.632,-36.0299 209.54,-42.9443"/>
</g>
</g>
</svg>
