<?xml version="1.0" encoding="UTF-8" standalone="no"?>
<!DOCTYPE svg PUBLIC "-//W3C//DTD SVG 1.1//EN"
 "http://www.w3.org/Graphics/SVG/1.1/DTD/svg11.dtd">
<!-- Generated by graphviz version 2.38.0 (20140413.2041)
 -->
<!-- Title: CustomShader Pages: 1 -->
<svg width="884pt" height="589pt"
 viewBox="0.00 0.00 883.50 589.00" xmlns="http://www.w3.org/2000/svg" xmlns:xlink="http://www.w3.org/1999/xlink">
<g id="graph0" class="graph" transform="scale(1 1) rotate(0) translate(4 585)">
<title>CustomShader</title>
<!-- Node1 -->
<g id="node1" class="node"><title>Node1</title>
<g id="a_node1"><a xlink:title=" ">
<polygon fill="#bfbfbf" stroke="black" points="355,-182.5 355,-580.5 500,-580.5 500,-182.5 355,-182.5"/>
<text text-anchor="middle" x="427.5" y="-568.5" font-family="Helvetica,sans-Serif" font-size="10.00">CustomShader</text>
<polyline fill="none" stroke="black" points="355,-561.5 500,-561.5 "/>
<text text-anchor="start" x="363" y="-549.5" font-family="Helvetica,sans-Serif" font-size="10.00">+ shaderPropertyNode</text>
<text text-anchor="start" x="363" y="-538.5" font-family="Helvetica,sans-Serif" font-size="10.00">+ shaderProperty</text>
<text text-anchor="start" x="363" y="-527.5" font-family="Helvetica,sans-Serif" font-size="10.00">+ shaderUniforms</text>
<text text-anchor="start" x="363" y="-516.5" font-family="Helvetica,sans-Serif" font-size="10.00">+ paramfValues</text>
<text text-anchor="start" x="363" y="-505.5" font-family="Helvetica,sans-Serif" font-size="10.00">+ paramiValues</text>
<text text-anchor="start" x="363" y="-494.5" font-family="Helvetica,sans-Serif" font-size="10.00">+ param4fValues</text>
<text text-anchor="start" x="363" y="-483.5" font-family="Helvetica,sans-Serif" font-size="10.00">+ parambValues</text>
<text text-anchor="start" x="363" y="-472.5" font-family="Helvetica,sans-Serif" font-size="10.00">+ paramrValues</text>
<text text-anchor="start" x="363" y="-461.5" font-family="Helvetica,sans-Serif" font-size="10.00">+ paramtfValues</text>
<text text-anchor="start" x="363" y="-450.5" font-family="Helvetica,sans-Serif" font-size="10.00">+ paramvValues</text>
<text text-anchor="start" x="363" y="-439.5" font-family="Helvetica,sans-Serif" font-size="10.00">+ allClasses</text>
<text text-anchor="start" x="363" y="-428.5" font-family="Helvetica,sans-Serif" font-size="10.00">+ shaderfParams</text>
<text text-anchor="start" x="363" y="-417.5" font-family="Helvetica,sans-Serif" font-size="10.00">+ shaderiParams</text>
<text text-anchor="start" x="363" y="-406.5" font-family="Helvetica,sans-Serif" font-size="10.00">+ shader4fParams</text>
<text text-anchor="start" x="363" y="-395.5" font-family="Helvetica,sans-Serif" font-size="10.00">+ shaderbParams</text>
<text text-anchor="start" x="363" y="-384.5" font-family="Helvetica,sans-Serif" font-size="10.00">+ shaderrParams</text>
<text text-anchor="start" x="363" y="-373.5" font-family="Helvetica,sans-Serif" font-size="10.00">+ shadertfParams</text>
<text text-anchor="start" x="363" y="-362.5" font-family="Helvetica,sans-Serif" font-size="10.00">+ shadervParams</text>
<polyline fill="none" stroke="black" points="355,-355.5 500,-355.5 "/>
<text text-anchor="start" x="363" y="-343.5" font-family="Helvetica,sans-Serif" font-size="10.00">+ __init__()</text>
<text text-anchor="start" x="363" y="-332.5" font-family="Helvetica,sans-Serif" font-size="10.00">+ InstanciateCustomShader()</text>
<text text-anchor="start" x="363" y="-321.5" font-family="Helvetica,sans-Serif" font-size="10.00">+ GetAllShaderClassNames()</text>
<text text-anchor="start" x="363" y="-310.5" font-family="Helvetica,sans-Serif" font-size="10.00">+ GetDisplayName()</text>
<text text-anchor="start" x="363" y="-299.5" font-family="Helvetica,sans-Serif" font-size="10.00">+ GetClassName()</text>
<text text-anchor="start" x="363" y="-288.5" font-family="Helvetica,sans-Serif" font-size="10.00">+ GetClass()</text>
<text text-anchor="start" x="363" y="-277.5" font-family="Helvetica,sans-Serif" font-size="10.00">+ hasShaderParameter()</text>
<text text-anchor="start" x="363" y="-266.5" font-family="Helvetica,sans-Serif" font-size="10.00">+ getParameterNames()</text>
<text text-anchor="start" x="363" y="-255.5" font-family="Helvetica,sans-Serif" font-size="10.00">+ getShaderPropertyNode()</text>
<text text-anchor="start" x="363" y="-244.5" font-family="Helvetica,sans-Serif" font-size="10.00">+ setupShader()</text>
<text text-anchor="start" x="363" y="-233.5" font-family="Helvetica,sans-Serif" font-size="10.00">+ setPathEnds()</text>
<text text-anchor="start" x="363" y="-222.5" font-family="Helvetica,sans-Serif" font-size="10.00">+ setAllUniforms()</text>
<text text-anchor="start" x="363" y="-211.5" font-family="Helvetica,sans-Serif" font-size="10.00">+ setShaderParameter()</text>
<text text-anchor="start" x="363" y="-200.5" font-family="Helvetica,sans-Serif" font-size="10.00">+ getShaderParameter()</text>
<text text-anchor="start" x="363" y="-189.5" font-family="Helvetica,sans-Serif" font-size="10.00">+ clear()</text>
</a>
</g>
</g>
<!-- Node2 -->
<g id="node2" class="node"><title>Node2</title>
<g id="a_node2"><a xlink:href="class_slicer_p_r_i_s_m_1_1_resources_1_1_shaders_1_1_chroma_depth_shader_1_1_chroma_depth_shader.html" target="_top" xlink:title=" ">
<polygon fill="none" stroke="black" points="0,-22.5 0,-123.5 107,-123.5 107,-22.5 0,-22.5"/>
<text text-anchor="middle" x="53.5" y="-111.5" font-family="Helvetica,sans-Serif" font-size="10.00">ChromaDepthShader</text>
<polyline fill="none" stroke="black" points="0,-104.5 107,-104.5 "/>
<text text-anchor="start" x="8" y="-92.5" font-family="Helvetica,sans-Serif" font-size="10.00">+ shaderrParams</text>
<text text-anchor="start" x="8" y="-81.5" font-family="Helvetica,sans-Serif" font-size="10.00">+ shadertfParams</text>
<polyline fill="none" stroke="black" points="0,-74.5 107,-74.5 "/>
<text text-anchor="start" x="8" y="-62.5" font-family="Helvetica,sans-Serif" font-size="10.00">+ __init__()</text>
<text text-anchor="start" x="8" y="-51.5" font-family="Helvetica,sans-Serif" font-size="10.00">+ GetDisplayName()</text>
<text text-anchor="start" x="8" y="-40.5" font-family="Helvetica,sans-Serif" font-size="10.00">+ getVolumeRange()</text>
<text text-anchor="start" x="8" y="-29.5" font-family="Helvetica,sans-Serif" font-size="10.00">+ setupShader()</text>
</a>
</g>
</g>
<!-- Node1&#45;&gt;Node2 -->
<g id="edge1" class="edge"><title>Node1&#45;&gt;Node2</title>
<path fill="none" stroke="midnightblue" d="M346.363,-326.748C281.09,-281.845 188.54,-214.345 115.5,-146 108.153,-139.125 100.786,-131.438 93.8277,-123.717"/>
<polygon fill="none" stroke="midnightblue" points="344.758,-329.891 354.985,-332.657 348.715,-324.117 344.758,-329.891"/>
</g>
<!-- Node3 -->
<g id="node3" class="node"><title>Node3</title>
<g id="a_node3"><a xlink:href="class_slicer_p_r_i_s_m_1_1_resources_1_1_shaders_1_1_decluttering_1_1_decluttering.html" target="_top" xlink:title=" ">
<polygon fill="none" stroke="black" points="125,-0.5 125,-145.5 230,-145.5 230,-0.5 125,-0.5"/>
<text text-anchor="middle" x="177.5" y="-133.5" font-family="Helvetica,sans-Serif" font-size="10.00">Decluttering</text>
<polyline fill="none" stroke="black" points="125,-126.5 230,-126.5 "/>
<text text-anchor="start" x="133" y="-114.5" font-family="Helvetica,sans-Serif" font-size="10.00">+ shaderfParams</text>
<text text-anchor="start" x="133" y="-103.5" font-family="Helvetica,sans-Serif" font-size="10.00">+ shaderiParams</text>
<text text-anchor="start" x="133" y="-92.5" font-family="Helvetica,sans-Serif" font-size="10.00">+ shader4fParams</text>
<text text-anchor="start" x="133" y="-81.5" font-family="Helvetica,sans-Serif" font-size="10.00">+ shaderbParams</text>
<text text-anchor="start" x="133" y="-70.5" font-family="Helvetica,sans-Serif" font-size="10.00">+ shaderrParams</text>
<text text-anchor="start" x="133" y="-59.5" font-family="Helvetica,sans-Serif" font-size="10.00">+ shadertfParams</text>
<text text-anchor="start" x="133" y="-48.5" font-family="Helvetica,sans-Serif" font-size="10.00">+ shadervParams</text>
<polyline fill="none" stroke="black" points="125,-41.5 230,-41.5 "/>
<text text-anchor="start" x="133" y="-29.5" font-family="Helvetica,sans-Serif" font-size="10.00">+ __init__()</text>
<text text-anchor="start" x="133" y="-18.5" font-family="Helvetica,sans-Serif" font-size="10.00">+ GetDisplayName()</text>
<text text-anchor="start" x="133" y="-7.5" font-family="Helvetica,sans-Serif" font-size="10.00">+ setupShader()</text>
</a>
</g>
</g>
<!-- Node1&#45;&gt;Node3 -->
<g id="edge2" class="edge"><title>Node1&#45;&gt;Node3</title>
<path fill="none" stroke="midnightblue" d="M348.467,-283.605C309.825,-236.23 264.374,-180.507 230.052,-138.428"/>
<polygon fill="none" stroke="midnightblue" points="345.821,-285.899 354.854,-291.436 351.245,-281.474 345.821,-285.899"/>
</g>
<!-- Node4 -->
<g id="node4" class="node"><title>Node4</title>
<g id="a_node4"><a xlink:href="class_slicer_p_r_i_s_m_1_1_resources_1_1_shaders_1_1_decluttering_shader_1_1_decluttering_shader.html" target="_top" xlink:title=" ">
<polygon fill="none" stroke="black" points="248,-0.5 248,-145.5 353,-145.5 353,-0.5 248,-0.5"/>
<text text-anchor="middle" x="300.5" y="-133.5" font-family="Helvetica,sans-Serif" font-size="10.00">DeclutteringShader</text>
<polyline fill="none" stroke="black" points="248,-126.5 353,-126.5 "/>
<text text-anchor="start" x="256" y="-114.5" font-family="Helvetica,sans-Serif" font-size="10.00">+ shaderfParams</text>
<text text-anchor="start" x="256" y="-103.5" font-family="Helvetica,sans-Serif" font-size="10.00">+ shaderiParams</text>
<text text-anchor="start" x="256" y="-92.5" font-family="Helvetica,sans-Serif" font-size="10.00">+ shader4fParams</text>
<text text-anchor="start" x="256" y="-81.5" font-family="Helvetica,sans-Serif" font-size="10.00">+ shaderbParams</text>
<text text-anchor="start" x="256" y="-70.5" font-family="Helvetica,sans-Serif" font-size="10.00">+ shaderrParams</text>
<text text-anchor="start" x="256" y="-59.5" font-family="Helvetica,sans-Serif" font-size="10.00">+ shadertfParams</text>
<text text-anchor="start" x="256" y="-48.5" font-family="Helvetica,sans-Serif" font-size="10.00">+ shadervParams</text>
<polyline fill="none" stroke="black" points="248,-41.5 353,-41.5 "/>
<text text-anchor="start" x="256" y="-29.5" font-family="Helvetica,sans-Serif" font-size="10.00">+ __init__()</text>
<text text-anchor="start" x="256" y="-18.5" font-family="Helvetica,sans-Serif" font-size="10.00">+ GetDisplayName()</text>
<text text-anchor="start" x="256" y="-7.5" font-family="Helvetica,sans-Serif" font-size="10.00">+ setupShader()</text>
</a>
</g>
</g>
<!-- Node1&#45;&gt;Node4 -->
<g id="edge3" class="edge"><title>Node1&#45;&gt;Node4</title>
<path fill="none" stroke="midnightblue" d="M351.07,-196.044C343.759,-178.401 336.687,-161.334 330.265,-145.833"/>
<polygon fill="none" stroke="midnightblue" points="347.851,-197.419 354.912,-205.317 354.318,-194.739 347.851,-197.419"/>
</g>
<!-- Node5 -->
<g id="node5" class="node"><title>Node5</title>
<g id="a_node5"><a xlink:href="class_slicer_p_r_i_s_m_1_1_resources_1_1_shaders_1_1_opacity_peeling_shader_1_1_opacity_peeling_shader.html" target="_top" xlink:title=" ">
<polygon fill="none" stroke="black" points="371,-17 371,-129 484,-129 484,-17 371,-17"/>
<text text-anchor="middle" x="427.5" y="-117" font-family="Helvetica,sans-Serif" font-size="10.00">OpacityPeelingShader</text>
<polyline fill="none" stroke="black" points="371,-110 484,-110 "/>
<text text-anchor="start" x="379" y="-98" font-family="Helvetica,sans-Serif" font-size="10.00">+ shaderfParams</text>
<text text-anchor="start" x="379" y="-87" font-family="Helvetica,sans-Serif" font-size="10.00">+ shaderiParams</text>
<text text-anchor="start" x="379" y="-76" font-family="Helvetica,sans-Serif" font-size="10.00">+ shaderbParams</text>
<text text-anchor="start" x="379" y="-65" font-family="Helvetica,sans-Serif" font-size="10.00">+ shader4fParams</text>
<polyline fill="none" stroke="black" points="371,-58 484,-58 "/>
<text text-anchor="start" x="379" y="-46" font-family="Helvetica,sans-Serif" font-size="10.00">+ __init__()</text>
<text text-anchor="start" x="379" y="-35" font-family="Helvetica,sans-Serif" font-size="10.00">+ GetDisplayName()</text>
<text text-anchor="start" x="379" y="-24" font-family="Helvetica,sans-Serif" font-size="10.00">+ setupShader()</text>
</a>
</g>
</g>
<!-- Node1&#45;&gt;Node5 -->
<g id="edge4" class="edge"><title>Node1&#45;&gt;Node5</title>
<path fill="none" stroke="midnightblue" d="M427.5,-172.206C427.5,-156.731 427.5,-142.119 427.5,-129.13"/>
<polygon fill="none" stroke="midnightblue" points="424,-172.492 427.5,-182.492 431,-172.492 424,-172.492"/>
</g>
<!-- Node6 -->
<g id="node6" class="node"><title>Node6</title>
<g id="a_node6"><a xlink:href="class_slicer_p_r_i_s_m_1_1_resources_1_1_shaders_1_1_outline_shader_1_1_outline_shader.html" target="_top" xlink:title=" ">
<polygon fill="none" stroke="black" points="502,-33.5 502,-112.5 607,-112.5 607,-33.5 502,-33.5"/>
<text text-anchor="middle" x="554.5" y="-100.5" font-family="Helvetica,sans-Serif" font-size="10.00">OutlineShader</text>
<polyline fill="none" stroke="black" points="502,-93.5 607,-93.5 "/>
<text text-anchor="start" x="510" y="-81.5" font-family="Helvetica,sans-Serif" font-size="10.00">+ shaderfParams</text>
<polyline fill="none" stroke="black" points="502,-74.5 607,-74.5 "/>
<text text-anchor="start" x="510" y="-62.5" font-family="Helvetica,sans-Serif" font-size="10.00">+ __init__()</text>
<text text-anchor="start" x="510" y="-51.5" font-family="Helvetica,sans-Serif" font-size="10.00">+ GetDisplayName()</text>
<text text-anchor="start" x="510" y="-40.5" font-family="Helvetica,sans-Serif" font-size="10.00">+ setupShader()</text>
</a>
</g>
</g>
<!-- Node1&#45;&gt;Node6 -->
<g id="edge5" class="edge"><title>Node1&#45;&gt;Node6</title>
<path fill="none" stroke="midnightblue" d="M503.979,-195.927C517.049,-164.383 529.354,-134.688 538.547,-112.501"/>
<polygon fill="none" stroke="midnightblue" points="500.682,-194.739 500.088,-205.317 507.149,-197.419 500.682,-194.739"/>
</g>
<!-- Node7 -->
<g id="node7" class="node"><title>Node7</title>
<g id="a_node7"><a xlink:href="class_slicer_p_r_i_s_m_1_1_resources_1_1_shaders_1_1_plane_intersecting_shader_1_1_plane_intersecting_shader.html" target="_top" xlink:title=" ">
<polygon fill="none" stroke="black" points="625.5,-22.5 625.5,-123.5 747.5,-123.5 747.5,-22.5 625.5,-22.5"/>
<text text-anchor="middle" x="686.5" y="-111.5" font-family="Helvetica,sans-Serif" font-size="10.00">PlaneIntersectingShader</text>
<polyline fill="none" stroke="black" points="625.5,-104.5 747.5,-104.5 "/>
<text text-anchor="start" x="633.5" y="-92.5" font-family="Helvetica,sans-Serif" font-size="10.00">+ shaderfParams</text>
<text text-anchor="start" x="633.5" y="-81.5" font-family="Helvetica,sans-Serif" font-size="10.00">+ shader4fParams</text>
<text text-anchor="start" x="633.5" y="-70.5" font-family="Helvetica,sans-Serif" font-size="10.00">+ shaderbParams</text>
<polyline fill="none" stroke="black" points="625.5,-63.5 747.5,-63.5 "/>
<text text-anchor="start" x="633.5" y="-51.5" font-family="Helvetica,sans-Serif" font-size="10.00">+ __init__()</text>
<text text-anchor="start" x="633.5" y="-40.5" font-family="Helvetica,sans-Serif" font-size="10.00">+ GetDisplayName()</text>
<text text-anchor="start" x="633.5" y="-29.5" font-family="Helvetica,sans-Serif" font-size="10.00">+ setupShader()</text>
</a>
</g>
</g>
<!-- Node1&#45;&gt;Node7 -->
<g id="edge6" class="edge"><title>Node1&#45;&gt;Node7</title>
<path fill="none" stroke="midnightblue" d="M506.956,-286.472C552.326,-232.781 607.382,-167.629 644.468,-123.741"/>
<polygon fill="none" stroke="midnightblue" points="504.116,-284.41 500.335,-294.307 509.463,-288.928 504.116,-284.41"/>
</g>
<!-- Node8 -->
<g id="node8" class="node"><title>Node8</title>
<g id="a_node8"><a xlink:href="class_slicer_p_r_i_s_m_1_1_resources_1_1_shaders_1_1_sphere_carving_shader_1_1_sphere_carving_shader.html" target="_top" xlink:title=" ">
<polygon fill="none" stroke="black" points="765.5,-22.5 765.5,-123.5 875.5,-123.5 875.5,-22.5 765.5,-22.5"/>
<text text-anchor="middle" x="820.5" y="-111.5" font-family="Helvetica,sans-Serif" font-size="10.00">SphereCarvingShader</text>
<polyline fill="none" stroke="black" points="765.5,-104.5 875.5,-104.5 "/>
<text text-anchor="start" x="773.5" y="-92.5" font-family="Helvetica,sans-Serif" font-size="10.00">+ shaderfParams</text>
<text text-anchor="start" x="773.5" y="-81.5" font-family="Helvetica,sans-Serif" font-size="10.00">+ shader4fParams</text>
<polyline fill="none" stroke="black" points="765.5,-74.5 875.5,-74.5 "/>
<text text-anchor="start" x="773.5" y="-62.5" font-family="Helvetica,sans-Serif" font-size="10.00">+ __init__()</text>
<text text-anchor="start" x="773.5" y="-51.5" font-family="Helvetica,sans-Serif" font-size="10.00">+ GetDisplayName()</text>
<text text-anchor="start" x="773.5" y="-40.5" font-family="Helvetica,sans-Serif" font-size="10.00">+ setupShader()</text>
<text text-anchor="start" x="773.5" y="-29.5" font-family="Helvetica,sans-Serif" font-size="10.00">+ setPathEnds()</text>
</a>
</g>
</g>
<!-- Node1&#45;&gt;Node8 -->
<g id="edge7" class="edge"><title>Node1&#45;&gt;Node8</title>
<path fill="none" stroke="midnightblue" d="M508.971,-329.837C577.975,-285.235 677.925,-216.559 756.5,-146 764.091,-139.184 771.698,-131.528 778.882,-123.819"/>
<polygon fill="none" stroke="midnightblue" points="506.804,-327.069 500.291,-335.426 510.594,-332.954 506.804,-327.069"/>
</g>
</g>
</svg>
