<?xml version="1.0" encoding="UTF-8" standalone="no"?>
<!DOCTYPE svg PUBLIC "-//W3C//DTD SVG 1.1//EN"
 "http://www.w3.org/Graphics/SVG/1.1/DTD/svg11.dtd">
<!-- Generated by graphviz version 2.38.0 (20140413.2041)
 -->
<!-- Title: onLeftClick Pages: 1 -->
<svg width="352pt" height="66pt"
 viewBox="0.00 0.00 352.00 66.00" xmlns="http://www.w3.org/2000/svg" xmlns:xlink="http://www.w3.org/1999/xlink">
<g id="graph0" class="graph" transform="scale(1 1) rotate(0) translate(4 62)">
<title>onLeftClick</title>
<!-- Node1 -->
<g id="node1" class="node"><title>Node1</title>
<g id="a_node1"><a xlink:title=" ">
<polygon fill="#bfbfbf" stroke="black" points="0,-0.5 0,-19.5 65,-19.5 65,-0.5 0,-0.5"/>
<text text-anchor="middle" x="32.5" y="-7.5" font-family="Helvetica,sans-Serif" font-size="10.00">onLeftClick</text>
</a>
</g>
</g>
<!-- Node1&#45;&gt;Node1 -->
<g id="edge1" class="edge"><title>Node1&#45;&gt;Node1</title>
<path fill="none" stroke="midnightblue" d="M14.621,-19.7571C5.92316,-28.5653 11.8828,-38 32.5,-38 45.3857,-38 52.5459,-34.3146 53.9804,-29.4"/>
<polygon fill="midnightblue" stroke="midnightblue" points="57.1566,-27.9004 50.379,-19.7571 50.599,-30.3496 57.1566,-27.9004"/>
</g>
<!-- Node2 -->
<g id="node2" class="node"><title>Node2</title>
<g id="a_node2"><a xlink:href="$class_p_r_i_s_m_1_1_p_r_i_s_m_widget.html#a1ff89311e70b7ee6a3743d5293786140" xlink:title=" ">
<polygon fill="none" stroke="black" points="107.5,-38.5 107.5,-57.5 191.5,-57.5 191.5,-38.5 107.5,-38.5"/>
<text text-anchor="middle" x="149.5" y="-45.5" font-family="Helvetica,sans-Serif" font-size="10.00">onMouseMoved</text>
</a>
</g>
</g>
<!-- Node1&#45;&gt;Node2 -->
<g id="edge2" class="edge"><title>Node1&#45;&gt;Node2</title>
<path fill="none" stroke="midnightblue" d="M62.5194,-19.589C76.82,-24.3144 94.265,-30.0789 109.695,-35.1774"/>
<polygon fill="midnightblue" stroke="midnightblue" points="108.897,-38.5998 119.49,-38.4141 111.093,-31.9532 108.897,-38.5998"/>
</g>
<!-- Node4 -->
<g id="node4" class="node"><title>Node4</title>
<g id="a_node4"><a xlink:href="$class_p_r_i_s_m_1_1_p_r_i_s_m_widget.html#a6c7af80ff3037f565daf28c111fe1649" xlink:title=" ">
<polygon fill="none" stroke="black" points="101,-0.5 101,-19.5 198,-19.5 198,-0.5 101,-0.5"/>
<text text-anchor="middle" x="149.5" y="-7.5" font-family="Helvetica,sans-Serif" font-size="10.00">onMouseReleased</text>
</a>
</g>
</g>
<!-- Node1&#45;&gt;Node4 -->
<g id="edge4" class="edge"><title>Node1&#45;&gt;Node4</title>
<path fill="none" stroke="midnightblue" d="M65.2287,-3.8928C73.1609,-3.46934 81.9182,-3.2551 90.6853,-3.25009"/>
<polygon fill="midnightblue" stroke="midnightblue" points="90.9022,-6.75204 100.933,-3.34032 90.9639,0.247689 90.9022,-6.75204"/>
</g>
<!-- Node3 -->
<g id="node3" class="node"><title>Node3</title>
<g id="a_node3"><a xlink:href="$class_p_r_i_s_m_1_1_p_r_i_s_m_widget.html#a92a408ae5db8734e6bacb469864ee574" xlink:title=" ">
<polygon fill="none" stroke="black" points="234,-38.5 234,-57.5 344,-57.5 344,-38.5 234,-38.5"/>
<text text-anchor="middle" x="289" y="-45.5" font-family="Helvetica,sans-Serif" font-size="10.00">onEndPointsChanged</text>
</a>
</g>
</g>
<!-- Node2&#45;&gt;Node3 -->
<g id="edge3" class="edge"><title>Node2&#45;&gt;Node3</title>
<path fill="none" stroke="midnightblue" d="M191.755,-48C201.766,-48 212.708,-48 223.509,-48"/>
<polygon fill="midnightblue" stroke="midnightblue" points="223.787,-51.5001 233.787,-48 223.787,-44.5001 223.787,-51.5001"/>
</g>
<!-- Node4&#45;&gt;Node1 -->
<g id="edge5" class="edge"><title>Node4&#45;&gt;Node1</title>
<path fill="none" stroke="midnightblue" d="M100.933,-16.6597C92.4708,-16.815 83.7131,-16.77 75.4226,-16.5248"/>
<polygon fill="midnightblue" stroke="midnightblue" points="75.3636,-13.0196 65.2287,-16.1072 75.077,-20.0137 75.3636,-13.0196"/>
</g>
</g>
</svg>
