<?xml version="1.0" encoding="UTF-8" standalone="no"?>
<!DOCTYPE svg PUBLIC "-//W3C//DTD SVG 1.1//EN"
 "http://www.w3.org/Graphics/SVG/1.1/DTD/svg11.dtd">
<!-- Generated by graphviz version 2.38.0 (20140413.2041)
 -->
<!-- Title: initState Pages: 1 -->
<svg width="625pt" height="398pt"
 viewBox="0.00 0.00 625.00 398.00" xmlns="http://www.w3.org/2000/svg" xmlns:xlink="http://www.w3.org/1999/xlink">
<g id="graph0" class="graph" transform="scale(1 1) rotate(0) translate(4 394)">
<title>initState</title>
<!-- Node1 -->
<g id="node1" class="node"><title>Node1</title>
<g id="a_node1"><a xlink:title=" ">
<polygon fill="#bfbfbf" stroke="black" points="0,-133.5 0,-152.5 53,-152.5 53,-133.5 0,-133.5"/>
<text text-anchor="middle" x="26.5" y="-140.5" font-family="Helvetica,sans-Serif" font-size="10.00">initState</text>
</a>
</g>
</g>
<!-- Node1&#45;&gt;Node1 -->
<g id="edge11" class="edge"><title>Node1&#45;&gt;Node1</title>
<path fill="none" stroke="midnightblue" d="M5.53845,-152.757C-4.65906,-161.565 2.32813,-171 26.5,-171 41.9851,-171 50.4176,-167.128 51.7975,-162.029"/>
<polygon fill="midnightblue" stroke="midnightblue" points="54.8681,-160.333 47.4615,-152.757 48.5272,-163.298 54.8681,-160.333"/>
</g>
<!-- Node2 -->
<g id="node2" class="node"><title>Node2</title>
<g id="a_node2"><a xlink:href="$class_p_r_i_s_m_1_1_p_r_i_s_m_widget.html#a4122013a40eb6518717520443b9ab010" xlink:title=" ">
<polygon fill="none" stroke="black" points="126,-285.5 126,-304.5 202,-304.5 202,-285.5 126,-285.5"/>
<text text-anchor="middle" x="164" y="-292.5" font-family="Helvetica,sans-Serif" font-size="10.00">addObservers</text>
</a>
</g>
</g>
<!-- Node1&#45;&gt;Node2 -->
<g id="edge1" class="edge"><title>Node1&#45;&gt;Node2</title>
<path fill="none" stroke="midnightblue" d="M30.8854,-152.536C38.5138,-172.924 58.7731,-221.387 89,-252 100.79,-263.941 116.58,-273.715 130.546,-280.91"/>
<polygon fill="midnightblue" stroke="midnightblue" points="129.332,-284.213 139.851,-285.474 132.414,-277.928 129.332,-284.213"/>
</g>
<!-- Node10 -->
<g id="node10" class="node"><title>Node10</title>
<g id="a_node10"><a xlink:href="$class_p_r_i_s_m_1_1_p_r_i_s_m_widget.html#ac4d8229495b59b9bf1f851f3a7637d42" xlink:title=" ">
<polygon fill="none" stroke="black" points="91,-190.5 91,-209.5 237,-209.5 237,-190.5 91,-190.5"/>
<text text-anchor="middle" x="164" y="-197.5" font-family="Helvetica,sans-Serif" font-size="10.00">onACPCLineSelectorChanged</text>
</a>
</g>
</g>
<!-- Node1&#45;&gt;Node10 -->
<g id="edge12" class="edge"><title>Node1&#45;&gt;Node10</title>
<path fill="none" stroke="midnightblue" d="M43.5529,-152.64C55.7393,-159.703 73.0611,-169.204 89,-176 98.7915,-180.175 109.568,-184.054 119.794,-187.424"/>
<polygon fill="midnightblue" stroke="midnightblue" points="118.79,-190.777 129.381,-190.491 120.923,-184.11 118.79,-190.777"/>
</g>
<!-- Node11 -->
<g id="node11" class="node"><title>Node11</title>
<g id="a_node11"><a xlink:href="$class_p_r_i_s_m_1_1_p_r_i_s_m_widget.html#a9d0c4bfbc3266c4bc40b436e7185f25c" xlink:title=" ">
<polygon fill="none" stroke="black" points="100,-114.5 100,-133.5 228,-133.5 228,-114.5 100,-114.5"/>
<text text-anchor="middle" x="164" y="-121.5" font-family="Helvetica,sans-Serif" font-size="10.00">onImageSelectorChanged</text>
</a>
</g>
</g>
<!-- Node1&#45;&gt;Node11 -->
<g id="edge13" class="edge"><title>Node1&#45;&gt;Node11</title>
<path fill="none" stroke="midnightblue" d="M53.3055,-139.382C63.891,-137.897 76.7289,-136.097 89.8387,-134.259"/>
<polygon fill="midnightblue" stroke="midnightblue" points="90.467,-137.705 99.8841,-132.85 89.4949,-130.773 90.467,-137.705"/>
</g>
<!-- Node12 -->
<g id="node12" class="node"><title>Node12</title>
<g id="a_node12"><a xlink:href="$class_p_r_i_s_m_1_1_p_r_i_s_m_widget.html#aa315cc715c538dea175216d53f73915e" xlink:title=" ">
<polygon fill="none" stroke="black" points="277.5,-133.5 277.5,-152.5 414.5,-152.5 414.5,-133.5 277.5,-133.5"/>
<text text-anchor="middle" x="346" y="-140.5" font-family="Helvetica,sans-Serif" font-size="10.00">UpdateShaderParametersUI</text>
</a>
</g>
</g>
<!-- Node1&#45;&gt;Node12 -->
<g id="edge20" class="edge"><title>Node1&#45;&gt;Node12</title>
<path fill="none" stroke="midnightblue" d="M53.2134,-143C99.2954,-143 197.643,-143 267.399,-143"/>
<polygon fill="midnightblue" stroke="midnightblue" points="267.473,-146.5 277.473,-143 267.473,-139.5 267.473,-146.5"/>
</g>
<!-- Node14 -->
<g id="node14" class="node"><title>Node14</title>
<g id="a_node14"><a xlink:href="$class_p_r_i_s_m_1_1_p_r_i_s_m_widget.html#a99157d870f447ea268c6f5b55a128d7d" xlink:title=" ">
<polygon fill="none" stroke="black" points="89,-76.5 89,-95.5 239,-95.5 239,-76.5 89,-76.5"/>
<text text-anchor="middle" x="164" y="-83.5" font-family="Helvetica,sans-Serif" font-size="10.00">onMidSagittalSelectorChanged</text>
</a>
</g>
</g>
<!-- Node1&#45;&gt;Node14 -->
<g id="edge16" class="edge"><title>Node1&#45;&gt;Node14</title>
<path fill="none" stroke="midnightblue" d="M40.5397,-133.314C52.5726,-124.783 71.2156,-112.569 89,-105 94.7666,-102.546 100.925,-100.35 107.135,-98.4012"/>
<polygon fill="midnightblue" stroke="midnightblue" points="108.276,-101.714 116.886,-95.5403 106.306,-94.9971 108.276,-101.714"/>
</g>
<!-- Node15 -->
<g id="node15" class="node"><title>Node15</title>
<g id="a_node15"><a xlink:href="$class_p_r_i_s_m_1_1_p_r_i_s_m_widget.html#a33e0a923839dfe51e13784b3a3807903" xlink:title=" ">
<polygon fill="none" stroke="black" points="134.5,-38.5 134.5,-57.5 193.5,-57.5 193.5,-38.5 134.5,-38.5"/>
<text text-anchor="middle" x="164" y="-45.5" font-family="Helvetica,sans-Serif" font-size="10.00">resetView</text>
</a>
</g>
</g>
<!-- Node1&#45;&gt;Node15 -->
<g id="edge17" class="edge"><title>Node1&#45;&gt;Node15</title>
<path fill="none" stroke="midnightblue" d="M32.5293,-133.412C41.5689,-117.148 62.1505,-84.2436 89,-67 99.5502,-60.2243 112.399,-55.8619 124.41,-53.0544"/>
<polygon fill="midnightblue" stroke="midnightblue" points="125.139,-56.4778 134.234,-51.043 123.735,-49.6201 125.139,-56.4778"/>
</g>
<!-- Node17 -->
<g id="node17" class="node"><title>Node17</title>
<g id="a_node17"><a xlink:href="$class_p_r_i_s_m_1_1_p_r_i_s_m_widget.html#afa92c17d5fd6d29831a9f2f310f47741" xlink:title=" ">
<polygon fill="none" stroke="black" points="114,-0.5 114,-19.5 214,-19.5 214,-0.5 114,-0.5"/>
<text text-anchor="middle" x="164" y="-7.5" font-family="Helvetica,sans-Serif" font-size="10.00">updateEndPointsUI</text>
</a>
</g>
</g>
<!-- Node1&#45;&gt;Node17 -->
<g id="edge19" class="edge"><title>Node1&#45;&gt;Node17</title>
<path fill="none" stroke="midnightblue" d="M29.8659,-133.331C35.7878,-111.242 53.3944,-56.8453 89,-29 93.6185,-25.3881 98.8482,-22.4571 104.341,-20.0795"/>
<polygon fill="midnightblue" stroke="midnightblue" points="105.614,-23.3403 113.77,-16.5781 103.177,-16.7781 105.614,-23.3403"/>
</g>
<!-- Node3 -->
<g id="node3" class="node"><title>Node3</title>
<g id="a_node3"><a xlink:href="$class_p_r_i_s_m_1_1_p_r_i_s_m_widget.html#a71ea96f4fb70b5a651b99da5892b2d95" xlink:title=" ">
<polygon fill="none" stroke="black" points="286,-370.5 286,-389.5 406,-389.5 406,-370.5 286,-370.5"/>
<text text-anchor="middle" x="346" y="-377.5" font-family="Helvetica,sans-Serif" font-size="10.00">onACPCPointsChanged</text>
</a>
</g>
</g>
<!-- Node2&#45;&gt;Node3 -->
<g id="edge2" class="edge"><title>Node2&#45;&gt;Node3</title>
<path fill="none" stroke="midnightblue" d="M178.243,-304.607C198.282,-318.75 237.915,-345.201 275,-361 280.702,-363.429 286.799,-365.627 292.928,-367.592"/>
<polygon fill="midnightblue" stroke="midnightblue" points="291.95,-370.952 302.534,-370.488 293.971,-364.25 291.95,-370.952"/>
</g>
<!-- Node5 -->
<g id="node5" class="node"><title>Node5</title>
<g id="a_node5"><a xlink:href="$class_p_r_i_s_m_1_1_p_r_i_s_m_widget.html#a132b0f123f6fdc57ed5a62c70b7326a7" xlink:title=" ">
<polygon fill="none" stroke="black" points="306,-218.5 306,-237.5 386,-237.5 386,-218.5 306,-218.5"/>
<text text-anchor="middle" x="346" y="-225.5" font-family="Helvetica,sans-Serif" font-size="10.00">onCloseScene</text>
</a>
</g>
</g>
<!-- Node2&#45;&gt;Node5 -->
<g id="edge4" class="edge"><title>Node2&#45;&gt;Node5</title>
<path fill="none" stroke="midnightblue" d="M184.523,-285.441C206.247,-275.051 242.568,-258.408 275,-247 281.778,-244.616 289.013,-242.35 296.163,-240.269"/>
<polygon fill="midnightblue" stroke="midnightblue" points="297.135,-243.632 305.811,-237.552 295.237,-236.894 297.135,-243.632"/>
</g>
<!-- Node7 -->
<g id="node7" class="node"><title>Node7</title>
<g id="a_node7"><a xlink:href="$class_p_r_i_s_m_1_1_p_r_i_s_m_widget.html#a6671941a4f52b9c1996b41e9557c864d" xlink:title=" ">
<polygon fill="none" stroke="black" points="298.5,-294.5 298.5,-313.5 393.5,-313.5 393.5,-294.5 298.5,-294.5"/>
<text text-anchor="middle" x="346" y="-301.5" font-family="Helvetica,sans-Serif" font-size="10.00">onEndPointAdded</text>
</a>
</g>
</g>
<!-- Node2&#45;&gt;Node7 -->
<g id="edge7" class="edge"><title>Node2&#45;&gt;Node7</title>
<path fill="none" stroke="midnightblue" d="M202.296,-296.865C227.15,-298.108 260.283,-299.764 288.367,-301.168"/>
<polygon fill="midnightblue" stroke="midnightblue" points="288.299,-304.669 298.461,-301.673 288.648,-297.678 288.299,-304.669"/>
</g>
<!-- Node8 -->
<g id="node8" class="node"><title>Node8</title>
<g id="a_node8"><a xlink:href="$class_p_r_i_s_m_1_1_p_r_i_s_m_widget.html#a92a408ae5db8734e6bacb469864ee574" xlink:title=" ">
<polygon fill="none" stroke="black" points="291,-256.5 291,-275.5 401,-275.5 401,-256.5 291,-256.5"/>
<text text-anchor="middle" x="346" y="-263.5" font-family="Helvetica,sans-Serif" font-size="10.00">onEndPointsChanged</text>
</a>
</g>
</g>
<!-- Node2&#45;&gt;Node8 -->
<g id="edge8" class="edge"><title>Node2&#45;&gt;Node8</title>
<path fill="none" stroke="midnightblue" d="M202.296,-288.991C224.941,-285.343 254.459,-280.587 280.768,-276.348"/>
<polygon fill="midnightblue" stroke="midnightblue" points="281.358,-279.799 290.674,-274.753 280.244,-272.888 281.358,-279.799"/>
</g>
<!-- Node9 -->
<g id="node9" class="node"><title>Node9</title>
<g id="a_node9"><a xlink:href="$class_p_r_i_s_m_1_1_p_r_i_s_m_widget.html#a3cdb67eeb9092692c5b3e1d42f5a37cb" xlink:title=" ">
<polygon fill="none" stroke="black" points="275,-332.5 275,-351.5 417,-351.5 417,-332.5 275,-332.5"/>
<text text-anchor="middle" x="346" y="-339.5" font-family="Helvetica,sans-Serif" font-size="10.00">onMidSagittalPointsChanged</text>
</a>
</g>
</g>
<!-- Node2&#45;&gt;Node9 -->
<g id="edge9" class="edge"><title>Node2&#45;&gt;Node9</title>
<path fill="none" stroke="midnightblue" d="M201.426,-304.511C229.391,-311.813 268.206,-321.948 298.428,-329.84"/>
<polygon fill="midnightblue" stroke="midnightblue" points="297.76,-333.282 308.32,-332.422 299.529,-326.51 297.76,-333.282"/>
</g>
<!-- Node4 -->
<g id="node4" class="node"><title>Node4</title>
<g id="a_node4"><a xlink:href="$class_p_r_i_s_m_1_1_p_r_i_s_m_widget.html#a15db542a420a1415fc3675c689213a4d" xlink:title=" ">
<polygon fill="none" stroke="black" points="453,-351.5 453,-370.5 617,-370.5 617,-351.5 453,-351.5"/>
<text text-anchor="middle" x="535" y="-358.5" font-family="Helvetica,sans-Serif" font-size="10.00">updateACPCTranformApplyButton</text>
</a>
</g>
</g>
<!-- Node3&#45;&gt;Node4 -->
<g id="edge3" class="edge"><title>Node3&#45;&gt;Node4</title>
<path fill="none" stroke="midnightblue" d="M406.168,-373.988C417.904,-372.796 430.478,-371.518 442.992,-370.247"/>
<polygon fill="midnightblue" stroke="midnightblue" points="443.404,-373.723 452.999,-369.23 442.696,-366.759 443.404,-373.723"/>
</g>
<!-- Node5&#45;&gt;Node1 -->
<g id="edge5" class="edge"><title>Node5&#45;&gt;Node1</title>
<path fill="none" stroke="midnightblue" d="M305.696,-236.226C253.235,-245.144 158.838,-253.845 89,-219 64.5393,-206.795 46.5149,-179.867 36.5096,-161.571"/>
<polygon fill="midnightblue" stroke="midnightblue" points="39.6101,-159.947 31.9014,-152.679 33.395,-163.168 39.6101,-159.947"/>
</g>
<!-- Node6 -->
<g id="node6" class="node"><title>Node6</title>
<g id="a_node6"><a xlink:href="$class_p_r_i_s_m_1_1_p_r_i_s_m_widget.html#a29b182c927e1baf9f15c5fb937a53012" xlink:title=" ">
<polygon fill="none" stroke="black" points="454.5,-218.5 454.5,-237.5 615.5,-237.5 615.5,-218.5 454.5,-218.5"/>
<text text-anchor="middle" x="535" y="-225.5" font-family="Helvetica,sans-Serif" font-size="10.00">removeLeftClickOnSlicerObserver</text>
</a>
</g>
</g>
<!-- Node5&#45;&gt;Node6 -->
<g id="edge6" class="edge"><title>Node5&#45;&gt;Node6</title>
<path fill="none" stroke="midnightblue" d="M386.201,-228C403.228,-228 423.932,-228 444.387,-228"/>
<polygon fill="midnightblue" stroke="midnightblue" points="444.391,-231.5 454.391,-228 444.391,-224.5 444.391,-231.5"/>
</g>
<!-- Node9&#45;&gt;Node4 -->
<g id="edge10" class="edge"><title>Node9&#45;&gt;Node4</title>
<path fill="none" stroke="midnightblue" d="M417.164,-349.129C425.507,-349.977 434.114,-350.851 442.697,-351.723"/>
<polygon fill="midnightblue" stroke="midnightblue" points="442.441,-355.215 452.744,-352.744 443.149,-348.251 442.441,-355.215"/>
</g>
<!-- Node11&#45;&gt;Node12 -->
<g id="edge14" class="edge"><title>Node11&#45;&gt;Node12</title>
<path fill="none" stroke="midnightblue" d="M228.208,-130.672C240.757,-131.997 254.071,-133.402 267.045,-134.771"/>
<polygon fill="midnightblue" stroke="midnightblue" points="267.044,-138.291 277.356,-135.86 267.779,-131.329 267.044,-138.291"/>
</g>
<!-- Node13 -->
<g id="node13" class="node"><title>Node13</title>
<g id="a_node13"><a xlink:href="$class_p_r_i_s_m_1_1_p_r_i_s_m_widget.html#a5d6fb9b478e94c2f199af600607385ff" xlink:title=" ">
<polygon fill="none" stroke="black" points="456,-133.5 456,-152.5 614,-152.5 614,-133.5 456,-133.5"/>
<text text-anchor="middle" x="535" y="-140.5" font-family="Helvetica,sans-Serif" font-size="10.00">onCustomShaderParamChanged</text>
</a>
</g>
</g>
<!-- Node12&#45;&gt;Node13 -->
<g id="edge15" class="edge"><title>Node12&#45;&gt;Node13</title>
<path fill="none" stroke="midnightblue" d="M414.511,-143C424.659,-143 435.251,-143 445.753,-143"/>
<polygon fill="midnightblue" stroke="midnightblue" points="445.779,-146.5 455.779,-143 445.779,-139.5 445.779,-146.5"/>
</g>
<!-- Node16 -->
<g id="node16" class="node"><title>Node16</title>
<g id="a_node16"><a xlink:href="$class_p_r_i_s_m_1_1_p_r_i_s_m_widget.html#abe8481031aa0f7fdc23bc41fd6e655e7" xlink:title=" ">
<polygon fill="none" stroke="black" points="306.5,-38.5 306.5,-57.5 385.5,-57.5 385.5,-38.5 306.5,-38.5"/>
<text text-anchor="middle" x="346" y="-45.5" font-family="Helvetica,sans-Serif" font-size="10.00">onUpdateView</text>
</a>
</g>
</g>
<!-- Node15&#45;&gt;Node16 -->
<g id="edge18" class="edge"><title>Node15&#45;&gt;Node16</title>
<path fill="none" stroke="midnightblue" d="M193.522,-48C220.983,-48 263.072,-48 295.921,-48"/>
<polygon fill="midnightblue" stroke="midnightblue" points="296.231,-51.5001 306.231,-48 296.231,-44.5001 296.231,-51.5001"/>
</g>
</g>
</svg>
