<?xml version="1.0" encoding="UTF-8" standalone="no"?>
<!DOCTYPE svg PUBLIC "-//W3C//DTD SVG 1.1//EN"
 "http://www.w3.org/Graphics/SVG/1.1/DTD/svg11.dtd">
<!-- Generated by graphviz version 2.38.0 (20140413.2041)
 -->
<!-- Title: onCloseScene Pages: 1 -->
<svg width="471pt" height="104pt"
 viewBox="0.00 0.00 471.00 104.00" xmlns="http://www.w3.org/2000/svg" xmlns:xlink="http://www.w3.org/1999/xlink">
<g id="graph0" class="graph" transform="scale(1 1) rotate(0) translate(4 100)">
<title>onCloseScene</title>
<!-- Node1 -->
<g id="node1" class="node"><title>Node1</title>
<g id="a_node1"><a xlink:title=" ">
<polygon fill="#bfbfbf" stroke="black" points="0,-19.5 0,-38.5 80,-38.5 80,-19.5 0,-19.5"/>
<text text-anchor="middle" x="40" y="-26.5" font-family="Helvetica,sans-Serif" font-size="10.00">onCloseScene</text>
</a>
</g>
</g>
<!-- Node2 -->
<g id="node2" class="node"><title>Node2</title>
<g id="a_node2"><a xlink:href="$class_p_r_i_s_m_1_1_p_r_i_s_m_widget.html#a5354f5739815c9b04b2e8df68991a1b7" xlink:title=" ">
<polygon fill="none" stroke="black" points="170,-38.5 170,-57.5 223,-57.5 223,-38.5 170,-38.5"/>
<text text-anchor="middle" x="196.5" y="-45.5" font-family="Helvetica,sans-Serif" font-size="10.00">initState</text>
</a>
</g>
</g>
<!-- Node1&#45;&gt;Node2 -->
<g id="edge1" class="edge"><title>Node1&#45;&gt;Node2</title>
<path fill="none" stroke="midnightblue" d="M80.3866,-33.8437C104.841,-36.8509 136.02,-40.6853 159.759,-43.6047"/>
<polygon fill="midnightblue" stroke="midnightblue" points="159.411,-47.0882 169.764,-44.835 160.266,-40.1405 159.411,-47.0882"/>
</g>
<!-- Node6 -->
<g id="node6" class="node"><title>Node6</title>
<g id="a_node6"><a xlink:href="$class_p_r_i_s_m_1_1_p_r_i_s_m_widget.html#a29b182c927e1baf9f15c5fb937a53012" xlink:title=" ">
<polygon fill="none" stroke="black" points="116,-0.5 116,-19.5 277,-19.5 277,-0.5 116,-0.5"/>
<text text-anchor="middle" x="196.5" y="-7.5" font-family="Helvetica,sans-Serif" font-size="10.00">removeLeftClickOnSlicerObserver</text>
</a>
</g>
</g>
<!-- Node1&#45;&gt;Node6 -->
<g id="edge5" class="edge"><title>Node1&#45;&gt;Node6</title>
<path fill="none" stroke="midnightblue" d="M80.3866,-24.1563C88.9463,-23.1037 98.33,-21.9497 107.93,-20.7691"/>
<polygon fill="midnightblue" stroke="midnightblue" points="108.489,-24.2268 117.987,-19.5323 107.635,-17.2791 108.489,-24.2268"/>
</g>
<!-- Node3 -->
<g id="node3" class="node"><title>Node3</title>
<g id="a_node3"><a xlink:href="$class_p_r_i_s_m_1_1_p_r_i_s_m_widget.html#ac4d8229495b59b9bf1f851f3a7637d42" xlink:title=" ">
<polygon fill="none" stroke="black" points="315,-76.5 315,-95.5 461,-95.5 461,-76.5 315,-76.5"/>
<text text-anchor="middle" x="388" y="-83.5" font-family="Helvetica,sans-Serif" font-size="10.00">onACPCLineSelectorChanged</text>
</a>
</g>
</g>
<!-- Node2&#45;&gt;Node3 -->
<g id="edge2" class="edge"><title>Node2&#45;&gt;Node3</title>
<path fill="none" stroke="midnightblue" d="M223.057,-53.1248C250.09,-58.5458 293.646,-67.28 329.071,-74.3835"/>
<polygon fill="midnightblue" stroke="midnightblue" points="328.807,-77.9002 339.3,-76.4348 330.183,-71.0369 328.807,-77.9002"/>
</g>
<!-- Node4 -->
<g id="node4" class="node"><title>Node4</title>
<g id="a_node4"><a xlink:href="$class_p_r_i_s_m_1_1_p_r_i_s_m_widget.html#a99157d870f447ea268c6f5b55a128d7d" xlink:title=" ">
<polygon fill="none" stroke="black" points="313,-38.5 313,-57.5 463,-57.5 463,-38.5 313,-38.5"/>
<text text-anchor="middle" x="388" y="-45.5" font-family="Helvetica,sans-Serif" font-size="10.00">onMidSagittalSelectorChanged</text>
</a>
</g>
</g>
<!-- Node2&#45;&gt;Node4 -->
<g id="edge3" class="edge"><title>Node2&#45;&gt;Node4</title>
<path fill="none" stroke="midnightblue" d="M223.057,-48C243.661,-48 273.865,-48 302.75,-48"/>
<polygon fill="midnightblue" stroke="midnightblue" points="302.895,-51.5001 312.895,-48 302.895,-44.5001 302.895,-51.5001"/>
</g>
<!-- Node5 -->
<g id="node5" class="node"><title>Node5</title>
<g id="a_node5"><a xlink:href="$class_p_r_i_s_m_1_1_p_r_i_s_m_widget.html#afa92c17d5fd6d29831a9f2f310f47741" xlink:title=" ">
<polygon fill="none" stroke="black" points="338,-0.5 338,-19.5 438,-19.5 438,-0.5 338,-0.5"/>
<text text-anchor="middle" x="388" y="-7.5" font-family="Helvetica,sans-Serif" font-size="10.00">updateEndPointsUI</text>
</a>
</g>
</g>
<!-- Node2&#45;&gt;Node5 -->
<g id="edge4" class="edge"><title>Node2&#45;&gt;Node5</title>
<path fill="none" stroke="midnightblue" d="M223.057,-42.8752C250.09,-37.4542 293.646,-28.72 329.071,-21.6165"/>
<polygon fill="midnightblue" stroke="midnightblue" points="330.183,-24.9631 339.3,-19.5652 328.807,-18.0998 330.183,-24.9631"/>
</g>
</g>
</svg>
