<?xml version="1.0" encoding="UTF-8" standalone="no"?>
<!DOCTYPE svg PUBLIC "-//W3C//DTD SVG 1.1//EN"
 "http://www.w3.org/Graphics/SVG/1.1/DTD/svg11.dtd">
<!-- Generated by graphviz version 2.38.0 (20140413.2041)
 -->
<!-- Title: observeLeftClickOnSlice Pages: 1 -->
<svg width="327pt" height="66pt"
 viewBox="0.00 0.00 327.00 66.00" xmlns="http://www.w3.org/2000/svg" xmlns:xlink="http://www.w3.org/1999/xlink">
<g id="graph0" class="graph" transform="scale(1 1) rotate(0) translate(4 62)">
<title>observeLeftClickOnSlice</title>
<!-- Node1 -->
<g id="node1" class="node"><title>Node1</title>
<g id="a_node1"><a xlink:title=" ">
<polygon fill="#bfbfbf" stroke="black" points="0,-19.5 0,-38.5 122,-38.5 122,-19.5 0,-19.5"/>
<text text-anchor="middle" x="61" y="-26.5" font-family="Helvetica,sans-Serif" font-size="10.00">observeLeftClickOnSlice</text>
</a>
</g>
</g>
<!-- Node1&#45;&gt;Node1 -->
<g id="edge1" class="edge"><title>Node1&#45;&gt;Node1</title>
<path fill="none" stroke="midnightblue" d="M33.8733,-38.7571C20.6765,-47.5653 29.7188,-57 61,-57 82.5059,-57 93.5003,-52.5406 93.9834,-46.8913"/>
<polygon fill="midnightblue" stroke="midnightblue" points="96.8102,-44.8273 88.1267,-38.7571 91.1294,-48.9175 96.8102,-44.8273"/>
</g>
<!-- Node2 -->
<g id="node2" class="node"><title>Node2</title>
<g id="a_node2"><a xlink:href="$class_p_r_i_s_m_1_1_p_r_i_s_m_widget.html#a5d8e1b70982f6361d32d8e18972b3b65" xlink:title=" ">
<polygon fill="none" stroke="black" points="206,-38.5 206,-57.5 271,-57.5 271,-38.5 206,-38.5"/>
<text text-anchor="middle" x="238.5" y="-45.5" font-family="Helvetica,sans-Serif" font-size="10.00">onLeftClick</text>
</a>
</g>
</g>
<!-- Node1&#45;&gt;Node2 -->
<g id="edge2" class="edge"><title>Node1&#45;&gt;Node2</title>
<path fill="none" stroke="midnightblue" d="M122.397,-35.5387C146.535,-38.152 173.742,-41.0974 195.641,-43.4683"/>
<polygon fill="midnightblue" stroke="midnightblue" points="195.295,-46.9511 205.613,-44.5479 196.048,-39.9918 195.295,-46.9511"/>
</g>
<!-- Node3 -->
<g id="node3" class="node"><title>Node3</title>
<g id="a_node3"><a xlink:href="$class_p_r_i_s_m_1_1_p_r_i_s_m_widget.html#a29b182c927e1baf9f15c5fb937a53012" xlink:title=" ">
<polygon fill="none" stroke="black" points="158,-0.5 158,-19.5 319,-19.5 319,-0.5 158,-0.5"/>
<text text-anchor="middle" x="238.5" y="-7.5" font-family="Helvetica,sans-Serif" font-size="10.00">removeLeftClickOnSlicerObserver</text>
</a>
</g>
</g>
<!-- Node1&#45;&gt;Node3 -->
<g id="edge3" class="edge"><title>Node1&#45;&gt;Node3</title>
<path fill="none" stroke="midnightblue" d="M122.397,-22.4613C130.593,-21.574 139.142,-20.6485 147.717,-19.7201"/>
<polygon fill="midnightblue" stroke="midnightblue" points="148.211,-23.1872 157.776,-18.6311 147.457,-16.2279 148.211,-23.1872"/>
</g>
</g>
</svg>
