<?xml version="1.0" encoding="UTF-8" standalone="no"?>
<!DOCTYPE svg PUBLIC "-//W3C//DTD SVG 1.1//EN"
 "http://www.w3.org/Graphics/SVG/1.1/DTD/svg11.dtd">
<!-- Generated by graphviz version 2.38.0 (20140413.2041)
 -->
<!-- Title: InstanciateCustomShader Pages: 1 -->
<svg width="262pt" height="46pt"
 viewBox="0.00 0.00 262.00 46.00" xmlns="http://www.w3.org/2000/svg" xmlns:xlink="http://www.w3.org/1999/xlink">
<g id="graph0" class="graph" transform="scale(1 1) rotate(0) translate(4 42)">
<title>InstanciateCustomShader</title>
<!-- Node1 -->
<g id="node1" class="node"><title>Node1</title>
<g id="a_node1"><a xlink:title=" ">
<polygon fill="#bfbfbf" stroke="black" points="0,-0.5 0,-19.5 128,-19.5 128,-0.5 0,-0.5"/>
<text text-anchor="middle" x="64" y="-7.5" font-family="Helvetica,sans-Serif" font-size="10.00">InstanciateCustomShader</text>
</a>
</g>
</g>
<!-- Node1&#45;&gt;Node1 -->
<g id="edge2" class="edge"><title>Node1&#45;&gt;Node1</title>
<path fill="none" stroke="midnightblue" d="M41.8054,-19.7571C31.0081,-28.5653 38.4063,-38 64,-38 80.7959,-38 89.7556,-33.9368 90.8792,-28.6539"/>
<polygon fill="midnightblue" stroke="midnightblue" points="93.9506,-26.9747 86.1946,-19.7571 87.7567,-30.2361 93.9506,-26.9747"/>
</g>
<!-- Node2 -->
<g id="node2" class="node"><title>Node2</title>
<g id="a_node2"><a xlink:href="$class_custom_shader_1_1_custom_shader.html#a4ad5db1be2c1a43db4cbe6211e0235d5" xlink:title=" ">
<polygon fill="none" stroke="black" points="164,-0.5 164,-19.5 254,-19.5 254,-0.5 164,-0.5"/>
<text text-anchor="middle" x="209" y="-7.5" font-family="Helvetica,sans-Serif" font-size="10.00">GetDisplayName</text>
</a>
</g>
</g>
<!-- Node1&#45;&gt;Node2 -->
<g id="edge1" class="edge"><title>Node1&#45;&gt;Node2</title>
<path fill="none" stroke="midnightblue" d="M128.138,-10C136.555,-10 145.129,-10 153.385,-10"/>
<polygon fill="midnightblue" stroke="midnightblue" points="153.636,-13.5001 163.636,-10 153.635,-6.5001 153.636,-13.5001"/>
</g>
</g>
</svg>
