<?xml version="1.0" encoding="UTF-8" standalone="no"?>
<!DOCTYPE svg PUBLIC "-//W3C//DTD SVG 1.1//EN"
 "http://www.w3.org/Graphics/SVG/1.1/DTD/svg11.dtd">
<!-- Generated by graphviz version 2.38.0 (20140413.2041)
 -->
<!-- Title: UpdateShaderParametersUI Pages: 1 -->
<svg width="327pt" height="78pt"
 viewBox="0.00 0.00 327.00 77.50" xmlns="http://www.w3.org/2000/svg" xmlns:xlink="http://www.w3.org/1999/xlink">
<g id="graph0" class="graph" transform="scale(1 1) rotate(0) translate(4 73.5)">
<title>UpdateShaderParametersUI</title>
<!-- Node1 -->
<g id="node1" class="node"><title>Node1</title>
<g id="a_node1"><a xlink:title="Updates the shader parameters on the UI.">
<polygon fill="#bfbfbf" stroke="black" points="182,-28 182,-47 319,-47 319,-28 182,-28"/>
<text text-anchor="middle" x="250.5" y="-35" font-family="Helvetica,sans-Serif" font-size="10.00">UpdateShaderParametersUI</text>
</a>
</g>
</g>
<!-- Node2 -->
<g id="node2" class="node"><title>Node2</title>
<g id="a_node2"><a xlink:href="$class_slicer_p_r_i_s_m_1_1_p_r_i_s_m_1_1_p_r_i_s_m_widget.html#a5354f5739815c9b04b2e8df68991a1b7" xlink:title="Function to initialize the all user interface based on current scene.">
<polygon fill="none" stroke="black" points="46.5,-50 46.5,-69 99.5,-69 99.5,-50 46.5,-50"/>
<text text-anchor="middle" x="73" y="-57" font-family="Helvetica,sans-Serif" font-size="10.00">initState</text>
</a>
</g>
</g>
<!-- Node1&#45;&gt;Node2 -->
<g id="edge1" class="edge"><title>Node1&#45;&gt;Node2</title>
<path fill="none" stroke="midnightblue" d="M171.677,-47.2555C145.804,-50.499 118.763,-53.8886 99.7108,-56.277"/>
<polygon fill="midnightblue" stroke="midnightblue" points="172.411,-50.691 181.898,-45.9743 171.54,-43.7454 172.411,-50.691"/>
</g>
<!-- Node3 -->
<g id="node3" class="node"><title>Node3</title>
<g id="a_node3"><a xlink:href="$class_slicer_p_r_i_s_m_1_1_p_r_i_s_m_1_1_p_r_i_s_m_widget.html#adaa9135573481fda408b1b56cea63670" xlink:title="Callback function when the custom shader combo box is changed.">
<polygon fill="none" stroke="black" points="0,-0.5 0,-30.5 146,-30.5 146,-0.5 0,-0.5"/>
<text text-anchor="start" x="8" y="-18.5" font-family="Helvetica,sans-Serif" font-size="10.00">onCustomShaderComboIndex</text>
<text text-anchor="middle" x="73" y="-7.5" font-family="Helvetica,sans-Serif" font-size="10.00">Changed</text>
</a>
</g>
</g>
<!-- Node1&#45;&gt;Node3 -->
<g id="edge2" class="edge"><title>Node1&#45;&gt;Node3</title>
<path fill="none" stroke="midnightblue" d="M171.94,-27.7774C163.389,-26.7055 154.708,-25.6172 146.226,-24.554"/>
<polygon fill="midnightblue" stroke="midnightblue" points="171.54,-31.2546 181.898,-29.0257 172.411,-24.309 171.54,-31.2546"/>
</g>
</g>
</svg>
