<?xml version="1.0" encoding="UTF-8" standalone="no"?>
<!DOCTYPE svg PUBLIC "-//W3C//DTD SVG 1.1//EN"
 "http://www.w3.org/Graphics/SVG/1.1/DTD/svg11.dtd">
<!-- Generated by graphviz version 2.38.0 (20140413.2041)
 -->
<!-- Title: setCoverageTable Pages: 1 -->
<svg width="271pt" height="46pt"
 viewBox="0.00 0.00 271.00 46.00" xmlns="http://www.w3.org/2000/svg" xmlns:xlink="http://www.w3.org/1999/xlink">
<g id="graph0" class="graph" transform="scale(1 1) rotate(0) translate(4 42)">
<title>setCoverageTable</title>
<!-- Node1 -->
<g id="node1" class="node"><title>Node1</title>
<g id="a_node1"><a xlink:title=" ">
<polygon fill="#bfbfbf" stroke="black" points="170,-0.5 170,-19.5 263,-19.5 263,-0.5 170,-0.5"/>
<text text-anchor="middle" x="216.5" y="-7.5" font-family="Helvetica,sans-Serif" font-size="10.00">setCoverageTable</text>
</a>
</g>
</g>
<!-- Node1&#45;&gt;Node1 -->
<g id="edge2" class="edge"><title>Node1&#45;&gt;Node1</title>
<path fill="none" stroke="midnightblue" d="M244.126,-28.6539C242.971,-33.9368 233.762,-38 216.5,-38 190.195,-38 182.592,-28.5653 193.689,-19.7571"/>
<polygon fill="midnightblue" stroke="midnightblue" points="247.149,-26.886 239.311,-19.7571 240.992,-30.2176 247.149,-26.886"/>
</g>
<!-- Node2 -->
<g id="node2" class="node"><title>Node2</title>
<g id="a_node2"><a xlink:href="$class_p_r_i_s_m_1_1_p_r_i_s_m_widget.html#a28d701e27fc7789a41aa3379f2979c4a" xlink:title=" ">
<polygon fill="none" stroke="black" points="0,-0.5 0,-19.5 134,-19.5 134,-0.5 0,-0.5"/>
<text text-anchor="middle" x="67" y="-7.5" font-family="Helvetica,sans-Serif" font-size="10.00">onComputeCoverageButton</text>
</a>
</g>
</g>
<!-- Node1&#45;&gt;Node2 -->
<g id="edge1" class="edge"><title>Node1&#45;&gt;Node2</title>
<path fill="none" stroke="midnightblue" d="M159.387,-10C151.134,-10 142.569,-10 134.137,-10"/>
<polygon fill="midnightblue" stroke="midnightblue" points="159.639,-13.5001 169.639,-10 159.639,-6.5001 159.639,-13.5001"/>
</g>
</g>
</svg>
