<?xml version="1.0" encoding="UTF-8" standalone="no"?>
<!DOCTYPE svg PUBLIC "-//W3C//DTD SVG 1.1//EN"
 "http://www.w3.org/Graphics/SVG/1.1/DTD/svg11.dtd">
<!-- Generated by graphviz version 2.38.0 (20140413.2041)
 -->
<!-- Title: removeRightClickOnSliceObserver Pages: 1 -->
<svg width="559pt" height="84pt"
 viewBox="0.00 0.00 559.00 84.00" xmlns="http://www.w3.org/2000/svg" xmlns:xlink="http://www.w3.org/1999/xlink">
<g id="graph0" class="graph" transform="scale(1 1) rotate(0) translate(4 80)">
<title>removeRightClickOnSliceObserver</title>
<!-- Node1 -->
<g id="node1" class="node"><title>Node1</title>
<g id="a_node1"><a xlink:title=" ">
<polygon fill="#bfbfbf" stroke="black" points="387,-28.5 387,-47.5 551,-47.5 551,-28.5 387,-28.5"/>
<text text-anchor="middle" x="469" y="-35.5" font-family="Helvetica,sans-Serif" font-size="10.00">removeRightClickOnSliceObserver</text>
</a>
</g>
</g>
<!-- Node1&#45;&gt;Node1 -->
<g id="edge7" class="edge"><title>Node1&#45;&gt;Node1</title>
<path fill="none" stroke="midnightblue" d="M501.186,-56.2746C500.268,-61.741 489.539,-66 469,-66 438.43,-66 429.593,-56.5653 442.49,-47.7571"/>
<polygon fill="midnightblue" stroke="midnightblue" points="503.968,-54.1381 495.51,-47.7571 498.143,-58.0197 503.968,-54.1381"/>
</g>
<!-- Node2 -->
<g id="node2" class="node"><title>Node2</title>
<g id="a_node2"><a xlink:href="$class_p_r_i_s_m_1_1_p_r_i_s_m_widget.html#a92a408ae5db8734e6bacb469864ee574" xlink:title=" ">
<polygon fill="none" stroke="black" points="241,-56.5 241,-75.5 351,-75.5 351,-56.5 241,-56.5"/>
<text text-anchor="middle" x="296" y="-63.5" font-family="Helvetica,sans-Serif" font-size="10.00">onEndPointsChanged</text>
</a>
</g>
</g>
<!-- Node1&#45;&gt;Node2 -->
<g id="edge1" class="edge"><title>Node1&#45;&gt;Node2</title>
<path fill="none" stroke="midnightblue" d="M399.697,-49.184C383.533,-51.8308 366.513,-54.6177 351.08,-57.1448"/>
<polygon fill="midnightblue" stroke="midnightblue" points="400.327,-52.6277 409.63,-47.5577 399.196,-45.7197 400.327,-52.6277"/>
</g>
<!-- Node3 -->
<g id="node3" class="node"><title>Node3</title>
<g id="a_node3"><a xlink:href="$class_p_r_i_s_m_1_1_p_r_i_s_m_widget.html#ae52ac30ff7e889a819a90484fd2e4978" xlink:title=" ">
<polygon fill="none" stroke="black" points="260.5,-0.5 260.5,-19.5 331.5,-19.5 331.5,-0.5 260.5,-0.5"/>
<text text-anchor="middle" x="296" y="-7.5" font-family="Helvetica,sans-Serif" font-size="10.00">onRightClick</text>
</a>
</g>
</g>
<!-- Node1&#45;&gt;Node3 -->
<g id="edge2" class="edge"><title>Node1&#45;&gt;Node3</title>
<path fill="none" stroke="midnightblue" d="M399.754,-26.8251C376.403,-23.0016 351.261,-18.8848 331.691,-15.6804"/>
<polygon fill="midnightblue" stroke="midnightblue" points="399.196,-30.2803 409.63,-28.4423 400.327,-23.3723 399.196,-30.2803"/>
</g>
<!-- Node3&#45;&gt;Node3 -->
<g id="edge6" class="edge"><title>Node3&#45;&gt;Node3</title>
<path fill="none" stroke="midnightblue" d="M324.746,-28.6539C323.544,-33.9368 313.962,-38 296,-38 268.629,-38 260.717,-28.5653 272.264,-19.7571"/>
<polygon fill="midnightblue" stroke="midnightblue" points="327.692,-26.7532 319.736,-19.7571 321.593,-30.1879 327.692,-26.7532"/>
</g>
<!-- Node4 -->
<g id="node4" class="node"><title>Node4</title>
<g id="a_node4"><a xlink:href="$class_p_r_i_s_m_1_1_p_r_i_s_m_widget.html#ad5a2b5d7ab787e001b00ae7206e4b31d" xlink:title=" ">
<polygon fill="none" stroke="black" points="77,-0.5 77,-19.5 205,-19.5 205,-0.5 77,-0.5"/>
<text text-anchor="middle" x="141" y="-7.5" font-family="Helvetica,sans-Serif" font-size="10.00">observeRightClickOnSlice</text>
</a>
</g>
</g>
<!-- Node3&#45;&gt;Node4 -->
<g id="edge3" class="edge"><title>Node3&#45;&gt;Node4</title>
<path fill="none" stroke="midnightblue" d="M249.93,-10C235.906,-10 220.176,-10 205.154,-10"/>
<polygon fill="midnightblue" stroke="midnightblue" points="250.282,-13.5001 260.282,-10 250.282,-6.5001 250.282,-13.5001"/>
</g>
<!-- Node4&#45;&gt;Node4 -->
<g id="edge4" class="edge"><title>Node4&#45;&gt;Node4</title>
<path fill="none" stroke="midnightblue" d="M163.321,-29.0292C162.104,-34.128 154.663,-38 141,-38 119.672,-38 113.507,-28.5653 122.505,-19.7571"/>
<polygon fill="midnightblue" stroke="midnightblue" points="166.545,-27.6661 159.495,-19.7571 160.074,-30.3361 166.545,-27.6661"/>
</g>
<!-- Node5 -->
<g id="node5" class="node"><title>Node5</title>
<g id="a_node5"><a xlink:href="$class_p_r_i_s_m_1_1_p_r_i_s_m_widget.html#ade41f93307784822f8bc17e85964d427" xlink:title=" ">
<polygon fill="none" stroke="black" points="0,-0.5 0,-19.5 41,-19.5 41,-0.5 0,-0.5"/>
<text text-anchor="middle" x="20.5" y="-7.5" font-family="Helvetica,sans-Serif" font-size="10.00">setup</text>
</a>
</g>
</g>
<!-- Node4&#45;&gt;Node5 -->
<g id="edge5" class="edge"><title>Node4&#45;&gt;Node5</title>
<path fill="none" stroke="midnightblue" d="M66.6388,-10C57.2878,-10 48.4346,-10 41.0866,-10"/>
<polygon fill="midnightblue" stroke="midnightblue" points="66.9335,-13.5001 76.9335,-10 66.9335,-6.5001 66.9335,-13.5001"/>
</g>
</g>
</svg>
