<?xml version="1.0" encoding="UTF-8" standalone="no"?>
<!DOCTYPE svg PUBLIC "-//W3C//DTD SVG 1.1//EN"
 "http://www.w3.org/Graphics/SVG/1.1/DTD/svg11.dtd">
<!-- Generated by graphviz version 2.38.0 (20140413.2041)
 -->
<!-- Title: resetView Pages: 1 -->
<svg width="286pt" height="84pt"
 viewBox="0.00 0.00 286.00 84.00" xmlns="http://www.w3.org/2000/svg" xmlns:xlink="http://www.w3.org/1999/xlink">
<g id="graph0" class="graph" transform="scale(1 1) rotate(0) translate(4 80)">
<title>resetView</title>
<!-- Node1 -->
<g id="node1" class="node"><title>Node1</title>
<g id="a_node1"><a xlink:title=" ">
<polygon fill="#bfbfbf" stroke="black" points="219,-28.5 219,-47.5 278,-47.5 278,-28.5 219,-28.5"/>
<text text-anchor="middle" x="248.5" y="-35.5" font-family="Helvetica,sans-Serif" font-size="10.00">resetView</text>
</a>
</g>
</g>
<!-- Node1&#45;&gt;Node1 -->
<g id="edge5" class="edge"><title>Node1&#45;&gt;Node1</title>
<path fill="none" stroke="midnightblue" d="M270.449,-57.0292C269.252,-62.128 261.936,-66 248.5,-66 227.527,-66 221.465,-56.5653 230.313,-47.7571"/>
<polygon fill="midnightblue" stroke="midnightblue" points="273.69,-55.7074 266.687,-47.7571 267.204,-58.3393 273.69,-55.7074"/>
</g>
<!-- Node2 -->
<g id="node2" class="node"><title>Node2</title>
<g id="a_node2"><a xlink:href="$class_p_r_i_s_m_1_1_p_r_i_s_m_widget.html#a5354f5739815c9b04b2e8df68991a1b7" xlink:title=" ">
<polygon fill="none" stroke="black" points="103.5,-56.5 103.5,-75.5 156.5,-75.5 156.5,-56.5 103.5,-56.5"/>
<text text-anchor="middle" x="130" y="-63.5" font-family="Helvetica,sans-Serif" font-size="10.00">initState</text>
</a>
</g>
</g>
<!-- Node1&#45;&gt;Node2 -->
<g id="edge1" class="edge"><title>Node1&#45;&gt;Node2</title>
<path fill="none" stroke="midnightblue" d="M208.945,-47.2665C191.775,-51.3932 172.017,-56.1418 156.69,-59.8255"/>
<polygon fill="midnightblue" stroke="midnightblue" points="209.797,-50.6614 218.702,-44.9214 208.161,-43.8552 209.797,-50.6614"/>
</g>
<!-- Node3 -->
<g id="node3" class="node"><title>Node3</title>
<g id="a_node3"><a xlink:href="$class_p_r_i_s_m_1_1_p_r_i_s_m_widget.html#a37a34f2b7c31c349a832cfede9d6aaad" xlink:title=" ">
<polygon fill="none" stroke="black" points="77,-0.5 77,-19.5 183,-19.5 183,-0.5 77,-0.5"/>
<text text-anchor="middle" x="130" y="-7.5" font-family="Helvetica,sans-Serif" font-size="10.00">onClearPointsButton</text>
</a>
</g>
</g>
<!-- Node1&#45;&gt;Node3 -->
<g id="edge2" class="edge"><title>Node1&#45;&gt;Node3</title>
<path fill="none" stroke="midnightblue" d="M208.825,-28.7048C196.64,-25.776 183.16,-22.5364 170.892,-19.5877"/>
<polygon fill="midnightblue" stroke="midnightblue" points="208.161,-32.1448 218.702,-31.0786 209.797,-25.3386 208.161,-32.1448"/>
</g>
<!-- Node3&#45;&gt;Node3 -->
<g id="edge3" class="edge"><title>Node3&#45;&gt;Node3</title>
<path fill="none" stroke="midnightblue" d="M149.999,-29.4C148.663,-34.3146 141.997,-38 130,-38 110.805,-38 105.256,-28.5653 113.354,-19.7571"/>
<polygon fill="midnightblue" stroke="midnightblue" points="153.236,-28.0528 146.646,-19.7571 146.624,-30.3519 153.236,-28.0528"/>
</g>
<!-- Node4 -->
<g id="node4" class="node"><title>Node4</title>
<g id="a_node4"><a xlink:href="$class_p_r_i_s_m_1_1_p_r_i_s_m_widget.html#ade41f93307784822f8bc17e85964d427" xlink:title=" ">
<polygon fill="none" stroke="black" points="0,-0.5 0,-19.5 41,-19.5 41,-0.5 0,-0.5"/>
<text text-anchor="middle" x="20.5" y="-7.5" font-family="Helvetica,sans-Serif" font-size="10.00">setup</text>
</a>
</g>
</g>
<!-- Node3&#45;&gt;Node4 -->
<g id="edge4" class="edge"><title>Node3&#45;&gt;Node4</title>
<path fill="none" stroke="midnightblue" d="M66.7075,-10C57.4598,-10 48.5583,-10 41.1361,-10"/>
<polygon fill="midnightblue" stroke="midnightblue" points="66.8245,-13.5001 76.8245,-10 66.8245,-6.5001 66.8245,-13.5001"/>
</g>
</g>
</svg>
