<?xml version="1.0" encoding="UTF-8" standalone="no"?>
<!DOCTYPE svg PUBLIC "-//W3C//DTD SVG 1.1//EN"
 "http://www.w3.org/Graphics/SVG/1.1/DTD/svg11.dtd">
<!-- Generated by graphviz version 2.38.0 (20140413.2041)
 -->
<!-- Title: CustomShader Pages: 1 -->
<svg width="1188pt" height="578pt"
 viewBox="0.00 0.00 1187.50 578.00" xmlns="http://www.w3.org/2000/svg" xmlns:xlink="http://www.w3.org/1999/xlink">
<g id="graph0" class="graph" transform="scale(1 1) rotate(0) translate(4 574)">
<title>CustomShader</title>
<!-- Node1 -->
<g id="node1" class="node"><title>Node1</title>
<g id="a_node1"><a xlink:title=" ">
<polygon fill="#bfbfbf" stroke="black" points="532,-193.5 532,-569.5 677,-569.5 677,-193.5 532,-193.5"/>
<text text-anchor="middle" x="604.5" y="-557.5" font-family="Helvetica,sans-Serif" font-size="10.00">CustomShader</text>
<polyline fill="none" stroke="black" points="532,-550.5 677,-550.5 "/>
<text text-anchor="start" x="540" y="-538.5" font-family="Helvetica,sans-Serif" font-size="10.00">+ shaderPropertyNode</text>
<text text-anchor="start" x="540" y="-527.5" font-family="Helvetica,sans-Serif" font-size="10.00">+ shaderProperty</text>
<text text-anchor="start" x="540" y="-516.5" font-family="Helvetica,sans-Serif" font-size="10.00">+ shaderUniforms</text>
<text text-anchor="start" x="540" y="-505.5" font-family="Helvetica,sans-Serif" font-size="10.00">+ paramfValues</text>
<text text-anchor="start" x="540" y="-494.5" font-family="Helvetica,sans-Serif" font-size="10.00">+ shaderfParams</text>
<polyline fill="none" stroke="black" points="532,-487.5 677,-487.5 "/>
<text text-anchor="start" x="540" y="-475.5" font-family="Helvetica,sans-Serif" font-size="10.00">+ InstanciateCustomShader()</text>
<text text-anchor="start" x="540" y="-464.5" font-family="Helvetica,sans-Serif" font-size="10.00">+ GetAllShaderClassNames()</text>
<text text-anchor="start" x="540" y="-453.5" font-family="Helvetica,sans-Serif" font-size="10.00">+ GetDisplayName()</text>
<text text-anchor="start" x="540" y="-442.5" font-family="Helvetica,sans-Serif" font-size="10.00">+ hasShaderfParameter()</text>
<text text-anchor="start" x="540" y="-431.5" font-family="Helvetica,sans-Serif" font-size="10.00">+ __init__()</text>
<text text-anchor="start" x="540" y="-420.5" font-family="Helvetica,sans-Serif" font-size="10.00">+ getParameterNames()</text>
<text text-anchor="start" x="540" y="-409.5" font-family="Helvetica,sans-Serif" font-size="10.00">+ getShaderPropertyNode()</text>
<text text-anchor="start" x="540" y="-398.5" font-family="Helvetica,sans-Serif" font-size="10.00">+ setupShader()</text>
<text text-anchor="start" x="540" y="-387.5" font-family="Helvetica,sans-Serif" font-size="10.00">+ setPathEnds()</text>
<text text-anchor="start" x="540" y="-376.5" font-family="Helvetica,sans-Serif" font-size="10.00">+ setAllUniforms()</text>
<text text-anchor="start" x="540" y="-365.5" font-family="Helvetica,sans-Serif" font-size="10.00">+ setShaderParameter()</text>
<text text-anchor="start" x="540" y="-354.5" font-family="Helvetica,sans-Serif" font-size="10.00">+ getShaderParameter()</text>
<text text-anchor="start" x="540" y="-343.5" font-family="Helvetica,sans-Serif" font-size="10.00">+ clear()</text>
<text text-anchor="start" x="540" y="-332.5" font-family="Helvetica,sans-Serif" font-size="10.00">+ InstanciateCustomShader()</text>
<text text-anchor="start" x="540" y="-321.5" font-family="Helvetica,sans-Serif" font-size="10.00">+ GetAllShaderClassNames()</text>
<text text-anchor="start" x="540" y="-310.5" font-family="Helvetica,sans-Serif" font-size="10.00">+ GetDisplayName()</text>
<text text-anchor="start" x="540" y="-299.5" font-family="Helvetica,sans-Serif" font-size="10.00">+ hasShaderfParameter()</text>
<text text-anchor="start" x="540" y="-288.5" font-family="Helvetica,sans-Serif" font-size="10.00">+ __init__()</text>
<text text-anchor="start" x="540" y="-277.5" font-family="Helvetica,sans-Serif" font-size="10.00">+ getParameterNames()</text>
<text text-anchor="start" x="540" y="-266.5" font-family="Helvetica,sans-Serif" font-size="10.00">+ getShaderPropertyNode()</text>
<text text-anchor="start" x="540" y="-255.5" font-family="Helvetica,sans-Serif" font-size="10.00">+ setupShader()</text>
<text text-anchor="start" x="540" y="-244.5" font-family="Helvetica,sans-Serif" font-size="10.00">+ setPathEnds()</text>
<text text-anchor="start" x="540" y="-233.5" font-family="Helvetica,sans-Serif" font-size="10.00">+ setAllUniforms()</text>
<text text-anchor="start" x="540" y="-222.5" font-family="Helvetica,sans-Serif" font-size="10.00">+ setShaderParameter()</text>
<text text-anchor="start" x="540" y="-211.5" font-family="Helvetica,sans-Serif" font-size="10.00">+ getShaderParameter()</text>
<text text-anchor="start" x="540" y="-200.5" font-family="Helvetica,sans-Serif" font-size="10.00">+ clear()</text>
</a>
</g>
</g>
<!-- Node2 -->
<g id="node2" class="node"><title>Node2</title>
<g id="a_node2"><a xlink:href="$class_custom_shader_1_1_carve_opacity_peeling_shader.html" xlink:title=" ">
<polygon fill="none" stroke="black" points="0,-11.5 0,-145.5 137,-145.5 137,-11.5 0,-11.5"/>
<text text-anchor="middle" x="68.5" y="-133.5" font-family="Helvetica,sans-Serif" font-size="10.00">CarveOpacityPeelingShader</text>
<polyline fill="none" stroke="black" points="0,-126.5 137,-126.5 "/>
<text text-anchor="start" x="8" y="-114.5" font-family="Helvetica,sans-Serif" font-size="10.00">+ shaderfParams</text>
<polyline fill="none" stroke="black" points="0,-107.5 137,-107.5 "/>
<text text-anchor="start" x="8" y="-95.5" font-family="Helvetica,sans-Serif" font-size="10.00">+ __init__()</text>
<text text-anchor="start" x="8" y="-84.5" font-family="Helvetica,sans-Serif" font-size="10.00">+ GetDisplayName()</text>
<text text-anchor="start" x="8" y="-73.5" font-family="Helvetica,sans-Serif" font-size="10.00">+ setupShader()</text>
<text text-anchor="start" x="8" y="-62.5" font-family="Helvetica,sans-Serif" font-size="10.00">+ setPathEnds()</text>
<text text-anchor="start" x="8" y="-51.5" font-family="Helvetica,sans-Serif" font-size="10.00">+ __init__()</text>
<text text-anchor="start" x="8" y="-40.5" font-family="Helvetica,sans-Serif" font-size="10.00">+ GetDisplayName()</text>
<text text-anchor="start" x="8" y="-29.5" font-family="Helvetica,sans-Serif" font-size="10.00">+ setupShader()</text>
<text text-anchor="start" x="8" y="-18.5" font-family="Helvetica,sans-Serif" font-size="10.00">+ setPathEnds()</text>
</a>
</g>
</g>
<!-- Node1&#45;&gt;Node2 -->
<g id="edge1" class="edge"><title>Node1&#45;&gt;Node2</title>
<path fill="none" stroke="midnightblue" d="M522.389,-350.284C426.863,-312.991 266.772,-243.74 145.5,-157 140.563,-153.469 135.658,-149.61 130.853,-145.56"/>
<polygon fill="none" stroke="midnightblue" points="521.41,-353.658 531.999,-354.012 523.942,-347.132 521.41,-353.658"/>
</g>
<!-- Node3 -->
<g id="node3" class="node"><title>Node3</title>
<g id="a_node3"><a xlink:href="$class_custom_shader_1_1_cube_carving_shader.html" xlink:title=" ">
<polygon fill="none" stroke="black" points="155,-0.5 155,-156.5 260,-156.5 260,-0.5 155,-0.5"/>
<text text-anchor="middle" x="207.5" y="-144.5" font-family="Helvetica,sans-Serif" font-size="10.00">CubeCarvingShader</text>
<polyline fill="none" stroke="black" points="155,-137.5 260,-137.5 "/>
<text text-anchor="start" x="163" y="-125.5" font-family="Helvetica,sans-Serif" font-size="10.00">+ entry</text>
<text text-anchor="start" x="163" y="-114.5" font-family="Helvetica,sans-Serif" font-size="10.00">+ target</text>
<text text-anchor="start" x="163" y="-103.5" font-family="Helvetica,sans-Serif" font-size="10.00">+ shaderfParams</text>
<polyline fill="none" stroke="black" points="155,-96.5 260,-96.5 "/>
<text text-anchor="start" x="163" y="-84.5" font-family="Helvetica,sans-Serif" font-size="10.00">+ __init__()</text>
<text text-anchor="start" x="163" y="-73.5" font-family="Helvetica,sans-Serif" font-size="10.00">+ GetDisplayName()</text>
<text text-anchor="start" x="163" y="-62.5" font-family="Helvetica,sans-Serif" font-size="10.00">+ setupShader()</text>
<text text-anchor="start" x="163" y="-51.5" font-family="Helvetica,sans-Serif" font-size="10.00">+ setPathEnds()</text>
<text text-anchor="start" x="163" y="-40.5" font-family="Helvetica,sans-Serif" font-size="10.00">+ __init__()</text>
<text text-anchor="start" x="163" y="-29.5" font-family="Helvetica,sans-Serif" font-size="10.00">+ GetDisplayName()</text>
<text text-anchor="start" x="163" y="-18.5" font-family="Helvetica,sans-Serif" font-size="10.00">+ setupShader()</text>
<text text-anchor="start" x="163" y="-7.5" font-family="Helvetica,sans-Serif" font-size="10.00">+ setPathEnds()</text>
</a>
</g>
</g>
<!-- Node1&#45;&gt;Node3 -->
<g id="edge2" class="edge"><title>Node1&#45;&gt;Node3</title>
<path fill="none" stroke="midnightblue" d="M522.947,-336.157C451.509,-295.1 347.116,-229.576 268.5,-157 265.732,-154.445 262.989,-151.756 260.288,-148.977"/>
<polygon fill="none" stroke="midnightblue" points="521.509,-339.366 531.928,-341.289 524.983,-333.289 521.509,-339.366"/>
</g>
<!-- Node4 -->
<g id="node4" class="node"><title>Node4</title>
<g id="a_node4"><a xlink:href="$class_custom_shader_1_1_cylinder_intersection_shader.html" xlink:title=" ">
<polygon fill="none" stroke="black" points="278,-0.5 278,-156.5 411,-156.5 411,-0.5 278,-0.5"/>
<text text-anchor="middle" x="344.5" y="-144.5" font-family="Helvetica,sans-Serif" font-size="10.00">CylinderIntersectionShader</text>
<polyline fill="none" stroke="black" points="278,-137.5 411,-137.5 "/>
<text text-anchor="start" x="286" y="-125.5" font-family="Helvetica,sans-Serif" font-size="10.00">+ entry</text>
<text text-anchor="start" x="286" y="-114.5" font-family="Helvetica,sans-Serif" font-size="10.00">+ target</text>
<text text-anchor="start" x="286" y="-103.5" font-family="Helvetica,sans-Serif" font-size="10.00">+ shaderfParams</text>
<polyline fill="none" stroke="black" points="278,-96.5 411,-96.5 "/>
<text text-anchor="start" x="286" y="-84.5" font-family="Helvetica,sans-Serif" font-size="10.00">+ __init__()</text>
<text text-anchor="start" x="286" y="-73.5" font-family="Helvetica,sans-Serif" font-size="10.00">+ GetDisplayName()</text>
<text text-anchor="start" x="286" y="-62.5" font-family="Helvetica,sans-Serif" font-size="10.00">+ setupShader()</text>
<text text-anchor="start" x="286" y="-51.5" font-family="Helvetica,sans-Serif" font-size="10.00">+ setPathEnds()</text>
<text text-anchor="start" x="286" y="-40.5" font-family="Helvetica,sans-Serif" font-size="10.00">+ __init__()</text>
<text text-anchor="start" x="286" y="-29.5" font-family="Helvetica,sans-Serif" font-size="10.00">+ GetDisplayName()</text>
<text text-anchor="start" x="286" y="-18.5" font-family="Helvetica,sans-Serif" font-size="10.00">+ setupShader()</text>
<text text-anchor="start" x="286" y="-7.5" font-family="Helvetica,sans-Serif" font-size="10.00">+ setPathEnds()</text>
</a>
</g>
</g>
<!-- Node1&#45;&gt;Node4 -->
<g id="edge3" class="edge"><title>Node1&#45;&gt;Node4</title>
<path fill="none" stroke="midnightblue" d="M524.995,-288.458C488.519,-246.229 445.762,-196.73 411.021,-156.511"/>
<polygon fill="none" stroke="midnightblue" points="522.544,-290.975 531.73,-296.254 527.842,-286.399 522.544,-290.975"/>
</g>
<!-- Node5 -->
<g id="node5" class="node"><title>Node5</title>
<g id="a_node5"><a xlink:href="$class_custom_shader_1_1_double_plane_shader.html" xlink:title=" ">
<polygon fill="none" stroke="black" points="429,-11.5 429,-145.5 534,-145.5 534,-11.5 429,-11.5"/>
<text text-anchor="middle" x="481.5" y="-133.5" font-family="Helvetica,sans-Serif" font-size="10.00">DoublePlaneShader</text>
<polyline fill="none" stroke="black" points="429,-126.5 534,-126.5 "/>
<text text-anchor="start" x="437" y="-114.5" font-family="Helvetica,sans-Serif" font-size="10.00">+ shaderfParams</text>
<polyline fill="none" stroke="black" points="429,-107.5 534,-107.5 "/>
<text text-anchor="start" x="437" y="-95.5" font-family="Helvetica,sans-Serif" font-size="10.00">+ __init__()</text>
<text text-anchor="start" x="437" y="-84.5" font-family="Helvetica,sans-Serif" font-size="10.00">+ GetDisplayName()</text>
<text text-anchor="start" x="437" y="-73.5" font-family="Helvetica,sans-Serif" font-size="10.00">+ setupShader()</text>
<text text-anchor="start" x="437" y="-62.5" font-family="Helvetica,sans-Serif" font-size="10.00">+ setPathEnds()</text>
<text text-anchor="start" x="437" y="-51.5" font-family="Helvetica,sans-Serif" font-size="10.00">+ __init__()</text>
<text text-anchor="start" x="437" y="-40.5" font-family="Helvetica,sans-Serif" font-size="10.00">+ GetDisplayName()</text>
<text text-anchor="start" x="437" y="-29.5" font-family="Helvetica,sans-Serif" font-size="10.00">+ setupShader()</text>
<text text-anchor="start" x="437" y="-18.5" font-family="Helvetica,sans-Serif" font-size="10.00">+ setPathEnds()</text>
</a>
</g>
</g>
<!-- Node1&#45;&gt;Node5 -->
<g id="edge4" class="edge"><title>Node1&#45;&gt;Node5</title>
<path fill="none" stroke="midnightblue" d="M528.03,-193.366C521.138,-176.501 514.514,-160.289 508.532,-145.65"/>
<polygon fill="none" stroke="midnightblue" points="524.861,-194.864 531.884,-202.797 531.341,-192.216 524.861,-194.864"/>
</g>
<!-- Node6 -->
<g id="node6" class="node"><title>Node6</title>
<g id="a_node6"><a xlink:href="$class_custom_shader_1_1_drill_core_shader.html" xlink:title=" ">
<polygon fill="none" stroke="black" points="552,-0.5 552,-156.5 657,-156.5 657,-0.5 552,-0.5"/>
<text text-anchor="middle" x="604.5" y="-144.5" font-family="Helvetica,sans-Serif" font-size="10.00">DrillCoreShader</text>
<polyline fill="none" stroke="black" points="552,-137.5 657,-137.5 "/>
<text text-anchor="start" x="560" y="-125.5" font-family="Helvetica,sans-Serif" font-size="10.00">+ entry</text>
<text text-anchor="start" x="560" y="-114.5" font-family="Helvetica,sans-Serif" font-size="10.00">+ target</text>
<text text-anchor="start" x="560" y="-103.5" font-family="Helvetica,sans-Serif" font-size="10.00">+ shaderfParams</text>
<polyline fill="none" stroke="black" points="552,-96.5 657,-96.5 "/>
<text text-anchor="start" x="560" y="-84.5" font-family="Helvetica,sans-Serif" font-size="10.00">+ __init__()</text>
<text text-anchor="start" x="560" y="-73.5" font-family="Helvetica,sans-Serif" font-size="10.00">+ GetDisplayName()</text>
<text text-anchor="start" x="560" y="-62.5" font-family="Helvetica,sans-Serif" font-size="10.00">+ setupShader()</text>
<text text-anchor="start" x="560" y="-51.5" font-family="Helvetica,sans-Serif" font-size="10.00">+ setPathEnds()</text>
<text text-anchor="start" x="560" y="-40.5" font-family="Helvetica,sans-Serif" font-size="10.00">+ __init__()</text>
<text text-anchor="start" x="560" y="-29.5" font-family="Helvetica,sans-Serif" font-size="10.00">+ GetDisplayName()</text>
<text text-anchor="start" x="560" y="-18.5" font-family="Helvetica,sans-Serif" font-size="10.00">+ setupShader()</text>
<text text-anchor="start" x="560" y="-7.5" font-family="Helvetica,sans-Serif" font-size="10.00">+ setPathEnds()</text>
</a>
</g>
</g>
<!-- Node1&#45;&gt;Node6 -->
<g id="edge5" class="edge"><title>Node1&#45;&gt;Node6</title>
<path fill="none" stroke="midnightblue" d="M604.5,-183.282C604.5,-174.14 604.5,-165.254 604.5,-156.777"/>
<polygon fill="none" stroke="midnightblue" points="601,-183.295 604.5,-193.295 608,-183.295 601,-183.295"/>
</g>
<!-- Node7 -->
<g id="node7" class="node"><title>Node7</title>
<g id="a_node7"><a xlink:href="$class_custom_shader_1_1_opacity_peeling_shader.html" xlink:title=" ">
<polygon fill="none" stroke="black" points="675,-22.5 675,-134.5 788,-134.5 788,-22.5 675,-22.5"/>
<text text-anchor="middle" x="731.5" y="-122.5" font-family="Helvetica,sans-Serif" font-size="10.00">OpacityPeelingShader</text>
<polyline fill="none" stroke="black" points="675,-115.5 788,-115.5 "/>
<text text-anchor="start" x="683" y="-103.5" font-family="Helvetica,sans-Serif" font-size="10.00">+ shaderfParams</text>
<polyline fill="none" stroke="black" points="675,-96.5 788,-96.5 "/>
<text text-anchor="start" x="683" y="-84.5" font-family="Helvetica,sans-Serif" font-size="10.00">+ __init__()</text>
<text text-anchor="start" x="683" y="-73.5" font-family="Helvetica,sans-Serif" font-size="10.00">+ GetDisplayName()</text>
<text text-anchor="start" x="683" y="-62.5" font-family="Helvetica,sans-Serif" font-size="10.00">+ setupShader()</text>
<text text-anchor="start" x="683" y="-51.5" font-family="Helvetica,sans-Serif" font-size="10.00">+ __init__()</text>
<text text-anchor="start" x="683" y="-40.5" font-family="Helvetica,sans-Serif" font-size="10.00">+ GetDisplayName()</text>
<text text-anchor="start" x="683" y="-29.5" font-family="Helvetica,sans-Serif" font-size="10.00">+ setupShader()</text>
</a>
</g>
</g>
<!-- Node1&#45;&gt;Node7 -->
<g id="edge6" class="edge"><title>Node1&#45;&gt;Node7</title>
<path fill="none" stroke="midnightblue" d="M681.035,-199.106C690.894,-175.74 700.315,-153.411 708.291,-134.508"/>
<polygon fill="none" stroke="midnightblue" points="677.751,-197.887 677.088,-208.461 684.2,-200.608 677.751,-197.887"/>
</g>
<!-- Node8 -->
<g id="node8" class="node"><title>Node8</title>
<g id="a_node8"><a xlink:href="$class_custom_shader_1_1_outline_shader.html" xlink:title=" ">
<polygon fill="none" stroke="black" points="806,-22.5 806,-134.5 911,-134.5 911,-22.5 806,-22.5"/>
<text text-anchor="middle" x="858.5" y="-122.5" font-family="Helvetica,sans-Serif" font-size="10.00">OutlineShader</text>
<polyline fill="none" stroke="black" points="806,-115.5 911,-115.5 "/>
<text text-anchor="middle" x="858.5" y="-103.5" font-family="Helvetica,sans-Serif" font-size="10.00"> </text>
<polyline fill="none" stroke="black" points="806,-96.5 911,-96.5 "/>
<text text-anchor="start" x="814" y="-84.5" font-family="Helvetica,sans-Serif" font-size="10.00">+ __init__()</text>
<text text-anchor="start" x="814" y="-73.5" font-family="Helvetica,sans-Serif" font-size="10.00">+ GetDisplayName()</text>
<text text-anchor="start" x="814" y="-62.5" font-family="Helvetica,sans-Serif" font-size="10.00">+ setupShader()</text>
<text text-anchor="start" x="814" y="-51.5" font-family="Helvetica,sans-Serif" font-size="10.00">+ __init__()</text>
<text text-anchor="start" x="814" y="-40.5" font-family="Helvetica,sans-Serif" font-size="10.00">+ GetDisplayName()</text>
<text text-anchor="start" x="814" y="-29.5" font-family="Helvetica,sans-Serif" font-size="10.00">+ setupShader()</text>
</a>
</g>
</g>
<!-- Node1&#45;&gt;Node8 -->
<g id="edge7" class="edge"><title>Node1&#45;&gt;Node8</title>
<path fill="none" stroke="midnightblue" d="M683.855,-290.496C719.092,-250.048 760.807,-201.498 797.5,-157 803.382,-149.866 809.497,-142.294 815.485,-134.785"/>
<polygon fill="none" stroke="midnightblue" points="681.06,-288.375 677.126,-298.212 686.336,-292.976 681.06,-288.375"/>
</g>
<!-- Node9 -->
<g id="node9" class="node"><title>Node9</title>
<g id="a_node9"><a xlink:href="$class_custom_shader_1_1_plane_intersecting_shader.html" xlink:title=" ">
<polygon fill="none" stroke="black" points="929.5,-0.5 929.5,-156.5 1051.5,-156.5 1051.5,-0.5 929.5,-0.5"/>
<text text-anchor="middle" x="990.5" y="-144.5" font-family="Helvetica,sans-Serif" font-size="10.00">PlaneIntersectingShader</text>
<polyline fill="none" stroke="black" points="929.5,-137.5 1051.5,-137.5 "/>
<text text-anchor="start" x="937.5" y="-125.5" font-family="Helvetica,sans-Serif" font-size="10.00">+ entry</text>
<text text-anchor="start" x="937.5" y="-114.5" font-family="Helvetica,sans-Serif" font-size="10.00">+ target</text>
<text text-anchor="start" x="937.5" y="-103.5" font-family="Helvetica,sans-Serif" font-size="10.00">+ shaderfParams</text>
<polyline fill="none" stroke="black" points="929.5,-96.5 1051.5,-96.5 "/>
<text text-anchor="start" x="937.5" y="-84.5" font-family="Helvetica,sans-Serif" font-size="10.00">+ __init__()</text>
<text text-anchor="start" x="937.5" y="-73.5" font-family="Helvetica,sans-Serif" font-size="10.00">+ GetDisplayName()</text>
<text text-anchor="start" x="937.5" y="-62.5" font-family="Helvetica,sans-Serif" font-size="10.00">+ setupShader()</text>
<text text-anchor="start" x="937.5" y="-51.5" font-family="Helvetica,sans-Serif" font-size="10.00">+ setPathEnds()</text>
<text text-anchor="start" x="937.5" y="-40.5" font-family="Helvetica,sans-Serif" font-size="10.00">+ __init__()</text>
<text text-anchor="start" x="937.5" y="-29.5" font-family="Helvetica,sans-Serif" font-size="10.00">+ GetDisplayName()</text>
<text text-anchor="start" x="937.5" y="-18.5" font-family="Helvetica,sans-Serif" font-size="10.00">+ setupShader()</text>
<text text-anchor="start" x="937.5" y="-7.5" font-family="Helvetica,sans-Serif" font-size="10.00">+ setPathEnds()</text>
</a>
</g>
</g>
<!-- Node1&#45;&gt;Node9 -->
<g id="edge8" class="edge"><title>Node1&#45;&gt;Node9</title>
<path fill="none" stroke="midnightblue" d="M685.922,-330.063C751.998,-287.489 846.07,-223.061 920.5,-157 923.483,-154.352 926.471,-151.587 929.44,-148.745"/>
<polygon fill="none" stroke="midnightblue" points="683.721,-327.317 677.195,-335.664 687.501,-333.208 683.721,-327.317"/>
</g>
<!-- Node10 -->
<g id="node10" class="node"><title>Node10</title>
<g id="a_node10"><a xlink:href="$class_custom_shader_1_1_sphere_carving_shader.html" xlink:title=" ">
<polygon fill="none" stroke="black" points="1069.5,-6 1069.5,-151 1179.5,-151 1179.5,-6 1069.5,-6"/>
<text text-anchor="middle" x="1124.5" y="-139" font-family="Helvetica,sans-Serif" font-size="10.00">SphereCarvingShader</text>
<polyline fill="none" stroke="black" points="1069.5,-132 1179.5,-132 "/>
<text text-anchor="start" x="1077.5" y="-120" font-family="Helvetica,sans-Serif" font-size="10.00">+ center</text>
<text text-anchor="start" x="1077.5" y="-109" font-family="Helvetica,sans-Serif" font-size="10.00">+ shaderfParams</text>
<polyline fill="none" stroke="black" points="1069.5,-102 1179.5,-102 "/>
<text text-anchor="start" x="1077.5" y="-90" font-family="Helvetica,sans-Serif" font-size="10.00">+ __init__()</text>
<text text-anchor="start" x="1077.5" y="-79" font-family="Helvetica,sans-Serif" font-size="10.00">+ GetDisplayName()</text>
<text text-anchor="start" x="1077.5" y="-68" font-family="Helvetica,sans-Serif" font-size="10.00">+ setupShader()</text>
<text text-anchor="start" x="1077.5" y="-57" font-family="Helvetica,sans-Serif" font-size="10.00">+ setPathEnds()</text>
<text text-anchor="start" x="1077.5" y="-46" font-family="Helvetica,sans-Serif" font-size="10.00">+ __init__()</text>
<text text-anchor="start" x="1077.5" y="-35" font-family="Helvetica,sans-Serif" font-size="10.00">+ GetDisplayName()</text>
<text text-anchor="start" x="1077.5" y="-24" font-family="Helvetica,sans-Serif" font-size="10.00">+ setupShader()</text>
<text text-anchor="start" x="1077.5" y="-13" font-family="Helvetica,sans-Serif" font-size="10.00">+ setPathEnds()</text>
</a>
</g>
</g>
<!-- Node1&#45;&gt;Node10 -->
<g id="edge9" class="edge"><title>Node1&#45;&gt;Node10</title>
<path fill="none" stroke="midnightblue" d="M686.677,-352.403C782.836,-316.906 943.742,-249.145 1060.5,-157 1063.51,-154.622 1066.48,-152.08 1069.39,-149.42"/>
<polygon fill="none" stroke="midnightblue" points="685.189,-349.22 677.003,-355.946 687.597,-355.793 685.189,-349.22"/>
</g>
</g>
</svg>
