<?xml version="1.0" encoding="UTF-8" standalone="no"?>
<!DOCTYPE svg PUBLIC "-//W3C//DTD SVG 1.1//EN"
 "http://www.w3.org/Graphics/SVG/1.1/DTD/svg11.dtd">
<!-- Generated by graphviz version 2.38.0 (20140413.2041)
 -->
<!-- Title: PlaneIntersectingShader Pages: 1 -->
<svg width="263pt" height="618pt"
 viewBox="0.00 0.00 262.50 618.00" xmlns="http://www.w3.org/2000/svg" xmlns:xlink="http://www.w3.org/1999/xlink">
<g id="graph0" class="graph" transform="scale(1 1) rotate(0) translate(4 614)">
<title>PlaneIntersectingShader</title>
<!-- Node1 -->
<g id="node1" class="node"><title>Node1</title>
<g id="a_node1"><a xlink:title=" ">
<polygon fill="#bfbfbf" stroke="black" points="0,-0.5 0,-79.5 122,-79.5 122,-0.5 0,-0.5"/>
<text text-anchor="middle" x="61" y="-67.5" font-family="Helvetica,sans-Serif" font-size="10.00">PlaneIntersectingShader</text>
<polyline fill="none" stroke="black" points="0,-60.5 122,-60.5 "/>
<text text-anchor="middle" x="61" y="-48.5" font-family="Helvetica,sans-Serif" font-size="10.00"> </text>
<polyline fill="none" stroke="black" points="0,-41.5 122,-41.5 "/>
<text text-anchor="start" x="8" y="-29.5" font-family="Helvetica,sans-Serif" font-size="10.00">+ __init__()</text>
<text text-anchor="start" x="8" y="-18.5" font-family="Helvetica,sans-Serif" font-size="10.00">+ GetDisplayName()</text>
<text text-anchor="start" x="8" y="-7.5" font-family="Helvetica,sans-Serif" font-size="10.00">+ setupShader()</text>
</a>
</g>
</g>
<!-- Node2 -->
<g id="node2" class="node"><title>Node2</title>
<g id="a_node2"><a xlink:href="$class_slicer_p_r_i_s_m_1_1_resources_1_1_custom_shader_1_1_custom_shader.html" xlink:title=" ">
<polygon fill="none" stroke="black" points="109.5,-117.5 109.5,-438.5 254.5,-438.5 254.5,-117.5 109.5,-117.5"/>
<text text-anchor="middle" x="182" y="-426.5" font-family="Helvetica,sans-Serif" font-size="10.00">CustomShader</text>
<polyline fill="none" stroke="black" points="109.5,-419.5 254.5,-419.5 "/>
<text text-anchor="start" x="117.5" y="-407.5" font-family="Helvetica,sans-Serif" font-size="10.00">+ shaderPropertyNode</text>
<text text-anchor="start" x="117.5" y="-396.5" font-family="Helvetica,sans-Serif" font-size="10.00">+ shaderProperty</text>
<text text-anchor="start" x="117.5" y="-385.5" font-family="Helvetica,sans-Serif" font-size="10.00">+ shaderUniforms</text>
<text text-anchor="start" x="117.5" y="-374.5" font-family="Helvetica,sans-Serif" font-size="10.00">+ paramfValues</text>
<text text-anchor="start" x="117.5" y="-363.5" font-family="Helvetica,sans-Serif" font-size="10.00">+ paramiValues</text>
<text text-anchor="start" x="117.5" y="-352.5" font-family="Helvetica,sans-Serif" font-size="10.00">+ param4fValues</text>
<text text-anchor="start" x="117.5" y="-341.5" font-family="Helvetica,sans-Serif" font-size="10.00">+ parambValues</text>
<text text-anchor="start" x="117.5" y="-330.5" font-family="Helvetica,sans-Serif" font-size="10.00">+ paramrValues</text>
<text text-anchor="start" x="117.5" y="-319.5" font-family="Helvetica,sans-Serif" font-size="10.00">+ paramtfValues</text>
<text text-anchor="start" x="117.5" y="-308.5" font-family="Helvetica,sans-Serif" font-size="10.00">+ paramvValues</text>
<text text-anchor="start" x="117.5" y="-297.5" font-family="Helvetica,sans-Serif" font-size="10.00">+ allClasses</text>
<polyline fill="none" stroke="black" points="109.5,-290.5 254.5,-290.5 "/>
<text text-anchor="start" x="117.5" y="-278.5" font-family="Helvetica,sans-Serif" font-size="10.00">+ __init__()</text>
<text text-anchor="start" x="117.5" y="-267.5" font-family="Helvetica,sans-Serif" font-size="10.00">+ InstanciateCustomShader()</text>
<text text-anchor="start" x="117.5" y="-256.5" font-family="Helvetica,sans-Serif" font-size="10.00">+ GetAllShaderClassNames()</text>
<text text-anchor="start" x="117.5" y="-245.5" font-family="Helvetica,sans-Serif" font-size="10.00">+ GetDisplayName()</text>
<text text-anchor="start" x="117.5" y="-234.5" font-family="Helvetica,sans-Serif" font-size="10.00">+ GetClassName()</text>
<text text-anchor="start" x="117.5" y="-223.5" font-family="Helvetica,sans-Serif" font-size="10.00">+ GetClass()</text>
<text text-anchor="start" x="117.5" y="-212.5" font-family="Helvetica,sans-Serif" font-size="10.00">+ hasShaderParameter()</text>
<text text-anchor="start" x="117.5" y="-201.5" font-family="Helvetica,sans-Serif" font-size="10.00">+ getParameterNames()</text>
<text text-anchor="start" x="117.5" y="-190.5" font-family="Helvetica,sans-Serif" font-size="10.00">+ getShaderPropertyNode()</text>
<text text-anchor="start" x="117.5" y="-179.5" font-family="Helvetica,sans-Serif" font-size="10.00">+ setupShader()</text>
<text text-anchor="start" x="117.5" y="-168.5" font-family="Helvetica,sans-Serif" font-size="10.00">+ setPathEnds()</text>
<text text-anchor="start" x="117.5" y="-157.5" font-family="Helvetica,sans-Serif" font-size="10.00">+ setAllUniforms()</text>
<text text-anchor="start" x="117.5" y="-146.5" font-family="Helvetica,sans-Serif" font-size="10.00">+ setShaderParameter()</text>
<text text-anchor="start" x="117.5" y="-135.5" font-family="Helvetica,sans-Serif" font-size="10.00">+ getShaderParameter()</text>
<text text-anchor="start" x="117.5" y="-124.5" font-family="Helvetica,sans-Serif" font-size="10.00">+ clear()</text>
</a>
</g>
</g>
<!-- Node2&#45;&gt;Node1 -->
<g id="edge1" class="edge"><title>Node2&#45;&gt;Node1</title>
<path fill="none" stroke="midnightblue" d="M104.733,-126.297C95.9945,-109.254 87.763,-93.1989 80.8494,-79.7146"/>
<polygon fill="none" stroke="midnightblue" points="101.667,-127.989 109.344,-135.291 107.896,-124.795 101.667,-127.989"/>
</g>
<!-- Node3 -->
<g id="node3" class="node"><title>Node3</title>
<g id="a_node3"><a xlink:title=" ">
<polygon fill="none" stroke="#bfbfbf" points="33.5,-552.5 33.5,-609.5 92.5,-609.5 92.5,-552.5 33.5,-552.5"/>
<text text-anchor="middle" x="63" y="-597.5" font-family="Helvetica,sans-Serif" font-size="10.00">dictionary</text>
<polyline fill="none" stroke="#bfbfbf" points="33.5,-590.5 92.5,-590.5 "/>
<text text-anchor="middle" x="63" y="-578.5" font-family="Helvetica,sans-Serif" font-size="10.00"> </text>
<polyline fill="none" stroke="#bfbfbf" points="33.5,-571.5 92.5,-571.5 "/>
<text text-anchor="middle" x="63" y="-559.5" font-family="Helvetica,sans-Serif" font-size="10.00"> </text>
</a>
</g>
</g>
<!-- Node3&#45;&gt;Node1 -->
<g id="edge3" class="edge"><title>Node3&#45;&gt;Node1</title>
<path fill="none" stroke="#404040" d="M52.7101,-552.398C42.8318,-524.321 28.609,-479.324 23,-439 3.28315,-297.254 -9.8802,-256.283 23,-117 25.0974,-108.115 28.4012,-99.0851 32.2057,-90.4989"/>
<polygon fill="none" stroke="#404040" points="32.2762,-90.3508 31.2448,-83.2138 37.4361,-79.5167 38.4675,-86.6537 32.2762,-90.3508"/>
<text text-anchor="middle" x="62" y="-286.5" font-family="Helvetica,sans-Serif" font-size="10.00"> +shaderbParams</text>
<text text-anchor="middle" x="62" y="-275.5" font-family="Helvetica,sans-Serif" font-size="10.00">+shaderfParams</text>
<text text-anchor="middle" x="62" y="-264.5" font-family="Helvetica,sans-Serif" font-size="10.00">+shader4fParams</text>
</g>
<!-- Node3&#45;&gt;Node2 -->
<g id="edge2" class="edge"><title>Node3&#45;&gt;Node2</title>
<path fill="none" stroke="#404040" d="M73.8759,-552.49C83.5521,-528.015 98.5847,-489.992 114.395,-450"/>
<polygon fill="none" stroke="#404040" points="114.46,-449.838 112.946,-442.787 118.871,-438.678 120.385,-445.728 114.46,-449.838"/>
<text text-anchor="middle" x="147" y="-526" font-family="Helvetica,sans-Serif" font-size="10.00"> +shaderbParams</text>
<text text-anchor="middle" x="147" y="-515" font-family="Helvetica,sans-Serif" font-size="10.00">+shadervParams</text>
<text text-anchor="middle" x="147" y="-504" font-family="Helvetica,sans-Serif" font-size="10.00">+shaderfParams</text>
<text text-anchor="middle" x="147" y="-493" font-family="Helvetica,sans-Serif" font-size="10.00">+shadertfParams</text>
<text text-anchor="middle" x="147" y="-482" font-family="Helvetica,sans-Serif" font-size="10.00">+shaderiParams</text>
<text text-anchor="middle" x="147" y="-471" font-family="Helvetica,sans-Serif" font-size="10.00">+shader4fParams</text>
<text text-anchor="middle" x="147" y="-460" font-family="Helvetica,sans-Serif" font-size="10.00">+shaderrParams</text>
</g>
</g>
</svg>
