<?xml version="1.0" encoding="UTF-8" standalone="no"?>
<!DOCTYPE svg PUBLIC "-//W3C//DTD SVG 1.1//EN"
 "http://www.w3.org/Graphics/SVG/1.1/DTD/svg11.dtd">
<!-- Generated by graphviz version 2.38.0 (20140413.2041)
 -->
<!-- Title: setAllUniforms Pages: 1 -->
<svg width="306pt" height="100pt"
 viewBox="0.00 0.00 306.00 99.50" xmlns="http://www.w3.org/2000/svg" xmlns:xlink="http://www.w3.org/1999/xlink">
<g id="graph0" class="graph" transform="scale(1 1) rotate(0) translate(4 95.5)">
<title>setAllUniforms</title>
<!-- Node1 -->
<g id="node1" class="node"><title>Node1</title>
<g id="a_node1"><a xlink:title=" ">
<polygon fill="#bfbfbf" stroke="black" points="218,-33 218,-52 298,-52 298,-33 218,-33"/>
<text text-anchor="middle" x="258" y="-40" font-family="Helvetica,sans-Serif" font-size="10.00">setAllUniforms</text>
</a>
</g>
</g>
<!-- Node2 -->
<g id="node2" class="node"><title>Node2</title>
<g id="a_node2"><a xlink:href="$class_slicer_p_r_i_s_m_1_1_resources_1_1_shaders_1_1_opacity_peeling_shader_1_1_opacity_peeling_shader.html#a37f880c0658348e292fe8afa847c0163" xlink:title="Function to setup the shader.">
<polygon fill="none" stroke="black" points="0,-50 0,-91 182,-91 182,-50 0,-50"/>
<text text-anchor="start" x="8" y="-79" font-family="Helvetica,sans-Serif" font-size="10.00">SlicerPRISM.Resources.Shaders.</text>
<text text-anchor="start" x="8" y="-68" font-family="Helvetica,sans-Serif" font-size="10.00">OpacityPeelingShader.OpacityPeeling</text>
<text text-anchor="middle" x="91" y="-57" font-family="Helvetica,sans-Serif" font-size="10.00">Shader.setupShader</text>
</a>
</g>
</g>
<!-- Node1&#45;&gt;Node2 -->
<g id="edge1" class="edge"><title>Node1&#45;&gt;Node2</title>
<path fill="none" stroke="midnightblue" d="M207.881,-50.8354C199.728,-52.2188 191.053,-53.6911 182.258,-55.1835"/>
<polygon fill="midnightblue" stroke="midnightblue" points="208.624,-54.2594 217.897,-49.1356 207.453,-47.3581 208.624,-54.2594"/>
</g>
<!-- Node3 -->
<g id="node3" class="node"><title>Node3</title>
<g id="a_node3"><a xlink:href="$class_slicer_p_r_i_s_m_1_1_resources_1_1_custom_shader_1_1_custom_shader.html#a37f880c0658348e292fe8afa847c0163" xlink:title="Function to setup the shader.">
<polygon fill="none" stroke="black" points="4.5,-0.5 4.5,-30.5 177.5,-30.5 177.5,-0.5 4.5,-0.5"/>
<text text-anchor="start" x="12.5" y="-18.5" font-family="Helvetica,sans-Serif" font-size="10.00">SlicerPRISM.Resources.Custom</text>
<text text-anchor="middle" x="91" y="-7.5" font-family="Helvetica,sans-Serif" font-size="10.00">Shader.CustomShader.setupShader</text>
</a>
</g>
</g>
<!-- Node1&#45;&gt;Node3 -->
<g id="edge2" class="edge"><title>Node1&#45;&gt;Node3</title>
<path fill="none" stroke="midnightblue" d="M207.833,-34.4545C198.27,-32.8897 187.989,-31.2073 177.641,-29.514"/>
<polygon fill="midnightblue" stroke="midnightblue" points="207.463,-37.9405 217.897,-36.1014 208.594,-31.0323 207.463,-37.9405"/>
</g>
</g>
</svg>
