<?xml version="1.0" encoding="UTF-8" standalone="no"?>
<!DOCTYPE svg PUBLIC "-//W3C//DTD SVG 1.1//EN"
 "http://www.w3.org/Graphics/SVG/1.1/DTD/svg11.dtd">
<!-- Generated by graphviz version 2.38.0 (20140413.2041)
 -->
<!-- Title: Graphical Class Hierarchy Pages: 1 -->
<svg width="247pt" height="218pt"
 viewBox="0.00 0.00 247.00 218.00" xmlns="http://www.w3.org/2000/svg" xmlns:xlink="http://www.w3.org/1999/xlink">
<g id="graph0" class="graph" transform="scale(1 1) rotate(0) translate(4 214)">
<title>Graphical Class Hierarchy</title>
<!-- Node0 -->
<g id="node1" class="node"><title>Node0</title>
<g id="a_node1"><a xlink:href="class_slicer_p_r_i_s_m_1_1_resources_1_1_custom_shader_1_1_custom_shader.html" target="_top" xlink:title=" ">
<polygon fill="none" stroke="black" points="0,-95.5 0,-114.5 81,-114.5 81,-95.5 0,-95.5"/>
<text text-anchor="middle" x="40.5" y="-102.5" font-family="Helvetica,sans-Serif" font-size="10.00">CustomShader</text>
</a>
</g>
</g>
<!-- Node1 -->
<g id="node2" class="node"><title>Node1</title>
<g id="a_node2"><a xlink:href="class_slicer_p_r_i_s_m_1_1_resources_1_1_shaders_1_1_chroma_depth_shader_1_1_chroma_depth_shader.html" target="_top" xlink:title=" ">
<polygon fill="none" stroke="black" points="124.5,-190.5 124.5,-209.5 231.5,-209.5 231.5,-190.5 124.5,-190.5"/>
<text text-anchor="middle" x="178" y="-197.5" font-family="Helvetica,sans-Serif" font-size="10.00">ChromaDepthShader</text>
</a>
</g>
</g>
<!-- Node0&#45;&gt;Node1 -->
<g id="edge1" class="edge"><title>Node0&#45;&gt;Node1</title>
<path fill="none" stroke="midnightblue" d="M54.8674,-122.755C68.6733,-139.935 91.7154,-165.578 117,-181 123.25,-184.812 130.338,-187.93 137.398,-190.456"/>
<polygon fill="midnightblue" stroke="midnightblue" points="57.442,-120.365 48.5268,-114.64 51.9263,-124.675 57.442,-120.365"/>
</g>
<!-- Node2 -->
<g id="node3" class="node"><title>Node2</title>
<g id="a_node3"><a xlink:href="class_slicer_p_r_i_s_m_1_1_resources_1_1_shaders_1_1_decluttering_1_1_decluttering.html" target="_top" xlink:title=" ">
<polygon fill="none" stroke="black" points="144,-152.5 144,-171.5 212,-171.5 212,-152.5 144,-152.5"/>
<text text-anchor="middle" x="178" y="-159.5" font-family="Helvetica,sans-Serif" font-size="10.00">Decluttering</text>
</a>
</g>
</g>
<!-- Node0&#45;&gt;Node2 -->
<g id="edge2" class="edge"><title>Node0&#45;&gt;Node2</title>
<path fill="none" stroke="midnightblue" d="M67.3382,-119.294C81.7033,-126.91 100.053,-136.103 117,-143 125.602,-146.501 135.107,-149.771 143.966,-152.579"/>
<polygon fill="midnightblue" stroke="midnightblue" points="68.9933,-116.21 58.5283,-114.556 65.678,-122.375 68.9933,-116.21"/>
</g>
<!-- Node3 -->
<g id="node4" class="node"><title>Node3</title>
<g id="a_node4"><a xlink:href="class_slicer_p_r_i_s_m_1_1_resources_1_1_shaders_1_1_opacity_peeling_shader_1_1_opacity_peeling_shader.html" target="_top" xlink:title=" ">
<polygon fill="none" stroke="black" points="121.5,-114.5 121.5,-133.5 234.5,-133.5 234.5,-114.5 121.5,-114.5"/>
<text text-anchor="middle" x="178" y="-121.5" font-family="Helvetica,sans-Serif" font-size="10.00">OpacityPeelingShader</text>
</a>
</g>
</g>
<!-- Node0&#45;&gt;Node3 -->
<g id="edge3" class="edge"><title>Node0&#45;&gt;Node3</title>
<path fill="none" stroke="midnightblue" d="M91.0598,-111.949C100.887,-113.327 111.266,-114.783 121.283,-116.187"/>
<polygon fill="midnightblue" stroke="midnightblue" points="91.4456,-108.469 81.0565,-110.547 90.4735,-115.401 91.4456,-108.469"/>
</g>
<!-- Node4 -->
<g id="node5" class="node"><title>Node4</title>
<g id="a_node5"><a xlink:href="class_slicer_p_r_i_s_m_1_1_resources_1_1_shaders_1_1_outline_shader_1_1_outline_shader.html" target="_top" xlink:title=" ">
<polygon fill="none" stroke="black" points="139,-76.5 139,-95.5 217,-95.5 217,-76.5 139,-76.5"/>
<text text-anchor="middle" x="178" y="-83.5" font-family="Helvetica,sans-Serif" font-size="10.00">OutlineShader</text>
</a>
</g>
</g>
<!-- Node0&#45;&gt;Node4 -->
<g id="edge4" class="edge"><title>Node0&#45;&gt;Node4</title>
<path fill="none" stroke="midnightblue" d="M91.1042,-98.0444C106.759,-95.8493 123.809,-93.4585 138.562,-91.3898"/>
<polygon fill="midnightblue" stroke="midnightblue" points="90.4735,-94.5985 81.0565,-99.4533 91.4456,-101.531 90.4735,-94.5985"/>
</g>
<!-- Node5 -->
<g id="node6" class="node"><title>Node5</title>
<g id="a_node6"><a xlink:href="class_slicer_p_r_i_s_m_1_1_resources_1_1_shaders_1_1_plane_intersecting_shader_1_1_plane_intersecting_shader.html" target="_top" xlink:title=" ">
<polygon fill="none" stroke="black" points="117,-38.5 117,-57.5 239,-57.5 239,-38.5 117,-38.5"/>
<text text-anchor="middle" x="178" y="-45.5" font-family="Helvetica,sans-Serif" font-size="10.00">PlaneIntersectingShader</text>
</a>
</g>
</g>
<!-- Node0&#45;&gt;Node5 -->
<g id="edge5" class="edge"><title>Node0&#45;&gt;Node5</title>
<path fill="none" stroke="midnightblue" d="M67.3382,-90.7064C81.7033,-83.0899 100.053,-73.8968 117,-67 125.501,-63.5404 134.884,-60.3055 143.653,-57.5203"/>
<polygon fill="midnightblue" stroke="midnightblue" points="65.678,-87.6251 58.5283,-95.4438 68.9933,-93.7902 65.678,-87.6251"/>
</g>
<!-- Node6 -->
<g id="node7" class="node"><title>Node6</title>
<g id="a_node7"><a xlink:href="class_slicer_p_r_i_s_m_1_1_resources_1_1_shaders_1_1_sphere_carving_shader_1_1_sphere_carving_shader.html" target="_top" xlink:title=" ">
<polygon fill="none" stroke="black" points="123,-0.5 123,-19.5 233,-19.5 233,-0.5 123,-0.5"/>
<text text-anchor="middle" x="178" y="-7.5" font-family="Helvetica,sans-Serif" font-size="10.00">SphereCarvingShader</text>
</a>
</g>
</g>
<!-- Node0&#45;&gt;Node6 -->
<g id="edge6" class="edge"><title>Node0&#45;&gt;Node6</title>
<path fill="none" stroke="midnightblue" d="M54.8674,-87.2455C68.6733,-70.0646 91.7154,-44.4218 117,-29 123.25,-25.188 130.338,-22.0699 137.398,-19.5436"/>
<polygon fill="midnightblue" stroke="midnightblue" points="51.9263,-85.325 48.5268,-95.3596 57.442,-89.6351 51.9263,-85.325"/>
</g>
</g>
</svg>
