<?xml version="1.0" encoding="UTF-8" standalone="no"?>
<!DOCTYPE svg PUBLIC "-//W3C//DTD SVG 1.1//EN"
 "http://www.w3.org/Graphics/SVG/1.1/DTD/svg11.dtd">
<!-- Generated by graphviz version 2.38.0 (20140413.2041)
 -->
<!-- Title: Graphical Class Hierarchy Pages: 1 -->
<svg width="247pt" height="256pt"
 viewBox="0.00 0.00 247.00 256.00" xmlns="http://www.w3.org/2000/svg" xmlns:xlink="http://www.w3.org/1999/xlink">
<g id="graph0" class="graph" transform="scale(1 1) rotate(0) translate(4 252)">
<title>Graphical Class Hierarchy</title>
<!-- Node0 -->
<g id="node1" class="node"><title>Node0</title>
<g id="a_node1"><a xlink:href="class_slicer_p_r_i_s_m_1_1_resources_1_1_custom_shader_1_1_custom_shader.html" target="_top" xlink:title=" ">
<polygon fill="none" stroke="black" points="0,-114.5 0,-133.5 81,-133.5 81,-114.5 0,-114.5"/>
<text text-anchor="middle" x="40.5" y="-121.5" font-family="Helvetica,sans-Serif" font-size="10.00">CustomShader</text>
</a>
</g>
</g>
<!-- Node1 -->
<g id="node2" class="node"><title>Node1</title>
<g id="a_node2"><a xlink:href="class_slicer_p_r_i_s_m_1_1_resources_1_1_shaders_1_1_chroma_depth_shader_1_1_chroma_depth_shader.html" target="_top" xlink:title=" ">
<polygon fill="none" stroke="black" points="124.5,-228.5 124.5,-247.5 231.5,-247.5 231.5,-228.5 124.5,-228.5"/>
<text text-anchor="middle" x="178" y="-235.5" font-family="Helvetica,sans-Serif" font-size="10.00">ChromaDepthShader</text>
</a>
</g>
</g>
<!-- Node0&#45;&gt;Node1 -->
<g id="edge1" class="edge"><title>Node0&#45;&gt;Node1</title>
<path fill="none" stroke="midnightblue" d="M51.5493,-142.424C64.1365,-163.833 87.6573,-198.797 117,-219 122.58,-222.842 128.976,-225.937 135.466,-228.422"/>
<polygon fill="midnightblue" stroke="midnightblue" points="54.5408,-140.604 46.5538,-133.643 48.4565,-144.066 54.5408,-140.604"/>
</g>
<!-- Node2 -->
<g id="node3" class="node"><title>Node2</title>
<g id="a_node3"><a xlink:href="class_slicer_p_r_i_s_m_1_1_resources_1_1_shaders_1_1_decluttering_1_1_decluttering.html" target="_top" xlink:title=" ">
<polygon fill="none" stroke="black" points="144,-190.5 144,-209.5 212,-209.5 212,-190.5 144,-190.5"/>
<text text-anchor="middle" x="178" y="-197.5" font-family="Helvetica,sans-Serif" font-size="10.00">Decluttering</text>
</a>
</g>
</g>
<!-- Node0&#45;&gt;Node2 -->
<g id="edge2" class="edge"><title>Node0&#45;&gt;Node2</title>
<path fill="none" stroke="midnightblue" d="M59.7029,-140.575C74.2952,-153.133 95.7742,-170.039 117,-181 125.349,-185.311 134.86,-188.87 143.81,-191.696"/>
<polygon fill="midnightblue" stroke="midnightblue" points="61.7802,-137.741 51.9609,-133.762 57.1557,-142.996 61.7802,-137.741"/>
</g>
<!-- Node3 -->
<g id="node4" class="node"><title>Node3</title>
<g id="a_node4"><a xlink:href="class_slicer_p_r_i_s_m_1_1_resources_1_1_shaders_1_1_decluttering_shader_1_1_decluttering_shader.html" target="_top" xlink:title=" ">
<polygon fill="none" stroke="black" points="128.5,-152.5 128.5,-171.5 227.5,-171.5 227.5,-152.5 128.5,-152.5"/>
<text text-anchor="middle" x="178" y="-159.5" font-family="Helvetica,sans-Serif" font-size="10.00">DeclutteringShader</text>
</a>
</g>
</g>
<!-- Node0&#45;&gt;Node3 -->
<g id="edge3" class="edge"><title>Node0&#45;&gt;Node3</title>
<path fill="none" stroke="midnightblue" d="M85.4246,-136.318C104.041,-141.539 125.409,-147.532 142.819,-152.414"/>
<polygon fill="midnightblue" stroke="midnightblue" points="86.266,-132.919 75.6924,-133.589 84.3758,-139.659 86.266,-132.919"/>
</g>
<!-- Node4 -->
<g id="node5" class="node"><title>Node4</title>
<g id="a_node5"><a xlink:href="class_slicer_p_r_i_s_m_1_1_resources_1_1_shaders_1_1_opacity_peeling_shader_1_1_opacity_peeling_shader.html" target="_top" xlink:title=" ">
<polygon fill="none" stroke="black" points="121.5,-114.5 121.5,-133.5 234.5,-133.5 234.5,-114.5 121.5,-114.5"/>
<text text-anchor="middle" x="178" y="-121.5" font-family="Helvetica,sans-Serif" font-size="10.00">OpacityPeelingShader</text>
</a>
</g>
</g>
<!-- Node0&#45;&gt;Node4 -->
<g id="edge4" class="edge"><title>Node0&#45;&gt;Node4</title>
<path fill="none" stroke="midnightblue" d="M91.0598,-124C100.887,-124 111.266,-124 121.283,-124"/>
<polygon fill="midnightblue" stroke="midnightblue" points="91.0565,-120.5 81.0565,-124 91.0564,-127.5 91.0565,-120.5"/>
</g>
<!-- Node5 -->
<g id="node6" class="node"><title>Node5</title>
<g id="a_node6"><a xlink:href="class_slicer_p_r_i_s_m_1_1_resources_1_1_shaders_1_1_outline_shader_1_1_outline_shader.html" target="_top" xlink:title=" ">
<polygon fill="none" stroke="black" points="139,-76.5 139,-95.5 217,-95.5 217,-76.5 139,-76.5"/>
<text text-anchor="middle" x="178" y="-83.5" font-family="Helvetica,sans-Serif" font-size="10.00">OutlineShader</text>
</a>
</g>
</g>
<!-- Node0&#45;&gt;Node5 -->
<g id="edge5" class="edge"><title>Node0&#45;&gt;Node5</title>
<path fill="none" stroke="midnightblue" d="M85.4246,-111.682C104.041,-106.461 125.409,-100.468 142.819,-95.5859"/>
<polygon fill="midnightblue" stroke="midnightblue" points="84.3758,-108.341 75.6924,-114.411 86.266,-115.081 84.3758,-108.341"/>
</g>
<!-- Node6 -->
<g id="node7" class="node"><title>Node6</title>
<g id="a_node7"><a xlink:href="class_slicer_p_r_i_s_m_1_1_resources_1_1_shaders_1_1_plane_intersecting_shader_1_1_plane_intersecting_shader.html" target="_top" xlink:title=" ">
<polygon fill="none" stroke="black" points="117,-38.5 117,-57.5 239,-57.5 239,-38.5 117,-38.5"/>
<text text-anchor="middle" x="178" y="-45.5" font-family="Helvetica,sans-Serif" font-size="10.00">PlaneIntersectingShader</text>
</a>
</g>
</g>
<!-- Node0&#45;&gt;Node6 -->
<g id="edge6" class="edge"><title>Node0&#45;&gt;Node6</title>
<path fill="none" stroke="midnightblue" d="M59.7029,-107.425C74.2952,-94.8673 95.7742,-77.9608 117,-67 124.184,-63.2901 132.229,-60.1374 140.035,-57.5298"/>
<polygon fill="midnightblue" stroke="midnightblue" points="57.1557,-105.004 51.9609,-114.238 61.7802,-110.259 57.1557,-105.004"/>
</g>
<!-- Node7 -->
<g id="node8" class="node"><title>Node7</title>
<g id="a_node8"><a xlink:href="class_slicer_p_r_i_s_m_1_1_resources_1_1_shaders_1_1_sphere_carving_shader_1_1_sphere_carving_shader.html" target="_top" xlink:title=" ">
<polygon fill="none" stroke="black" points="123,-0.5 123,-19.5 233,-19.5 233,-0.5 123,-0.5"/>
<text text-anchor="middle" x="178" y="-7.5" font-family="Helvetica,sans-Serif" font-size="10.00">SphereCarvingShader</text>
</a>
</g>
</g>
<!-- Node0&#45;&gt;Node7 -->
<g id="edge7" class="edge"><title>Node0&#45;&gt;Node7</title>
<path fill="none" stroke="midnightblue" d="M51.5493,-105.576C64.1365,-84.167 87.6573,-49.2028 117,-29 122.58,-25.1583 128.976,-22.0629 135.466,-19.5778"/>
<polygon fill="midnightblue" stroke="midnightblue" points="48.4565,-103.934 46.5538,-114.357 54.5408,-107.396 48.4565,-103.934"/>
</g>
</g>
</svg>
